<svg height="144" viewBox="0 0 144 144" width="144" xmlns="http://www.w3.org/2000/svg"><path d="m97.44 89.4171429c-3.8627657 0-6.9942857-3.13152-6.9942857-6.9942858 0-3.8627657 3.13152-6.9942857 6.9942857-6.9942857 3.862766 0 6.994286 3.13152 6.994286 6.9942857 0 3.8627658-3.13152 6.9942858-6.994286 6.9942858zm-10.9028571-.2742858h1.3714285v-34.2857142h-1.3714285zm-9.5314286.2742858c-3.8629029 0-6.9942857-3.13152-6.9942857-6.9942858 0-3.8627657 3.1313828-6.9942857 6.9942857-6.9942857 3.8627657 0 6.9942857 3.13152 6.9942857 6.9942857 0 3.8627658-3.13152 6.9942858-6.9942857 6.9942858zm-41.2114286-.2742858 17.0742857-34.4914285 17.2114286 34.4914285zm61.6457143-34.56c3.862766 0 6.994286 3.1313829 6.994286 6.9942858 0 3.8629028-3.13152 6.9942857-6.994286 6.9942857-3.8627657 0-6.9942857-3.1313829-6.9942857-6.9942857 0-3.8629029 3.13152-6.9942858 6.9942857-6.9942858zm-25.44-30.5828571c-26.5097143 0-48 21.4902857-48 48s21.4902857 48 48 48 48-21.4902857 48-48-21.4902857-48-48-48z" fill="#4a4a4a" fill-rule="evenodd"/></svg>