<svg height="926" viewBox="0 0 925 926" width="925" xmlns="http://www.w3.org/2000/svg"><g fill="none" fill-rule="evenodd" transform=""><g stroke="#fff"><path d="m462 2h461v461h-461z"/><path d="m462 463h461l-231.426071-460z"/><path d="m1 2h461v461h-461z"/><path d="m1 463h461l-231.426071-460z"/><path d="m691 462v-460"/><path d="m230 463v-461"/><path d="m737 464v-461"/><path d="m645 464v-461"/><path d="m276 464v-461"/><path d="m184 464v-461"/><path d="m462 463v461h461v-461"/><path d="m462 924h461l-231.426071-460z"/><path d="m1 463v461h461v-461"/><path d="m1 924h461l-231.426071-460z"/><path d="m691 923v-460"/><path d="m230 924v-461"/><path d="m737 924v-461"/><path d="m645 924v-461"/><path d="m276 924v-461"/><path d="m184 924v-461"/></g><path d="m830.749725 283.62917c35.577611-.020579 67.663466 21.392188 81.292692 54.251365s6.117049 70.691949-19.032846 95.853075c-25.149894 25.161126-62.983314 32.694202-95.854717 19.085794s-54.305563-45.677625-54.305569-81.250539c.056076-48.544509 39.400394-87.883626 87.95132-87.939695zm.05088-6.104803c-51.946208 0-94.056931 42.105156-94.056931 94.044498s42.110723 94.044497 94.056931 94.044497 94.056931-42.105155 94.056931-94.044497-42.110723-94.044498-94.056931-94.044498z" fill="#fff" fill-rule="nonzero"/><path d="m830.749725 7.03069869c35.577611-.02057903 67.663466 21.39218721 81.292692 54.25136471 13.629226 32.8591774 6.117049 70.6919486-19.032846 95.8530746-25.149894 25.161126-62.983314 32.694202-95.854717 19.085794-32.871403-13.608407-54.305563-45.677625-54.305569-81.250539.050422-48.5269988 39.367063-87.8611978 87.90044-87.93969431zm0-6.10480349c-51.946208 0-94.056931 42.1051559-94.056931 94.0444978 0 51.939342 42.110723 94.044498 94.056931 94.044498s94.056931-42.105156 94.056931-94.044498c0-24.9421516-9.909541-48.8627376-27.548638-66.4995021-17.639096-17.6367646-41.562844-27.5449957-66.508293-27.5449957z" fill="#fff" fill-rule="nonzero"/><path d="m554.10451 283.62917c48.574173 0 87.951321 39.371943 87.951321 87.939695s-39.377148 87.939694-87.951321 87.939694c-48.574172 0-87.95132-39.371942-87.95132-87.939694.056077-48.544509 39.400394-87.883626 87.95132-87.939695zm0-6.104803c-51.939575.028093-94.024773 42.14568-94.006044 94.078395.018729 51.932714 42.134293 94.019944 94.073875 94.010585 51.939583-.009359 94.039973-42.111765 94.03998-94.044482 0-24.942152-9.909541-48.862738-27.548637-66.499503-17.639096-17.636764-41.562844-27.544995-66.508293-27.544995z" fill="#fff" fill-rule="nonzero"/><path d="m230.456271 13.7154585 221.562431 443.9514845h-441.3644116zm0-13.7154585-229.63201357 463.771747h461.06518157l-231.45352-463.771747z" fill="#fff" fill-rule="nonzero"/><path d="m691.5011 462.856026v-461.01441028" stroke="#fff" stroke-width="6"/><g transform="matrix(-1 0 0 -1 925 926)"><g fill="#fff" fill-rule="nonzero"><path d="m830.749725 283.62917c35.577611-.020579 67.663466 21.392188 81.292692 54.251365s6.117049 70.691949-19.032846 95.853075c-25.149894 25.161126-62.983314 32.694202-95.854717 19.085794s-54.305563-45.677625-54.305569-81.250539c.056076-48.544509 39.400394-87.883626 87.95132-87.939695zm.05088-6.104803c-51.946208 0-94.056931 42.105156-94.056931 94.044498s42.110723 94.044497 94.056931 94.044497 94.056931-42.105155 94.056931-94.044497-42.110723-94.044498-94.056931-94.044498z"/><path d="m830.749725 7.03069869c35.577611-.02057903 67.663466 21.39218721 81.292692 54.25136471 13.629226 32.8591774 6.117049 70.6919486-19.032846 95.8530746-25.149894 25.161126-62.983314 32.694202-95.854717 19.085794-32.871403-13.608407-54.305563-45.677625-54.305569-81.250539.050422-48.5269988 39.367063-87.8611978 87.90044-87.93969431zm0-6.10480349c-51.946208 0-94.056931 42.1051559-94.056931 94.0444978 0 51.939342 42.110723 94.044498 94.056931 94.044498s94.056931-42.105156 94.056931-94.044498c0-24.9421516-9.909541-48.8627376-27.548638-66.4995021-17.639096-17.6367646-41.562844-27.5449957-66.508293-27.5449957z"/><path d="m554.10451 283.62917c48.574173 0 87.951321 39.371943 87.951321 87.939695s-39.377148 87.939694-87.951321 87.939694c-48.574172 0-87.95132-39.371942-87.95132-87.939694.056077-48.544509 39.400394-87.883626 87.95132-87.939695zm0-6.104803c-51.939575.028093-94.024773 42.14568-94.006044 94.078395.018729 51.932714 42.134293 94.019944 94.073875 94.010585 51.939583-.009359 94.039973-42.111765 94.03998-94.044482 0-24.942152-9.909541-48.862738-27.548637-66.499503-17.639096-17.636764-41.562844-27.544995-66.508293-27.544995z"/><path d="m230.456271 13.7154585 221.562431 443.9514845h-441.3644116zm0-13.7154585-229.63201357 463.771747h461.06518157l-231.45352-463.771747z"/></g><path d="m691.5011 462.856026v-461.01441028" stroke="#fff" stroke-width="6"/></g></g></svg>