<svg height="40" viewBox="0 0 40 40" width="40" xmlns="http://www.w3.org/2000/svg"><g fill="#4a4a4a" fill-opacity=".44" fill-rule="evenodd" transform=""><path d="m37.5622444 25.8106148c1.8499366-.6100636 2.8560425-2.5686887 2.271852-4.3988794-.6166456-1.8301907-2.5964022-2.8255576-4.4463388-2.2476026l-28.07359889 9.0546276c-1.72011646.6100636-2.69376729 2.4723628-2.17448685 4.2383363.55173547 1.8622993 2.53149215 2.9861006 4.3489737 2.376037.06491005 0 28.07359884-9.0225189 28.07359884-9.0225189"/><path d="m34.8327959 30.5071883c0-.0383325-3.1349593-9.7991457-5.7062436-17.7979643.0038608-.0012994.0080433-.0025988.0115824-.0038982-.8043307-2.5338418-1.5764882-4.90525779-2.1552845-6.72442622l-.0176953.00584732c-.6939765-2.1576637-1.1408626-3.54672874-1.1408626-3.54672874-.6109696-1.85165359-2.5738582-2.85869326-4.4077321-2.27396055-1.8335522.61721786-2.831244 2.59881205-2.2521259 4.45046564l9.0406768 28.06717015c.6112913 1.721713 2.4776602 2.6962675 4.2471877 2.1765051 1.8657254-.5522476 2.9917884-2.5338417 2.3804971-4.3530102"/><path d="m32.5599818 11.8243097c1.8516536-.6112903 2.8586933-2.57385386 2.2739606-4.40772473-.616893-1.83387087-2.5988121-2.83123924-4.4504656-2.25212213l-28.06717021 9.04066166c-1.72171298.6112903-2.69626751 2.4773344-2.17650509 4.2468589.55224756 1.866044 2.53384175 2.9921051 4.35301018 2.3808148.0649703 0 28.06717012-9.0084885 28.06717012-9.0084885"/><path d="m11.8243097 7.44001816c-.6112903-1.85165359-2.57385386-2.85869326-4.40772473-2.27396055-1.83387087.61721786-2.83123924 2.59881205-2.25212213 4.45046564l9.04066166 28.06717015c.6112903 1.721713 2.4773344 2.6962675 4.2468589 2.1765051 1.866044-.5522476 2.9921051-2.5338417 2.3808148-4.3530102 0-.0649703-9.0084885-28.06717014-9.0084885-28.06717014"/></g></svg>