<?xml version="1.0" encoding="UTF-8"?>
<svg width="450px" height="300px" viewBox="0 0 450 300" version="1.1" xmlns="http://www.w3.org/2000/svg" xmlns:xlink="http://www.w3.org/1999/xlink">
    <!-- Generator: Sketch 50.2 (55047) - http://www.bohemiancoding.com/sketch -->
    <title>adobe-logo</title>
    <desc>Created with Sketch.</desc>
    <defs></defs>
    <g id="adobe-logo" stroke="none" stroke-width="1" fill="none" fill-rule="evenodd">
        <path d="M289,82 L289.927946,82 C291.0633,82 292,81.5978132 292,80.5374376 C292,79.7323508 291.449158,79 289.996633,79 C289.546128,79 289.23367,79 289,79.0342287 L289,82 Z M288.455938,87 L287,87 L287,78.2472678 C287.678556,78.1400273 288.352707,78 289.41838,78 C290.711288,78 291.513848,78.2821038 292.029375,78.7035519 C292.484473,79.0881148 292.742551,79.6830601 292.742551,80.5211749 C292.742551,81.6468579 292.059589,82.3743169 291.200378,82.6256831 L291.200378,82.693306 C291.904742,82.8353825 292.356064,83.5321038 292.514687,84.8306011 C292.708561,86.1980874 292.870961,86.7206284 293,87 L291.513848,87 C291.320604,86.7206284 291.161351,85.9166667 290.998951,84.7629781 C290.839698,83.7096995 290.294587,83.2909836 289.293747,83.2909836 L288.456567,83.2909836 L288.456567,87 L288.455938,87 Z M290.000327,76 C286.681122,76 284,78.8885302 284,82.5022428 C284,86.1159554 286.681122,88.9997415 290.031708,88.9997415 C293.350259,89.0315953 296,86.1159554 296,82.5022428 C296,78.8885302 293.350259,76 290.031708,76 L290.000327,76 Z M290.566665,74 C294.697958,74 298,77.3323217 298,81.4697594 C298,85.665077 294.697958,89 290.535446,89 C286.372935,89 283,85.665077 283,81.4697594 C283,77.3323217 286.372935,74 290.535446,74 L290.566665,74 Z M179,212 L177.790078,204.19322 C177.44105,201.943658 176.992931,198.434232 176.661575,196 L176.527771,196 C176.170538,198.4527 175.675082,202.066772 175.309013,204.211687 L174,212 L179,212 Z M173.756478,216.590296 L172.099748,225 L166,225 L173.607366,190 L181.085413,190 L188,225 L181.863304,225 L180.247481,216.590296 L173.756478,216.590296 Z M202,209.910211 C202,209.427485 202,208.87133 201.916372,208.365487 C201.67964,206.591637 200.784175,205 199.357993,205 C196.904471,205 196,208.744189 196,213.115922 C196,218.135597 197.285944,221 199.269862,221 C200.178836,221 201.222901,220.504356 201.789,218.400076 C201.929238,217.977861 201.999357,217.416946 201.999357,216.760167 L201.999357,209.910211 L202,209.910211 Z M208.792165,189 L208.792165,218.190047 C208.792165,220.510498 208.915007,223.356756 209,225.582468 L203.563745,225.582468 L203.205843,222.608311 L203.074369,222.608311 C202.164011,224.436791 200.175963,226 197.797477,226 C192.582337,226 190,220.138306 190,212.739118 C190,203.719877 193.85591,199.330712 198.055777,199.330712 C200.253652,199.330712 201.670651,200.431725 202.390438,202.017942 L202.49004,202.017942 L202.49004,189 L208.792165,189 Z M222.154646,221 C224.432441,221 225,216.328798 225,212.462362 C225,208.785484 224.433071,204 222.055748,204 C219.528504,204 219,208.785484 219,212.462362 C219,216.900209 219.670236,221 222.107402,221 L222.154646,221 Z M221.488328,226 C215.659002,226 212,221.363952 212,213.076201 C212,204.025781 216.691473,200 221.629726,200 C227.381683,200 231,204.861681 231,212.923139 C231,223.290416 225.34342,226 221.54302,226 L221.488328,226 Z M241,216.63692 C241,217.279449 241.109358,217.884583 241.24046,218.291178 C241.846728,220.464219 242.876999,221 243.709657,221 C246.052867,221 247,217.836308 247,212.779024 C247,208.175931 245.996589,205 243.683436,205 C242.531656,205 241.563419,206.331294 241.22703,207.760496 C241.108719,208.203808 241,208.90889 241,209.390957 L241,216.63692 Z M235.208748,189 L241.497681,189 L241.497681,202.454176 L241.597084,202.454176 C242.836315,200.468735 244.486415,199.3312 246.878728,199.3312 C251.621604,199.3312 254,204.839549 254,212.032884 C254,221.130457 250.45063,226 245.85222,226 C243.658714,226 242.193506,225.007279 240.882704,222.490627 L240.747515,222.490627 L240.394964,225.581799 L235,225.581799 C235.08615,223.434625 235.208085,220.509922 235.208085,218.189513 L235.208085,189 L235.208748,189 Z M268.999327,210 C269.029541,206.468534 268.041927,204 266.152306,204 C263.987613,204 263.06924,207.311367 263,210 L268.999327,210 Z M263.041418,215.12472 C263.112702,219.690748 265.48663,221.182291 268.431478,221.182291 C270.296614,221.182291 271.90343,220.764367 273.084508,220.308029 L273.915056,224.82902 C272.273579,225.552272 269.730272,226 267.29814,226 C260.632176,226 257,221.394895 257,213.52257 C257,205.072702 261.216175,200 266.731798,200 C272.050574,200 275,204.482576 275,211.803189 C275,213.479519 274.932641,214.41935 274.825389,215.155849 L263.041418,215.12472 Z M235,74 L276,74 L276,171 L235,74 Z M165,171 L165,74 L206,74 L165,171 Z M219.905463,110 L246,172 L228.90002,172 L221.093449,152.253749 L202,152.253749 L219.905463,110 Z" id="Shape" fill="#DADADA" fill-rule="nonzero"></path>
        <rect id="Rectangle" fill-opacity="0" fill="#FFFFFF" x="0" y="0" width="450" height="300"></rect>
    </g>
</svg>