<?xml version="1.0" encoding="UTF-8"?>
<svg width="450px" height="300px" viewBox="0 0 450 300" version="1.1" xmlns="http://www.w3.org/2000/svg" xmlns:xlink="http://www.w3.org/1999/xlink">
    <!-- Generator: Sketch 50.2 (55047) - http://www.bohemiancoding.com/sketch -->
    <title>babies-logo</title>
    <desc>Created with Sketch.</desc>
    <defs></defs>
    <g id="babies-logo" stroke="none" stroke-width="1" fill="none" fill-rule="evenodd">
        <g id="Group" transform="translate(49.000000, 112.833333)" fill="#DADADA" fill-rule="nonzero">
            <path d="M182.165565,20.841518 C177.993513,23.6712164 175.376273,27.2696125 175.394687,32.9099113 C175.468345,39.7987469 187.109419,44.9432915 187.109419,44.9432915 C193.394318,48.0578696 190.495258,52.4727085 186.071009,51.671385 C182.165565,50.9400878 179.06715,49.143277 176.507555,47.3297554 C175.628469,46.670076 174.070455,47.1316129 174.017614,48.9841264 C174.017614,50.0170141 174,52.7766862 174,52.7766862 C174,53.5955163 174.573247,54.4501552 175.377073,55.2140783 C177.401852,57.172427 182.18478,61 192.301466,61 C199.698432,61 207.974483,57.9554482 208.940036,48.5926158 C209.477255,43.8761865 206.486924,38.1801849 196.637646,34.013621 C193.181352,32.5558011 191.640151,30.9531542 192.660946,28.6916235 C193.556044,26.5741242 197.084394,26.216831 200.238053,27.6770381 C203.854472,29.3146983 206.953688,23.6537099 203.728774,21.4996059 C196.331007,16.6940522 187.539354,17.1929895 182.165565,20.841518" id="Shape"></path>
            <path d="M323.135752,20.841518 C318.978974,23.6712164 316.363167,27.2696125 316.379185,32.9099113 C316.451268,39.7987469 328.097455,44.9432915 328.097455,44.9432915 C334.350243,48.0578696 331.483748,52.4727085 327.023421,51.671385 C323.115729,50.9400878 320.052207,49.143277 317.472442,47.3297554 C316.594633,46.670076 315.019222,47.1316129 315,48.9841264 L315,52.7766862 C315,53.5955163 315.538219,54.4501552 316.362366,55.2140783 C318.386293,57.172427 323.153372,61 333.293829,61 C340.710354,61 348.915786,57.9554482 349.93696,48.5926158 C350.491998,43.8761865 347.463717,38.1801849 337.593171,34.013621 C334.170036,32.5558011 332.628264,30.9531542 333.615799,28.6916235 C334.547269,26.5741242 338.040885,26.216831 341.21173,27.6770381 C344.831891,29.3146983 347.965894,23.6537099 344.725369,21.4996059 C337.326464,16.6940522 328.509129,17.1929895 323.135752,20.841518" id="Shape"></path>
            <path d="M131.452376,59.9382779 C125.881609,60.3134796 122.900253,58.9759772 122.539631,55.9831264 C121.425638,46.4126953 122.288239,35.5254737 122.880977,32.3892337 C123.061689,31.1425444 123.383759,26.776344 130.356053,27.0089531 C134.130136,27.1324271 136.213551,27.8804406 137.219116,28.9686052 C137.829523,29.6273988 138.027906,30.5530556 137.937148,31.8531175 C137.597408,35.3645591 137.434365,47.4108433 138.853562,53.647476 C139.178041,55.127571 138.961186,56.3925822 138.223879,57.3532897 C137.471311,58.387285 135.656956,59.6538894 131.452376,59.9382779" id="Shape"></path>
            <path d="M125,19.4911472 C125,18.2670471 125.528117,17.0606526 126.514262,16.0884548 C127.861451,14.7573164 129.868786,14 132,14 C134.114099,14 136.157294,14.7573164 137.469438,16.0884548 C138.436023,17.0606526 139,18.2670471 139,19.4911472 C139,22.5526046 135.846781,25 132,25 C129.868786,25 127.861451,24.2434884 126.514262,22.9300556 C125.528117,21.920837 125,20.7683641 125,19.4911472" id="Shape"></path>
            <path d="M171.66537,21.2706034 C171.21862,20.1720458 170.141447,18.6299466 166.444731,18.1523473 C162.589205,17.7095978 153.132059,18.2592726 148.700651,19.4457464 C143.766349,20.7930041 143.191268,24.3001511 142.726873,27.0817908 C142.187885,30.3434058 141.272729,42.4077381 143.014012,52.4357391 C143.551395,55.4993445 145.148306,57.2188604 148.646913,58.4940425 C152.845722,60.0535666 165.117313,60.5501748 167.91652,59.2726165 C169.765279,58.5486932 170.051616,57.2180683 170.195988,56.9361026 C170.768662,55.8185361 171.558696,52.9307633 171.558696,50.4342575 C171.558696,49.8481489 171.360586,49.4038153 170.966772,49.1218495 C170.284215,48.5729668 169.154908,48.5729668 168.596671,48.6965248 C166.892283,49.050566 163.269356,49.069575 159.393779,49.050566 C159.393779,49.050566 158.26367,49.0862078 157.742328,48.4676256 C157.473636,48.147642 157.276328,47.6336089 157.312421,47.1552176 L157.455188,45.4372858 C157.527374,44.5517867 158.280513,43.8579608 159.214117,43.8959787 C162.371846,43.9141956 168.811624,43.3470959 169.154106,43.2932373 C169.638553,43.2575956 170.481523,42.4956544 170.641134,41.6632218 C170.803151,41.0232546 170.965168,39.0938485 170.999657,37.5176917 C171.018906,36.1165753 169.225489,35.8171847 169.170949,35.8171847 C168.631961,35.7292685 163.841228,34.9847521 160.235947,34.6465517 C159.733855,34.5760602 159.302344,34.3265681 159.03285,33.956686 C158.71042,33.5852199 158.603745,33.0870276 158.691972,32.6094283 C158.764158,32.1825195 158.836344,31.7057123 158.924571,31.1394046 C159.068141,30.30618 159.82128,29.6329472 160.755685,29.7034386 C162.836241,29.8111559 166.694975,30.0067894 169.116409,30.2016309 C172.167463,30.4313221 172.667951,29.2432642 172.956695,27.7383908 C173.226189,26.3024248 172.169869,22.4578693 171.66537,21.2706034" id="Shape"></path>
            <path d="M276.000872,45.9223935 C276.127077,32.5611545 282.040345,22.1927949 282.719296,20.9981917 C284.078797,18.7164995 285.720262,18.7714512 287.310606,19.3058371 C289.206079,19.9302164 292.652756,20.9440363 293.905222,21.5317811 C295.049055,22.0836878 295.601003,23.6876417 294.886906,25.4349481 C294.045805,27.429139 290.169391,34.714626 289.687735,41.5397924 C289.416953,46.1692781 294.208753,51.228821 299.924726,43.3006376 C305.697411,35.3915678 304.748477,24.2403448 304.748477,22.7789469 C304.748477,21.3000281 305.266876,19.8219057 307.215067,19.5718354 C309.16246,19.3058371 311.32552,19.1800055 312.00527,19.1800055 C313.684277,19.1800055 314.701107,20.0894968 314.864055,21.8511384 C315.452746,28.6038322 314.684333,48.771124 301.050188,57.6964029 C289.13419,65.4461923 275.876264,58.765971 276.000872,45.9223935" id="Shape"></path>
            <path d="M107.428841,48.5837908 C105.527312,50.5301248 101.241659,50.6007294 96.6329374,50.4422613 C96.6329374,50.4422613 96.2737954,50.4767791 95.9683645,50.4242179 C95.7535206,50.3724412 95.771157,50.1810242 95.771157,50.1810242 L95.771157,49.5306772 L96.1118609,42.4411888 C96.1118609,42.4411888 96.1471338,42.0716913 96.1471338,41.8787053 C96.1471338,41.7210217 96.3451428,41.7037628 96.3451428,41.7037628 L96.8830541,41.6323737 C97.1516089,41.5798125 104.19977,40.7027462 107.12341,42.9840599 C107.876165,43.5810612 108.359564,44.3875229 108.450952,45.3524527 C108.594449,46.6531467 108.234505,47.7749756 107.428841,48.5837908 M95.7543223,26.6979275 C95.7543223,26.5771152 95.7719587,26.4884671 95.8441078,26.4539493 C95.9515297,26.3825602 96.3996555,26.329999 96.4726062,26.3135246 C96.7571941,26.2437045 103.32356,24.9979252 105.940165,26.8038344 C106.622375,27.2611955 107.015988,27.8919301 107.125013,28.6120972 C107.287749,29.5935014 106.982318,30.5584312 106.22796,31.3680309 C104.558912,33.1919836 101.063691,34.1930002 96.81331,34.0510065 C96.81331,34.0510065 96.3828207,34.0337475 96.1848116,34.0337475 C95.9691661,34.0337475 95.9691661,33.8078128 95.9691661,33.8078128 L95.9523313,33.2108115 L95.7543223,27.1709785 C95.7543223,27.1709785 95.7182477,26.9089569 95.7543223,26.6979275 M120.986449,46.3534693 C120.716291,39.9496302 114.942764,37.9122947 111.553362,36.7379045 C111.158947,36.6163077 110.584961,36.4923573 110.243455,36.3511481 C109.830603,36.2107233 109.849041,36.088342 110.26029,35.9133994 C110.637069,35.7015856 111.372989,35.3501315 111.372989,35.3501315 C112.986723,34.6142744 118.187066,31.5947502 117.272377,25.7165233 C116.178918,18.6976395 106.943037,17.3812556 104.128422,17.1184495 L104.07391,17.1184495 C101.044451,16.8360311 92.9196661,16.9246791 87.1822131,18.9070999 C84.4028712,19.8547708 83.883398,21.9799699 83.5242561,23.538763 L83.379958,24.013383 C81.0126674,33.0688177 81.7854639,48.4943583 84.9760554,56.3738339 C84.9944935,56.3910928 84.9944935,56.4256106 84.9944935,56.4444385 L85.0297663,56.4797408 C85.0474028,56.532302 85.4241812,57.8996782 87.3072714,58.3570392 C104.666334,62.3242344 113.076508,58.21583 116.554894,55.3916452 C119.569121,52.9510788 121.165219,49.7409221 120.986449,46.3534693" id="Shape"></path>
            <path d="M25.4267239,48.5837908 C23.5245707,50.5301248 19.2499427,50.6007294 14.6366192,50.4422613 C14.6366192,50.4422613 14.2786612,50.4767791 13.9736746,50.4242179 C13.7577762,50.3724412 13.7577762,50.1810242 13.7577762,50.1810242 L13.7746307,49.5306772 L14.1165368,42.4411888 C14.1165368,42.4411888 14.1349965,42.0716913 14.1349965,41.8787053 C14.1349965,41.7210217 14.3316326,41.7037628 14.3316326,41.7037628 L14.8709773,41.6323737 C15.1759639,41.5798125 22.1778141,40.7027462 25.1040802,42.9840599 C25.9122947,43.5810612 26.3617486,44.3875229 26.4516394,45.3524527 C26.5768444,46.6531467 26.2164787,47.7749756 25.4267239,48.5837908 M13.7577762,26.6979275 C13.7577762,26.5771152 13.7746307,26.4884671 13.8284047,26.4539493 C13.9736746,26.3825602 14.3870117,26.329999 14.4752973,26.3135246 C14.7449697,26.2437045 21.3511399,24.9979252 23.9563675,26.8038344 C24.6209172,27.2611955 25.0326491,27.8919301 25.1233425,28.6120972 C25.3031241,29.5935014 24.9788752,30.5584312 24.2260398,31.3680309 C22.573494,33.1919836 19.0541092,34.1930002 14.8003488,34.0510065 C14.8003488,34.0510065 14.3878143,34.0337475 14.1887704,34.0337475 C13.9736746,34.0337475 13.9736746,33.8078128 13.9736746,33.8078128 C13.9736746,33.8078128 13.7048048,26.9089569 13.7577762,26.6979275 M38.9833781,46.3534693 C38.7313629,39.9496302 32.9510643,37.9122947 29.5753442,36.7379045 C29.198124,36.6163077 28.5881508,36.4923573 28.2454421,36.3511481 C27.8345128,36.2107233 27.8690245,36.088342 28.2639019,35.9133994 C28.6411221,35.7015856 29.4140224,35.3501315 29.4140224,35.3501315 C31.0288461,34.6142744 36.1815144,31.5947502 35.2665546,25.7165233 C34.2079301,18.6976395 24.9435609,17.3812556 22.1248427,17.1184495 L22.0718713,17.1184495 C19.0380573,16.8360311 10.9214009,16.9246791 5.19407361,18.9070999 C2.37535538,19.8547708 1.87373268,21.9799699 1.4780527,23.538763 L1.35204508,24.013383 C-0.963445262,33.0688177 -0.227464448,48.4943583 2.96767145,56.3738339 C2.98532857,56.3910928 3.00459088,56.4256106 3.00459088,56.4444385 L3.00459088,56.4797408 C3.0230506,56.532302 3.38100855,57.8996782 5.30242411,58.3570392 C22.6995017,62.3242344 31.1203421,58.21583 34.5674933,55.3916452 C37.6005047,52.9510788 39.1816194,49.7409221 38.9833781,46.3534693" id="Shape"></path>
            <path d="M64.7276275,46.37737 C62.0838284,46.7284489 58.2071492,46.7801703 55.4751185,46.5529094 C55.175761,46.533318 55.2285425,46.3068408 55.2821117,46.0960367 C55.3876746,45.9197136 59.7756248,35.9468798 59.8993067,35.6655465 C60.057651,35.2956598 60.1632139,35.279203 60.2868958,35.6655465 C60.3562207,35.806605 64.9734157,45.9197136 64.95766,45.9197136 C65.0080781,46.0247238 65.13176,46.3413217 64.7276275,46.37737 M80.7637341,51.7399428 C80.6920458,51.5463793 80.6400522,51.3700562 80.6053897,51.1796273 C77.6259952,39.891815 70.7005966,26.0069595 66.9641428,20.2039708 C65.6611501,18.1711615 64.9206342,17.8020585 59.4219103,18.0826081 C54.2950199,18.3631578 52.6721873,20.4492558 51.0517181,23.2030306 C44.1263195,34.0355375 38.3124825,53.6160205 38.2762445,53.8268246 C37.5877223,56.1942559 37.712192,56.8783895 44.3910145,59.0514736 C47.2632706,60.0145895 49.1673416,60.1893452 50.1883081,59.5945487 C50.8405923,59.1893974 51.0871683,58.4707829 51.2447249,57.5084506 C51.3684068,57.0343374 51.6331018,56.1072698 52.0908036,54.7734836 L52.2144855,54.4224048 C52.2144855,54.4224048 52.2838104,54.2656731 52.4445181,54.2985868 C52.6383126,54.3158273 52.8139882,54.369116 52.8139882,54.369116 C56.5157796,54.9662635 62.0129279,54.527415 66.542679,53.266509 C66.542679,53.266509 66.7538048,53.2132202 66.9483872,53.1607151 C67.1232749,53.0917532 67.2115066,53.2994226 67.2115066,53.2994226 L67.3351885,53.6865497 C68.0764921,56.0720052 68.6216378,57.8407217 68.8146446,58.5601199 C68.972989,59.2426862 69.3267034,59.6478374 69.8537301,59.8586415 C70.7888283,60.2089367 72.7968867,60.0859024 77.0264925,57.3869836 C81.5570314,54.4568857 81.1859857,53.232028 80.7637341,51.7399428" id="Shape"></path>
            <path d="M351.045589,20.4006719 L351.341399,20.4006719 C351.722042,20.4006719 352.068752,20.2546012 352.068752,19.9281332 C352.068752,19.6988022 351.853349,19.438066 351.341399,19.438066 C351.210829,19.438066 351.128209,19.4541338 351.045589,19.4541338 L351.045589,20.4006719 Z M351.045589,21.9534034 L350.60003,21.9534034 L350.60003,19.1437336 C350.831661,19.1276658 351.045589,19.0780018 351.391561,19.0780018 C351.822366,19.0780018 352.084981,19.1926673 352.267926,19.3073327 C352.432428,19.438066 352.548244,19.6330704 352.548244,19.8624014 C352.548244,20.2546012 352.283417,20.4832019 351.986869,20.5642711 L351.986869,20.5810692 C352.217026,20.6292726 352.399233,20.8578732 352.432428,21.2508034 C352.49882,21.7072743 352.58144,21.8540754 352.631602,21.9526731 L352.135881,21.9526731 C352.086456,21.8540754 352.036294,21.5933392 351.938182,21.2340053 C351.905724,20.8746713 351.690322,20.7600058 351.342136,20.7600058 L351.046326,20.7600058 L351.046326,21.9534034 L351.045589,21.9534034 Z M351.508114,18.3936605 C350.401593,18.3936605 349.494984,19.3234005 349.494984,20.4992696 C349.494984,21.6919369 350.401593,22.6078002 351.508114,22.6078002 C352.630127,22.6078002 353.520508,21.6919369 353.520508,20.4992696 C353.51977,19.3226702 352.630127,18.3936605 351.508114,18.3936605 Z M351.508114,18 C352.909708,18 354,19.111598 354,20.4992696 C354,21.9044698 352.909708,23 351.508114,23 C350.15447,23 349,21.9044698 349,20.4992696 C349,19.111598 350.15447,18 351.508114,18 Z" id="Shape"></path>
            <path d="M256.324059,25.2607289 C256.324059,25.2607289 250.648184,29.1700405 250.523284,29.2947635 C250.047395,29.6514554 249.37546,30.1122156 249.286923,31.9083858 C249.233959,32.6710233 249.039493,38.0015418 249.039493,38.6593166 C249.039493,39.3885888 248.684553,41.4151391 246.386535,39.3711116 C246.386535,39.3711116 242.513818,35.9781691 241.947811,35.4610056 C241.8071,35.3553485 240.498013,33.8451673 238.411852,34.7333223 L232.382618,37.1507243 C232.382618,37.1507243 228.722548,38.6593166 230.064047,35.3720312 C231.373925,32.1578319 232.275108,29.5076665 232.558112,28.6552602 C232.857716,27.7671053 232.735186,26.4880986 232.011077,25.6174208 C231.692501,25.2257746 228.792113,21.3522116 228.103577,20.391765 C228.103577,20.391765 225.69805,17.5302855 229.693297,17.76146 C229.693297,17.76146 236.501975,17.9028657 236.608694,17.9219316 C236.732805,17.9219316 238.006319,17.9926345 238.889321,16.5706333 C240.022124,14.8110061 243.311444,10.6721088 242.621327,11.5419922 C243.169152,10.8309916 244.530413,8.99986718 245.396814,12.0051356 C245.396814,12.0051356 246.653728,15.9486071 247.272699,17.6017828 C247.643449,18.7377949 247.943053,19.4853385 249.942257,20.142319 L256.166748,22.4175209 C256.165167,22.4175209 259.101128,23.3056758 256.324059,25.2607289 M268.04814,7.77408626 C252.008655,-0.541840269 236.166008,-1.41331251 226.333621,1.55461847 C208.121019,7.04560855 202.495737,30.3076415 219.331268,41.6987449 C220.357352,42.3739968 219.737591,43.8142696 218.447475,46.1228369 C216.855385,49.0192706 213.938396,54.6882094 208.756591,58.7937413 C205.625374,61.2627803 203.608778,62.2764526 206.157388,65.3150865 C206.157388,65.3150865 211.868045,71.7490461 216.078311,73.5968532 C221.169998,75.8529892 222.442722,75.461343 226.226902,71.8904518 C228.579466,69.6359046 233.337556,63.5570481 239.013431,53.8008489 C241.947811,48.770619 245.875865,48.6649619 245.34306,56.9999544 C245.34306,56.9999544 244.565986,64.9941432 244.371521,66.6497021 C243.716977,71.4281028 244.227647,73.0820729 248.490878,73.1345042 C248.490878,73.1345042 257.633147,72.6364066 260.797566,72.174852 C265.255262,71.5703029 265.024433,70.8418252 266.192019,67.288411 C272.416509,48.3996276 272.964334,15.9668786 272.964334,15.9668786 C273.247337,11.6126951 271.867894,9.74741082 268.04814,7.77408626" id="Shape"></path>
        </g>
        <rect id="Rectangle" fill-opacity="0" fill="#FFFFFF" x="0" y="0" width="450" height="300"></rect>
    </g>
</svg>