<?xml version="1.0" encoding="UTF-8"?>
<svg width="450px" height="300px" viewBox="0 0 450 300" version="1.1" xmlns="http://www.w3.org/2000/svg" xmlns:xlink="http://www.w3.org/1999/xlink">
    <!-- Generator: Sketch 50.2 (55047) - http://www.bohemiancoding.com/sketch -->
    <title>bn-logo</title>
    <desc>Created with Sketch.</desc>
    <defs></defs>
    <g id="bn-logo" stroke="none" stroke-width="1" fill="none" fill-rule="evenodd">
        <g id="Group" transform="translate(56.000000, 125.000000)" fill="#DADADA" fill-rule="nonzero">
            <path d="M338.75,41.5185668 L338.75,48.6855049 L320.0057,48.6855049 L320.0057,1.27345277 L337.426873,1.27345277 L337.426873,8.44039088 L328.275244,8.44039088 L328.275244,21.1203583 L336.434528,21.1203583 L336.434528,27.7359935 L328.164984,27.7359935 L328.164984,41.5185668 L338.75,41.5185668 Z M296.299674,1.16319218 L305.120521,1.16319218 L305.120521,41.5185668 L315.043974,41.5185668 L315.043974,48.6855049 L296.299674,48.6855049 L296.299674,1.16319218 Z M290.235342,35.1234528 C290.235342,45.0469055 285.824919,48.6855049 278.106678,48.6855049 L267.521661,48.6855049 L267.521661,1.27345277 L278.216938,1.27345277 C286.707003,1.27345277 288.912215,6.12491857 288.912215,14.1739414 C288.912215,20.128013 286.707003,23.2153094 283.068404,23.4358306 C287.148046,23.4358306 290.345603,27.5154723 290.345603,35.1234528 L290.235342,35.1234528 Z M277.445114,6.78648208 L275.901466,6.78648208 L275.901466,20.5690554 L278.106678,20.5690554 C280.311889,20.5690554 280.642671,18.3638436 280.642671,14.3944625 C280.642671,8.88143322 279.981107,6.6762215 277.334853,6.6762215 L277.445114,6.78648208 Z M277.775896,26.1923453 L275.901466,26.1923453 L275.901466,43.062215 L278.106678,43.062215 C280.642671,43.062215 281.414495,41.5185668 281.414495,34.2413681 C281.414495,29.0591205 280.642671,26.3026059 277.775896,26.3026059 L277.775896,26.1923453 Z M249.769707,49.5675896 C242.382248,49.5675896 238.523127,46.4802932 238.523127,25.0897394 C238.523127,4.36074919 241.830945,0.832410423 249.879967,0.832410423 C258.149511,0.832410423 261.236808,4.36074919 261.236808,25.0897394 C261.236808,45.3776873 257.92899,49.5675896 249.879967,49.5675896 L249.769707,49.5675896 Z M251.974919,9.65325733 C251.644137,6.34543974 250.872313,5.57361564 249.769707,5.57361564 C248.44658,5.57361564 247.785016,6.23517915 247.564495,9.65325733 C247.343974,12.9610749 247.343974,17.7022801 247.343974,25.0897394 C247.343974,33.9105863 247.343974,37.2184039 247.674756,40.3057003 C247.895277,43.9442997 248.55684,44.2750814 249.879967,44.2750814 C251.313355,44.2750814 251.754397,44.2750814 252.085179,40.3057003 L252.085179,9.54299674 L251.974919,9.65325733 Z M219.999349,31.1540717 C219.227524,28.9488599 218.676221,26.3026059 218.014658,22.9947883 C218.4557,29.3899023 218.4557,31.1540717 218.4557,36.7773616 L218.4557,48.9060261 L210.406678,48.9060261 L210.406678,1.49397394 L218.34544,1.49397394 C218.34544,1.49397394 221.873779,15.4970684 222.755863,18.3638436 C223.527687,21.3408795 224.189251,23.6563518 224.409772,25.8615635 C224.189251,21.1203583 224.189251,15.4970684 224.189251,10.7558632 L224.189251,1.16319218 L231.907492,1.16319218 L231.907492,48.5752443 L225.181596,48.5752443 L219.889088,30.9335505 L219.999349,31.1540717 Z M159.025244,36.2260586 C159.025244,43.9442997 155.717427,49.457329 148.219707,49.457329 C141.824593,49.457329 137.52443,46.1495114 137.52443,37.8799674 C137.52443,36.0055375 137.52443,34.2413681 137.965472,32.8079805 L145.683713,32.8079805 C145.352932,34.5721498 145.13241,35.6747557 145.13241,37.7697068 C145.13241,43.062215 146.455537,43.9442997 148.440228,43.9442997 C149.873616,43.9442997 150.976221,43.1724756 150.976221,37.8799674 C150.976221,33.2490228 147.668404,29.8309446 144.360586,25.7513029 C140.832248,21.7819218 137.193648,16.4894137 137.193648,12.0789902 C137.193648,5.0223127 140.501466,1.0529316 147.337622,1.0529316 C153.953257,1.0529316 157.591857,4.58127036 157.591857,11.5276873 C157.591857,13.0713355 157.150814,14.284202 156.930293,15.3868078 L149.873616,15.3868078 L150.094137,12.0789902 C150.094137,7.66856678 149.432573,6.01465798 147.558143,6.01465798 C145.573453,6.01465798 145.352932,7.88908795 145.352932,11.3071661 C145.352932,15.7175896 148.660749,19.0254072 151.637785,22.5537459 C155.607166,27.6257329 158.914984,31.595114 158.914984,36.5568404 L159.025244,36.2260586 Z M113.818404,1.27345277 L131.460098,1.27345277 L131.460098,8.44039088 L122.308469,8.44039088 L122.308469,21.1203583 L130.467752,21.1203583 L130.467752,27.7359935 L122.41873,27.7359935 L122.41873,41.5185668 L132.893485,41.5185668 L132.893485,48.6855049 L114.149186,48.6855049 L114.149186,1.27345277 L113.818404,1.27345277 Z M93.9714984,31.0438111 C93.3099349,28.8385993 92.6483713,26.1923453 92.0970684,22.8845277 C92.5381107,29.2796417 92.5381107,31.0438111 92.5381107,36.667101 L92.5381107,48.7957655 L84.5993485,48.7957655 L84.5993485,1.38371336 L92.5381107,1.38371336 L96.9485342,18.2535831 C97.8306189,21.2306189 98.4921824,23.5460912 98.9332248,25.7513029 C98.7127036,21.0100977 98.4921824,15.3868078 98.4921824,10.6456026 L98.4921824,1.16319218 L106.210423,1.16319218 L106.210423,48.5752443 L99.2640065,48.5752443 L94.081759,30.9335505 L93.9714984,31.0438111 Z M70.3757329,24.4281759 C75.8887622,25.7513029 76.4400651,32.1464169 76.4400651,37.8799674 C76.4400651,42.2903909 76.7708469,46.3700326 77.3221498,48.6855049 L68.5013029,48.6855049 C68.5013029,46.7008143 67.95,45.9289902 67.95,41.4083062 L67.95,35.4542345 C67.95,31.595114 66.626873,28.8385993 63.8703583,28.0667752 L63.429316,28.0667752 L63.429316,48.4649837 L54.6084691,48.4649837 L54.6084691,1.0529316 L67.5089577,1.0529316 C73.3527687,1.0529316 77.4324104,4.36074919 77.4324104,13.1815961 C77.4324104,20.4587948 74.1245928,23.6563518 70.3757329,24.2076547 L70.3757329,24.4281759 Z M64.8627036,7.22752443 L63.3190554,7.22752443 L63.3190554,20.7895765 L65.8550489,20.7895765 C68.0602606,20.7895765 68.7218241,19.3561889 68.7218241,15.2765472 C68.7218241,8.10960912 67.6192182,7.11726384 64.8627036,7.22752443 Z M39.7232899,40.9672638 L34.2102606,40.9672638 L33.5486971,48.6855049 L26.1612378,48.6855049 L33.1076547,0.94267101 L41.4874593,0.94267101 L49.5364821,48.5752443 L40.7156352,48.5752443 L39.6130293,40.8570033 L39.7232899,40.9672638 Z M38.1796417,26.6333876 C37.9591205,24.4281759 37.0770358,17.481759 37.0770358,12.9610749 C36.7462541,17.7022801 35.97443,24.4281759 35.97443,26.523127 L34.8718241,35.6747557 L39.2822476,35.6747557 L38.1796417,26.6333876 Z M22.9636808,34.9029316 C22.9636808,44.8263844 18.5532573,48.4649837 10.8350163,48.4649837 L0.25,48.4649837 L0.25,1.0529316 L10.9452769,1.0529316 C19.3250814,1.0529316 21.5302932,5.90439739 21.5302932,13.9534202 C21.5302932,19.9074919 19.3250814,22.9947883 15.6864821,23.2153094 C19.7661238,23.2153094 22.9636808,27.2949511 22.9636808,34.9029316 Z M10.1734528,6.78648208 L8.51954397,6.78648208 L8.51954397,20.5690554 L10.7247557,20.5690554 C12.9299674,20.5690554 13.2607492,18.3638436 13.2607492,14.3944625 C13.2607492,8.88143322 12.7094463,6.6762215 9.9529316,6.6762215 L10.1734528,6.78648208 Z M10.3939739,26.0820847 L8.62980456,26.0820847 L8.62980456,42.9519544 L10.8350163,42.9519544 C13.3710098,42.9519544 14.1428339,41.4083062 14.1428339,34.1311075 C14.1428339,28.9488599 13.3710098,26.1923453 10.5042345,26.1923453 L10.3939739,26.0820847 Z" id="Shape"></path>
            <path d="M202.8,28.8 C202.6,30.2 201.8,31.3 200.2,31.3 C196.9,31.3 199.5,26.3 196.4,26.3 C194.6,26.3 193.4,27.9 191.4,32.1 L188.4,39.3 L189,40.6 C191,43.3 192.8,45.2 195,45.2 C196.2,45.2 197.5,44.6 199.5,42.6 L200.5,44 C198.3,46.7 195.5,48.2 193,48.2 C190,48.2 187.4,45.5 185.5,43.4 C182.7,46.4 179.5,48.2 175.1,48.2 C168.8,48.2 163.1,44.2 164.5,35.2 C165.7,29.8 169.8,26.2 174.5,23.2 C173.1,19.6 172.3,15.2 172.9,11.9 C174,5 180.2,1 185.5,1 C191.7,1 194.5,5.2 193.5,10 C193,12.5 191.9,14.8 189.3,17 C186.6,19.4 182.1,21.5 179.6,23 C181.2,27 183.6,31.5 187,37.3 C188,35.3 189.5,31.7 191,28.8 C192.3,25.8 194.4,24 197.5,24 C201.8,24 203,27 202.8,28.8 Z M169.3,36.3 C168.7,40 171,45 177,45 C180,45 182,44.2 184,41.7 C180.2,36.3 177.5,31.1 175.3,25.9 C172.3,28.5 170.1,31.4 169.3,36.3 Z M187.8,14.6 C189.1,12.9 189.5,11.6 189.8,10.2 C190.5,6.6 188.4,4.2 185.3,4.2 C181.3,4.2 178.3,7.5 178.1,10.6 C177.4,14 177.8,17.3 178.9,20.8 C181.3,19.4 186.3,16.3 187.9,14.6 L187.8,14.6 Z" id="Shape"></path>
        </g>
        <rect id="Rectangle" fill-opacity="0" fill="#FFFFFF" x="0" y="0" width="450" height="300"></rect>
    </g>
</svg>