<?xml version="1.0" encoding="UTF-8"?>
<svg width="450px" height="300px" viewBox="0 0 450 300" version="1.1" xmlns="http://www.w3.org/2000/svg" xmlns:xlink="http://www.w3.org/1999/xlink">
    <!-- Generator: Sketch 50.2 (55047) - http://www.bohemiancoding.com/sketch -->
    <title>bose-logo</title>
    <desc>Created with Sketch.</desc>
    <defs></defs>
    <g id="bose-logo" stroke="none" stroke-width="1" fill="none" fill-rule="evenodd">
        <path d="M283.112907,152.411201 C281.48683,155.204418 277.720019,161.770311 276.118868,164.559129 C274.517717,167.349414 271.545616,169.174902 268.198155,169.174902 C264.849227,169.174902 228.71189,169.174902 226.134213,169.174902 C223.558001,169.174902 221.527237,166.311305 223.052143,163.673511 C224.575583,161.034251 226.316028,158.019629 226.316028,158.019629 L248.823053,158.019629 C248.823053,158.019629 247.799606,159.749811 247.336269,160.588509 C246.875865,161.424275 247.413981,162.815751 248.692556,162.815751 C249.972597,162.815751 251.274632,162.815751 252.553207,162.815751 C253.833248,162.815751 255.009185,162.173531 255.720319,160.936012 C256.432919,159.699958 260.17627,153.220574 260.17627,153.220574 C260.17627,153.220574 237.997687,153.220574 235.345231,153.220574 C232.691308,153.220574 230.725059,150.380437 232.229437,147.805692 C233.732349,145.23388 237.905313,137.970049 239.386231,135.399703 C240.867149,132.830823 243.796728,130.8939 247.173515,130.8939 C250.551768,130.8939 286.43251,130.8939 289.306371,130.8939 C292.180232,130.8939 293.730064,134.043417 292.482281,136.209076 C291.233031,138.37327 289.104028,142.04624 289.104028,142.04624 L266.624862,142.04624 C266.624862,142.04624 267.786137,140.068261 268.184958,139.343931 C268.58378,138.622533 268.051529,137.242787 266.790549,137.242787 C265.529569,137.242787 264.258326,137.242787 262.918168,137.242787 C261.579477,137.242787 260.38008,137.999374 259.853694,138.906987 C259.328774,139.817531 255.268712,146.85116 255.268712,146.85116 C255.268712,146.85116 277.505946,146.85116 280.092421,146.85116 C282.681828,146.852626 284.738985,149.617984 283.112907,152.411201 Z M232.552014,136.297052 C231.144408,138.735435 217.635795,162.144206 216.156343,164.701356 C214.676891,167.25704 211.698926,169.174902 208.308943,169.174902 C204.91896,169.174902 168.803617,169.174902 166.214209,169.174902 C163.624802,169.174902 161.635093,166.296642 163.083753,163.787879 C164.530948,161.280582 177.86361,138.176791 179.498485,135.357182 C181.133361,132.539038 184.291675,130.8939 187.347352,130.8939 C190.400096,130.8939 226.587286,130.8939 229.371705,130.8939 C232.153192,130.8939 233.959619,133.85427 232.552014,136.297052 Z M206.902804,137.244253 C205.773787,137.244253 204.091991,137.244253 202.983502,137.244253 C201.875013,137.244253 200.565647,137.810227 199.873574,139.009625 C199.184434,140.207555 187.891333,159.76594 187.408935,160.598773 C186.928003,161.436005 187.502775,162.817218 188.756424,162.817218 C190.00714,162.817218 191.366359,162.817218 192.665461,162.817218 C193.963097,162.817218 195.174225,162.089955 195.794451,161.003459 C196.414677,159.916964 207.590477,140.546261 208.198974,139.509618 C208.803071,138.470043 208.03182,137.244253 206.902804,137.244253 Z M161.727467,155.176559 C160.595518,157.142808 157.965055,161.730722 156.286192,164.628043 C154.605863,167.522432 151.585377,169.176368 148.403602,169.176368 C145.220361,169.174902 60.95025,169.180767 60.95025,169.180767 L60.95025,162.821616 L103.605093,162.818684 L122.040325,130.8939 C122.040325,130.8939 166.737663,130.8939 169.516217,130.8939 C172.297704,130.8939 174.002959,133.923184 172.611483,136.320512 C171.221472,138.723705 168.806549,142.953852 167.28311,145.57845 C165.75967,148.203048 162.646809,150.037333 159.561807,150.037333 C161.661486,150.689817 162.859416,153.204446 161.727467,155.176559 Z M142.994585,153.222041 C141.811317,153.222041 131.629637,153.222041 131.629637,153.222041 L126.085725,162.818684 C126.085725,162.818684 136.921354,162.821616 138.000518,162.821616 C139.079682,162.821616 140.345061,162.333353 141.092851,161.040116 C141.840642,159.741013 143.743841,156.463932 144.303951,155.475676 C144.865527,154.487419 144.177853,153.222041 142.994585,153.222041 Z M152.204137,137.247185 C151.019402,137.247185 140.839189,137.247185 140.839189,137.247185 L135.295276,146.846761 C135.295276,146.846761 146.132372,146.846761 147.208604,146.846761 C148.287768,146.846761 149.554613,146.364363 150.302403,145.06526 C151.05166,143.76909 152.954859,140.492009 153.514969,139.50082 C154.073613,138.511098 153.387405,137.247185 152.204137,137.247185 Z M279.774243,169.174902 L333.335096,169.174902 L337.0066,162.818684 L305.920514,162.818684 L311.461494,153.222041 L342.54758,153.222041 L346.224949,146.852626 L315.138863,146.852626 L320.685708,137.24132 L379.025088,137.244253 L379.025088,130.8939 L301.870716,130.8939 L279.774243,169.174902 Z M383.133536,132.907069 L382.013317,130.8939 L381.403355,130.8939 L381.403355,134.377723 L381.961998,134.377723 L381.961998,131.734064 L382.966383,133.56835 L383.299223,133.56835 L384.312406,131.729665 L384.312406,134.379189 L384.871049,134.379189 L384.871049,130.8939 L384.266952,130.8939 L383.133536,132.907069 Z M388.31675,132.087432 L388.31675,133.194455 C388.31675,134.003828 387.680395,134.377723 386.917942,134.377723 L385.730275,134.377723 L385.730275,130.8939 L386.948733,130.8939 C387.719984,130.8939 388.31675,131.288322 388.31675,132.087432 Z M387.763972,132.122622 C387.763972,131.625561 387.382745,131.380696 386.947267,131.380696 L386.283053,131.380696 L386.283053,133.895325 L386.917942,133.895325 C387.369549,133.895325 387.763972,133.679785 387.763972,133.1534 L387.763972,132.122622 Z" id="Shape" fill="#DADADA" fill-rule="nonzero"></path>
        <rect id="Rectangle" fill-opacity="0" fill="#FFFFFF" x="0" y="0" width="450" height="300"></rect>
    </g>
</svg>