<?xml version="1.0" encoding="UTF-8"?>
<svg width="450px" height="300px" viewBox="0 0 450 300" version="1.1" xmlns="http://www.w3.org/2000/svg" xmlns:xlink="http://www.w3.org/1999/xlink">
    <!-- Generator: Sketch 50.2 (55047) - http://www.bohemiancoding.com/sketch -->
    <title>granger-logo</title>
    <desc>Created with Sketch.</desc>
    <defs></defs>
    <g id="granger-logo" stroke="none" stroke-width="1" fill="none" fill-rule="evenodd">
        <path d="M340.374785,114.43981 L338.18295,127.975396 L327.466233,127.975396 L328.168511,123.573613 L320.116691,123.573613 L319.107165,129.917113 L328.533585,129.917113 L326.851042,140.32101 L317.43786,140.32101 L316.167766,148.034232 L324.708674,148.034232 L325.559351,142.575548 L336.585406,142.575548 L334.12325,157.676631 L299.876014,157.676631 L301.450568,148.034232 L304.699304,148.034232 L308.701178,123.573613 L305.499818,123.573613 L306.985193,114.43981 L340.374785,114.43981 Z M233.298876,114.43981 L218.806713,114.43981 L217.347116,123.573613 L220.56032,123.573613 L216.561929,148.034232 L213.363356,148.034232 L211.815974,157.676631 L229.943544,157.676631 L231.493016,148.034232 L228.282599,148.034232 L230.619348,133.460555 L242.877177,157.676631 L252.559288,157.676631 L258.106454,123.573613 L261.320355,123.573613 L262.800156,114.43981 L244.800084,114.43981 L243.334216,123.573613 L246.527215,123.573613 L244.517918,135.919227 L233.298876,114.43981 Z M170.714554,157.676631 L172.274477,148.034232 L175.480017,148.034232 L175.027159,144.463619 L163.80951,144.463619 L162.201515,148.034232 L165.446767,148.034232 L163.856886,157.676631 L145.745341,157.676631 L147.332435,148.034232 L150.508017,148.034232 L163.02293,123.573613 L159.804849,123.573613 L161.275594,114.43981 L181.962858,114.43981 L187.675143,148.034232 L190.902978,148.034232 L189.332604,157.67245 L170.714554,157.676631 Z M173.956323,135.36047 L173.05618,125.183699 L168.658578,135.36047 L173.956323,135.36047 Z M141.323353,148.037716 L145.355882,148.037716 L143.772272,157.679418 L132.983097,157.679418 L124.369035,142.268301 L123.443811,148.037716 L125.885065,148.037716 L124.300061,157.679418 L106.763297,157.679418 L108.32113,148.037716 L111.558022,148.037716 L115.532028,123.579187 L112.334151,123.579187 L113.792355,114.444686 L135.288494,114.444686 C140.253214,114.786072 145.606696,117.634899 147.122727,122.708306 C148.708427,128.118917 146.511716,133.36232 142.562095,136.969162 C140.815455,138.492159 138.959433,139.786637 136.811491,140.294535 L141.323353,148.037716 Z M136.141958,126.878085 C134.949895,123.215507 130.530695,124.192984 127.314007,124.116347 L125.771502,133.586659 C128.605699,133.459858 131.853041,134.205333 133.938976,132.291484 C135.685616,130.936393 136.42064,128.964717 136.141958,126.878085 Z M209.899339,157.656426 L211.451598,148.023085 L208.23909,148.023085 L212.239571,123.563859 L215.438144,123.563859 L216.896348,114.429359 L198.295715,114.429359 L196.808947,123.563859 L200.00752,123.563859 L196.051628,148.023085 L192.82449,148.023085 L191.269445,157.677327 L209.899339,157.656426 Z M100.420494,116.842745 L99.6924374,115.937725 C98.8981936,115.260528 97.9973539,114.81185 97.0958175,114.469768 C88.3027026,111.201524 78.3265824,113.85179 72.0715641,120.898266 C66.6581655,127.32328 64.3451046,136.398561 66.8852914,144.802914 C69.0255694,151.397924 75.9027454,156.411414 82.4420193,157.540773 C87.2332603,157.708679 92.4174428,157.148528 96.2548945,154.043314 L95.6404006,157.675934 L104.818793,157.675934 L108.769808,133.37068 L84.9508544,133.37068 L83.5344529,142.142197 L94.8419765,142.151951 C93.6582746,144.743694 90.9543621,146.946676 88.1898363,147.453877 C84.6380338,148.012634 81.2583174,146.659633 79.2824618,143.559992 C76.4106434,138.939444 77.425046,132.118701 80.4668604,127.886218 C83.2285994,124.393635 87.512639,123.039937 91.8565952,123.998603 C94.2239991,124.506501 96.6471394,126.732474 97.2100772,129.097091 L107.35689,129.097091 L109.723597,114.43981 L100.801592,114.43981 L100.409347,116.849712 L100.420494,116.842745 Z M293.554112,116.842049 L292.824662,115.937725 C292.031115,115.259831 291.130275,114.81185 290.228739,114.469768 C281.437017,111.200828 271.459504,113.85179 265.204485,120.898266 C259.79039,127.321887 257.478026,136.398561 260.019606,144.802217 C262.158491,151.398621 269.035667,156.411414 275.572851,157.540773 C280.365485,157.708679 285.550364,157.148528 289.387816,154.043314 L288.772625,157.675934 L297.949625,157.675934 L301.902729,133.37068 L278.083776,133.37068 L276.668071,142.141501 L287.974898,142.150558 C286.791196,144.742997 284.087284,146.945979 281.323454,147.45318 C277.770259,148.011938 274.389845,146.65824 272.417473,143.559295 C269.543565,138.938747 270.558664,132.118004 273.600479,127.884824 C276.362914,124.391545 280.644167,123.03924 284.98882,123.99721 C287.357617,124.505108 289.781454,126.731081 290.343695,129.096394 L300.489115,129.096394 L302.855822,114.438416 L293.934513,114.438416 L293.541572,116.847622 L293.554112,116.842049 Z M370.616662,148.030052 L374.649191,148.030052 L373.063491,157.67245 L362.275709,157.67245 L353.660951,142.25994 L352.736423,148.030052 L355.177678,148.030052 L353.591977,157.67245 L336.05591,157.67245 L337.612349,148.030052 L340.849937,148.030052 L344.82255,123.571523 L341.62537,123.571523 L343.083574,114.436326 L364.579713,114.436326 C369.544433,114.777711 374.900005,117.626539 376.416036,122.700642 C377.998253,128.111253 375.805025,133.353959 371.853314,136.962195 C370.107371,138.485192 368.250652,139.778974 366.103407,140.286872 L370.616662,148.030052 Z M365.433873,126.871118 C364.244598,123.207843 359.823307,124.184624 356.60662,124.109379 L355.065508,133.579692 C357.898311,133.452195 361.14635,134.197669 363.230892,132.28382 C364.976835,130.927335 365.713949,128.956357 365.433873,126.871118 Z M83.0530297,167.319029 L78.7202208,167.319029 L75.5975885,186.589195 L79.9297008,186.589195 L83.0530297,167.319029 Z M97.0874571,167.319029 L90.987804,167.319029 L87.8644751,186.589195 L93.9634314,186.589195 L97.0874571,167.319029 Z M69.0192991,167.319029 L66.4533342,167.319029 L63.3300053,186.589892 L65.8952735,186.589892 L69.0192991,167.319029 Z M125.159795,167.319029 L115.525061,167.319029 L112.401732,186.589195 L122.036466,186.589195 L125.159795,167.319029 Z M111.121884,167.319029 L103.256084,167.319029 L100.132755,186.589195 L107.998555,186.589195 L111.121884,167.319029 Z M204.297133,174.215713 C203.000565,174.215713 201.988252,175.339498 201.730472,176.869463 C201.39257,178.879457 202.408366,179.620054 203.413711,179.620054 C204.432991,179.620054 205.643864,178.902448 206.000577,177.132817 C206.185204,176.248698 206.093239,175.353432 205.69542,174.839264 C205.395837,174.456076 204.879579,174.215713 204.297133,174.215713 Z M327.451602,174.504149 L326.589081,174.504149 L325.757215,179.464689 L326.410724,179.464689 C327.555411,179.439608 329.141808,179.379691 329.547987,176.954461 C329.64692,176.368532 329.683148,175.782603 329.385655,175.25659 C328.930707,174.490215 328.104414,174.504149 327.451602,174.504149 Z M151.065381,174.215713 C149.768812,174.215713 148.755107,175.339498 148.498719,176.869463 C148.161514,178.879457 149.175916,179.620054 150.182655,179.620054 C151.200541,179.620054 152.411415,178.902448 152.769521,177.132817 C152.955542,176.248698 152.86288,175.353432 152.464364,174.839264 C152.164781,174.456076 151.646433,174.215713 151.065381,174.215713 Z M161.292315,174.300711 L159.474611,174.300711 L159.091423,176.583117 L160.861054,176.583117 C161.166908,176.571273 162.152049,176.548282 162.340856,175.422406 C162.521302,174.34739 161.739599,174.312555 161.292315,174.300711 Z M268.655266,174.215713 C267.358001,174.215713 266.344295,175.339498 266.088604,176.869463 C265.752096,178.879457 266.765802,179.620054 267.773237,179.620054 C268.792517,179.620054 270.002693,178.902448 270.35871,177.132817 C270.54473,176.248698 270.452068,175.353432 270.053553,174.839264 C269.755363,174.456076 269.237015,174.215713 268.655266,174.215713 Z M371.496601,167.319029 L368.355854,186.589195 L124.589194,186.589195 L127.712523,167.319029 L371.496601,167.319029 Z M145.522395,172.722674 L138.953859,172.722674 L137.538155,181.160469 L139.671466,181.160469 L140.242764,177.754278 L144.326152,177.754278 L144.600654,176.116324 L140.517266,176.116324 L140.813365,174.346693 L145.249983,174.346693 L145.522395,172.722674 Z M152.869847,172.711527 C152.37867,172.531777 151.857534,172.460016 151.347546,172.460016 C148.596258,172.460016 146.76671,174.622589 146.384916,176.906388 C145.97386,179.345552 147.168709,181.401529 149.883072,181.401529 C150.767888,181.401529 151.772536,181.198091 152.723539,180.51741 C153.795071,179.763575 154.695214,178.448196 154.939061,176.990689 C155.03451,176.416604 155.33688,173.608883 152.869847,172.711527 Z M164.10352,173.581711 C163.455584,172.746362 162.343643,172.734518 161.449073,172.723371 L157.594204,172.723371 L156.178499,181.161166 L158.322261,181.161166 L158.827372,178.150007 L160.173406,178.150007 L161.364075,181.161166 L163.727996,181.161166 L162.317865,177.78981 C162.935842,177.577315 164.181551,177.155808 164.465806,175.459331 C164.59609,174.695046 164.429578,174.026209 164.10352,173.581711 Z M176.540402,172.711527 L169.946089,172.711527 L169.666013,174.384315 L171.896166,174.384315 L170.759143,181.161166 L172.904995,181.161166 L174.042018,174.384315 L176.25963,174.384315 L176.540402,172.711527 Z M185.531381,172.722674 L183.38553,172.722674 L182.874148,175.770759 L179.748033,175.770759 L180.258717,172.722674 L178.101022,172.722674 L176.685317,181.160469 L178.843709,181.160469 L179.447056,177.563381 L182.573172,177.563381 L181.969825,181.160469 L184.115677,181.160469 L185.531381,172.722674 Z M194.633137,172.722674 L188.307055,172.722674 L186.889956,181.160469 L193.255751,181.160469 L193.53513,179.498828 L189.302646,179.498828 L189.639155,177.49162 L193.553244,177.49162 L193.823565,175.889895 L189.908083,175.889895 L190.165167,174.358537 L194.358635,174.358537 L194.633137,172.722674 Z M206.100903,172.711527 C205.610422,172.531777 205.089287,172.460016 204.579995,172.460016 C201.828707,172.460016 199.999159,174.622589 199.615972,176.906388 C199.207006,179.345552 200.399765,181.401529 203.115521,181.401529 C204.000337,181.401529 205.003592,181.198091 205.954594,180.51741 C207.026127,179.763575 207.925573,178.448196 208.170117,176.990689 C208.266959,176.416604 208.568632,173.608883 206.100903,172.711527 Z M218.013166,172.722674 L215.964853,172.722674 L215.153192,178.137466 C214.8766,177.395475 214.734472,177.012287 214.256532,175.830675 L212.923039,172.722674 L210.82526,172.722674 L209.409555,181.160469 L211.457868,181.160469 L212.28834,175.853667 C212.681979,176.977452 212.782304,177.24011 213.347332,178.495572 L214.499682,181.160469 L216.596068,181.160469 L218.013166,172.722674 Z M227.114225,172.722674 L220.788839,172.722674 L219.372438,181.160469 L225.738232,181.160469 L226.016914,179.498828 L221.784431,179.498828 L222.121636,177.49162 L226.037119,177.49162 L226.30535,175.889895 L222.390564,175.889895 L222.647648,174.358537 L226.839723,174.358537 L227.114225,172.722674 Z M231.231752,175.064996 C231.300029,174.658817 231.804443,174.180878 232.65303,174.180878 C233.19646,174.180878 233.709235,174.384315 233.983737,174.552221 C234.290984,174.742422 234.494422,174.970244 234.718761,175.233599 L236.478638,174.120961 C235.8523,173.463968 234.9431,172.517843 232.966548,172.517843 C231.488836,172.517843 229.415442,173.163688 229.051762,175.339498 C228.745908,177.155808 230.467466,177.527152 230.970487,177.635141 C231.413592,177.731983 231.876204,177.78981 232.34021,177.851817 C232.9554,177.933331 233.798413,178.041321 233.686244,178.710854 C233.587312,179.296783 232.795158,179.691118 231.945875,179.691118 C231.450517,179.691118 230.886186,179.584522 230.365747,179.284939 C229.98047,179.05851 229.829981,178.864826 229.652321,178.627249 L227.857609,179.643046 C228.286779,180.254056 229.062909,181.352063 231.473509,181.352063 C232.673235,181.352063 233.951689,181.101249 234.876216,180.217131 C235.411286,179.702962 235.751975,179.033429 235.85648,178.424508 C236.014632,177.469326 235.643289,176.714794 234.722941,176.356688 C234.266599,176.188782 233.080807,175.962353 232.189025,175.853667 C231.833008,175.805594 231.120976,175.710842 231.231752,175.064996 Z M253.587625,172.722674 L251.463371,172.722674 C251.14219,173.569867 250.802198,174.432388 250.477533,175.292819 C249.800336,177.012287 249.69165,177.300026 249.15449,178.972815 C249.162851,177.336255 249.123835,177.073597 248.922488,175.447487 C248.796384,174.540377 248.694665,173.631874 248.593643,172.722674 L246.702088,172.722674 L245.560885,175.327654 C244.833525,177.000443 244.694184,177.325108 244.096411,178.996503 C244.148664,177.169046 244.125673,176.725941 243.878343,172.722674 L241.742942,172.722674 L242.496776,181.160469 L244.703938,181.160469 L246.005383,178.315822 C246.759218,176.70295 246.798234,176.617255 247.192569,175.578468 C247.246912,176.76217 247.262239,176.822087 247.461497,178.377829 C247.587601,179.296086 247.683746,180.228278 247.793825,181.160469 L250.00029,181.160469 L253.587625,172.722674 Z M262.470615,172.722674 L260.32546,172.722674 L259.815472,175.770759 L256.685872,175.770759 L257.198647,172.722674 L255.041648,172.722674 L253.62455,181.160469 L255.782943,181.160469 L256.384199,177.563381 L259.513102,177.563381 L258.909755,181.160469 L261.05491,181.160469 L262.470615,172.722674 Z M270.459035,172.711527 C269.967858,172.531777 269.446026,172.460016 268.938825,172.460016 C266.18684,172.460016 264.355202,174.622589 263.974104,176.906388 C263.563745,179.345552 264.757201,181.401529 267.472261,181.401529 C268.357773,181.401529 269.360331,181.198091 270.311334,180.51741 C271.382866,179.763575 272.284403,178.448196 272.528249,176.990689 C272.625788,176.416604 272.926765,173.608883 270.459035,172.711527 Z M280.179465,176.894544 C280.415648,175.48511 281.258661,174.157886 282.881287,174.157886 C284.070563,174.157886 284.441906,174.899181 284.668336,175.353432 L286.454687,174.384315 C286.139777,173.871541 285.278649,172.436328 283.012268,172.436328 C280.57798,172.436328 278.492742,174.240794 278.0364,176.953764 C277.618377,179.438911 278.763063,181.351366 281.152065,181.351366 C282.596335,181.351366 283.432381,180.694373 283.83856,180.371102 L283.706883,181.160469 L285.377581,181.160469 L286.164858,176.474431 L282.443756,176.474431 L282.174828,178.075459 L284.089374,178.075459 C283.954213,178.520654 283.807208,178.972815 283.187837,179.333012 C282.799076,179.558744 282.346914,179.654193 281.957456,179.654193 C281.30325,179.654193 280.76609,179.390838 280.497162,179.046666 C280.156473,178.627249 280.021313,177.851817 280.179465,176.894544 Z M295.619146,172.722674 L289.293064,172.722674 L287.877359,181.160469 L294.243154,181.160469 L294.521139,179.498828 L290.287262,179.498828 L290.623771,177.49162 L294.53995,177.49162 L294.808878,175.889895 L290.894789,175.889895 L291.149783,174.358537 L295.343251,174.358537 L295.619146,172.722674 Z M303.585272,172.711527 L296.990262,172.711527 L296.708096,174.384315 L298.939643,174.384315 L297.80262,181.161166 L299.947078,181.161166 L301.084101,174.384315 L303.303107,174.384315 L303.585272,172.711527 Z M311.157063,172.722674 L309.023752,172.722674 L307.608047,181.160469 L309.739965,181.160469 L311.157063,172.722674 Z M319.291792,172.711527 L312.698175,172.711527 L312.416009,174.384315 L314.648252,174.384315 L313.510533,181.161166 L315.653598,181.161166 L316.792711,174.384315 L319.01102,174.384315 L319.291792,172.711527 Z M331.002011,173.714782 C330.06982,172.757509 328.499446,172.734518 327.459266,172.722674 L324.732362,172.722674 L323.314567,181.160469 L326.685923,181.160469 C327.583279,181.148625 329.982035,181.100553 331.203359,178.495572 C331.373355,178.137466 331.572612,177.600306 331.694536,176.868766 C331.893793,175.685761 331.752362,174.504149 331.002011,173.714782 Z M339.907992,172.711527 C339.416815,172.531777 338.894983,172.460016 338.386388,172.460016 C335.635796,172.460016 333.806249,174.622589 333.423061,176.906388 C333.013399,179.345552 334.208944,181.401529 336.922611,181.401529 C337.806033,181.401529 338.812075,181.198091 339.760987,180.51741 C340.83252,179.763575 341.731966,178.448196 341.977903,176.990689 C342.071958,176.416604 342.374328,173.608883 339.907992,172.711527 Z M351.820256,172.722674 L349.770549,172.722674 L348.960281,178.137466 C348.683689,177.395475 348.544348,177.012287 348.060835,175.830675 L346.730128,172.722674 L344.633743,172.722674 L343.218038,181.160469 L345.264958,181.160469 L346.096127,175.853667 C346.488372,176.977452 346.591484,177.24011 347.155815,178.495572 L348.308165,181.160469 L350.404551,181.160469 L351.820256,172.722674 Z M360.921314,172.722674 L354.595232,172.722674 L353.178134,181.160469 L359.544625,181.160469 L359.823307,179.498828 L355.59152,179.498828 L355.928029,177.49162 L359.842118,177.49162 L360.113136,175.889895 L356.196957,175.889895 L356.454041,174.358537 L360.647509,174.358537 L360.921314,172.722674 Z M338.103526,174.215713 C336.808351,174.215713 335.793949,175.339498 335.536864,176.869463 C335.198962,178.879457 336.216152,179.620054 337.221497,179.620054 C338.238687,179.620054 339.44956,178.902448 339.809757,177.132817 C339.991597,176.248698 339.900328,175.353432 339.50251,174.839264 C339.20223,174.456076 338.685971,174.215713 338.103526,174.215713 Z M386.029172,153.022641 C386.041016,150.719334 384.241427,148.815935 381.845458,148.815935 C379.464817,148.815935 377.627606,150.7054 377.627606,153.010797 C377.627606,155.364963 379.51498,157.204265 381.820377,157.204265 C384.191961,157.204265 386.015935,155.355209 386.029172,153.022641 Z M381.743043,150.11111 C382.416756,150.11111 382.737938,150.11111 383.089774,150.238607 C383.673612,150.472003 383.971802,151.004286 383.971802,151.546323 C383.971802,152.348927 383.387963,152.817113 382.676627,152.931372 C383.298785,153.165465 383.490379,153.501277 383.608819,154.201466 C383.738406,155.043085 383.774635,155.353816 384.035899,155.870771 L383.064692,155.870771 C382.933712,155.613687 382.884942,155.354513 382.830599,155.082101 C382.805518,154.952514 382.714946,154.306668 382.689168,154.163147 C382.521262,153.30829 382.053076,153.204481 381.225391,153.19194 L380.810851,153.19194 L380.810851,155.870771 L379.972018,155.870771 L379.972018,150.110413 L381.743043,150.110413 L381.743043,150.11111 Z M380.824089,152.516136 L381.793205,152.516136 C382.156885,152.516136 383.116248,152.530767 383.116248,151.61251 C383.116248,151.351245 383.011743,151.119242 382.84523,150.976418 C382.59581,150.756259 382.310857,150.756259 381.612759,150.756259 L380.823392,150.756259 L380.823392,152.51615 L380.824089,152.516136 Z M381.808533,157.621591 C379.412564,157.621591 377.210279,155.741881 377.210279,153.010797 C377.210279,150.354957 379.335927,148.401396 381.820377,148.401396 C384.487364,148.401396 386.454162,150.511019 386.443015,153.037968 C386.429081,155.587212 384.423964,157.621591 381.808533,157.621591 Z" id="Shape" fill="#DADADA" fill-rule="nonzero"></path>
        <rect id="Rectangle" fill-opacity="0" fill="#FFFFFF" x="0" y="0" width="450" height="300"></rect>
    </g>
</svg>