<?xml version="1.0" encoding="UTF-8"?>
<svg width="450px" height="300px" viewBox="0 0 450 300" version="1.1" xmlns="http://www.w3.org/2000/svg" xmlns:xlink="http://www.w3.org/1999/xlink">
    <!-- Generator: Sketch 50.2 (55047) - http://www.bohemiancoding.com/sketch -->
    <title>hersheys-logo</title>
    <desc>Created with Sketch.</desc>
    <defs></defs>
    <g id="hersheys-logo" stroke="none" stroke-width="1" fill="none" fill-rule="evenodd">
        <g id="Group" transform="translate(88.000000, 100.000000)" fill="#DADADA" fill-rule="nonzero">
            <path d="M0.612265016,76.1523915 C0.533622519,76.0737583 0.469278546,59.3317057 0.469278546,38.9478164 C0.469278546,2.33257673 0.474343687,1.88349018 0.890501878,1.66077221 C1.1636841,1.51456876 3.40622787,1.45538073 7.27125872,1.49236861 L13.2307922,1.54938234 L13.3380318,15.705007 L13.4452719,29.8606378 L16.0190222,29.8606378 L18.5927731,29.8606378 L18.6479708,15.9395663 C18.6873924,5.99602669 18.7722811,1.93521639 18.945063,1.72702673 C19.1405422,1.4914853 20.3440538,1.44647967 25.2170045,1.49246744 L31.2470479,1.54935763 L31.3012819,38.9255978 L31.355516,76.3018132 L25.0813989,76.2449848 L18.8072788,76.1881564 L18.7524084,58.6791981 L18.6975381,41.170209 L18.2162083,41.0412085 C17.9514768,40.9702594 16.8041766,40.9108923 15.6666527,40.9092801 C13.9767418,40.9068093 13.574614,40.968394 13.4682405,41.2456178 C13.3966379,41.4322065 13.338054,49.3947508 13.338054,58.9401517 L13.338054,76.2954509 L7.04666356,76.2954509 C3.58639865,76.2954509 0.690929132,76.2310865 0.612287253,76.1524533 L0.612265016,76.1523915 Z" id="path4162"></path>
            <path d="M37.2900253,76.1542446 C37.2103852,76.0745613 37.145224,59.2903754 37.145224,38.8559768 C37.145224,5.17474491 37.176912,1.69036004 37.4844834,1.57234225 C38.0974459,1.33712203 59.2319396,1.42457602 59.6796425,1.66417573 C60.0715548,1.873922 60.0945023,2.16224591 60.0945023,6.87602088 C60.0945023,10.4710235 60.0225588,11.9377896 59.8371252,12.123217 C59.6535447,12.3068037 58.3082432,12.3805941 55.1448462,12.3805941 C51.6570331,12.3805941 50.6579957,12.4431795 50.4667125,12.673662 C50.2922369,12.88389 50.2393433,15.3847418 50.2795926,21.520932 L50.3356798,30.075128 L54.6687353,30.182367 C57.3128255,30.2478061 59.0909002,30.3789377 59.2303954,30.518785 C59.3827758,30.6715484 59.4397896,32.4593271 59.4013995,35.8807684 L59.3438298,41.0135726 L54.8397703,41.1318189 C52.3625332,41.1968566 50.3107679,41.2692449 50.2802844,41.2926804 C50.24977,41.3160912 50.24977,46.7160384 50.2802844,53.2925068 L50.3356921,65.2497242 L55.4377287,65.3569631 C59.6563614,65.445634 60.5752954,65.5199062 60.7449838,65.7859188 C60.8646818,65.9735638 60.9283172,68.208088 60.8976917,71.1479083 L60.8451872,76.1881564 L49.1400099,76.2437494 C42.7021597,76.2740167 37.3696715,76.2338662 37.2900314,76.1543682 L37.2900253,76.1542446 Z" id="path4164"></path>
            <path d="M64.956033,76.1523915 C64.8773936,76.0737583 64.8130478,59.2913081 64.8130478,38.8580461 L64.8130478,1.70666115 L65.295626,1.57733327 C65.5610456,1.50620509 70.2869399,1.44668968 75.7976098,1.44508366 C86.4837547,1.44199516 86.3078214,1.42717036 88.7583367,2.53257569 C90.5783162,3.35354245 93.285801,6.36726449 93.6790969,8.00992072 C93.7603862,8.34942726 93.9011786,8.72372267 93.9919805,8.84168487 C94.0827763,8.95964707 94.2625023,9.62885725 94.3913669,10.3288104 C94.7056404,12.0359051 94.7049115,26.8866401 94.3907492,28.5876319 C93.9999983,30.7014019 93.0316668,32.4740593 91.3806654,34.097993 C90.0721726,35.3850331 89.5720394,36.18779 90.0786708,36.18779 C90.4177265,36.18779 92.1067534,37.9810539 92.7810597,39.0569455 C94.3432295,41.5494769 94.2593953,40.7759124 94.4342353,54.3112797 C94.5210963,61.0352054 94.6893331,67.0674428 94.8081045,67.7162133 C95.3522242,70.6885865 96.5045439,73.3551363 97.9300291,74.9405874 C98.4649451,75.5355562 98.8411739,76.0837651 98.7660801,76.1588774 C98.6909925,76.2339897 95.3308086,76.2953891 91.2990055,76.2953891 C84.5876252,76.2953891 83.9402816,76.2638864 83.6348227,75.9200745 C83.3167504,75.5622408 83.0695591,74.8798057 82.5665659,72.9709886 C82.4254955,72.4356279 82.2913187,66.6294687 82.209702,57.5284721 C82.0888366,44.0508352 82.0500635,42.9014249 81.6988516,42.3845087 C81.1514828,41.5788918 79.9044697,41.0807351 78.6359606,41.1609497 L77.5748011,41.2280504 L77.5198876,58.5890015 C77.4770192,72.1509299 77.4066014,75.9870332 77.1981646,76.1194064 C76.8758178,76.3241122 65.1595405,76.3556767 64.9562554,76.1527622 L64.956033,76.1523915 Z M81.3849178,30.8608056 C82.234027,30.3009036 82.6001873,29.7414341 82.6080012,28.9920093 C82.6117074,28.6322175 82.7143321,28.238341 82.8359511,28.116722 C83.0883681,27.8642988 82.9918586,16.4741055 82.7253272,15.0615858 C82.6362981,14.5897308 82.3719842,14.0216937 82.1379746,13.7992846 C81.6263212,13.3130002 79.8098627,12.595072 79.0911562,12.595072 C77.8250191,12.595072 77.8962832,12.0394013 77.8962832,21.9121215 C77.8962832,26.8932865 77.9606228,31.0331378 78.0392684,31.1117772 C78.3606825,31.4331974 80.793649,31.2506856 81.3849178,30.8608056 Z" id="path4166"></path>
            <path d="M108.329314,76.9485453 C106.434296,76.312623 105.706294,75.9662167 104.109069,74.9405256 C102.207424,73.7193324 100.814856,71.7765418 99.7115999,68.8055275 C99.2957765,67.6856989 99.2621366,67.0664545 99.1868574,59.1444746 C99.1426301,54.488992 99.1621494,50.4579672 99.23022,50.1866362 L99.354038,49.6933162 L105.408148,49.7502681 L111.462265,49.8072201 L111.569503,57.3747698 L111.676749,64.9423195 L112.403924,65.685839 C113.010777,66.306325 113.283801,66.4293586 114.053881,66.4293586 C114.605802,66.4293586 115.283271,66.2484465 115.739591,65.9792157 L116.502531,65.5290729 L116.494995,58.0971022 L116.487459,50.6651377 L115.797958,49.3446182 C115.418727,48.6183326 114.867164,47.7169227 114.572255,47.3414846 C113.15076,45.5318454 112.411966,44.6761331 110.127365,42.1932069 C105.797503,37.4874621 105.584557,37.2369908 104.00991,34.9976115 C102.654113,33.0694728 102.625007,33.0203471 101.602084,30.9330456 C99.8865573,27.4324894 99.7159609,26.1089432 99.8327742,17.2063767 C99.9185851,10.6665009 99.9601748,10.0335868 100.380032,8.87892602 C101.971073,4.50334806 105.406104,1.69345472 110.282667,0.778455469 C112.894464,0.288396866 118.742831,0.535371923 120.470433,1.20867746 C121.892367,1.76285334 124.014167,2.86667735 124.696892,3.4074059 C125.644555,4.15797337 127.173512,6.44980159 127.821473,8.09100622 C128.471571,9.73761572 128.727491,12.963876 128.727701,19.5154202 L128.72788,25.0416562 L122.776086,24.9846425 L116.824285,24.9276287 L116.717046,18.9926914 C116.610104,13.0744011 116.608343,13.0561975 116.089839,12.5046901 C115.656195,12.0434534 115.378626,11.9516322 114.41788,11.9516322 C112.167184,11.9516322 111.840303,12.9530292 112.072484,19.1366897 C112.263965,24.2363728 112.891407,25.9204088 115.79524,29.1284346 C116.597138,30.0143463 117.880595,31.4501224 118.647359,32.3190598 C119.414123,33.1879971 120.18261,34.0414735 120.355115,34.2156711 C120.52762,34.3898749 120.961937,34.8947212 121.320271,35.3375628 C122.003293,36.1816563 124.540775,39.3575184 124.82714,39.7266931 C126.176871,41.4666989 127.295625,43.4063701 127.919792,45.0886765 C128.094855,45.5605314 128.368477,46.2843957 128.527831,46.6972665 C128.752242,47.2786768 128.834421,49.7209891 128.892293,57.5284721 L128.96701,67.6089806 L128.419172,69.0066507 C127.228524,72.0443148 125.212764,74.2230668 122.089629,75.8478654 C119.556552,77.1657287 118.242858,77.4324516 113.928815,77.5049696 C110.277423,77.5661219 110.125265,77.5512971 108.329339,76.9485453 L108.329314,76.9485453 Z" id="path4168"></path>
            <path d="M133.928378,38.9255916 L133.982612,1.54939469 L139.942146,1.49238097 C143.793581,1.45550427 146.050132,1.51480348 146.321352,1.65995684 C146.730461,1.87890067 146.742413,2.23662319 146.79619,15.8726076 L146.851351,29.8606625 L149.26271,29.9212589 L151.67407,29.9819171 L151.72923,15.765659 L151.784391,1.54940087 L157.468091,1.48713051 C160.594123,1.45290992 163.465737,1.48157121 163.849453,1.55058067 L164.547114,1.67630119 L164.49288,38.9322381 L164.438646,76.1881564 L158.111512,76.1881564 L151.784372,76.1881564 L151.677133,58.6008737 L151.569895,41.0135788 L149.21062,41.0135788 L146.851351,41.0135788 L146.744112,58.6008737 L146.636873,76.1881564 L140.255512,76.2449848 L133.87415,76.3018132 L133.928384,38.9256287 L133.928378,38.9255916 Z" id="path4170"></path>
            <path d="M170.444433,76.1542446 C170.3648,76.0745613 170.299638,59.2913081 170.299638,38.8580461 L170.299638,1.70666115 L170.782217,1.57733327 C171.414494,1.40789194 191.922937,1.40879996 192.555548,1.57856867 L193.041814,1.70886016 L192.984492,6.99124049 L192.927169,12.2736208 L188.379667,12.3808597 C185.602258,12.4463545 183.743747,12.5767263 183.605011,12.7157953 C183.450796,12.8703748 183.39587,15.6942467 183.43397,21.509449 L183.490057,30.0753937 L187.886884,30.1982789 C190.305137,30.2658615 192.307838,30.3382498 192.337327,30.3591342 C192.366791,30.3800125 192.390944,32.8100079 192.390944,35.7590938 L192.390944,41.1210771 L188.154978,41.1241656 C185.825198,41.1260187 183.797542,41.2045655 183.649078,41.2988203 C183.43636,41.4338619 183.390898,43.9902388 183.4346,53.3599905 L183.490069,65.2497983 L188.446984,65.3073062 C192.936237,65.3593783 193.437433,65.4018699 193.759378,65.7576096 C194.072725,66.1038615 194.108026,66.7452195 194.057208,71.1693425 L193.999577,76.1882182 L182.2944,76.2438112 C175.856556,76.2740785 170.524061,76.233928 170.444421,76.1544917 L170.444433,76.1542446 Z" id="path4174"></path>
            <path d="M205.032486,64.5558554 C205.025012,57.69123 204.931103,52.364264 204.806501,51.7375331 C204.689243,51.1477159 204.462689,49.8930124 204.30305,48.9493025 C203.949182,46.8573744 203.400028,43.7462163 202.978022,41.4425283 C202.805152,40.4988183 202.581866,39.1958601 202.481835,38.5470588 C202.381805,37.8982574 202.202493,36.9331009 202.083363,36.4022679 C201.964234,35.8714287 201.797973,34.8136419 201.713898,34.0516223 C201.629829,33.2896026 201.486257,32.5174774 201.394856,32.3357871 C201.303449,32.1540968 201.12001,31.2333158 200.987205,30.2896059 C200.854399,29.3459021 200.663153,28.1394534 200.562215,27.6086204 C200.461283,27.0777812 200.123839,25.0509526 199.812345,23.1045546 C199.500858,21.1581567 199.151085,19.2684884 199.035075,18.905293 C198.919064,18.5420977 198.729418,17.4977767 198.613636,16.5845873 C198.497861,15.6713979 198.358174,14.8515121 198.303236,14.7626127 C198.248261,14.6737133 198.104361,13.8842308 197.983391,13.0082084 C197.862414,12.132186 197.610633,10.6915671 197.423872,9.80684138 C197.23711,8.92211561 196.997276,7.5708965 196.890908,6.80413293 C196.78454,6.03736936 196.564805,4.63789551 196.402616,3.69418556 C196.211993,2.58505549 196.180367,1.88355195 196.313173,1.71024999 C196.608878,1.32438505 208.242254,1.32438505 208.74256,1.71024999 C208.967496,1.88373726 209.127875,2.43250209 209.197008,3.26522368 C209.255752,3.97300923 209.508329,5.85506134 209.758251,7.44757266 C210.008166,9.04007781 210.289522,10.9221361 210.383481,11.6299155 C210.939207,15.8160695 211.091655,16.863028 211.257959,17.6353324 C211.359564,18.1071873 211.651576,20.2305317 211.906884,22.353876 C212.467274,27.0145658 212.442467,26.9163515 212.944459,26.4620577 C213.241172,26.1935311 213.415159,25.3741333 213.713484,22.8403334 C213.92554,21.0392556 214.186117,19.0348124 214.292534,18.386011 C214.398958,17.7372097 214.679246,15.6138653 214.915399,13.6674674 C215.151545,11.7210695 215.439647,9.69424082 215.55562,9.16340783 C215.671587,8.63256866 215.908982,6.9918026 216.083155,5.51725965 C216.257327,4.04271052 216.481997,2.54672102 216.582411,2.19282824 L216.764984,1.54939469 L221.420862,1.49157795 C224.187319,1.45723383 226.236984,1.519498 226.471611,1.6450888 C226.803112,1.82250464 226.837629,1.98666464 226.686701,2.66806204 C226.587819,3.11446778 226.308767,4.68615643 226.066579,6.16069938 C225.580622,9.11944611 225.326593,10.5872808 224.868741,13.0820112 C224.700517,13.9986226 224.562881,15.0787332 224.562881,15.4822458 C224.562881,15.8857584 224.477644,16.2685905 224.373469,16.3329733 C224.269294,16.3973562 224.118909,17.0062789 224.039275,17.6861259 C223.959647,18.3659728 223.700485,19.9356292 223.463362,21.1742478 C223.226239,22.4128663 222.900569,24.1984028 222.739652,25.1421128 C222.578735,26.0858227 222.293036,27.7265888 222.104768,28.7882609 C221.916499,29.8499331 221.663872,31.4353223 221.543371,32.3113447 C221.422876,33.1873671 221.273263,33.9866835 221.210894,34.0875971 C221.148524,34.1885108 220.956241,35.1607894 220.7836,36.2482073 C220.610965,37.3356375 220.382218,38.7079264 220.275282,39.2977436 C219.76731,42.0995759 219.387171,44.3623784 219.194343,45.7321162 C219.078092,46.5578639 218.883233,47.5712752 218.761311,47.9841522 C218.178406,49.9581119 218.054495,52.3508043 217.933827,63.9628509 L217.806785,76.1881564 L211.426029,76.2449848 L205.045273,76.3018132 L205.032486,64.5558987 L205.032486,64.5558554 Z" id="path4176"></path>
            <path d="M226.922149,75.8756001 C225.739192,75.2440017 224.884634,74.3619258 224.108124,72.9709886 C223.405397,71.7121774 223.389646,71.6279231 223.386483,69.1103626 C223.384012,67.0555212 223.468063,66.3203654 223.803894,65.464202 C224.872836,62.7390386 226.049043,61.1714515 230.246581,56.8777065 C231.662146,55.4296999 233.398001,53.6018572 234.104038,52.8158276 C237.119113,49.4591769 239.392151,45.2941359 240.112821,41.8055383 C240.229727,41.2396138 240.351359,41.1094891 240.714251,41.1620986 C241.016023,41.2058318 241.222384,41.4446285 241.327331,41.871484 C242.017673,44.6793883 243.063248,47.0263772 244.732175,49.5142634 C246.082171,51.526712 247.220067,52.8292378 251.270531,56.9985286 C255.051041,60.8899532 256.574957,62.8829381 257.534455,65.1905115 C258.021975,66.3629805 258.096371,66.8547069 258.111227,69.0031298 C258.127657,71.377631 258.102641,71.518652 257.440948,72.7853079 C257.062909,73.5090055 256.353147,74.4438329 255.8637,74.8627571 C254.095762,76.3760608 254.949152,76.2964392 240.616408,76.2859383 C228.396908,76.2772905 227.630837,76.2538179 226.922149,75.8756001 Z" id="path4178"></path>
            <path d="M4.65767482,98.804692 C4.47223752,98.7276648 4.2727914,98.5598974 4.21446074,98.4319099 C4.13903152,98.2663663 4.10840595,96.5856041 4.10840595,92.6116919 C4.10840595,87.6566247 4.09180834,87.0076689 3.96177875,86.877643 C3.84266948,86.7585505 3.57385625,86.731001 2.52942596,86.731001 C1.1866854,86.731001 0.714011969,86.640508 0.560725349,86.3540804 C0.510487795,86.2602517 0.469386644,85.8042655 0.469386644,85.340805 C0.469386644,84.5647265 0.485959539,84.4886877 0.679329958,84.3782429 C0.842436157,84.2850937 1.90190992,84.2583473 5.42827121,84.2583473 C10.7678642,84.2583473 10.3600542,84.1720546 10.3600542,85.3021988 C10.3600542,85.6807872 10.3017989,86.1299788 10.2306046,86.3003405 C10.07107,86.6822027 9.87246824,86.731001 8.47923007,86.731001 C7.80160002,86.731001 7.35337516,86.7760931 7.13792505,86.8662156 L6.81434344,87.0014302 L6.81434344,92.6908193 L6.81434344,98.3802084 L6.5727782,98.6673155 C6.34350705,98.939783 6.29720795,98.9541137 5.66302322,98.9496044 C5.29199297,98.9496044 4.84489109,98.8824604 4.65767482,98.804692 Z" id="path4188"></path>
            <path d="M13.2899308,98.6371099 L12.9726831,98.3198591 L12.9726831,91.5509154 L12.9726831,84.7819717 L13.1980702,84.5201286 C13.4152233,84.2679216 13.4554331,84.2583473 14.298684,84.2583473 C14.9794779,84.2583473 15.229972,84.2947916 15.426266,84.4237674 L15.6786206,84.5892492 L15.6786206,87.3830453 C15.6786206,90.0616403 15.6861566,90.1808564 15.8613703,90.2746233 C15.9813845,90.3388641 17.1585345,90.3640045 19.2904457,90.3479443 L22.536772,90.3232363 L22.5834269,87.4149804 C22.6090861,85.8154458 22.6582464,84.4786191 22.6926702,84.444275 C22.8157513,84.3214762 23.4811645,84.2159113 24.1463392,84.2137493 C25.3058829,84.2075723 25.1960564,83.445145 25.1960564,91.5236131 C25.1960564,98.4021986 25.1943886,98.464648 25.0026675,98.7083925 C24.8280535,98.9303322 24.7487909,98.9541137 24.1862211,98.9531871 C23.8435389,98.9526312 23.4037815,98.9260083 23.2089811,98.8938879 C22.6069903,98.7944382 22.5834269,98.6763957 22.5834269,95.7607273 C22.5834269,93.6039654 22.5610352,93.178926 22.4381741,93.0034991 C22.2931183,92.796446 22.2887765,92.7961372 19.2474741,92.7961372 L16.2020282,92.7961372 L15.9403247,93.0468617 L15.6786219,93.2975862 L15.6786219,95.8392988 L15.6786219,98.3810114 L15.3307832,98.6677479 C15.0120808,98.9304557 14.9253266,98.9544843 14.2950624,98.9544843 C13.6371759,98.9544843 13.5933464,98.9408949 13.2899321,98.6372335 L13.2899308,98.6371099 Z" id="path4190"></path>
            <path d="M30.2266115,98.834774 C29.863688,98.5561294 29.861421,98.5102961 29.8628911,91.4725293 C29.8635088,87.709994 29.8951968,84.5853577 29.9328766,84.5288999 C30.1304912,84.2329598 30.4305329,84.2117109 34.4098376,84.2117109 C39.2099177,84.2117109 38.856377,84.1146702 38.8045643,85.4175852 C38.7817094,85.9922934 38.724498,86.2995375 38.6069558,86.4787323 L38.4415172,86.731001 L35.5947719,86.731001 C33.3199675,86.731001 32.6830136,86.7581798 32.4244443,86.8662156 L32.1008621,87.0014302 L32.1008621,88.5891049 C32.1008621,90.0633699 32.113772,90.1837596 32.2813417,90.2734497 C32.391212,90.3321312 33.3677527,90.3716023 34.7773383,90.3740731 C37.1532664,90.3802501 37.8485127,90.4407847 37.9892063,90.6628479 C38.0334954,90.7327098 38.0703721,91.0964116 38.0711565,91.4710468 C38.0730096,92.2383539 37.9158173,92.6480127 37.5864534,92.736282 C37.4689298,92.7677847 36.3818084,92.7943458 35.170628,92.7949635 C32.9439919,92.7949635 32.455076,92.8554982 32.2174962,93.1525502 C32.13457,93.256262 32.1008621,93.7530783 32.1008621,94.8716097 L32.1008621,96.4447685 L32.4244443,96.5799831 C32.6829086,96.6879571 33.3184109,96.7151359 35.5824611,96.7151359 C38.9017594,96.7151359 38.7232935,96.6595429 38.7905981,97.7158101 C38.8238304,98.2377668 38.7975163,98.4009632 38.6397248,98.651317 L38.448559,98.954546 L34.4116104,98.948369 C31.3853614,98.948369 30.3375937,98.9168663 30.2266115,98.8317473 L30.2266115,98.834774 Z" id="path4192"></path>
            <path d="M48.4717572,98.8898111 C48.361646,98.8681916 48.1936933,98.7646032 48.0985242,98.6594707 C47.9338021,98.4774962 47.9242895,98.1376994 47.9004154,91.5857537 C47.8708893,83.4868398 47.7527974,84.2622388 49.0163402,84.2598297 C49.9314506,84.2598297 50.2451188,84.4028891 50.3385768,84.8701793 C50.3713767,85.0340551 50.3981849,86.3130651 50.3981849,87.712403 C50.3981849,89.9464392 50.4161599,90.26369 50.5457781,90.3134149 C50.6269501,90.3442999 52.1515144,90.3702433 53.9336906,90.3702433 C56.3819514,90.3702433 57.211498,90.3418291 57.3273724,90.2535598 C57.462309,90.1509598 57.4840644,89.8094951 57.5084944,87.4101624 C57.5359203,84.7168661 57.5388852,84.6807306 57.7481929,84.4715156 C57.9250096,84.2948533 58.0819302,84.2542087 58.695152,84.2263504 C59.9429866,84.169522 59.8223066,83.3883784 59.8223066,91.5239837 C59.8223066,98.4025692 59.8204535,98.4650187 59.6289232,98.7087014 C59.4533234,98.9319382 59.3761911,98.954546 58.7906176,98.954546 C58.2100288,98.954546 58.1153169,98.9273672 57.8409839,98.6824491 L57.53626,98.4103522 L57.4896237,95.7882768 L57.4429873,93.1662013 L57.1630641,92.9818178 C56.8987626,92.8077499 56.7134834,92.7974343 53.843562,92.7968784 L50.803983,92.7962607 L50.6010994,93.0122087 C50.4031512,93.2229062 50.3982219,93.289309 50.3982219,95.7440494 C50.3982219,98.5353747 50.3913037,98.5700895 49.7825169,98.8244584 C49.4877442,98.9476278 48.9132893,98.9763509 48.471819,98.8899964 L48.4717572,98.8898111 Z" id="path4194"></path>
            <path d="M64.882292,98.8919113 C64.8170628,98.8653501 64.7015961,98.7241439 64.6256931,98.5773783 C64.5075765,98.3489528 64.4876928,97.3228911 64.4876928,91.4544924 L64.4876928,84.598453 L64.7335498,84.4050511 C64.9734583,84.2163437 65.0744153,84.2117109 68.9090917,84.2122051 C71.3225204,84.2125139 72.9725705,84.2498848 73.185535,84.3090604 C73.7657469,84.4701567 73.8414399,84.6085215 73.8037231,85.4390194 C73.7742588,86.088284 73.7423237,86.1964433 73.5126813,86.4262895 L73.2547483,86.6843647 L70.2475182,86.7306922 C68.0421433,86.7646657 67.1843061,86.8093254 67.0303443,86.8972859 C66.8252184,87.0144019 66.8204004,87.0545524 66.8204004,88.6467981 C66.8204004,89.543081 66.8309013,90.2833329 66.8437494,90.2917954 C66.8565976,90.3004432 68.0847523,90.3325636 69.5730144,90.3631398 C71.4976693,90.4026726 72.3395699,90.453324 72.4888989,90.5376401 C72.6818128,90.6466024 72.6988428,90.7230119 72.6988428,91.480127 C72.6988428,92.1723218 72.6679578,92.3433012 72.5054532,92.5498601 L72.3120637,92.7957048 L69.8805117,92.7957048 C67.5800542,92.7957048 67.43201,92.8062057 67.1346924,92.9899715 L66.8204251,93.1841764 L66.8204251,94.8070601 L66.8204251,96.4299437 L67.0957155,96.5723236 C67.3248823,96.6907985 67.8493838,96.7146417 70.2261705,96.7146417 C73.3870596,96.7146417 73.5238926,96.7368789 73.715114,97.285582 C73.8617313,97.706174 73.8432312,98.2241156 73.6729251,98.4673042 C73.3347713,98.9500368 73.2903834,98.9546078 68.9944887,98.9467013 C66.7980273,98.9405243 64.9475582,98.9176693 64.882329,98.8917259 L64.882292,98.8919113 Z" id="path4196"></path>
            <path d="M77.714179,98.8146987 C77.1366232,98.5007835 77.1633819,98.85732 77.1735863,91.6096587 C77.1785279,87.976964 77.2113896,84.8998289 77.2462588,84.7715326 C77.2833826,84.6348973 77.4437684,84.4707126 77.6335135,84.3751544 C77.9196384,84.2309831 78.2729259,84.211958 80.6633452,84.211958 C83.449105,84.2118962 84.4312915,84.3031305 84.913493,84.6067919 C85.0392444,84.6859811 85.3100935,84.8037147 85.5153676,84.8685115 C85.7206479,84.9333082 86.0536192,85.1268955 86.2553045,85.2988014 C86.4569898,85.4707074 86.6518124,85.6112959 86.6882382,85.6112959 C86.7246825,85.6112959 86.8462829,85.8066127 86.9584944,86.0453538 C87.0707058,86.2840332 87.2415678,86.546494 87.3381947,86.6285246 C87.6493549,86.8926532 87.832188,87.5604488 87.8705163,88.5727358 C87.9017102,89.3961919 87.8736048,89.6358596 87.6685098,90.3089675 C87.4440252,91.0448954 87.3882469,91.1321765 86.6987947,91.8262861 C85.8950123,92.6355351 85.4963301,92.9826826 85.370764,92.9826826 C85.3256102,92.9826826 85.2467854,93.0609452 85.1955966,93.1565652 C85.1236593,93.2909768 85.1614378,93.4234117 85.3618506,93.7397359 C85.5044776,93.9648259 85.6668833,94.2803471 85.7227481,94.4408874 C85.7785882,94.6014277 85.9542498,94.9121926 86.1130605,95.1314144 C86.271865,95.3506362 86.4017983,95.5684991 86.4017983,95.615506 C86.4017983,95.6624512 86.5015692,95.8347278 86.6235156,95.9980477 C86.7454681,96.1614294 86.8975953,96.4630524 86.961589,96.6683142 C87.0255828,96.8736377 87.1553245,97.1267095 87.2499068,97.2308537 C87.3444952,97.3349362 87.484256,97.5969029 87.5604988,97.8129744 C87.7191736,98.2627219 87.6220835,98.7073424 87.3311961,98.8630647 C87.0587965,99.0088419 86.1164146,98.9681972 85.6086774,98.7887553 C85.2279826,98.6542202 85.1077967,98.5552647 84.9555213,98.2509856 C84.852878,98.0459091 84.653435,97.7116098 84.5123091,97.5081393 C84.3711769,97.3046689 84.2557102,97.1031751 84.2557102,97.0603067 C84.2557102,97.0176854 84.1559455,96.8488062 84.0340176,96.6854245 C83.9120898,96.5220428 83.782836,96.2204816 83.7467871,96.015158 C83.7107134,95.8098963 83.5842146,95.5369963 83.4656161,95.4087 C83.3470115,95.2804037 83.1841672,94.9442513 83.1037303,94.661777 C82.9334365,94.0636579 82.4211778,93.4987711 81.9183081,93.3545381 C81.7419485,93.3038867 81.2113688,93.2625626 80.7392297,93.2625626 C79.528945,93.2625626 79.5903815,93.1155499 79.5899491,96.0126255 C79.5896217,98.1760585 79.5759891,98.3702017 79.404707,98.6511317 C79.2249686,98.9458982 79.2021878,98.954299 78.5886077,98.9506545 C78.2276484,98.9506545 77.8532665,98.8901199 77.714179,98.8146987 Z M83.9179332,91.0280322 C84.3038167,90.9385275 84.8337355,90.4831589 85.2484718,89.8846692 C85.4472106,89.5979328 85.4931304,89.4223824 85.4977447,88.9319285 C85.5026863,88.4197315 85.4645742,88.2746955 85.2414485,87.9526884 C84.9071739,87.4703264 84.2482361,86.929221 83.8592641,86.8176644 C83.3943953,86.6843647 79.8392591,86.7059842 79.7022717,86.8429901 C79.5437575,87.0014919 79.5437575,90.845996 79.7022717,91.0045596 C79.8375851,91.139836 83.3515516,91.1594788 83.9179332,91.0280322 Z" id="path4198"></path>
            <path d="M93.4932185,98.9867282 C93.3135975,98.9058713 92.9341628,98.7671358 92.6500269,98.6783723 C92.1230237,98.5137552 91.3163258,97.9688819 91.0721798,97.6125924 C90.9976234,97.5038154 90.8610313,97.3599531 90.7686419,97.2928708 C90.5558257,97.138384 90.5532499,96.8287309 90.7630826,96.5970934 C90.8522909,96.4985702 91.0307445,96.2223347 91.1596461,95.9832847 C91.3777128,95.5788764 91.4224776,95.5465707 91.8032835,95.5193301 C92.1466816,95.4946221 92.259313,95.5329195 92.5030946,95.7577006 C93.0439096,96.2559376 93.5378906,96.5209927 94.1743874,96.6544159 C94.5231965,96.7275516 94.8833836,96.855045 94.9748094,96.9378168 C95.1775077,97.121212 95.2436202,97.1232504 95.5646451,96.9557301 C95.7030718,96.8834592 96.1071156,96.7326168 96.4625156,96.6204424 C97.0790483,96.4258669 97.1145908,96.3987498 97.2372166,96.0291798 C97.3079,95.8161968 97.3610161,95.397952 97.3552529,95.0997264 C97.3449373,94.5677012 97.3351777,94.5486143 96.8293306,94.0733558 C95.9439872,93.2415608 95.8768802,93.1918977 95.4759125,93.071755 C95.2608108,93.0073289 94.9957618,92.8716201 94.8869231,92.7702555 C94.7780781,92.6688292 94.4956779,92.5276847 94.2593644,92.4565256 C94.023057,92.3854283 93.7435539,92.2507697 93.6382545,92.1572499 C93.532949,92.0637919 93.2578439,91.9178293 93.0269043,91.8329573 C92.7531828,91.7322722 92.3552913,91.4348496 91.883881,90.9784309 C91.4861563,90.5932948 91.1607395,90.2626399 91.1607395,90.243553 C91.1607395,89.9369884 90.926977,89.1663457 90.7651705,88.9394644 C90.4429966,88.4878021 90.4806392,87.6665697 90.8539834,87.0019243 C91.0097674,86.7245769 91.1629199,86.387745 91.1943238,86.2533953 C91.278887,85.8916083 92.0552805,84.9955724 92.4002784,84.8615315 C92.5653032,84.7974142 92.8472895,84.6497839 93.0269043,84.5334091 C93.3487693,84.3248736 94.6181555,84.0799555 95.3596119,84.0833528 C96.2053546,84.0895298 97.3173014,84.3010303 97.6637571,84.5264909 C97.8590801,84.6535518 98.1928235,84.803097 98.4053988,84.8586901 C98.7966377,84.9611047 99.4651684,85.5726897 99.4651684,85.8281705 C99.4651684,86.1953932 99.1355574,86.8474375 98.7938951,87.1561023 C98.4757548,87.4435182 98.3717403,87.4874984 98.1247405,87.439009 C97.9638852,87.4075062 97.7152424,87.2957643 97.5722016,87.1908788 C97.4291546,87.0859315 97.1554454,86.9448488 96.9639522,86.8772724 C96.772459,86.8097578 96.4696068,86.6653395 96.2909494,86.556439 C96.0362283,86.4011491 95.814894,86.3583425 95.2655238,86.3580954 C94.6028798,86.3577248 94.533333,86.3784795 93.9815723,86.7389076 C93.6607203,86.948555 93.3523335,87.2057654 93.2962648,87.3105273 C93.2383246,87.4188102 93.2102995,87.7879478 93.2313384,88.1657332 C93.267165,88.8090679 93.2815574,88.8433503 93.6793625,89.234478 C93.9054222,89.4567883 94.2604824,89.7249937 94.4683941,89.8304969 C94.6763058,89.9360619 94.9403974,90.0957374 95.0552649,90.1854274 C95.1701324,90.2751175 95.4505992,90.3764203 95.6785305,90.4105791 C95.9064557,90.4445526 96.1981399,90.5554916 96.326708,90.6566091 C96.4552823,90.7577884 96.7404621,90.903998 96.9604499,90.9816429 C97.1804376,91.0592261 97.4455977,91.2005559 97.5496988,91.2956817 C97.6537936,91.3908075 97.9069271,91.5539421 98.1122012,91.6581482 C98.3174815,91.7624159 98.5527944,91.9284538 98.6351277,92.0271005 C98.7174547,92.125809 98.8644118,92.2656563 98.9617057,92.3379272 C99.3361,92.6162011 99.8189994,93.4932736 99.9689462,94.1673698 C100.163522,95.042095 100.157382,95.5050612 99.9408408,96.285896 C99.7772738,96.8757379 99.7023653,96.9872328 98.984505,97.7088301 C98.3880414,98.3084317 98.0880368,98.5357453 97.7034876,98.6796695 C97.4273076,98.7830107 97.113516,98.929035 97.006172,99.0042091 C96.7166189,99.2070619 93.9524107,99.1932254 93.4934224,98.9869135 L93.4932185,98.9867282 Z" id="path4204"></path>
            <path d="M103.63546,98.6791753 L103.383883,98.3802084 L103.383883,91.4893307 L103.383883,84.598453 L103.62974,84.4050511 C103.819399,84.2558765 104.006012,84.2126375 104.446185,84.215726 C105.139807,84.221903 105.78665,84.3377835 105.93404,84.4850432 C106.010468,84.561391 106.057147,85.452547 106.089824,87.4587136 L106.13646,90.3233599 L109.391209,90.3480679 C111.715633,90.3653635 112.682457,90.3418909 112.77363,90.266655 C112.876434,90.1813506 112.901302,89.6181316 112.901302,87.375077 L112.901302,84.5893728 L113.146406,84.4287707 C113.314581,84.318573 113.644025,84.2563089 114.196119,84.2304272 C114.91414,84.1964537 115.028353,84.214367 115.257334,84.395662 L115.513933,84.5986383 L115.513933,91.489516 L115.513933,98.3803937 L115.272369,98.667439 C115.046303,98.9361386 114.990148,98.954546 114.397335,98.954546 C113.698611,98.954546 113.147239,98.7731893 112.997978,98.4942977 C112.938123,98.3824939 112.901302,97.3558763 112.901302,95.8007543 C112.901302,93.3998773 112.892654,93.276955 112.707913,93.0420436 L112.514523,92.7961989 L109.456586,92.7961989 C106.612608,92.7961989 106.387845,92.8079352 106.24423,92.9668077 C106.108707,93.1166 106.089805,93.4403984 106.089805,95.6121705 C106.089805,98.2037315 106.040389,98.5946122 105.689121,98.7826401 C105.582185,98.8400862 105.132963,98.907292 104.690856,98.9324942 L103.887018,98.978204 L103.635441,98.6792371 L103.63546,98.6791753 Z" id="path4206"></path>
            <path d="M120.25813,98.7439721 C120.121834,98.628771 119.964376,98.4427815 119.908221,98.3306689 C119.795657,98.1060113 119.757434,85.805995 119.866835,85.0079264 C119.916498,84.6455217 119.980041,84.5327914 120.216738,84.3871377 C120.491466,84.218135 120.712281,84.2104755 124.625122,84.2337628 C129.494304,84.2627947 129.136958,84.175699 129.136958,85.3320337 C129.136958,85.9260142 129.100019,86.1050854 128.923333,86.3672992 L128.709713,86.6843647 L125.59559,86.7090727 C123.456383,86.7257506 122.441799,86.7665188 122.354752,86.8388515 C122.254753,86.9218086 122.233393,87.3002117 122.253425,88.6337028 L122.278812,90.3234834 L124.938092,90.3698109 C128.247377,90.4278747 128.145741,90.3951366 128.184378,91.4147125 C128.210136,92.094368 128.19735,92.1470578 127.935661,92.4401566 L127.659796,92.7491302 L125.035855,92.7960754 C122.840363,92.8349905 122.397479,92.8656284 122.323466,92.9827444 C122.188029,93.1970246 122.206677,96.4656468 122.344097,96.6030851 C122.42664,96.6856098 123.26195,96.7150741 125.522708,96.7150741 C127.344614,96.7150741 128.658623,96.7521361 128.760019,96.8063702 C128.986486,96.927563 129.136933,97.3837345 129.136933,97.9491773 C129.136933,98.3329544 129.091841,98.4540236 128.864188,98.6817079 L128.591436,98.9544225 L124.548681,98.9539901 L120.505926,98.953496 L120.258117,98.7440338 L120.25813,98.7439721 Z" id="path4208"></path>
            <path d="M135.923821,98.8377389 C135.610277,98.5996773 135.57521,98.2235597 135.57521,95.0990469 L135.57521,92.0023307 L135.248632,91.5430088 C135.069011,91.2903695 134.922054,91.04366 134.922054,90.9947382 C134.922054,90.9459399 134.785585,90.7498818 134.6188,90.5592596 C134.124485,89.994311 133.975076,89.7977588 133.771921,89.445052 C133.665911,89.2609774 133.461427,88.9643577 133.317528,88.7858424 C133.173629,88.6073888 133.055889,88.4144193 133.055889,88.3570967 C133.055889,88.2996506 132.96647,88.1728985 132.857181,88.0751166 C132.747891,87.9773346 132.584973,87.7271661 132.495134,87.5191864 C132.405302,87.311145 132.211295,87.0114369 132.06401,86.8531203 C131.916732,86.694742 131.70475,86.4450676 131.59294,86.2982403 C131.48113,86.1513512 131.239696,85.8488016 131.056418,85.6258119 C130.663233,85.1474649 130.612891,84.7136541 130.918473,84.4371097 C131.082491,84.2886763 131.261952,84.2603857 132.039062,84.2603857 L132.964358,84.2603857 L133.331253,84.6617672 C133.533044,84.8825333 133.807531,85.2389463 133.94122,85.4538442 C134.074915,85.6687421 134.287632,85.9915522 134.413933,86.1711794 C134.649302,86.5059111 134.755651,86.6410639 135.384742,87.4049737 C135.584346,87.6473592 135.7775,87.9413227 135.813982,88.0581298 C135.850488,88.1749987 135.990113,88.4041037 136.12432,88.5672383 C136.258522,88.7303729 136.431311,88.9475563 136.508289,89.0498474 C136.726609,89.3399812 137.225081,89.2220005 137.383644,88.8426708 C137.450813,88.682007 137.578331,88.4903346 137.667008,88.4168283 C137.755691,88.3432602 137.914873,88.1123021 138.020753,87.9035812 C138.209738,87.5310463 138.494949,87.137633 138.910556,86.6760875 C139.025794,86.5481618 139.189145,86.3086794 139.273554,86.1440006 C139.482219,85.7368744 139.825197,85.3105377 140.376612,84.772768 C140.77572,84.3835551 140.906932,84.313199 141.333022,84.2599533 C141.891941,84.1901532 142.841143,84.2809551 143.016539,84.4212348 C143.080687,84.4725039 143.133173,84.5842459 143.133173,84.6694885 C143.133173,84.8497952 142.610969,85.7180963 142.258133,86.1244812 C141.938701,86.4924452 141.598138,86.9783282 141.37088,87.390396 C141.269936,87.5734823 141.118216,87.7805971 141.03374,87.8507061 C140.949257,87.9208151 140.79952,88.1362071 140.700997,88.329362 C140.602468,88.522455 140.466876,88.7141892 140.39967,88.7554515 C140.332471,88.7968375 140.195712,88.9604045 140.095762,89.1192152 C139.636273,89.8494603 139.304235,90.3421997 139.127159,90.5566652 C137.961299,91.9686043 138.053015,91.5888422 138.022896,95.1287583 C138.008689,96.7966105 137.976383,98.2552477 137.951014,98.3700782 C137.849168,98.8315002 136.366162,99.1736443 135.923821,98.8377389 Z" id="path4210"></path>
            <path d="M155.23332,99.0024178 C155.133703,98.9261936 154.764868,98.7762778 154.413687,98.6692921 C154.062506,98.5623064 153.516657,98.3323367 153.200679,98.1583305 C152.567215,97.8093299 151.14244,96.5049943 151.046474,96.1861374 C151.012995,96.0749514 150.893297,95.8665394 150.78048,95.7231712 C150.432949,95.2813302 149.975907,94.2870801 149.868081,93.7382535 C149.806867,93.4267473 149.77786,92.4601701 149.796193,91.3433064 L149.826955,89.4706866 L150.130208,88.892581 C150.296994,88.5746507 150.433456,88.256844 150.433456,88.1863644 C150.433456,87.7872683 152.297428,85.7111781 152.952777,85.3803996 C153.132398,85.289783 153.342342,85.1625985 153.41932,85.0979253 C153.496298,85.0331904 153.664256,84.9486272 153.792553,84.9100827 C153.920855,84.8717853 154.277756,84.7240932 154.585674,84.5825781 C155.396424,84.2099813 157.05632,83.9538211 157.723356,84.0984247 C157.999091,84.1583416 158.506482,84.2323421 158.850887,84.2631036 C159.251243,84.2989302 159.55685,84.3818255 159.698267,84.4930733 C159.819916,84.5887551 160.125975,84.7464539 160.378385,84.8435564 C160.793566,85.0032319 161.173681,85.2227008 161.803339,85.6663948 C161.924094,85.7515139 162.082966,85.9649293 162.156386,86.1406032 C162.341307,86.5831854 162.20154,87.0308945 161.73588,87.4873131 C161.433955,87.7832533 161.298882,87.8503355 161.007939,87.8486059 C160.797828,87.8486059 160.554634,87.7713934 160.417436,87.6640989 C160.289134,87.5637226 160.137402,87.4807037 160.080252,87.4795301 C160.023115,87.4795301 159.872365,87.3735327 159.745292,87.24641 C159.603499,87.1046479 159.319221,86.9751779 159.009426,86.9112459 C158.731782,86.8537998 158.155406,86.7001778 157.728594,86.5695342 L156.952571,86.3319049 L156.682654,86.5314839 C156.53209,86.6427934 156.273218,86.731001 156.097211,86.731001 C155.566081,86.731001 154.964676,86.9651712 154.449156,87.372668 C153.806852,87.8803557 153.207393,88.5618643 153.043727,88.9704112 C152.971771,89.1500384 152.818007,89.4377014 152.702034,89.6096073 C152.408466,90.0449006 152.367197,90.3639428 152.40673,91.8928125 C152.44058,93.2027692 152.447684,93.2417461 152.76701,93.87563 C153.140867,94.6177967 154.28347,95.8310216 154.757672,95.9893382 C154.91967,96.0436958 155.136193,96.1630355 155.23883,96.2551346 C155.341467,96.3472954 155.534615,96.463979 155.668039,96.5145069 C156.108644,96.6814094 157.36021,96.7360141 158.178039,96.6240869 C158.82532,96.5354469 159.057094,96.4566284 159.438505,96.1953412 C159.695549,96.0192966 159.944772,95.8751872 159.992341,95.8751872 C160.039904,95.8751872 160.173395,95.7863619 160.288973,95.6777702 C160.413594,95.560716 160.672818,95.4607721 160.92589,95.4322344 C161.33763,95.3859069 161.369059,95.4007317 161.818133,95.8496144 C162.418013,96.4495248 162.452128,96.815821 161.957017,97.3407426 C161.777402,97.5311178 161.630439,97.72069 161.630439,97.7620141 C161.630439,97.8034 161.41,97.9420737 161.140572,98.0704318 C160.871143,98.1987899 160.545733,98.360998 160.417436,98.4309216 C160.289134,98.5007835 159.906987,98.6891203 159.56821,98.8494753 L158.952252,99.1410297 L157.183356,99.1410297 C155.762269,99.1410297 155.37885,99.1138509 155.233338,99.0024178 L155.23332,99.0024178 Z" id="path4212"></path>
            <path d="M170.214773,99.0748123 C170.137795,99.0463981 170.011827,98.971224 169.934849,98.9075391 C169.857872,98.8438542 169.583051,98.7228467 169.324142,98.6386542 C169.065239,98.5544617 168.752009,98.4125759 168.628092,98.32338 C168.504169,98.2342459 168.246749,98.0772883 168.05604,97.9746265 C167.310717,97.573492 166.687062,97.092736 166.482295,96.7614016 C166.364419,96.5706558 166.169275,96.3081332 166.048638,96.177922 C165.927995,96.0477726 165.829293,95.8926063 165.829293,95.83306 C165.829293,95.7737608 165.723407,95.5813472 165.593998,95.4059204 C165.464584,95.2304935 165.315057,94.9179372 165.261707,94.7113165 C165.208337,94.5046958 165.089331,94.2300046 164.997195,94.1009052 C164.754686,93.7611701 164.61621,92.8077499 164.616803,91.4821036 C164.617353,90.2637518 164.713695,89.7197433 164.991426,89.3666659 C165.083648,89.2494264 165.188114,88.9426147 165.223564,88.6848484 C165.261182,88.4113926 165.376018,88.1108814 165.499249,87.9634364 C165.615427,87.8244539 165.797043,87.5427826 165.902849,87.3375208 C166.138056,86.8811639 167.433985,85.5970888 167.882071,85.3764463 C168.061686,85.2879299 168.27163,85.1625985 168.348614,85.0979253 C168.425592,85.0331904 168.593544,84.9502332 168.721847,84.9136036 C168.850143,84.8771593 169.207551,84.7263787 169.51608,84.5790572 C170.090887,84.3044895 171.228332,84.0925565 172.127592,84.0924948 C172.888031,84.092433 174.032808,84.2849084 174.447168,84.4823871 C174.659669,84.5836899 175.043471,84.7460833 175.300069,84.8433093 C175.556668,84.9405353 175.934565,85.1275132 176.139845,85.2588362 C176.793514,85.677081 178.111488,86.948555 178.342848,87.3841572 C178.465499,87.6151153 178.634081,87.8880152 178.717459,87.990677 C178.800842,88.0933387 178.938527,88.3912555 179.023424,88.652728 C179.108327,88.9142623 179.260547,89.2905034 179.361689,89.4889087 C179.526603,89.8123983 179.545591,90.0430475 179.545591,91.7230067 C179.545591,93.402904 179.526627,93.6336151 179.361689,93.9570429 C179.260547,94.1554482 179.108432,94.5317511 179.023659,94.7932236 C178.938892,95.0547578 178.776412,95.3736764 178.662594,95.5019727 C178.548777,95.6302691 178.403698,95.8673424 178.340192,96.0287474 C178.198856,96.3880019 176.695578,97.8749915 176.373113,97.974503 C176.244817,98.0140358 176.001919,98.166793 175.833349,98.3138057 C175.627932,98.4930005 175.424542,98.5811463 175.216649,98.5811463 C175.04604,98.5811463 174.670398,98.7070954 174.381889,98.861088 L173.85732,99.1410297 L172.106028,99.1336173 C171.142818,99.1274403 170.291756,99.10335 170.214773,99.0749358 L170.214773,99.0748123 Z M173.514341,96.5833804 C173.815174,96.512592 174.17289,96.3721887 174.309266,96.2713801 C174.445636,96.1705714 174.652077,96.0579647 174.76802,96.0211497 C175.041747,95.9343011 176.216693,94.7750014 176.410126,94.4009222 C176.492404,94.2418026 176.623084,94.0761972 176.700525,94.0328347 C176.898554,93.9220193 177.120592,92.666729 177.114669,91.6914422 C177.107565,90.5190473 176.927487,89.6592704 176.58386,89.1570184 C176.289675,88.7270373 175.03864,87.48546 174.56243,87.1509136 C174.130467,86.8474375 173.505607,86.7345219 172.267557,86.7362515 C170.760474,86.7362515 169.976112,86.8882675 169.502867,87.2647557 C168.939456,87.7128972 167.788761,88.9355111 167.788761,89.0859829 C167.788761,89.1604775 167.707157,89.2952597 167.607423,89.3855057 C167.348205,89.6201082 167.135605,90.6733488 167.135605,91.7230067 C167.135605,92.7257811 167.360856,93.9006468 167.568391,93.9802684 C167.642651,94.0086826 167.781695,94.1843565 167.877383,94.3704696 C168.142216,94.8855698 169.092875,95.8840203 169.464502,96.0373952 C169.64621,96.112384 169.857872,96.2292529 169.934849,96.2971999 C170.359901,96.6720822 172.432878,96.8378111 173.514341,96.5833804 Z" id="path4214"></path>
            <path d="M189.560438,99.0243462 C189.29915,98.6094987 188.791314,97.5220994 188.736734,97.2606887 C188.700846,97.0888445 188.569375,96.7706671 188.444562,96.5536073 C188.319743,96.3365474 188.173861,95.9166349 188.120381,95.6205094 C188.066888,95.3243839 187.92515,94.9351093 187.805397,94.7555439 C187.685637,94.5759167 187.558644,94.2819532 187.523182,94.1023877 C187.487726,93.9227605 187.384817,93.6471427 187.294509,93.4898762 C187.204202,93.3326098 187.033469,92.912759 186.915106,92.5567784 C186.796742,92.2008595 186.601771,91.7249215 186.481838,91.4991521 C186.361906,91.2733827 186.263784,91.0190138 186.263784,90.9338329 C186.263784,90.8486521 186.20745,90.7018865 186.138545,90.6076873 C186.018971,90.4441203 186.006327,90.446344 185.858622,90.6571033 C185.756572,90.802757 185.703932,91.0671944 185.703932,91.4342319 C185.703932,91.7844678 185.638461,92.1309976 185.527152,92.3698623 C185.347976,92.7543806 185.283086,93.1594684 185.145049,94.7553586 C185.043851,95.9252827 184.873885,96.8888949 184.713832,97.2000305 C184.642556,97.3386424 184.582898,97.653546 184.581268,97.8998848 C184.577561,98.4624861 184.452805,98.6261149 183.879091,98.8208757 C183.3463,99.0017383 182.390242,98.9463306 182.165411,98.7214878 C181.936541,98.4926299 182.038499,97.4255528 182.353279,96.7553482 C182.451277,96.546689 182.532968,96.2107837 182.534815,96.0088575 C182.541053,95.325187 182.775508,93.8379503 182.900839,93.6869226 C182.973907,93.5989003 183.076803,93.017768 183.149618,92.28184 C183.217911,91.5916219 183.341235,90.8686038 183.423667,90.6750783 C183.563304,90.3472649 183.637113,89.9731857 183.842857,88.5503751 C183.98271,87.5832419 184.087052,87.0662269 184.196842,86.7964155 C184.255276,86.652862 184.339617,86.1375765 184.384314,85.6513847 C184.47385,84.6773951 184.593739,84.4509462 185.089839,84.3186966 C185.672262,84.1634067 186.296757,84.6342796 186.405454,85.3106613 C186.436153,85.5015924 186.518338,85.8047596 186.588126,85.9843868 C186.93242,86.8705395 187.229731,87.5377174 187.33655,87.6639136 C187.401711,87.7409408 187.526975,88.0552884 187.614917,88.3625325 C187.702853,88.6698383 187.871009,89.0896891 187.988601,89.2956303 C188.106192,89.5015716 188.229757,89.8262966 188.263193,90.0172277 C188.296611,90.2081588 188.421195,90.4810587 188.540009,90.6237475 C188.658818,90.7663744 188.808672,91.1140161 188.873011,91.3962433 C188.937357,91.6785323 189.087755,92.0564412 189.207237,92.2360067 C189.326712,92.4156339 189.451531,92.6885956 189.484602,92.8425265 C189.517649,92.9965191 189.586412,93.2274154 189.637347,93.3557118 C189.752524,93.6458455 190.261675,94.0629784 190.364201,93.9512365 C190.405711,93.9061444 190.513024,93.6380007 190.602627,93.3557118 C190.692237,93.0734845 190.842128,92.7152185 190.935728,92.5596198 C191.029328,92.4040211 191.151695,92.0723779 191.207659,91.8226417 C191.263622,91.5729055 191.393518,91.2504661 191.496322,91.1061095 C191.59912,90.961753 191.761822,90.6215855 191.857881,90.3501681 C191.953939,90.0787506 192.116456,89.6879935 192.219031,89.4818052 C192.321607,89.2756169 192.434473,88.9526214 192.469849,88.7640993 C192.505243,88.5755155 192.633224,88.2869877 192.754299,88.1228648 C192.875381,87.9587419 193.002127,87.639885 193.035952,87.4143009 C193.069802,87.1887168 193.197234,86.8571354 193.319168,86.6774464 C193.441102,86.4977574 193.589121,86.1528337 193.648093,85.9109423 C193.755894,85.4688543 193.870064,85.1943483 194.022598,85.0105208 C194.067876,84.9561631 194.200021,84.7643672 194.316278,84.58474 C194.491217,84.3144962 194.591457,84.2534674 194.897836,84.2307361 C195.101437,84.2159113 195.34381,84.2585326 195.43644,84.3265414 C195.612973,84.4557642 195.77481,84.9956342 195.779566,85.4712015 C195.780802,85.6251324 195.851022,85.8770923 195.934936,86.0310232 C196.08736,86.3107178 196.325094,87.892092 196.33554,88.6958435 C196.338628,88.9297665 196.402715,89.2027282 196.478062,89.3023015 C196.553409,89.4019365 196.616389,89.614796 196.61802,89.7752745 C196.619873,89.9358148 196.683972,90.2179185 196.76095,90.4021166 C196.837934,90.5863766 196.900921,90.9589116 196.900933,91.2299584 C196.900952,91.8036783 197.131527,93.0892359 197.286273,93.3783813 C197.385754,93.5642473 197.433638,93.8577167 197.640413,95.5484856 C197.684331,95.90774 197.782688,96.3485926 197.858949,96.5282198 C198.05699,96.9946452 198.155877,98.3273333 198.01262,98.5993067 C197.84665,98.9143338 197.753359,98.9512105 197.118592,98.9528165 C196.528287,98.9528165 195.784051,98.7141371 195.628619,98.4720604 C195.5847,98.403681 195.518607,97.9908103 195.481736,97.5545904 C195.355602,96.0622886 195.293838,95.6413259 195.125774,95.128573 C195.033255,94.8463458 194.928369,94.1745351 194.892697,93.6356535 C194.850014,92.990898 194.765377,92.5123657 194.645172,92.2360067 C194.544703,92.0051103 194.438669,91.6061996 194.409551,91.3496069 C194.358652,90.9012801 194.151092,90.5149087 194.008478,90.6030545 C193.970922,90.6265271 193.891257,90.8941766 193.831408,91.1983939 C193.771553,91.5026113 193.660496,91.8029988 193.584606,91.8660043 C193.508721,91.9290097 193.379418,92.2164873 193.297264,92.5048298 C193.215116,92.793234 193.047991,93.2312452 192.925872,93.4782635 C192.803753,93.72522 192.63614,94.1661344 192.553399,94.4579977 C192.470652,94.749861 192.344035,95.0819984 192.272024,95.1961494 C192.200019,95.3102386 192.078159,95.646144 192.001236,95.9425783 C191.924308,96.2390126 191.778401,96.5942519 191.676987,96.7319373 C191.575579,96.8696845 191.451168,97.1672924 191.400523,97.3932471 C191.314372,97.7777037 190.852685,98.7557701 190.631678,99.0220607 C190.503554,99.1764239 189.657373,99.1781535 189.560438,99.0220607 L189.560438,99.0243462 Z" id="path4216"></path>
            <path d="M201.932496,98.7135812 L201.706288,98.4728017 L201.706288,91.5321991 C201.706288,84.9961901 201.715986,84.5818368 201.872746,84.424941 C202.022322,84.2752105 202.281874,84.2555058 204.432143,84.2304272 C206.82995,84.2026307 207.959514,84.288491 208.330993,84.5272321 C208.433729,84.5933261 208.65754,84.6952466 208.828346,84.7538046 C209.295346,84.9138507 210.412315,85.6866554 210.478619,85.8954998 C210.510616,85.9963702 210.639388,86.2007672 210.764768,86.3497565 C210.890143,86.4988075 211.056304,86.8008629 211.134005,87.0211348 C211.211712,87.2413449 211.343609,87.4970728 211.42711,87.5892954 C211.544263,87.7187654 211.589188,88.0234769 211.623872,88.9237131 C211.667914,90.0664584 211.663775,90.0976522 211.42294,90.4451703 C211.287707,90.6403018 211.177065,90.8487756 211.177065,90.9083837 C211.177065,91.0742362 210.872372,91.6763703 210.788451,91.6763703 C210.747683,91.6763703 210.632198,91.837343 210.531828,92.0340805 C210.358507,92.3738156 210.009976,92.6812449 209.170941,93.234519 C208.588098,93.618852 207.925849,93.7383152 206.061352,93.795329 C204.357365,93.8472158 204.351083,93.8484512 204.265167,94.0743441 C204.217727,94.1990578 204.178954,95.1571725 204.178954,96.2034948 C204.178954,97.4817635 204.142325,98.1862506 204.067256,98.3509912 C203.902929,98.7116663 203.355307,98.9543607 202.706005,98.9543607 C202.238295,98.9543607 202.125805,98.9191518 201.932496,98.7135812 Z M207.250777,91.3566487 C207.331795,91.2834512 207.605473,91.1466307 207.858952,91.0525549 C208.330672,90.8775605 208.609044,90.5503029 208.994928,89.7171489 C209.200653,89.2729607 209.11179,88.4057097 208.821644,88.0260712 C207.913786,86.8380485 207.850379,86.8099431 205.951809,86.7525588 C204.01254,86.6938772 204.160491,86.49331 204.197152,89.1326193 C204.218895,90.6989833 204.255772,91.2179133 204.353665,91.3356469 C204.461583,91.4654875 204.687964,91.4897013 205.792597,91.4897013 C206.796669,91.4897013 207.137942,91.4588163 207.250777,91.3566487 Z" id="path4218"></path>
            <path d="M212.343635,98.6576793 C212.123703,98.3963304 212.101472,98.310223 212.156873,97.9345378 C212.191464,97.699997 212.3392,97.3267826 212.485175,97.1051518 C212.63115,96.8835209 212.797027,96.4856603 212.853787,96.2209757 C212.910554,95.9562912 213.034205,95.6547918 213.128583,95.5508946 C213.222956,95.4469974 213.352524,95.1940492 213.416518,94.9887874 C213.480512,94.7835257 213.631503,94.4833852 213.752053,94.3218566 C213.872609,94.160328 214.015947,93.8286848 214.070582,93.5848785 C214.125249,93.3410723 214.244811,93.0323457 214.336348,92.8988607 C214.427885,92.7653139 214.577035,92.4558462 214.6678,92.2111751 C214.758558,91.9664423 214.894354,91.7047228 214.969565,91.6294869 C215.04477,91.5543128 215.17264,91.292655 215.253719,91.0480457 C215.334798,90.8034364 215.476913,90.5192944 215.569537,90.4166326 C215.662155,90.3139708 215.780803,90.0410709 215.83319,89.8101746 C215.885571,89.5792165 216.155611,88.9284076 216.433267,88.3638914 C216.710917,87.7993752 217.007703,87.1236112 217.092779,86.8621388 C217.177861,86.6006663 217.351237,86.2461064 217.478057,86.0742004 C217.604877,85.9022945 217.708639,85.704754 217.708639,85.6352009 C217.708639,85.4620596 217.970476,84.9697525 218.185102,84.7394122 C218.282284,84.6350826 218.361795,84.5224141 218.361795,84.4889965 C218.361795,84.3505699 218.796508,84.2459933 219.069197,84.3187583 C219.420088,84.4124017 219.610636,84.6192077 219.751892,85.0597515 C219.810944,85.2438879 219.963213,85.5355041 220.090268,85.7077189 C220.217317,85.8799337 220.321269,86.0696912 220.321269,86.1294846 C220.321269,86.1894015 220.441591,86.4645252 220.58866,86.7411931 C220.735722,87.017861 220.92425,87.4801478 221.007602,87.768552 C221.090961,88.0568944 221.220264,88.3435691 221.29495,88.4055244 C221.369636,88.4675415 221.498606,88.7225899 221.581563,88.9723261 C221.664514,89.2220623 221.815424,89.5319624 221.916919,89.661 C222.018419,89.7900376 222.180108,90.1177893 222.276229,90.389392 C222.372355,90.6609948 222.533729,91.051196 222.634841,91.2564577 C222.735952,91.4617195 222.846984,91.7617982 222.881575,91.9232651 C222.916166,92.0847319 223.024072,92.2888818 223.121354,92.3769041 C223.218635,92.4649263 223.344757,92.7611136 223.401629,93.0350636 C223.458519,93.3089519 223.612703,93.6917406 223.744323,93.8856985 C223.875936,94.0796563 224.036106,94.3870857 224.100248,94.5688749 C224.164396,94.7507258 224.322107,95.0545107 224.450725,95.2440212 C224.579336,95.4335933 224.712481,95.7748109 224.746603,96.0023099 C224.780886,96.2307972 224.908916,96.532729 225.032592,96.6766532 C225.155768,96.8200214 225.30325,97.1286861 225.360332,97.362671 C225.417407,97.596594 225.520112,97.8908664 225.588559,98.0166301 C225.694365,98.2109586 225.691474,98.2781026 225.569287,98.4645863 C225.346316,98.8048773 224.961279,98.9543607 224.307789,98.9543607 C223.807112,98.9543607 223.684048,98.9210049 223.530599,98.7444662 C223.161121,98.3189943 222.770568,97.6845545 222.654626,97.3214704 C222.467963,96.7370025 222.203649,96.2636588 222.004311,96.156982 C221.88491,96.0931118 220.749533,96.0677861 218.721618,96.0839081 L215.621461,96.1086161 L215.364114,96.5284669 C215.222575,96.759425 215.036116,97.1793375 214.949761,97.4615647 C214.714356,98.2310338 214.567621,98.4657599 214.16215,98.7217349 C213.867835,98.9075391 213.672339,98.9544843 213.193368,98.9544843 C212.633645,98.9544843 212.57652,98.9347179 212.34366,98.6578029 L212.343635,98.6576793 Z M220.795286,93.5694978 C220.900858,93.2918416 220.707276,92.6270109 220.46145,92.4229845 C220.389989,92.3636853 220.284782,92.0899823 220.227651,91.8147969 C220.170514,91.5396115 220.041346,91.2096361 219.940599,91.0815868 C219.839853,90.9534758 219.694236,90.6696426 219.617005,90.4507296 C219.539774,90.2318167 219.416308,89.9860956 219.342641,89.9046827 C219.268974,89.8233316 219.121152,89.5587706 219.014154,89.3168792 C218.90715,89.0749878 218.784685,88.8770767 218.742008,88.8770767 C218.699325,88.8770767 218.596317,89.1481853 218.513101,89.4794579 C218.429878,89.8107923 218.256823,90.2365112 218.128527,90.4255893 C218.000224,90.6146055 217.895258,90.8205467 217.895258,90.8832433 C217.895258,90.9458781 217.788631,91.1542901 217.658308,91.3463331 C217.527986,91.5383143 217.36395,91.9115905 217.293773,92.1757809 C217.127309,92.8023759 217.052406,92.9826826 216.958479,92.9826826 C216.835526,92.9826826 216.762625,93.3185262 216.828558,93.5812341 L216.889093,93.822446 L218.794105,93.822446 L220.699117,93.822446 L220.79528,93.5694978 L220.795286,93.5694978 Z" id="path4220"></path>
            <path d="M238.914149,98.8951233 C238.807788,98.7599087 238.72076,98.5951681 238.72076,98.5290742 C238.72076,98.4629185 238.447835,98.1372052 238.114259,97.8052531 C237.780682,97.4733011 237.507751,97.1571003 237.507751,97.1024956 C237.507751,97.048138 237.267145,96.7599191 236.973064,96.4625583 C236.678983,96.1651974 236.328617,95.7539326 236.194465,95.5486091 C236.060319,95.3433473 235.608119,94.8081719 235.189572,94.359351 C234.771031,93.91053 234.428584,93.4917293 234.428584,93.4287239 C234.428584,93.3657803 234.181652,93.0792292 233.879838,92.7920604 C233.578029,92.5048298 233.26643,92.1448341 233.187396,91.9920151 C233.108361,91.8391343 232.849464,91.527134 232.612064,91.2986467 C232.374669,91.0701594 232.05882,90.6942888 231.910183,90.4633307 C231.761546,90.2323726 231.514182,89.8964673 231.360479,89.7169019 C230.844385,89.1137176 230.839184,89.1539917 230.809343,93.9756974 C230.786611,97.6450217 230.760791,98.3517325 230.642644,98.5320391 C230.450842,98.8247672 229.802825,98.9924728 229.169522,98.9133454 C228.241674,98.7974649 228.320172,99.4576628 228.293987,91.5499271 C228.27595,86.1082357 228.296458,84.5817751 228.389478,84.3983181 C228.482441,84.21517 228.591249,84.1589593 228.895979,84.1366603 C229.272431,84.1088638 229.308788,84.1304833 230.106808,84.9338024 C230.559304,85.3878738 231.034501,85.9045182 231.162797,86.0819217 C231.291099,86.2593252 231.674339,86.6983247 232.014445,87.0575791 C232.354557,87.4168335 232.697362,87.8366843 232.776242,87.990677 C232.855116,88.1446079 233.280156,88.6422889 233.720774,89.0966073 C234.161391,89.550864 234.521894,89.9678117 234.521894,90.0231576 C234.521894,90.0787506 234.940182,90.5350457 235.451427,91.0377301 C235.962673,91.5404763 236.449921,92.0893029 236.534206,92.2573173 C236.618485,92.4253318 236.965132,92.8459856 237.304534,93.192083 C237.908645,93.8081771 237.924069,93.8170102 238.03796,93.6119956 C238.126125,93.4532466 238.155101,92.3382978 238.157603,89.0082145 C238.160691,84.9231162 238.172551,84.6033328 238.326272,84.4642267 C238.56371,84.2493288 239.598327,84.1692131 240.116849,84.325553 C240.494029,84.4393334 240.540381,84.4857227 240.609594,84.8188484 C240.651598,85.0210834 240.674206,88.2460342 240.659813,91.9854675 L240.633623,98.7843079 L240.413339,98.9626379 C240.252903,99.0925403 240.045616,99.1410297 239.650318,99.1410297 C239.175128,99.1410297 239.08351,99.1107624 238.914193,98.8951233 L238.914149,98.8951233 Z" id="path4222"></path>
            <path d="M248.121872,98.6977681 L247.877331,98.4411754 L247.847805,95.3153655 L247.818279,92.1895556 L247.585004,91.8358605 C247.456708,91.6413467 247.215274,91.311989 247.048482,91.1038858 C246.881697,90.8958444 246.745235,90.6691484 246.745235,90.6001513 C246.745235,90.487421 246.413301,90.055278 245.760917,89.3186706 C245.635135,89.1766613 245.532226,89.0077821 245.532226,88.9434177 C245.532226,88.8789916 245.412201,88.6802774 245.265497,88.5018239 C245.118793,88.3233085 244.968772,88.0820966 244.932112,87.9657219 C244.895482,87.8493472 244.746709,87.6393909 244.601574,87.499173 C244.456439,87.358955 244.144322,86.9502846 243.907977,86.5910302 C243.671639,86.2318375 243.418073,85.8737567 243.344505,85.7954324 C242.968548,85.3950391 242.920621,84.76202 243.241936,84.4406924 C243.441558,84.2411134 243.552374,84.2123904 244.105036,84.2169614 C244.94727,84.2237561 245.337336,84.3691627 245.594651,84.7715326 C245.844628,85.1624132 246.235181,85.6973416 246.569005,86.1060738 C246.703015,86.2701967 246.887293,86.5513738 246.978503,86.731001 C247.069719,86.9106282 247.253991,87.1880374 247.388001,87.3475276 C247.522017,87.506956 247.715636,87.7374199 247.818279,87.8595392 C247.920916,87.9817203 248.109864,88.2692597 248.238167,88.4984883 C248.366463,88.7277786 248.603419,88.9920307 248.764731,89.0856741 L249.058028,89.2559122 L249.351516,88.9623811 C249.512927,88.800976 249.72843,88.5163398 249.830412,88.3297944 C249.932395,88.1432489 250.204257,87.7597189 250.434554,87.4774917 C250.664851,87.1952027 250.942402,86.7963537 251.051334,86.5910302 C251.160271,86.3857684 251.328304,86.1338703 251.424746,86.0312085 C251.86689,85.5606445 252.227182,85.0724143 252.339758,84.791299 C252.516469,84.350014 252.739879,84.2676745 253.774156,84.2627329 C254.577395,84.2565559 254.707853,84.2806462 254.82387,84.439457 C255.043301,84.7394739 254.98945,85.2777378 254.706346,85.6141991 C254.568846,85.7775808 254.390392,86.0283053 254.309789,86.1713029 C254.13186,86.4868859 253.639769,87.1506047 253.322809,87.5024468 C253.194871,87.644456 253.090189,87.816362 253.090189,87.8844943 C253.090189,87.9526266 253.002747,88.0875324 252.895873,88.1842642 C252.788992,88.280996 252.641819,88.5030593 252.568807,88.6778066 C252.495801,88.852554 252.299817,89.1555977 252.133297,89.3512851 C251.674414,89.8904756 251.454414,90.1974726 251.270321,90.5554916 C251.178296,90.7344393 250.99377,90.9907849 250.860267,91.1250729 C250.726757,91.2593609 250.512551,91.5328168 250.384255,91.7327663 L250.15098,92.0962211 L250.104344,95.2687292 C250.056657,98.5131375 250.027341,98.7632443 249.679422,98.8967293 C249.596817,98.928232 249.267595,98.9541754 248.947818,98.9541754 C248.43504,98.9541754 248.337536,98.9239081 248.12186,98.6975828 L248.121872,98.6977681 Z" id="path4224"></path>
            <path d="M240.283671,37.8575448 C240.134966,37.7279945 240.120382,37.4658796 240.120382,34.9219 C240.120382,32.2697982 240.129833,32.1165097 240.307002,31.8912654 C240.431221,31.7333441 240.494381,31.5100393 240.495894,31.2233894 C240.498983,30.6321824 240.652117,30.0008372 240.86287,29.7099808 C240.959713,29.576329 241.086422,29.2906921 241.144436,29.0752321 C241.202438,28.8597659 241.32205,28.6113578 241.410202,28.5232058 C241.498354,28.4350538 241.686857,28.1643405 241.829101,27.9216214 C241.971339,27.6789085 242.122849,27.4803179 242.165779,27.4803179 C242.208709,27.4803179 242.296459,27.3532631 242.36078,27.1979733 C242.425108,27.0426835 242.598156,26.8298796 242.745336,26.7250806 C242.892515,26.6202754 243.012936,26.4754865 243.012936,26.4033206 C243.012936,26.3311485 243.132665,26.2101905 243.279004,26.134516 C243.425343,26.0588416 243.615262,25.8898079 243.701042,25.7588864 C243.786828,25.6279648 243.921036,25.5208494 243.99928,25.5208494 C244.077524,25.5208494 244.234728,25.4203002 244.34862,25.2974088 C244.462511,25.1745235 244.730569,24.9828264 244.944311,24.871418 C245.158054,24.7600096 245.381013,24.6109215 245.439775,24.5401145 C245.498518,24.4693076 245.763827,24.3399241 246.029308,24.2525936 C246.294783,24.1652632 246.624462,24.0002446 246.761925,23.8858836 C246.899382,23.7715226 247.156049,23.6509043 247.332291,23.6178388 C247.508527,23.5847918 247.72655,23.4761507 247.816778,23.3764477 C247.996399,23.1779745 248.348253,23.0481154 248.965521,22.952483 C249.185935,22.9183242 249.542836,22.7934499 249.758642,22.6749565 C250.049819,22.5150772 250.411946,22.4348503 251.162755,22.3638951 C251.820686,22.3017174 252.229041,22.2189147 252.33048,22.1271121 C252.509996,21.9646508 253.175963,21.7941346 253.643939,21.790799 C253.820181,21.7895636 254.135097,21.7083422 254.34375,21.6103441 C254.762785,21.4135325 254.944778,21.379281 256.627733,21.180431 C257.276473,21.1037806 257.851064,20.9879247 257.934052,20.9170436 C258.171193,20.7144936 258.394306,20.6628662 259.423179,20.5724658 C259.956773,20.5255823 260.482176,20.4300673 260.590743,20.3601993 C260.921781,20.147173 261.40872,20.0087835 262.111218,19.928081 C262.551929,19.8774295 262.87821,19.7819825 263.064898,19.6490534 C263.253062,19.5150681 263.635313,19.4041724 264.199483,19.3198934 C264.792753,19.2312658 265.111338,19.1361152 265.251927,19.0055643 C265.362823,18.9025875 265.694688,18.7743035 265.989399,18.7204833 C266.284116,18.6666816 266.64334,18.5353153 266.787678,18.4286076 C266.93201,18.3218937 267.299714,18.1696307 267.604796,18.09025 C267.909879,18.0108632 268.23314,17.8673344 268.323151,17.7712882 C268.413162,17.675242 268.702845,17.5325038 268.966893,17.454093 C269.230942,17.3756759 269.503292,17.2311279 269.572116,17.1328642 C269.64094,17.0346066 269.908052,16.9001827 270.165701,16.8341505 C270.462271,16.7581364 270.685922,16.6350658 270.775266,16.4987146 C270.85288,16.3802583 270.976939,16.283335 271.050952,16.283335 C271.124958,16.283335 271.323438,16.1631923 271.492014,16.0163526 C271.660585,15.8695129 271.933818,15.6800828 272.099189,15.5954023 C272.26456,15.5107218 272.554607,15.3364253 272.743728,15.2080796 C273.066588,14.9889813 273.098097,14.9842312 273.259502,15.1302988 C273.422062,15.2774164 273.431401,15.5353062 273.431401,19.8757 C273.431401,24.3470338 273.42646,24.4698944 273.244788,24.6344188 C273.142151,24.7273086 273.058168,24.8597805 273.058168,24.9288085 C273.058168,25.1251198 272.367524,25.7665335 272.077866,25.8392306 C271.934399,25.8752425 271.736321,26.0072821 271.637699,26.1326629 C271.539077,26.2580375 271.404227,26.360619 271.338028,26.360619 C271.271829,26.360619 271.059285,26.4864939 270.865697,26.6403321 C270.672116,26.7941704 270.356317,26.9624257 270.163928,27.0142322 C269.971533,27.0660573 269.756746,27.1776139 269.686619,27.2621709 C269.525146,27.4568824 269.112633,27.6273861 268.597941,27.7121593 C268.37295,27.7492213 268.101718,27.8731567 267.98063,27.9942444 C267.827551,28.1473229 267.604735,28.2295017 267.215602,28.2763913 C266.913627,28.3127739 266.456615,28.4402487 266.200023,28.5596563 C265.943424,28.6790515 265.455558,28.8208879 265.115879,28.8748378 C264.776199,28.928763 264.314326,29.053069 264.089489,29.1510239 C263.864653,29.2489788 263.281809,29.3786835 262.794271,29.4392551 C261.789217,29.5641232 261.468439,29.6346769 260.741493,29.8907445 C260.376166,30.01943 259.838452,30.090169 258.875328,30.1362433 C257.871052,30.1843004 257.482031,30.2372805 257.365891,30.3418633 C257.120269,30.563037 256.601907,30.6524677 255.12624,30.7282595 C254.030965,30.784532 253.721003,30.8307359 253.579309,30.9589705 C253.481848,31.0471719 253.26619,31.1193378 253.100066,31.1193378 C252.933948,31.1193378 252.724399,31.1587471 252.634401,31.2069092 C252.544408,31.2550898 252.011814,31.3428403 251.450856,31.401948 C250.889904,31.4610619 250.30963,31.5744284 250.16137,31.6538894 C250.013103,31.7333565 249.555962,31.8566494 249.145494,31.9278826 C248.635039,32.016467 248.316862,32.1266647 248.138686,32.2765929 C247.99441,32.3979895 247.684893,32.5247725 247.444959,32.5607535 C247.201277,32.5973214 246.926709,32.7107496 246.817388,32.8200702 C246.710495,32.9269632 246.414469,33.0936681 246.159544,33.1905297 C245.904625,33.2873974 245.560758,33.4698414 245.395406,33.5959634 C245.230047,33.7220854 245.047634,33.8252784 244.99004,33.8252784 C244.93247,33.8252784 244.738358,33.9722354 244.558743,34.1518565 C244.379122,34.3314713 244.189852,34.4784346 244.138139,34.4784346 C244.086437,34.4784346 243.98052,34.6014248 243.902782,34.7517422 C243.825051,34.9020657 243.683382,35.0498319 243.587972,35.0801178 C243.492555,35.1103851 243.366643,35.2401824 243.308166,35.3685281 C243.24967,35.4968677 243.096356,35.641984 242.96743,35.6910047 C242.838497,35.7399883 242.733013,35.842891 242.733013,35.9196093 C242.733013,35.9963215 242.607045,36.1522167 242.45309,36.2660403 C242.299128,36.3798701 242.17316,36.52553 242.17316,36.5897399 C242.17316,36.6539498 242.005208,36.9005357 241.799933,37.1377141 C241.594653,37.3748986 241.4267,37.6228743 241.4267,37.6887767 C241.4267,37.9890655 240.962598,38.1893857 240.586925,38.0512555 C240.509947,38.0229649 240.373485,37.9357827 240.283671,37.8575448 Z" id="path4236"></path>
        </g>
        <rect id="Rectangle" fill-opacity="0" fill="#FFFFFF" x="0" y="0" width="450" height="300"></rect>
    </g>
</svg>