<?xml version="1.0" encoding="UTF-8"?>
<svg width="450px" height="300px" viewBox="0 0 450 300" version="1.1" xmlns="http://www.w3.org/2000/svg" xmlns:xlink="http://www.w3.org/1999/xlink">
    <!-- Generator: Sketch 50.2 (55047) - http://www.bohemiancoding.com/sketch -->
    <title>hnb-logo</title>
    <desc>Created with Sketch.</desc>
    <defs></defs>
    <g id="hnb-logo" stroke="none" stroke-width="1" fill="none" fill-rule="evenodd">
        <path d="M255.927624,168.168173 C255.927624,168.611214 255.569138,168.97028 255.125518,168.97028 L244.849285,168.97028 C244.406823,168.97028 244.047178,168.611214 244.047178,168.168173 L244.047178,132.530308 C244.047178,132.087267 244.406823,131.72878 244.849285,131.72878 L255.125518,131.72878 C255.569138,131.72878 255.927624,132.087267 255.927624,132.530308 L255.927624,168.168173 Z M154.907922,117.391628 L143.848693,117.391628 C143.405652,117.391628 143.046587,117.750694 143.046587,118.193156 L143.046587,136.758598 L134.11048,136.758598 L134.11048,118.191419 C134.11048,117.747799 133.751993,117.389312 133.308952,117.389312 L122.249145,117.389312 C121.806104,117.389312 121.447038,117.747799 121.447038,118.191419 L121.447038,168.168173 C121.447038,168.611214 121.806104,168.97028 122.249145,168.97028 L133.308952,168.97028 C133.751993,168.97028 134.11048,168.611214 134.11048,168.168173 L134.11048,147.931337 L143.046587,147.931337 L143.046587,168.17049 C143.046587,168.612951 143.405652,168.972596 143.848693,168.972596 L154.907922,168.972596 C155.350963,168.972596 155.709449,168.612951 155.709449,168.17049 L155.709449,118.193156 C155.709449,117.750694 155.350963,117.391628 154.907922,117.391628 Z M259.888352,168.168173 C259.888352,168.611214 260.246839,168.97028 260.690459,168.97028 L270.691022,168.97028 C271.133484,168.97028 271.493129,168.611214 271.493129,168.168173 L271.493129,140.076482 L274.132263,140.076482 C275.487447,140.076482 276.584335,141.174529 276.584335,142.529134 L276.584335,168.168173 C276.584335,168.610635 276.94398,168.97028 277.386442,168.97028 L287.440286,168.97028 C287.883327,168.97028 288.242393,168.610635 288.242393,168.168173 L288.242393,140.145979 C288.242393,135.497814 284.47336,131.72936 279.824615,131.72936 L261.172302,131.72936 C260.462279,131.72936 259.888352,132.303286 259.888352,133.012151 L259.888352,168.168173 Z M374.779001,168.168173 C374.779001,168.611214 375.136908,168.97028 375.580528,168.97028 L385.581091,168.97028 C386.023553,168.97028 386.383198,168.611214 386.383198,168.168173 L386.383198,140.076482 L389.022332,140.076482 C390.377516,140.076482 391.474405,141.174529 391.474405,142.529134 L391.474405,168.168173 C391.474405,168.610635 391.83405,168.97028 392.276511,168.97028 L402.330934,168.97028 C402.773396,168.97028 403.133041,168.610635 403.133041,168.168173 L403.133041,140.145979 C403.133041,135.497814 399.364008,131.72936 394.715263,131.72936 L376.061792,131.72936 C375.353506,131.72936 374.77958,132.303286 374.77958,133.012151 L374.77958,168.168173 L374.779001,168.168173 Z M192.168533,168.168173 C192.168533,168.611214 192.527598,168.97028 192.970639,168.97028 L202.971203,168.97028 C203.413664,168.97028 203.771572,168.611214 203.771572,168.168173 L203.771572,140.076482 L206.411285,140.076482 C207.766469,140.076482 208.863936,141.174529 208.863936,142.529134 L208.864516,168.168173 C208.864516,168.610635 209.223002,168.97028 209.666622,168.97028 L219.720466,168.97028 C220.163507,168.97028 220.521994,168.610635 220.521994,168.168173 L220.522573,140.145979 C220.522573,135.497814 216.754119,131.72936 212.104795,131.72936 L193.450745,131.72936 C192.743038,131.72936 192.168533,132.303286 192.168533,133.012151 L192.168533,168.168173 Z M188.050279,132.530308 C188.050279,132.087267 187.691213,131.72878 187.248172,131.72878 L177.247609,131.72878 C176.804568,131.72878 176.445502,132.087267 176.445502,132.530308 L176.445502,160.621999 L173.807526,160.621999 C172.452922,160.621999 171.353717,159.523952 171.353717,158.168768 L171.353717,132.530887 C171.353717,132.087267 170.994651,131.72878 170.55161,131.72878 L160.498345,131.72878 C160.055304,131.72878 159.696238,132.087267 159.696238,132.530887 L159.696238,160.551923 C159.696238,165.200667 163.465272,168.969701 168.114016,168.969701 L186.768066,168.969701 C187.475774,168.969701 188.050279,168.394616 188.050279,167.688067 L188.050279,132.530308 Z M239.589549,160.627211 L237.623374,160.627211 C236.26819,160.627211 235.169564,159.528585 235.169564,158.17398 L235.169564,141.786099 L239.589549,141.786099 C240.033169,141.786099 240.391656,141.427033 240.391656,140.984571 L240.391656,132.530308 C240.391656,132.087267 240.033169,131.72878 239.589549,131.72878 L235.169564,131.72878 L235.169564,124.896684 C235.169564,124.454801 234.810498,124.095156 234.369195,124.095156 L224.801248,124.095156 C224.359365,124.095156 224.0003,124.454801 224.0003,124.896684 L224.0003,160.552502 C224.0003,165.200667 227.768174,168.969701 232.417498,168.969701 L239.590128,168.969701 C240.033748,168.969701 240.392235,168.611793 240.392235,168.168173 L240.392235,161.429318 C240.391656,160.985698 240.03259,160.627211 239.589549,160.627211 Z M339.264492,160.627211 L337.29658,160.627211 C335.942554,160.627211 334.844507,159.528585 334.844507,158.17398 L334.844507,141.786099 L339.265071,141.786099 C339.708112,141.786099 340.06602,141.427033 340.06602,140.984571 L340.06602,132.530308 C340.06602,132.087267 339.708112,131.72878 339.265071,131.72878 L334.844507,131.72878 L334.844507,124.896684 C334.844507,124.454801 334.486021,124.095156 334.042401,124.095156 L324.476191,124.095156 C324.032571,124.095156 323.674085,124.454801 323.674085,124.896684 L323.674085,160.552502 C323.674085,165.200667 327.443118,168.969701 332.091862,168.969701 L339.264492,168.969701 C339.707533,168.969701 340.066599,168.611793 340.066599,168.168173 L340.066599,161.429318 C340.066599,160.985698 339.707533,160.627211 339.264492,160.627211 Z M320.044624,132.530308 L320.044624,175.27536 C320.044624,181.088173 317.034841,183.030024 311.854447,184.214942 C310.942304,184.423432 308.426527,184.80798 305.88353,184.80798 C303.339374,184.80798 300.825334,184.423432 299.912033,184.214942 C294.733377,183.030024 291.721278,181.088752 291.721278,175.27536 L291.721278,172.338549 C291.721278,171.896667 292.080343,171.536442 292.523384,171.536442 L302.534372,171.536442 C302.977413,171.536442 303.335321,171.896667 303.335321,172.338549 L303.335321,173.902802 C303.335321,174.98637 304.214453,175.864923 305.299179,175.864923 L306.465564,175.864923 C307.55029,175.864923 308.428264,174.98637 308.428264,173.902802 L308.428264,168.969701 L300.139634,168.969701 C295.49089,168.969701 291.723015,165.200667 291.723015,160.552502 L291.723015,140.145979 C291.723015,135.497814 295.49089,131.728201 300.139634,131.728201 L319.243096,131.728201 C319.6844,131.728201 320.044624,132.087846 320.044624,132.530308 Z M308.428843,140.076482 L305.788551,140.076482 C304.434525,140.076482 303.335321,141.174529 303.335321,142.529134 L303.335321,158.17398 C303.335321,159.528585 304.434525,160.627211 305.788551,160.627211 L308.428843,160.627211 L308.428843,140.076482 Z M371.208033,140.648092 L371.208033,160.064868 C371.208033,165.876522 368.197092,167.820111 363.017277,169.003291 C362.105713,169.21236 359.601519,169.597487 357.057363,169.597487 C354.514366,169.597487 352.000326,169.21236 351.088183,169.003291 C345.90779,167.820111 342.89569,165.877101 342.89569,160.064868 L342.89569,140.648092 C342.89569,134.835279 345.90779,132.893428 351.088183,131.70909 C351.999747,131.5006 354.514366,131.116052 357.057363,131.116052 C359.601519,131.116052 362.105713,131.5006 363.017277,131.70909 C368.197092,132.893428 371.208033,134.835279 371.208033,140.648092 Z M359.993595,142.529134 C359.993595,141.174529 358.895549,140.076482 357.541523,140.076482 L356.562779,140.076482 C355.207595,140.076482 354.108969,141.174529 354.108969,142.529134 L354.108969,158.172822 C354.108969,159.528006 355.208174,160.625474 356.562779,160.625474 L357.541523,160.625474 C358.896128,160.625474 359.993595,159.527427 359.993595,158.172822 L359.993595,142.529134 Z M76.2012659,136.403007 L76.2012659,114.643616 L68.297184,119.208965 L68.297184,140.966618 L76.2012659,136.403007 Z M79.1624009,163.043377 L79.1624009,184.816667 L87.0664828,180.253635 L87.0664828,158.479766 L79.1624009,163.043377 Z M68.297184,156.770728 L68.297184,180.253635 L76.2006867,184.815508 L76.2006867,161.497656 L90.0305135,153.510757 L90.0305135,178.541701 L97.933437,173.979248 L97.933437,125.474664 L90.0305135,120.909895 L90.0305135,144.223114 L68.297184,156.770728 Z M65.3331533,120.918582 L57.4284923,125.481614 L57.4284923,173.979248 L65.3331533,178.541701 L65.3331533,155.224428 L87.0653245,142.677393 L87.0653245,119.199699 L79.1624009,114.636667 L79.1624009,137.950465 L65.3331533,145.934468 L65.3331533,120.918582 Z M54.4772027,127.186597 L47.7678835,131.059296 C47.1030325,131.443265 46.5650129,132.29344 46.5650129,132.958291 L46.5609589,166.492146 C46.5609589,167.156997 47.1001368,168.00891 47.7655669,168.390562 L54.474307,172.266157 L54.4772027,127.186597 Z M100.901522,172.266736 L107.610841,168.391141 C108.274534,168.009489 108.815449,167.156997 108.815449,166.492725 L108.811974,132.95945 C108.811974,132.29402 108.271638,131.444423 107.608524,131.060455 L100.896889,127.186018 L100.901522,172.266736 Z" id="Shape" fill="#DADADA" fill-rule="nonzero"></path>
        <rect id="Rectangle" fill-opacity="0" fill="#FFFFFF" x="0" y="0" width="450" height="300"></rect>
    </g>
</svg>