<?xml version="1.0" encoding="UTF-8"?>
<svg width="450px" height="300px" viewBox="0 0 450 300" version="1.1" xmlns="http://www.w3.org/2000/svg" xmlns:xlink="http://www.w3.org/1999/xlink">
    <!-- Generator: Sketch 50.2 (55047) - http://www.bohemiancoding.com/sketch -->
    <title>kidagain-logo</title>
    <desc>Created with Sketch.</desc>
    <defs></defs>
    <g id="kidagain-logo" stroke="none" stroke-width="1" fill="none" fill-rule="evenodd">
        <g transform="translate(95.000000, 92.000000)" fill="#DADADA" fill-rule="nonzero">
            <path d="M130.008416,84.1017414 C129.602089,83.4426662 129.071168,83.5179106 128.505982,83.7474718 C128.430877,84.0519279 128.391076,84.2696458 128.61362,84.5817664 C129.063899,84.638547 129.603474,84.8593997 130.008416,84.1017414 Z M131.055723,87.2438433 C129.916352,86.7080846 129.916352,86.7080846 129.701767,85.5571411 C129.362932,85.260348 128.98845,85.3209608 128.600122,85.4644811 C128.245366,85.9006128 128.571049,86.4823542 128.353696,86.8812132 C128.024552,87.1539702 127.781588,87.099279 127.533778,86.8728527 C127.329924,86.4454295 127.446561,85.979688 127.434792,85.5289248 C127.414027,84.7332978 127.428909,83.9369733 127.428909,83.0594828 C128.403536,82.7989185 129.294404,82.9076035 130.28599,82.957069 C131.295226,84.1700173 130.369054,85.6334295 131.055723,87.2438433 Z M132.212052,85.0478558 C132.229359,83.2521206 130.815528,81.8249373 129.057324,81.8643009 C127.416796,81.9015737 126.00781,83.3789185 126.033075,85.0363605 C126.058341,86.7046003 127.494323,88.1366614 129.135197,88.1296943 C130.826603,88.1223778 132.195094,86.751279 132.212052,85.0478558 Z M132.971749,85.0941865 C132.934717,87.2908714 131.118713,88.9444811 128.867314,88.832312 C126.857493,88.7316395 125.236346,86.9536693 125.283762,84.9008527 C125.332563,82.7888166 127.125376,81.0902697 129.23176,81.1609844 C131.400787,81.2330925 133.00809,82.923279 132.971749,85.0941865 Z M132.161521,108.872793 C131.528154,107.780024 130.603712,107.771315 129.630817,108.023519 C128.565166,108.685033 128.625734,109.644732 128.805014,110.622895 C130.178005,112.165033 130.510956,112.185237 132.160137,110.707544 C132.257393,110.081213 132.316576,109.457321 132.161521,108.872793 Z M134.244024,109.765958 C134.218067,111.794042 132.49482,113.516973 130.484652,113.524288 C128.475525,113.531255 126.780658,111.822259 126.754701,109.762475 C126.729781,107.790823 128.52917,105.893718 130.487421,106.016685 C132.723247,106.157069 134.024595,107.49194 134.244024,109.765958 Z M120.480545,108.752265 C119.238035,107.17355 118.317401,107.189922 116.945102,108.933754 C118.25441,108.920168 119.35121,109.17516 120.480545,108.752265 Z M122.337733,110.404481 L117.005669,110.404481 C117.938072,112.050078 118.560711,112.166426 120.645981,111.226931 C121.042269,111.434198 121.540312,111.483315 121.786044,111.942439 C121.83796,112.662823 120.403364,113.478306 119.010645,113.521154 C116.665105,113.592912 115.107295,112.020469 115.16544,109.639508 C115.223932,107.246006 116.709752,105.99439 119.298603,106.156721 C121.416061,106.28979 122.615307,107.890799 122.337733,110.404481 Z M87.0556429,107.69224 C85.7044571,108.239495 85.7044571,108.239495 85.1541526,109.734607 C85.6968435,111.294162 86.4132757,111.937213 87.3664433,111.78185 C88.0939524,111.663063 88.8017337,110.915508 88.9297917,110.131027 C89.1125341,109.010042 88.5238126,108.243676 87.0556429,107.69224 Z M90.5730887,106.329154 L90.5730887,113.12961 C89.8957649,113.319807 89.2080585,113.389826 88.6397564,112.879495 C86.6908511,113.787988 85.378428,113.568876 84.2411337,112.207531 C83.1851737,110.943724 83.0948398,108.870006 84.0362404,107.516672 C85.0312867,106.086702 86.3132522,105.801754 88.6356031,106.577177 C89.2222486,106.157069 89.840389,106.203052 90.5730887,106.329154 Z M65.823952,108.805561 C64.8067561,107.201069 63.7670622,107.203856 62.5795825,108.873838 C63.7812523,108.938282 64.7704151,109.051495 65.823952,108.805561 Z M67.7711285,110.38776 L62.4418335,110.38776 C63.4348039,112.101633 63.9806079,112.209273 66.0233075,111.181646 C66.4815479,111.381947 66.9854746,111.524768 67.3340004,111.944528 C65.9627396,113.614859 64.0505211,114.022426 62.3283114,113.014655 C60.7552734,112.09397 60.079334,110.062403 60.7673875,108.323447 C61.437442,106.630125 63.1966842,105.687843 64.9625014,106.0766 C66.9307902,106.509947 67.8943403,107.908912 67.7711285,110.38776 Z M80.6492757,76.808373 C80.6492757,76.4617664 80.6676191,76.1137664 80.6465068,75.7682038 C80.4699951,72.88179 78.5300879,70.5659702 75.694465,69.8459341 C73.028433,69.1690925 70.2395351,70.3796035 68.746447,72.8103778 C67.6814875,74.5441081 67.5596588,76.4655972 67.8922643,78.3442399 C68.6173504,82.434895 72.6345681,84.7437477 76.0997511,83.5962884 C78.5480841,82.7853338 80.8745897,80.230547 80.6492757,76.808373 Z M86.3956253,64.8286724 L86.3956253,88.739652 L80.7444544,88.739652 C80.3453975,88.1554718 80.7195346,87.3441678 80.1560787,86.792732 C79.0665466,87.5242648 78.0268541,88.3407931 76.7736145,88.8253449 C72.5393893,90.4608402 67.528164,89.1336333 64.3097516,85.0213809 C60.5908744,80.2699106 60.6292913,71.9433386 65.21758,67.2848762 C68.9921804,63.452696 74.6665394,62.9200721 79.0617018,66.028384 C79.4659493,66.3143778 79.8760817,66.5923605 80.3208249,66.8996035 C80.7385709,66.2199764 80.3796626,65.5368652 80.7309558,64.8286724 L86.3956253,64.8286724 Z M117.665689,33.4407447 C117.469102,30.3467147 115.154365,27.780084 112.087891,27.2492012 C109.300032,26.7663904 106.386882,28.5137056 105.212901,31.3443843 C104.591992,32.8426306 104.654983,34.3945226 104.875105,35.9328288 C105.341305,39.1954594 108.328867,41.6422583 111.57739,41.4012012 C115.575572,41.1044085 117.813474,37.6731771 117.668112,34.1374414 C117.668112,34.0196997 117.684032,33.7291771 117.665689,33.4407447 Z M123.478142,12.8718198 L123.478142,46.2773809 L117.573972,46.2773809 C117.160032,45.7370925 117.502328,45.0504984 117.271824,44.3722643 C116.67618,44.4112793 116.321078,44.9052367 115.902986,45.2121317 C112.233601,47.907304 106.988064,47.4795314 103.516304,44.8035189 C96.7250701,39.5695856 97.5955188,28.9446125 102.505683,24.4850571 C106.296896,21.0416337 112.002405,20.5668348 116.120338,23.6504144 C116.438407,23.8883364 116.722904,24.1837357 117.381191,24.312973 L117.381191,13.017081 C119.44189,12.7474594 121.420907,12.9665705 123.478142,12.8718198 Z M36.6118178,33.3616696 C35.7617887,30.1265586 33.1902431,23.8604685 32.3699789,23.0561321 C31.0499419,26.4570571 29.7382114,29.8367328 28.3233422,33.4815016 C29.8763066,33.4815016 31.1956513,33.5055375 32.5139577,33.4748829 C33.8737966,33.4428348 35.2447107,33.6163124 36.6118178,33.3616696 Z M48.1668143,46.3136097 L41.6590384,46.3136097 C40.8332365,44.164997 40.0105496,42.0240481 39.1598283,39.8106426 L25.9629195,39.8106426 C25.1059684,41.9613453 24.2379419,44.1402643 23.3778758,46.2982821 L16.8721771,46.2982821 C21.0596777,35.3681561 25.1952629,24.5731892 29.3536909,13.719003 L35.7088349,13.719003 C39.8284994,24.4979459 43.9568164,35.2991832 48.1668143,46.3136097 Z M21.127514,75.8956991 C19.7631756,72.3641442 18.4445232,68.9506787 17.1262167,65.5375612 C16.9946975,65.5215376 16.8631784,65.505862 16.7316592,65.4898385 C15.4047002,68.9189796 14.0770489,72.3477712 12.7037121,75.8956991 L21.127514,75.8956991 Z M32.5070357,88.7257179 L26.0030674,88.7257179 C25.195609,86.6265705 24.3715376,84.4835314 23.5613105,82.377417 C22.199395,82.1220783 12.1918257,82.0809733 10.3017569,82.3269075 C9.46972518,84.3957477 8.61312024,86.5255501 7.72709645,88.7288527 L1.25739232,88.7288527 C5.37428797,77.8443605 9.52683228,67.0783057 13.6866447,56.2296943 L20.0822827,56.2296943 C24.1901797,66.973453 28.3233422,77.7833997 32.5070357,88.7257179 Z M52.3221268,76.5213338 C52.3245499,73.2179466 50.2455092,69.8009969 45.9718283,69.7466551 C41.8826208,69.6947508 39.2664281,72.7466301 39.3726817,76.4237962 C39.3567609,80.4183057 42.0151784,83.1214891 45.812967,83.288 C49.2556535,83.4395314 52.3190121,80.6043244 52.3221268,76.5213338 Z M58.0982409,66.5212978 C58.1107008,72.963652 58.1162372,79.4063542 58.0989325,85.8487085 C58.0947792,87.4695737 57.8763887,89.0702336 57.4807921,90.6482523 C56.635609,94.018174 54.5046528,96.2949796 51.3315795,97.3936693 C47.3008639,98.7895016 43.1836223,98.7389906 39.1764412,97.173514 C36.216222,96.0173449 34.3164624,93.7994107 33.2483883,90.6695016 L39.9551731,90.6695016 C42.091321,92.6035314 44.7317411,93.0090094 47.5742853,92.393478 C50.9768245,91.656373 52.1857622,89.8822336 51.8147397,86.1597837 C50.3808351,87.4507633 48.8171409,88.3791113 46.9554532,88.6891411 C39.6772524,89.900348 34.5981903,84.9969969 33.5418838,79.4032194 C32.9320503,76.1736818 33.1916276,73.0601442 34.6722563,70.1138135 C38.0792946,63.3342586 46.2718996,62.4396991 50.8003113,66.2199764 C51.1038438,66.4732257 51.4125682,66.7484201 51.8462345,66.7647931 C52.1196566,66.1680721 51.7763227,65.4898385 52.1580735,64.7893088 C54.0342982,64.5928402 55.9659003,64.7377539 57.8300109,64.7151113 C58.2595239,65.3612978 58.0972023,65.9587147 58.0982409,66.5212978 Z M211.476571,32.3855976 C211.679387,32.8374053 211.954885,32.8025705 212.338368,32.448997 C212.000224,32.4333213 211.72888,32.4211292 211.457189,32.4082403 L211.476571,32.3855976 Z M211.476571,32.3855976 C211.466535,32.3855976 211.456844,32.3855976 211.447153,32.3855976 C211.289329,31.9313514 210.812399,31.9031351 210.485678,31.8024625 C205.384811,30.2321081 200.212648,29.681021 194.906888,30.6253934 C188.493252,31.7669309 182.970832,34.6428948 178.316439,39.1724685 C174.010918,43.3630991 171.100191,48.4249483 169.663863,54.2834718 C168.571908,58.7395439 168.434505,63.244384 169.422283,67.7537539 C169.660056,66.2715314 169.720278,64.7666662 169.993353,63.301862 C171.279817,56.4038683 174.109903,50.1990877 178.798561,44.9951113 C186.277155,36.6946666 195.601863,32.3605165 206.815601,32.365045 C208.359567,32.3657417 209.903186,32.3782823 211.447153,32.3855976 C211.449921,32.393958 211.45442,32.3998799 211.457189,32.4082403 L211.476571,32.3855976 Z M229.748389,84.5347383 C225.833271,90.1588229 221.085775,95.0531175 216.209184,99.8150392 C212.407242,103.527387 208.501469,107.132096 204.642767,110.785574 C203.059691,112.28382 201.403934,113.518715 199.016862,113.312144 C197.573958,113.187088 196.334562,112.791712 195.277911,111.792301 C191.628254,108.340168 187.993826,104.870967 184.303329,101.463771 C182.689796,99.9738856 181.094607,98.467627 179.575215,96.884384 C175.89614,93.0515078 172.28144,89.1691646 169.186241,84.8165532 C165.382569,79.4676631 162.637626,73.6533809 161.756793,67.1242884 C161.310319,63.8146301 161.429725,60.4325172 161.863739,57.0706066 C162.326824,53.4826191 163.320833,50.0834357 164.799731,46.8103542 C167.928848,39.8876276 172.638272,34.3401802 179.01799,30.2307147 C183.577205,27.2937898 188.496714,25.3935495 193.877231,24.6759519 C204.7331,23.2282162 214.583883,25.704973 223.123977,32.6224745 C229.96055,38.1598198 234.39586,45.3452007 236.391144,54.0079279 C237.019667,56.7375861 237.207256,59.491279 237.143572,62.0582586 C237.477562,70.6363369 234.395168,77.8593386 229.748389,84.5347383 Z M35.265823,107.73021 C34.5687715,107.874774 33.9800502,108.188636 33.6252946,108.844229 C33.4636645,110.428168 33.6650964,111.036036 34.4701321,111.402846 C35.3118548,111.786727 36.0930092,111.510835 36.9644968,110.522571 C37.1316645,108.516085 37.0607133,108.399039 35.265823,107.73021 Z M38.7552339,113.466462 C38.7327372,114.819796 37.6345522,115.367052 36.6869221,116 L33.5719948,116 C33.0113079,115.342318 31.9228137,115.139232 31.8556697,113.985154 C32.5980607,113.784853 33.3169168,113.555988 34.0163911,113.993514 C34.6625654,114.397947 35.3371202,114.28961 36.0334796,114.216108 C36.5339446,113.859052 37.0818257,113.532649 36.9838785,112.724132 C35.0453555,113.599879 33.4425522,113.378331 32.4288164,112.139603 C31.3984677,110.88137 31.3060581,108.743207 32.2256539,107.438643 C33.1912814,106.068589 34.6449141,105.78364 36.7288006,106.568121 C37.32479,106.208625 37.9657729,106.135124 38.7659631,106.408925 C38.7659631,108.748433 38.7943435,111.107796 38.7552339,113.466462 Z M186.718782,8.78151348 C178.140965,4.5912312 164.893525,5.43423418 155.319968,13.2246967 C144.852428,21.7421622 141.873866,34.6108469 144.172682,44.212024 C144.955912,33.1425586 149.30193,24.0642522 157.658241,17.0868348 C165.995517,10.1250931 175.672904,7.53372978 186.718782,8.78151348 Z M197.359028,7.80996991 C192.558579,12.4005045 188.822397,17.663003 186.504198,23.9186426 C174.915976,28.2653334 166.471408,36.0014534 161.924999,47.6537054 C157.378244,59.3066551 158.233464,70.6941615 164.211009,81.739591 C162.666697,80.3162399 161.092968,78.9238919 159.584649,77.4629185 C155.84743,73.8439279 152.12613,70.2054295 148.733282,66.2502821 C144.121112,60.8745705 140.087628,55.141105 138.025546,48.2302225 C137.215664,45.5162399 136.783382,42.7534895 136.604446,39.905045 C136.191892,33.336937 137.524734,27.1419099 140.403273,21.3255375 C144.664148,12.7157597 151.227992,6.47091896 160.109688,2.77389796 C163.147781,1.50904499 166.287281,0.651411439 169.560032,0.295051093 C169.694667,0.28042038 169.811649,0.102066137 169.936592,0 L178.935271,0 C180.416592,0.585573517 182.01455,0.637825859 183.543979,1.02309906 C188.053355,2.15941144 192.191017,4.08473276 196.024801,6.70117712 C196.449469,6.9906547 196.820837,7.35920721 197.359028,7.80996991 Z M43.9260133,105.378162 C44.4244017,105.663111 44.8978705,105.680876 45.359226,105.328 C45.7603594,104.817321 45.8572682,104.284696 45.3962589,103.780636 C44.9349036,103.276925 44.3987901,103.354607 43.8602537,103.68484 C43.4283171,104.27773 43.4359314,104.838919 43.9260133,105.378162 Z M101.773675,103.688672 C101.25279,103.334053 100.737789,103.332661 100.173294,103.783771 C99.9216773,104.285741 99.8462278,104.809658 100.287855,105.311976 C100.753018,105.68227 101.227524,105.671472 101.777136,105.356216 C102.221186,104.72919 102.200074,104.211544 101.773675,103.688672 Z M10.8534451,104.020997 C10.6367847,104.394426 10.671395,104.805826 10.9503541,105.142331 C11.4348983,105.727207 12.0000845,105.710138 12.5711546,105.351339 C12.955329,104.775519 12.969173,104.251255 12.5237384,103.62179 C11.8173421,103.30758 11.2403883,103.354259 10.8534451,104.020997 Z M22.5624571,103.52042 C22.1429802,103.399196 21.7522298,103.377597 21.3102563,103.570583 C20.7298415,104.17427 20.6585443,104.807219 21.3469433,105.449574 C21.7248878,105.648132 22.1149459,105.626186 22.5936064,105.485453 C23.294119,104.741033 23.210362,104.109129 22.5624571,103.52042 Z M22.7763488,113.070042 L22.7763488,106.359111 C22.1758599,106.227436 21.6843937,106.154282 21.141358,106.427387 L21.141358,113.129262 C21.6677807,113.25815 22.2243144,113.403411 22.7763488,113.070042 Z M100.132801,106.458738 L100.132801,113.078403 C100.758901,113.330607 101.302283,113.341754 101.933575,113.063075 L101.933575,106.372348 C101.251059,106.216984 100.655763,106.084961 100.132801,106.458738 Z M12.6725628,106.284216 C12.0153131,106.293622 11.4528956,106.081826 10.9202431,106.419724 L10.9202431,113.146331 C11.5394214,113.292636 12.0468085,113.306919 12.6725628,113.13797 L12.6725628,106.284216 Z M45.510819,106.377574 C44.8608376,106.1926 44.3126103,106.145226 43.7294267,106.406486 L43.7294267,113.109056 C44.3735245,113.299603 44.9200212,113.373105 45.510819,113.043567 L45.510819,106.377574 Z M51.8008954,103.689718 C51.2443616,103.422882 50.7608557,103.439951 50.2025918,103.673694 L50.2025918,113.087111 C50.7560109,113.318066 51.2045602,113.270342 51.8008954,113.129958 L51.8008954,103.689718 Z M46.844354,103.696685 L46.844354,113.134835 C47.522024,113.271039 48.1117827,113.35116 48.6787004,113.071784 L48.6787004,103.594967 C48.0006837,103.496732 47.4081561,103.377249 46.844354,103.696685 Z M16.1823937,113.039039 C16.6915112,113.299951 17.0777622,113.295423 17.6017622,113.109056 C18.5217042,110.935712 19.4755641,108.682246 20.4481137,106.385237 C19.7212973,106.201658 19.1668402,106.153934 18.5871176,106.431915 C17.9440582,107.467904 17.7519709,108.764804 16.9102483,109.849911 C16.0539894,108.692 15.9328533,107.28502 15.1195113,106.302679 C14.5287133,106.25182 14.0195958,106.13164 13.4263751,106.479292 C14.3577385,108.696528 15.2908323,110.917249 16.1823937,113.039039 Z M143.69956,113.220528 C144.384843,113.194751 144.989139,113.443124 145.59205,112.985045 L145.59205,108.241586 C146.238225,107.806498 147.073717,107.423315 146.500225,106.402655 C146.272835,106.146967 145.787944,106.339951 145.745028,106.194342 C145.478528,105.200157 145.858896,104.409754 145.33628,103.668121 C144.824394,103.54376 144.287588,103.437165 143.666333,103.738138 L143.666333,105.733129 C143.438943,106.354931 142.922904,106.148708 142.784116,106.484168 C142.423478,107.337273 142.856105,107.803364 143.69956,108.114089 L143.69956,113.220528 Z M95.8964988,103.78621 L95.8964988,105.982198 C95.5469357,106.169262 95.2603622,106.322534 95.134726,106.389766 C94.4878597,107.486017 95.4019188,107.789429 95.9435695,108.278162 L95.9435695,113.109754 C96.5890513,113.308312 97.1355483,113.33827 97.7865678,113.057502 L97.7865678,108.263531 C98.4964251,107.80197 99.3284568,107.416348 98.7296986,106.393597 C98.4967722,106.151495 98.0160338,106.333682 97.9073579,105.936216 C97.7585334,105.22663 98.0087658,104.516348 97.6349745,103.654186 C97.0521379,103.581381 96.5122174,103.393273 95.8964988,103.78621 Z M70.3080638,110.216024 C70.8067985,110.524312 71.5588803,110.570643 71.6620185,111.362439 C70.8642504,111.779063 70.8642504,111.779063 69.5559821,111.178511 C69.1240445,111.447088 68.7066442,111.735868 68.5931235,112.290439 C70.3371355,114.010931 71.8721038,113.96042 73.3426952,112.151796 C73.485289,111.515016 73.5192069,110.886594 73.2928556,110.274547 C72.7934293,109.106882 71.3245681,109.046619 70.5801,108.111652 C71.4059025,107.353646 71.8288406,108.342955 72.4320979,108.249249 C72.7799308,107.972312 73.1786419,107.730558 73.2990862,107.249141 C71.9115594,105.704912 70.3662086,105.693417 68.9541078,107.212912 C68.7962852,107.712445 68.8128984,108.228696 68.9101531,108.922259 C69.3500501,109.39845 69.754299,109.873249 70.3080638,110.216024 Z M76.0886771,113.476564 C77.2969219,113.75385 78.5134747,113.122991 78.9561405,112.076204 C79.4112663,110.999807 79.0568556,110.116397 77.8998334,109.269561 C77.3547209,108.870006 76.6057537,108.778738 76.2056596,108.144397 C76.8649857,107.115027 77.3841397,108.324144 77.997781,108.23218 C78.3418078,107.905081 78.8692684,107.693633 78.8450415,107.077056 C77.2083195,105.692024 75.0344459,105.844948 74.425998,107.449093 C74.4038471,107.886619 74.309707,108.406006 74.5467881,108.897525 C75.0597114,110.108732 76.4745812,110.271063 77.204512,111.08794 C77.2003587,111.582594 76.9992729,111.744577 76.6947032,111.788121 C76.0807162,111.782198 75.6930805,111.22519 75.1157803,111.154475 C74.7111856,111.511879 74.3623141,111.873466 74.1840708,112.348961 C74.6308899,113.079099 75.3642825,113.310403 76.0886771,113.476564 Z M30.4698732,108.728925 C30.5096751,107.634066 30.139691,106.818931 29.1612576,106.254607 C28.1475219,106.024348 27.1424386,106.171003 26.1951546,106.569165 C25.6002035,106.103771 24.993831,106.214895 24.3047398,106.354583 L24.3047398,113.157478 C24.9142272,113.257105 25.4506869,113.412469 25.8625495,113.073177 C26.4083541,111.212997 25.1042378,108.949777 27.2878019,107.703387 C28.4929326,107.986246 28.6988639,108.774558 28.6884808,109.717538 C28.6763672,110.858378 28.6857121,111.999219 28.6857121,113.05576 C29.3322326,113.321898 29.7818203,113.261983 30.4570674,113.149466 C30.4570674,111.608024 30.4179577,110.166907 30.4698732,108.728925 Z M137.594647,111.192445 C136.943282,109.660757 137.570421,108.000876 137.193515,106.366774 C136.575374,106.20758 135.988729,106.168216 135.356053,106.403351 C135.356053,107.858403 135.283025,109.245875 135.374396,110.622198 C135.492764,112.405393 136.703087,113.502691 138.395876,113.52394 C140.091781,113.54484 141.374093,112.455207 141.500766,110.706498 C141.604252,109.28036 141.521878,107.840636 141.521878,106.334378 C140.875012,106.244853 140.337513,106.091232 139.991411,106.356324 C139.23656,108.212672 140.816867,110.50585 138.395876,111.87242 C138.015508,111.559255 137.692941,111.424096 137.594647,111.192445 Z M59.4639626,108.541862 C59.3365975,106.701886 58.4003889,105.969658 56.6023826,106.190511 C55.7883485,106.290486 55.0002728,106.501237 54.1675482,106.261922 C53.8671304,106.175879 53.4829565,106.163339 53.1371996,106.472324 L53.1371996,113.079447 C53.7764521,113.331304 54.3226019,113.31319 55.0338436,113.088505 C55.0338436,111.967519 55.0303832,110.824937 55.0345365,109.682702 C55.0386898,108.64985 55.4124812,107.899508 56.6297255,107.695375 C58.4436507,109.191531 56.9775584,111.419915 57.7538684,113.164445 C58.2622928,113.284625 58.7682954,113.303436 59.4847291,113.10418 C59.4847291,111.527904 59.566755,110.028613 59.4639626,108.541862 Z M98.0281479,58.6601206 C98.0447611,56.2885643 96.5167164,54.6753636 94.2307051,54.652373 C91.9343112,54.6290329 90.3200873,56.2485047 90.332893,58.562931 C90.3460444,60.8892007 91.9225442,62.4560721 94.2414348,62.4470156 C96.5489042,62.4383057 98.0115347,60.975243 98.0281479,58.6601206 Z M87.8703699,15.9717718 C87.8236464,18.0663904 89.1426444,20.0955196 91.7664519,20.1209489 C94.2549334,20.144985 95.7158337,17.9664144 95.5967739,16.1180781 C95.4458735,13.7747387 94.0033165,12.1897538 91.7128061,12.1911472 C89.54274,12.1925406 87.9184779,13.8088768 87.8703699,15.9717718 Z M105.179675,109.583423 C105.256856,108.371868 105.406026,108.209886 106.885963,107.760517 C108.504341,109.288721 107.143117,111.416433 107.865089,113.13797 C108.416085,113.278354 108.965003,113.383207 109.572068,112.995843 C109.740275,111.547063 109.453701,110.028613 109.758964,108.684685 C110.147638,108.012721 110.641181,107.780024 111.365228,107.725334 C112.977376,109.254234 111.637958,111.359304 112.318396,113.182907 C112.872161,113.257453 113.461228,113.364745 114.13163,113.006643 C113.961001,110.685249 114.578796,108.272937 113.068747,106.353886 C111.528243,105.992301 110.306845,106.048384 109.281343,107.01958 C108.786761,106.565334 108.348595,106.14836 107.72734,106.169958 C106.240135,106.220817 104.754315,106.306162 103.293413,106.376528 L103.293413,113.143196 C103.922629,113.291243 104.434861,113.287063 105.022198,113.155387 C105.340959,111.993646 105.103532,110.778259 105.179675,109.583423 Z M97.1680817,64.7248652 C95.1108448,64.7084922 93.1415188,64.6224499 91.1562724,64.7819938 L91.1562724,88.757069 L97.1680817,88.757069 L97.1680817,64.7248652 Z M88.7390885,46.2442884 L94.740861,46.2442884 L94.740861,22.3232072 L88.7390885,22.3232072 L88.7390885,46.2442884 Z M101.9135,88.740696 L107.984149,88.740696 C107.984149,88.0903307 107.982764,87.521478 107.984494,86.9529733 C107.995916,83.2963605 107.980341,79.6397477 108.032257,75.9838322 C108.058561,74.1421144 108.578406,72.425105 109.881138,71.0693338 C111.145108,69.7536222 112.726105,69.2809123 114.460082,69.8765893 C116.198903,70.4733088 116.881419,71.9227868 116.981443,73.6683605 C117.084235,75.4606128 117.28186,77.2455501 117.248634,79.0492978 C117.197757,81.8343418 117.22683,84.6211286 117.244135,87.4068714 C117.246904,87.8447445 117.086312,88.3324326 117.460104,88.7333809 L123.192608,88.7333809 C123.192608,82.9037712 123.266328,77.1675189 123.152113,71.4354468 C123.112658,69.4540423 122.394494,67.5830627 120.801382,66.2070877 C117.742177,63.5652132 113.83225,63.2806128 110.220666,65.4030988 C109.492811,65.8308714 108.892323,66.4774059 108.067559,66.7397116 C107.855052,66.0949185 108.150624,65.4257414 107.796906,64.7736333 L101.9135,64.7736333 L101.9135,88.740696 Z M62.0576596,46.2547383 L68.2837062,46.2547383 L68.2837062,32.5939099 L68.5640504,32.5197118 C71.7416227,37.1168649 74.9188478,41.7133213 78.0708088,46.2735501 L85.5033714,46.2735501 C81.3456358,40.2140301 77.2989992,34.3161442 73.181065,28.314102 C76.9463201,23.4473273 80.6748884,18.6279279 84.5062491,13.6758078 L76.9826611,13.6758078 C74.1214269,17.3244085 71.2830351,20.9440961 68.2224468,24.8462944 L68.2224468,19.138955 L68.2224468,13.7092492 L62.0576596,13.7092492 L62.0576596,46.2547383 Z M0,110.078078 C0.336412081,110.18084 0.324990718,110.524661 0.45858656,110.763279 C1.60903303,112.818186 3.48075826,113.798439 5.7688454,113.533345 C8.2729009,113.243171 9.89024039,111.133574 9.57597882,108.458955 C8.17253104,108.29558 6.75177812,108.377442 5.34175435,108.413321 C5.06106479,108.927832 4.93542937,109.40263 5.06210305,109.948144 C5.82076095,110.384276 6.74624039,109.847472 7.52393389,110.307292 C6.32226424,111.949406 4.74576483,112.209622 3.21460497,111.077141 C1.72151647,109.97218 1.4072549,108.266318 2.34761693,106.816144 C3.26132896,105.407771 5.60029325,104.70376 7.87142144,106.567075 C8.23586794,106.148708 8.7591757,105.874558 9.01321527,105.213393 C7.5841559,103.59427 5.78684275,103.25463 3.7406816,103.656276 C1.85130519,104.026919 0.911635386,105.461069 0,106.942944 L0,110.078078 Z M262,42.1501502 C261.468732,43.4961682 261.483961,44.9543542 261.137858,46.3442648 C259.72818,52.002486 256.997427,56.9932728 253.559931,61.612721 C249.194881,67.4792555 244.083976,72.6598919 238.75572,77.6329123 C237.325277,78.9677837 235.936364,80.346895 234.421125,81.6869906 C241.378836,68.979591 241.544965,56.0896582 234.862061,43.3968889 C228.196809,30.7382583 217.35167,23.8263304 203.038924,21.9118078 C207.237847,16.7942223 212.29545,13.2368889 218.214158,10.9395315 C224.099641,8.65506301 230.211474,7.88869671 236.801277,8.86058856 C232.378771,6.19049844 223.005263,5.17053449 214.921335,8.02106912 C207.611638,10.5981502 202.117599,15.3865466 197.947403,21.9285285 C195.088592,21.8149669 192.362338,22.5454534 189.433961,23.0143304 C190.628363,19.9408528 192.246394,17.3042042 194.149615,14.8584505 C200.300557,6.95407806 208.317342,2.14861255 218.140093,0.390846863 C218.915017,0.252204229 219.757432,0.522174141 220.467636,0 L228.774109,0 C233.578018,0.239315356 238.031327,1.69332132 242.215712,4.01053449 C252.205284,9.5426547 258.563543,17.9197357 261.443812,29.001045 C261.851868,30.5720961 261.66878,32.2110751 262,33.7897898 L262,42.1501502 Z"></path>
        </g>
        <rect id="Rectangle" fill-opacity="0" fill="#FFFFFF" x="0" y="0" width="450" height="300"></rect>
    </g>
</svg>