<?xml version="1.0" encoding="UTF-8"?>
<svg width="450px" height="300px" viewBox="0 0 450 300" version="1.1" xmlns="http://www.w3.org/2000/svg" xmlns:xlink="http://www.w3.org/1999/xlink">
    <!-- Generator: Sketch 50.2 (55047) - http://www.bohemiancoding.com/sketch -->
    <title>ksu-logo</title>
    <desc>Created with Sketch.</desc>
    <defs></defs>
    <g id="ksu-logo" stroke="none" stroke-width="1" fill="none" fill-rule="evenodd">
        <g id="ksu" transform="translate(53.000000, 99.833333)" fill="#DADADA" fill-rule="nonzero">
            <path d="M0,29.0355427 C0.590399589,28.9157527 1.1795157,28.6954938 1.76991529,28.6903415 C5.82313682,28.659428 9.87635835,28.6465473 13.9282964,28.7070864 C14.4840421,28.7148147 15.0346539,29.1656372 15.5878326,29.4116575 C15.1090956,29.7298093 14.6675794,30.2282901 14.1464876,30.3339114 C11.937623,30.7834458 11.4101138,31.1544083 11.3716095,33.4690596 C11.2817661,38.7655795 11.343373,44.0633875 11.343373,49.4513599 C11.5923676,49.25171 11.9119535,49.0494839 12.1673654,48.7841427 C16.9893899,43.7941821 21.8062805,38.7990692 26.6154702,33.7962279 C27.0415847,33.3531338 27.4343287,32.8701098 27.7937024,32.3716289 C28.3635664,31.5794695 28.6472149,30.8323922 27.4985026,30.2115453 C27.2405237,30.0724344 26.9992299,29.4657562 27.1006246,29.2145836 C27.2071532,28.9479544 27.7282451,28.7045102 28.0709335,28.700646 C31.6621032,28.6645802 35.2532729,28.6555638 38.8431591,28.7122386 C39.2217849,28.7186789 39.5939933,29.1913985 39.9687687,29.4490113 C39.6286472,29.7401138 39.3141953,30.2411708 38.9445538,30.286253 C36.5752546,30.5812197 34.4421152,31.4364943 32.7312398,33.0787762 C27.0967742,38.4834935 21.5213485,43.9487498 15.7944725,49.5170512 C17.777445,51.5843942 19.5845812,53.5293711 21.4571746,55.4099448 C26.571832,60.5428806 31.7121588,65.6500551 36.8460683,70.7636698 C38.5672114,72.4780833 40.6323265,73.5536169 42.9977753,74.0701306 C44.8524001,74.4745827 45.6674082,74.0546738 45.8483785,72.1290179 C46.1384444,69.0595609 46.3245486,65.969495 46.3348165,62.8871574 C46.3656199,53.6156714 46.2911782,44.3454735 46.2552409,35.0739876 C46.2539574,34.7133296 46.2321383,34.3539597 46.2141696,33.9933017 C46.0717036,31.2741983 45.4286814,30.6507752 42.6987251,30.3107263 C42.107042,30.2373066 41.5615641,29.7813319 40.9942671,29.5005339 C41.6180371,29.2261762 42.2405237,28.7148147 42.8655771,28.7122386 C51.3339608,28.6761728 59.801061,28.7225431 68.2694447,28.7109505 C69.1807136,28.7096625 70.1317703,28.5950248 70.9929837,28.3129387 C72.1044751,27.9484165 72.4676992,28.3490045 72.3688714,29.3639991 C72.1596646,31.509914 71.9453239,33.6584051 71.6167537,35.7888632 C71.539745,36.286056 71.0032515,36.7136933 70.6772482,37.1722441 C70.405151,36.6917962 69.9649183,36.2358215 69.894327,35.7283242 C69.7172072,34.4634452 69.3912039,33.5746809 67.9203388,33.2320558 C62.8403354,32.0483248 57.7064259,31.811321 52.4480192,31.9092139 C52.4480192,37.731264 52.4480192,43.4219315 52.4480192,49.2555742 C56.6680928,49.2555742 60.8111577,49.3161132 64.9529392,49.2285248 C66.7960127,49.1898829 68.7481817,49.4693928 70.2434329,47.7588436 C70.7824934,47.1418609 71.4486181,47.7214898 71.3857277,48.5020566 C71.1662531,51.2172959 70.8903055,53.927383 70.5707196,56.6323177 C70.5347822,56.9311486 70.0752973,57.178457 69.8121845,57.4502385 C69.5426542,57.1359508 69.0202789,56.798478 69.0459485,56.5099516 C69.2153675,54.5946002 68.0358518,54.1205926 66.5097972,53.6942434 C61.9457517,52.4203479 57.2815949,52.5143766 52.5019252,52.4087553 C52.4531531,52.8492733 52.374861,53.2356925 52.374861,53.6233998 C52.3671601,58.5682782 52.3517584,63.5131566 52.3761444,68.4567469 C52.3928296,71.7928331 53.3426029,72.874807 56.6591084,72.914737 C60.3991615,72.9598193 64.1469154,72.8580622 67.883118,72.6584123 C70.3987336,72.5244536 71.2830495,71.6266728 71.9132369,69.1845032 C71.9902456,68.8869603 71.9594421,68.5275904 72.1173098,68.2905866 C72.4202105,67.8384761 72.8245059,67.4533449 73.1864465,67.0411644 C73.4174724,67.5473736 73.8243347,68.0471425 73.8397365,68.559792 C73.8692564,69.5284163 73.6895696,70.5047689 73.5650723,71.4746813 C73.4482759,72.393071 73.2916916,73.3063085 73.1517926,74.218258 C75.6224865,74.7734136 76.8238213,74.0482335 77.1716437,71.6730432 C77.3500471,70.4571106 77.3590314,69.2089764 77.3628818,67.976299 C77.409087,55.614747 77.4206383,43.2519071 77.5014974,30.8903551 C77.5079148,29.8792248 77.9481475,28.8706705 78.1868743,27.8621162 C79.0352528,28.4275764 80.0350817,28.8526376 80.7089073,29.5803939 C91.5311885,41.2747285 102.313682,53.0064171 113.100026,64.7329534 C113.503038,65.1708952 113.870112,65.6410386 114.433559,66.3095439 C114.433559,63.3225231 114.475913,60.7219215 114.425858,58.1238961 C114.278258,50.45605 114.094721,42.788204 113.925302,35.1203579 C113.921451,34.9657902 113.927869,34.8112225 113.918884,34.6566548 C113.743048,31.3154163 113.111577,30.6507752 109.820741,30.3493682 C109.668007,30.3351995 109.487037,30.386722 109.363823,30.3210308 C108.931291,30.0904673 108.518011,29.8225499 108.097031,29.5688013 C108.538547,29.2738346 108.976213,28.7289834 109.422863,28.7212551 C113.474801,28.6555638 117.529306,28.699358 121.581244,28.660716 C122.061265,28.6555638 122.534868,28.3309716 123.018739,28.1764039 C123.376829,28.0617662 123.760589,27.8659804 124.109695,27.9059104 C126.437922,28.1686755 128.757166,28.7109505 131.085394,28.7431521 C138.989048,28.8513495 146.895268,28.8114195 154.800205,28.7624731 C156.431505,28.7521686 158.074356,28.5435022 159.687687,28.2768729 C160.776076,28.0965439 161.127749,28.519029 161.096945,29.482501 C161.023787,31.7456297 160.964747,34.0100466 160.808163,36.266735 C160.78121,36.6505781 160.302473,37.0035077 160.032943,37.369318 C159.746727,37.00866 159.224352,36.6557304 159.214084,36.287344 C159.14606,33.7923637 157.582784,32.7928259 155.449645,32.6124969 C151.886712,32.3098019 148.307093,32.2028925 144.520835,32.0019545 C144.520835,32.7966901 144.520835,33.3441174 144.520835,33.8915447 C144.520835,42.9067059 144.495166,51.9231551 144.534953,60.9383163 C144.549072,64.1790858 144.650466,67.4250075 144.839138,70.6606247 C145.014974,73.6618143 145.480876,74.0211842 148.400787,74.4114676 C149.147771,74.5106485 150.528793,73.9619332 150.459485,75.2847751 C150.392744,76.5599587 149.034825,76.1580826 148.189013,76.1670991 C144.139642,76.2083171 140.090271,76.1877081 136.0409,76.1799797 C135.684093,76.1799797 135.284932,76.2083171 134.982031,76.0627659 C134.670146,75.9120624 134.256867,75.5720134 134.247882,75.302808 C134.238898,75.0374668 134.634209,74.5969488 134.933259,74.5080724 C138.077779,73.5690736 138.276718,73.5046704 138.312655,70.1569916 C138.444853,57.6936826 138.482074,45.2303736 138.551382,32.7670646 C138.552665,32.6215134 138.491058,32.4759621 138.387097,32.0006665 C134.351844,32.2003164 130.276803,32.3381393 126.21203,32.633106 C124.526825,32.7554721 123.82733,34.2058323 123.084196,35.5364026 C122.810815,36.025867 122.19988,36.327274 121.742962,36.7136933 C121.609481,36.1160315 121.300163,35.4938965 121.375888,34.9232841 C121.57226,33.4510267 121.938051,32.0006665 122.237101,30.5412897 C119.925558,30.0750105 118.662617,30.8761864 118.565072,33.1032494 C118.404638,36.8051458 118.360999,40.5134826 118.345598,44.2192433 C118.303243,54.0587655 118.318645,63.8969997 118.258321,73.736522 C118.253187,74.6523356 117.865577,75.5668612 117.65637,76.4813867 C116.800291,76.0189717 115.758107,75.7381737 115.117652,75.0683803 C106.057585,65.5998206 97.0398734,56.0874666 88.0401301,46.5609439 C85.8222812,44.214091 83.7006931,41.7757855 81.26722,39.0837314 C81.26722,39.9261253 81.2556687,40.4426391 81.2685035,40.9591528 C81.4892616,49.913775 81.7061692,58.8683972 81.947463,67.8217313 C81.9795499,69.0015981 82.0912125,70.1879052 82.2670489,71.3548913 C82.5763669,73.4054895 83.1731839,73.97739 85.1972277,74.299406 C85.7516899,74.3882824 86.343373,74.3213031 86.8721657,74.479735 C87.2315393,74.5879324 87.5087704,74.9666233 87.8232224,75.2242361 C87.5305895,75.5140505 87.2559254,76.0267001 86.9427569,76.0524614 C85.773509,76.1477781 84.5914264,76.0704943 83.4157611,76.0820868 C80.4932831,76.1091362 77.5720886,76.1889962 74.6496107,76.1748275 C66.4494738,76.1374736 58.2506203,76.0473091 50.0504834,76.0112433 C46.1538462,75.9944985 42.2572089,76.0382927 38.3605716,76.084663 C35.67297,76.1168646 33.204843,75.342738 31.2963121,73.5085346 C26.8195431,69.2051122 22.45572,64.7831879 18.1149996,60.3406545 C16.0691366,58.2475502 14.1747241,56.0050305 12.2341063,53.8114572 C11.9748438,53.5190666 11.8439292,53.1107503 11.6539745,52.7565326 C11.4909729,52.8698823 11.3279713,52.9819439 11.1649696,53.0952935 C11.1649696,56.8822022 11.1393001,60.6691109 11.1752374,64.4560196 C11.1944896,66.4100129 11.3100026,68.3640063 11.4088303,70.3167116 C11.5769659,73.6193081 12.0608368,74.1242293 15.2695302,74.4269244 C15.4222641,74.4410931 15.6083683,74.3882824 15.7251647,74.4578379 C16.078121,74.6703685 16.4028408,74.9292694 16.7391118,75.1688493 C16.4118251,75.4857131 16.0986566,76.0550375 15.7534012,76.0756465 C14.2735518,76.1632349 12.7847181,76.0704943 11.2997347,76.0795107 C8.58261316,76.0962555 5.86677505,76.1387617 3.14965346,76.1696752 C2.89295799,76.1722513 2.59262428,76.2533994 2.38855138,76.1490662 C1.8995465,75.8966056 1.45931377,75.5565567 1.00111235,75.2525735 C1.41824249,74.980792 1.80713613,74.5467143 2.25892017,74.4655663 C4.42671344,74.077859 4.74629931,73.8936658 4.99401044,71.6614506 C5.23273723,69.5181118 5.36365192,67.3528759 5.37263626,65.1966565 C5.41114058,55.614747 5.39188842,46.0328376 5.38547104,36.4509282 C5.38547104,35.7321884 5.32899803,35.0121605 5.28921023,34.2934207 C5.11465731,31.1170544 4.60768375,30.6044049 1.45803029,30.3158785 C0.965174981,30.2707963 0.485154445,30.084027 0,29.9629489 C0,29.6538135 0,29.3446781 0,29.0355427 Z M344.998717,73.2419053 C344.84855,73.0525599 344.685548,72.8709428 344.549499,72.6712929 C343.869256,71.6730432 342.80397,71.3329942 341.882433,71.8817096 C341.238128,72.2655527 340.589972,73.3217653 340.647728,74.0198961 C340.705485,74.7141627 341.52306,75.6286883 342.223838,75.9159266 C343.240353,76.3319713 344.209378,75.7987127 344.708651,74.699994 C344.792077,74.5170889 344.902456,74.3457763 345,74.1705996 C344.998717,73.8601761 344.998717,73.5510407 344.998717,73.2419053 Z M332.572089,33.4858045 C334.213656,33.8541908 334.682125,34.7944777 334.814324,36.2731753 C334.851544,36.6969485 335.346967,37.0782154 335.633182,37.4788034 C335.923248,37.1129932 336.409686,36.7768084 336.468726,36.3762205 C336.79858,34.1414291 337.048858,31.8937571 337.276033,29.6460851 C337.371011,28.7148147 337.01292,28.3477164 335.979721,28.6272264 C334.952939,28.9054482 333.8607,29.0651682 332.796697,29.0664563 C324.121674,29.0767608 315.447934,29.0368308 306.77291,29.0110695 C306.572688,29.0110695 306.242834,29.0638801 306.191495,28.9698514 C305.472747,27.6727708 304.402327,28.4365929 303.470523,28.4894035 C302.243518,28.558959 301.019081,28.761185 299.792077,28.7650492 C291.783178,28.7908105 283.774279,28.841045 275.766664,28.7379999 C273.541114,28.7096625 271.309147,28.2549758 269.102849,27.8698446 C268.085052,27.6920918 267.792419,28.2111816 267.612732,28.9595469 C267.131428,30.9573345 266.630872,32.9538339 266.268931,34.9748066 C266.17267,35.5132175 266.548729,36.1379286 266.707881,36.7227097 C267.154531,36.3169695 267.750064,35.9923773 268.018311,35.4913204 C268.801232,34.0293675 269.676564,32.6395463 271.475999,32.5300608 C275.400873,32.293057 279.334731,32.1900119 283.354582,32.0290039 C283.39437,32.5609744 283.436725,32.8559411 283.436725,33.1509078 C283.439292,44.2282597 283.45726,55.3043236 283.421323,66.3816755 C283.414905,68.2802821 283.201848,70.1814648 283.045264,72.0774953 C282.919483,73.5935469 282.068538,74.3663854 280.538633,74.4243482 C277.942158,74.5235292 275.574142,73.9748138 274.042954,71.689788 C272.932746,70.0333375 271.909814,68.2854344 271.093523,66.4679758 C265.710619,54.4657938 260.412424,42.4249699 255.023103,30.4240759 C254.579019,29.4348426 253.666467,28.6555638 252.972106,27.7796801 C252.335501,28.6491235 251.503808,29.4361307 251.091811,30.4021788 C247.037306,39.9029402 243.057243,49.4359032 239.043809,58.9534094 C237.406092,62.8356348 235.829982,66.7487738 234.056216,70.5678841 C232.626423,73.6463575 230.476598,74.639455 227.355181,74.3032702 C225.671259,74.1216532 224.82288,73.3294937 224.729186,71.6923641 C224.567468,68.8676394 224.331308,66.0429146 224.31719,63.2156138 C224.267134,53.4276141 224.297938,43.6383263 224.297938,33.8490386 C224.297938,33.3041874 224.297938,32.7606243 224.297938,32.4901308 C227.957132,32.4901308 231.398135,32.3149541 234.810901,32.5442295 C237.714127,32.7400153 238.244203,33.4819403 238.957816,36.327274 C239.056644,36.7201336 239.541799,37.0138122 239.84855,37.3538612 C240.105245,36.9648658 240.559596,36.5900391 240.585266,36.186875 C240.725165,34.0319437 240.743133,31.8679958 240.83426,29.7092003 C240.884316,28.5125887 240.546761,28.0308527 239.206811,28.3064984 C237.710276,28.6156338 236.154702,28.7483044 234.624797,28.7573209 C226.923933,28.799827 219.223068,28.8243002 211.523488,28.7457283 C209.43912,28.7251192 207.32395,28.4868274 205.292205,28.0347168 C204.113973,27.7719518 203.547959,27.8814372 203.264311,29.0458472 C203.159066,29.4799249 203.003765,29.9011218 202.871567,30.3287592 C202.816377,27.3906848 200.887311,26.97464 198.583469,27.0429074 C198.484641,27.0454836 198.387097,26.9849445 198.285702,26.9681997 C193.570206,26.2043777 188.879096,26.070419 184.335587,27.8337788 C178.586891,30.064706 175.900573,34.8782018 177.135279,40.6886593 C177.845041,44.0298978 179.939677,46.5235901 182.496363,48.5729002 C185.418841,50.9158889 188.639086,52.8956436 191.475571,55.3313729 C193.585608,57.1436792 195.698212,59.1891251 197.094635,61.555299 C200.128776,66.6946751 197.656798,72.0478698 191.891418,73.5381601 C188.993326,74.2878134 186.087533,74.1538548 183.244631,73.2303128 C179.620091,72.0543102 178.038847,69.9483252 177.680756,66.1382314 C177.635835,65.6590715 177.126294,65.2237058 176.832378,64.7690192 C176.481989,65.1902161 175.868486,65.588228 175.826132,66.0390504 C175.610507,68.3408211 175.583554,70.6606247 175.406434,72.9675477 C175.292205,74.4617021 175.967314,75.2435571 177.320099,75.684075 C182.836485,77.4835007 188.43373,77.7385374 193.98862,76.1387617 C204.506717,73.1105228 207.787285,62.3667795 200.606229,54.0549013 C198.226662,51.3010201 195.070591,49.21178 192.211004,46.8894003 C189.664585,44.8207692 186.839651,43.0574094 184.492171,40.7891283 C180.811158,37.2314951 182.113887,31.7636626 187.007786,30.2373066 C189.08702,29.5894103 191.439634,29.5971387 193.656199,29.6705584 C197.773595,29.8058051 200.316163,32.192588 201.717721,35.9704803 C201.870454,36.3800847 202.302986,36.6853559 202.605887,37.0395735 C202.943441,36.6608827 203.400359,36.3350024 203.596731,35.8931964 C204.262856,34.399042 204.966202,32.814723 206.769487,32.653715 C210.569864,32.3149541 214.388209,32.1951641 218.341319,31.9787694 C218.341319,32.8842785 218.341319,33.4420103 218.341319,33.9997421 C218.341319,44.0981652 218.356721,54.1953003 218.328485,64.2937235 C218.322067,66.4538071 218.205271,68.6164669 218.052537,70.7713982 C217.852315,73.5922588 217.539146,73.876921 214.825875,74.4835992 C214.471635,74.5634592 214.195688,75.0001129 213.883803,75.2706064 C214.202105,75.5488283 214.481903,75.9069101 214.850261,76.0820868 C215.150595,76.225062 215.55489,76.1683871 215.911697,76.1683871 C224.268418,76.1722513 232.625139,76.1722513 240.98186,76.164523 C241.440062,76.164523 241.941901,76.1838439 242.34363,76.0073791 C242.641396,75.8772846 242.925045,75.4663922 242.982801,75.1392239 C243.012321,74.9691994 242.570805,74.6343027 242.283306,74.5132247 C242.01891,74.4024512 241.676221,74.4887515 241.36947,74.4694305 C239.235047,74.3316076 238.672884,73.5729378 239.156755,71.4656648 C239.260717,71.0161304 239.385214,70.566596 239.550783,70.1363826 C240.994695,66.3971323 242.418071,62.6475775 243.942842,58.9418168 C244.13023,58.4871302 244.878497,57.9912255 245.375203,57.9834971 C249.89176,57.9100774 254.410884,57.9087893 258.926157,57.9860732 C259.419013,57.9938016 260.140327,58.5167556 260.350817,58.9843229 C262.424917,63.5736956 264.41559,68.2017102 266.422949,72.8219964 C266.687345,73.4299627 266.994096,73.958069 266.136733,74.5080724 C265.320442,75.0310265 265.632327,75.6711944 266.484555,75.8978937 C267.018482,76.0395807 267.603748,76.0163956 268.165911,76.0176836 C275.705057,76.0408688 283.245486,76.0550375 290.784632,76.0756465 C292.01292,76.0795107 293.247626,76.1709633 294.466929,76.0692062 C294.808334,76.0408688 295.103534,75.4651041 295.419269,75.1405119 C295.076581,74.9073723 294.749294,74.5016321 294.388637,74.4694305 C290.471464,74.1229412 290.059468,74.6021011 289.66159,69.4047621 C289.625652,68.9436352 289.601266,68.4799321 289.598699,68.017517 C289.562762,56.3747049 289.529392,44.7331809 289.502439,33.0903688 C289.501155,32.8005543 289.570463,32.5107399 289.611534,32.1784193 C291.496962,32.1784193 293.287413,32.1049997 295.070163,32.1977403 C297.112176,32.3046496 299.16959,32.433456 301.178232,32.7876737 C303.156071,33.1367391 303.737486,34.0023182 304.063489,35.8700112 C304.157183,36.4058459 304.682125,36.8669729 305.009412,37.3628776 C305.282793,36.8257549 305.758963,36.3002247 305.792333,35.7476452 C305.896295,34.0692975 305.829554,32.3806454 305.829554,30.7164665 C310.134337,30.4897672 311.099512,31.2780625 311.1393,35.1499834 C311.22401,43.2879729 311.249679,51.4259623 311.247112,59.5652399 C311.245829,63.1692435 311.203474,66.7771112 311.030205,70.3746745 C310.864636,73.8150939 310.704201,73.8898016 307.554548,74.8288004 C307.270899,74.9138126 306.846068,75.2937916 306.873021,75.4818489 C306.917943,75.8064411 307.227261,76.2971936 307.495508,76.3474281 C308.239925,76.4891151 309.021562,76.4710822 309.787798,76.4633538 C312.14683,76.4401687 314.507145,76.3384116 316.866176,76.3641729 C323.021734,76.4298642 329.177291,76.5187406 335.331565,76.6617157 C336.993668,76.7003576 337.80996,75.9481282 338.033285,74.3818421 C338.252759,72.854198 338.514589,71.3304181 338.664756,69.7950456 C338.748182,68.9436352 339.287242,67.6529949 338.061521,67.4262956 C336.826816,67.1983082 337.062976,68.6061624 336.858903,69.360968 C336.161975,71.9538412 335.406007,72.8374532 332.781295,72.9804283 C328.84487,73.195535 324.894327,73.2663785 320.952768,73.2019753 C318.344742,73.1594692 317.409087,72.0774953 317.294858,69.4253712 C317.206298,67.3683327 317.22555,65.3061419 317.220416,63.2452392 C317.210148,59.808684 317.217849,56.3721288 317.217849,52.8286642 C322.302986,52.7024339 327.142979,52.8222239 331.889279,54.1553703 C333.168906,54.5147402 333.990331,55.071184 333.89407,56.5795071 C333.869684,56.9556219 334.338154,57.3626501 334.580731,57.7555097 C334.902884,57.3781069 335.456062,57.0316176 335.508685,56.6194371 C335.832121,54.1231687 336.06058,51.6127316 336.268503,49.1035826 C336.298023,48.7429247 336.114486,48.0847239 335.924532,48.0435058 C335.565158,47.9636458 335.119791,48.20709 334.728331,48.3603696 C333.810644,48.7184514 332.914777,49.3933971 331.990673,49.4294629 C327.377856,49.6072157 322.759904,49.6213844 318.143236,49.6870757 C317.899375,49.6909399 317.655515,49.6342651 317.344913,49.5981993 C317.344913,43.8199434 317.344913,38.1189713 317.344913,32.211909 C322.536579,32.2312299 327.583212,32.3639006 332.572089,33.4858045 Z M251.836228,38.0313829 C254.156755,43.7632685 256.345084,49.1666978 258.604004,54.7440157 C254.193976,54.7440157 250.023958,54.7440157 245.58441,54.7440157 C247.672628,49.1589694 249.68127,43.7890298 251.836228,38.0313829 Z M191.550013,14.2472779 C190.701634,14.208636 189.845555,14.2318211 189.007444,14.1197595 C187.300419,13.8904841 185.815436,14.2884959 184.737315,15.6628604 C183.244631,17.5653312 181.484983,17.9156847 179.286387,16.7705956 C181.790451,13.5388426 184.279114,10.3276986 186.767776,7.11526652 C186.616326,6.94137786 186.463592,6.76877726 186.312142,6.59488859 C183.003337,8.52956099 180.089843,11.0915206 176.431933,13.4306452 C177.886113,11.3877754 177.882262,9.65790521 177.073672,7.84173472 C176.484555,6.51889281 176.941473,5.37251569 177.823222,4.28538952 C178.337897,3.65037388 178.648498,2.84919796 179.050227,2.1214417 C178.892359,2.01195625 178.735775,1.90375886 178.577907,1.7942734 C177.974673,2.27343328 177.389407,2.7796425 176.764354,3.22788883 C175.267819,4.30213436 174.516985,5.7099885 174.672285,7.58412188 C174.882776,10.1190322 174.202533,11.1147058 171.753658,11.8643592 C170.900145,7.9396276 170.674253,3.88480156 169.659023,0 C169.4511,0.0103045134 169.241893,0.0206090269 169.033969,0.0309135403 C168.446137,3.79077288 167.858304,7.55192028 167.270471,11.3117796 C166.843074,9.27277402 165.731582,7.99372629 163.893643,7.28786712 C162.29443,6.67346051 161.46402,5.54511629 161.371609,3.78046836 C161.335672,3.08620177 160.912125,2.41383227 160.665697,1.73115826 C160.505262,1.77366437 160.343544,1.81488243 160.183109,1.85738855 C160.085565,2.7796425 159.998289,3.70318451 159.88791,4.62286234 C159.691538,6.24711127 160.24985,7.52873512 161.52306,8.55145808 C163.699837,10.3019373 163.855138,10.9923397 162.775734,13.7449329 C162.343202,13.4551184 161.911953,13.1846249 161.498674,12.8870821 C158.912467,11.0284055 156.337811,9.15298405 153.740053,7.31234034 C153.342175,7.03025429 152.840335,6.89629561 152.385984,6.69278147 C152.296141,6.84606111 152.206298,7.00062881 152.116454,7.15390845 C154.344571,10.0739499 156.572688,12.9939914 159.056216,16.2502177 C156.544451,15.0909599 155.755113,15.032997 153.601437,15.7993952 C152.172927,16.3081806 150.925387,16.1123948 149.720202,15.1566512 C149.050227,14.6259687 148.226234,14.2910721 147.47155,13.8672989 C147.349619,14.0218666 147.226405,14.1764344 147.104475,14.3310021 C147.631984,14.9247996 148.233935,15.4683627 148.671601,16.1214113 C149.76384,17.7546766 151.287328,18.3381697 153.170189,18.202923 C155.767947,18.0174417 156.441773,18.4231819 157.790708,21.0946271 C153.62069,21.815943 149.504578,22.5282425 145.387182,23.240542 C145.411568,23.4723935 145.435954,23.702957 145.459057,23.9348086 C153.448704,23.5239161 161.43835,22.7768389 169.426713,22.7948718 C177.510054,22.8141927 185.590827,23.5896074 193.672884,24.0339895 C193.707538,23.7956976 193.742192,23.5574058 193.776846,23.3191139 C189.780098,22.6222712 185.784632,21.9267165 182.198597,21.3020054 C183.195859,20.5600804 184.792504,19.9430977 185.402156,18.7967206 C186.513648,16.7074805 187.824078,15.4683627 190.243433,15.4619224 C190.745273,15.4606343 191.244545,14.9595774 191.745101,14.6890839 C191.679644,14.5409565 191.61547,14.3941172 191.550013,14.2472779 Z M64.6012664,91.0481045 C67.4236331,94.0377015 70.2318816,97.0401791 73.0850518,99.9988625 C73.4277402,100.354368 74.0207068,100.46643 74.4981603,100.690553 C74.6162403,100.215257 74.8318645,99.7399616 74.8357149,99.2633779 C74.8665184,96.276357 74.7625567,93.285472 74.8857705,90.3036034 C74.9563618,88.5814616 74.0438094,86.502526 76.3771712,85.1822603 C74.8164627,84.9401042 73.3725507,84.915631 71.9299221,84.9620013 C71.6449902,84.9710177 71.3690425,85.2505277 71.0892445,85.4063834 C71.3228373,85.6266424 71.5461624,86.019502 71.7925901,86.0349588 C72.7154103,86.0916336 72.8591598,86.6686863 72.875845,87.3977307 C72.932318,89.9712829 72.9977753,92.543547 73.0414135,95.1170993 C73.0465474,95.4249466 72.9425858,95.734082 72.8604432,96.215818 C69.4348421,92.502329 66.1696757,88.9446957 62.8698554,85.4192641 C62.5643878,85.0920958 62.0343116,84.9774581 61.6081971,84.7636394 C61.4875503,85.1861245 61.2655087,85.6073214 61.2616583,86.0310946 C61.2308548,89.069638 61.3271156,92.1120455 61.2141696,95.1454367 C61.1461453,96.9461504 62.1703602,99.186094 59.4853256,100.405891 C61.244973,100.677672 62.8916745,100.693129 64.5370925,100.655775 C64.7154959,100.651911 65.0543339,100.304134 65.0260974,100.18692 C64.9683409,99.9473399 64.705228,99.567361 64.538376,99.5738013 C63.3049542,99.6201716 63.2394969,98.7223909 63.2266621,97.9109105 C63.1830239,95.2368892 63.2099769,92.5615799 63.2099769,89.5822875 C63.7798408,90.1812373 64.1918371,90.6140269 64.6012664,91.0481045 Z M191.16497,95.553753 C191.807992,96.5996611 192.673056,97.5064583 193.33918,98.5394858 C194.682981,100.623574 196.69419,100.883763 198.879952,100.677672 C199.163601,100.650623 199.419013,100.333759 199.688543,100.150854 C199.403611,99.9396116 199.135364,99.6987436 198.829896,99.5235668 C197.964833,99.0276621 196.911098,98.7301193 196.246257,98.0461572 C194.894755,96.6550479 193.751177,95.0617125 192.640969,93.6976526 C193.287841,92.583477 193.986053,91.6689515 194.382647,90.6385001 C195.408146,87.967055 194.08103,85.4823792 191.285616,85.1114167 C189.167879,84.8306187 186.993668,84.9710177 184.843844,84.9658655 C184.608967,84.9658655 184.372807,85.2440873 184.137931,85.3922147 C184.313767,85.6086095 184.479336,85.998893 184.668007,86.0104855 C185.802601,86.0813291 185.755113,86.8438631 185.749979,87.6514793 C185.734577,90.275266 185.798751,92.9003408 185.724309,95.5215514 C185.67682,97.1767139 186.440489,99.104946 184.325319,100.404603 C186.150424,100.635166 187.884401,100.649335 189.618379,100.610693 C189.765979,100.606829 190.063746,100.157294 190.018824,100.085163 C189.877642,99.8584635 189.595277,99.7232168 189.388637,99.5312952 C189.00231,99.1732134 188.346453,98.8293002 188.304099,98.4248481 C188.1642,97.1148868 188.251476,95.7804523 188.251476,94.4820836 C189.613245,94.0261089 190.474459,94.4279849 191.16497,95.553753 Z M188.282279,86.5707935 C189.640199,86.2294564 190.81073,86.4110735 191.569265,87.5845 C192.468983,88.9768973 192.519038,90.5174221 191.705314,91.9574778 C190.922392,93.3434349 189.604261,92.8282092 188.282279,92.6929625 C188.282279,90.5663685 188.282279,88.5917661 188.282279,86.5707935 Z M26.8529135,88.4848568 C26.8939848,90.8510307 26.7887396,93.2313733 27.0248995,95.5782263 C27.3829896,99.1229789 29.6508942,101.028026 33.1137161,100.999688 C36.4302216,100.972639 38.8097887,98.985156 39.1370754,95.6297488 C39.3963378,92.9750485 39.270557,90.2855705 39.4117395,87.6154135 C39.439976,87.0757146 39.8917601,86.5527606 40.1741251,86.0362468 C40.3050398,85.7966669 40.4962779,85.5905766 40.660563,85.3690296 C40.4218362,85.2273425 40.1869599,84.9735939 39.9430992,84.9645774 C38.7661504,84.9207832 37.5853512,84.9207832 36.407119,84.9607132 C36.1568409,84.9697297 35.9142637,85.2105977 35.6678361,85.3445564 C35.8731924,85.5828482 36.068281,85.8301565 36.2851887,86.0555678 C36.5996406,86.3827361 37.2092924,86.6944476 37.2092924,87.0125995 C37.2092924,90.0434145 37.2554976,93.0871101 36.9821169,96.0998922 C36.7883118,98.2483833 35.162146,99.4243859 33.1855908,99.3483901 C31.2372722,99.2736824 29.7561393,97.9598569 29.6175237,95.793333 C29.4365534,92.9737605 29.462223,90.1387312 29.5084282,87.3114304 C29.516129,86.8670482 30.0975443,86.4342586 30.4068623,85.9911646 C30.5608796,85.7709056 30.7007786,85.539054 30.9805767,85.1088406 C28.9282964,85.1088406 27.1160264,85.1088406 25.3024728,85.1088406 C25.2537007,85.2440873 25.206212,85.3806221 25.1574399,85.5158689 C25.6515787,85.8146998 26.1457175,86.1122426 26.85163,86.5385918 C26.8503465,87.0589698 26.8400787,87.7725573 26.8529135,88.4848568 Z M156.147857,98.6219219 C156.14529,98.9143125 155.871909,99.2247359 155.675537,99.4913652 C155.465047,99.7747393 155.1968,100.015607 154.954223,100.275796 C155.311029,100.417483 155.663986,100.67252 156.023359,100.682825 C157.965261,100.740787 159.909729,100.747228 161.85163,100.75238 C163.579191,100.757532 164.519979,99.5454639 164.088731,97.860676 C164.032258,97.6391289 163.783263,97.278471 163.676735,97.2965039 C163.429024,97.33901 163.061949,97.5335077 163.009327,97.7357338 C162.502353,99.6819987 160.998118,99.0882011 159.753145,99.0006128 C159.429708,98.9774276 158.889364,98.5008439 158.873963,98.2097414 C158.789253,96.5404102 158.832891,94.8646387 158.832891,93.1682582 C160.596389,92.9608798 162.055703,92.9157976 162.517755,95.1866547 C162.665355,95.0552722 162.811671,94.9226016 162.959271,94.791219 C163.060666,93.5083071 163.163344,92.2241071 163.242919,91.2219932 C161.551296,91.3495116 160.238299,91.4486925 158.926585,91.5465854 C158.926585,89.7304149 158.926585,88.1718572 158.926585,86.6274683 C161.372893,86.4329706 161.372893,86.4329706 163.145375,88.7270129 C163.340464,87.2058091 163.490631,86.0259423 163.651065,84.7790962 C162.594763,84.8692607 161.890134,84.97617 161.182938,84.9800342 C159.287242,84.9903387 157.391546,84.9375281 155.49585,84.9620013 C155.209635,84.9658655 154.925986,85.2402232 154.641054,85.3896386 C154.865663,85.6163379 155.062035,85.8829672 155.321297,86.0568558 C155.522803,86.1921026 155.801318,86.2114235 156.168392,86.3183329 C156.169676,90.4130889 156.17866,94.5181494 156.147857,98.6219219 Z M119.948661,85.658844 C123.165055,86.2127116 122.99692,89.0876709 123.945409,91.1344048 C125.240438,93.9256399 126.247968,96.8508337 127.431334,99.6961674 C127.623856,100.158582 128.084624,100.507648 128.422178,100.909524 C128.73663,100.537273 129.158894,100.213969 129.347566,99.7863319 C130.687516,96.7284676 131.928639,93.625521 133.307093,90.5856895 C134.152905,88.7192845 134.214512,86.3041642 136.81612,85.5738318 C135.549328,84.6812033 132.493369,84.7365901 131.598785,85.5957289 C132.001797,85.8713746 132.385557,86.1354278 132.827073,86.4381228 C131.543595,89.7858016 130.288355,93.0613488 128.895782,96.6911137 C127.513477,93.003386 126.274921,89.6956371 125.056901,86.4432751 C125.439377,86.0761768 125.757679,85.7915146 126.028493,85.4682105 C126.050312,85.4424492 125.749979,84.9942029 125.594678,84.9916268 C123.793959,84.956849 121.99324,84.9697297 120.192522,84.9697297 C120.110379,85.1990051 120.02952,85.4282805 119.948661,85.658844 Z M303.212544,88.9086299 C303.955677,89.8862706 304.445966,91.0558329 305.186532,92.0347617 C306.640712,93.9578415 306.256952,96.1630074 306.176093,98.283161 C306.150424,98.9555305 305.422692,99.6008507 305.01583,100.259051 C306.242834,101.02545 309.922564,100.879898 310.867203,99.7914842 C308.216822,99.7695871 308.926585,97.8954537 308.79182,96.4051635 C308.617267,94.4601865 309.148627,92.7586538 310.238299,91.176911 C311.689912,89.0683499 312.44588,86.3634151 315.38376,85.5467824 C315.32857,85.4218402 315.272097,85.2956099 315.216908,85.1706677 C313.572773,85.1706677 311.929922,85.1706677 310.429537,85.1706677 C310.57072,85.8507656 310.93266,86.501238 310.745273,86.8747766 C309.884059,88.587902 308.870112,90.2224554 307.680329,92.2859342 C306.937195,89.5359172 304.36254,88.0391866 304.795071,85.1384661 C303.158638,85.1384661 301.523488,85.1384661 299.988449,85.1384661 C301.15513,86.4909335 302.253786,87.646327 303.212544,88.9086299 Z M275.517669,95.6503578 C275.485582,97.2668784 276.088817,99.1204027 274.066056,100.128957 C275.425259,101.013857 279.11654,100.894067 279.896894,100.031064 C278.102593,98.7558806 278.111577,98.7558806 278.098742,96.6924018 C278.093608,95.8203823 278.02045,94.9483629 278.0166,94.0750554 C278.005048,91.6264454 278.012749,89.1778353 278.012749,86.6339086 C279.94695,86.621028 281.752802,86.2127116 282.832207,88.3560504 C283.109438,87.5999567 283.263455,86.9340275 283.327629,86.261658 C283.42389,85.236359 283.230085,84.8009933 281.897835,84.8602442 C278.481218,85.0096597 275.050483,84.8241784 271.624882,84.7997052 C271.27321,84.7971291 270.666125,84.9001742 270.612219,85.0830793 C270.332421,86.0362468 270.193805,87.0319204 270.006417,88.0121373 C270.165569,88.1087421 270.32472,88.2040588 270.485154,88.3006636 C271.678788,86.2114235 273.520578,86.5592009 275.535638,86.6725505 C275.534354,89.7201104 275.577993,92.6865222 275.517669,95.6503578 Z M221.384444,84.6528659 C221.23171,84.6451375 221.077693,84.6670346 220.923676,84.6773391 C217.686746,84.9194952 215.981005,88.0005447 217.60332,90.8239814 C218.102593,91.6921366 218.897065,92.4031481 219.618379,93.1231759 C220.378198,93.8831338 221.266364,94.5168614 222.000513,95.2987163 C222.807821,96.1604313 223.136391,97.3493145 222.344485,98.2367907 C221.797724,98.8499093 220.719603,99.1809418 219.846838,99.2556495 C218.684008,99.3561185 218.003765,98.5510784 217.793275,97.380228 C217.731668,97.037603 217.542996,96.716875 217.365877,96.2673406 C216.215881,97.7099725 216.282622,99.9099861 217.322238,100.471582 C219.334731,101.556132 222.786002,100.870882 224.074613,99.1307073 C225.487721,97.2230842 225.220758,94.5877049 223.330196,92.7006909 C222.316249,91.6882724 221.068709,90.8935368 220.151023,89.8089868 C219.633781,89.1971563 219.269274,88.1396556 219.41174,87.3938665 C219.508,86.8940976 220.579704,86.3685674 221.279199,86.2513535 C222.288012,86.0826171 223.18773,86.4767648 223.439292,87.7107302 C223.499615,88.0044089 223.855138,88.2375485 224.349277,88.8236177 C224.745871,84.8911578 225.256695,84.8344829 221.384444,84.6528659 Z M246.762642,86.8065092 C246.774194,89.9918919 246.789595,93.1772746 246.783178,96.3639454 C246.779327,97.7679354 247.202875,99.3316453 245.362368,100.065842 C246.088817,100.596524 250.457774,100.917252 250.894156,100.54629 C251.031488,100.430364 251.191923,100.159871 251.143151,100.045233 C251.057158,99.8430067 250.809446,99.5557684 250.646445,99.5660729 C249.237187,99.6562374 249.396338,98.5858561 249.380936,97.780816 C249.329597,95.1608935 249.303927,92.5383948 249.377086,89.9197603 C249.422007,88.3186965 248.654488,86.4226661 250.804312,85.2221903 C249.083169,84.9890506 247.453153,84.9813223 245.82442,85.0276926 C245.774365,85.0289806 245.599812,85.7271114 245.734577,85.8932717 C245.929665,86.1341397 246.35578,86.1843742 246.667665,86.3106045 C246.706169,86.5063902 246.761359,86.6570938 246.762642,86.8065092 Z M96.7151536,85.3870625 C97.143835,86.0761768 97.8779841,86.7176328 97.8998032,87.3809858 C98.0153162,90.9270265 97.9883631,94.4807956 97.9152049,98.0294124 C97.9049371,98.5459261 97.3787114,99.0521353 97.089929,99.5622088 C96.9538804,99.8030768 96.7267049,100.034928 96.7113032,100.282237 C96.7036023,100.404603 97.0770942,100.66608 97.2824506,100.669944 C98.7648669,100.702146 100.24985,100.708586 101.732267,100.658351 C101.942757,100.650623 102.200736,100.318302 102.312398,100.078722 C102.35347,99.9898461 102.027466,99.5725133 101.878583,99.5776655 C100.171558,99.6291881 100.529648,98.2780088 100.505262,97.3918206 C100.424403,94.4073759 100.494994,91.4203551 100.462908,88.4346223 C100.450073,87.2289942 100.355095,86.040111 102.131428,85.6292185 C100.743989,84.6799152 97.401814,84.7417423 96.7151536,85.3870625 Z" id="Shape"></path>
        </g>
        <rect id="Rectangle" fill-opacity="0" fill="#FFFFFF" x="0" y="0" width="450" height="300"></rect>
    </g>
</svg>