<?xml version="1.0" encoding="UTF-8"?>
<svg width="450px" height="300px" viewBox="0 0 450 300" version="1.1" xmlns="http://www.w3.org/2000/svg" xmlns:xlink="http://www.w3.org/1999/xlink">
    <!-- Generator: Sketch 50.2 (55047) - http://www.bohemiancoding.com/sketch -->
    <title>makeawish-logo</title>
    <desc>Created with Sketch.</desc>
    <defs></defs>
    <g id="makeawish-logo" stroke="none" stroke-width="1" fill="none" fill-rule="evenodd">
        <g transform="translate(50.000000, 103.500000)" fill="#DADADA" fill-rule="nonzero">
            <path d="M188.536686,58.6931163 C183.539303,59.9978611 178.605405,59.9079264 173.728092,58.1161507 C173.303018,57.9598027 173.20779,57.8089892 173.374784,57.3537813 C175.896247,50.4634007 178.395629,43.5647185 180.901911,36.6688034 C180.954355,36.5221407 181.010939,36.3768616 181.095126,36.1499494 C182.38553,39.8123666 183.640051,43.3696294 184.891812,46.9282757 C186.204298,50.6529554 187.507123,54.3804022 188.82927,58.0995474 C188.95486,58.4537517 188.95348,58.5838111 188.536686,58.6931163 M204.133324,73.5932185 C204.105722,73.1241745 204.126424,72.6523633 204.126424,72.1805521 C204.126424,71.3476186 204.126424,71.3476186 203.272135,71.3351661 C203.045796,71.3323988 202.819458,71.328248 202.5945,71.3144119 C201.160564,71.228628 200.070277,70.6087705 199.445086,69.2722027 C199.327777,69.019002 199.193906,68.7727193 199.097298,68.5126005 C197.868999,65.1656466 196.648981,61.8145418 195.413781,58.470355 C195.329594,58.2406757 195.375138,58.1355213 195.560073,57.9985438 C196.050012,57.6374215 196.539952,57.2735319 197.000909,56.8764357 C200.351819,53.9860732 202.601401,50.441263 203.386684,46.0316961 C203.421187,45.8379906 203.560578,45.5695702 203.295597,45.4796355 C203.020954,45.3883172 202.986452,45.6913279 202.909165,45.8711973 C201.936187,48.1859777 200.638882,50.2987511 198.979989,52.1832286 C197.685444,53.6540067 196.218386,54.9241612 194.540171,55.997843 C194.465645,55.8193572 194.402159,55.6782289 194.348335,55.5329498 C193.597555,53.4755209 192.848154,51.4153248 192.097374,49.3565123 C189.720822,42.8355557 187.34151,36.3159827 184.975999,29.7908753 C184.847649,29.4352874 184.683416,29.3176805 184.308025,29.3232149 C183.021762,29.3495035 181.732738,29.355038 180.446474,29.3204477 C180.000698,29.3093788 179.825424,29.4657268 179.676372,29.8697411 C176.489695,38.4674971 173.280936,47.0555679 170.098399,55.6533239 C169.909324,56.1638762 169.761652,56.1306696 169.375221,55.8677836 C167.815695,54.7996362 166.38452,53.5862098 165.154841,52.150022 C160.140896,46.2890477 158.56895,39.4678476 159.69098,31.9548422 C160.665339,25.4311184 163.932062,20.2079885 168.969468,16.046088 C173.340281,12.4348644 178.369406,10.0785757 183.703537,8.32139024 C189.389595,6.44936515 195.241267,5.37568336 201.184026,4.78073082 C206.657548,4.23143742 212.14349,4.11383052 217.640473,4.39055264 C222.697201,4.64652059 227.718046,5.20549926 232.701628,6.09931168 C242.044982,7.77486407 251.041927,10.5559213 259.699365,14.450785 C261.998631,15.4843421 264.256493,16.5981486 266.482612,17.7783684 C266.622004,17.8516998 266.801418,18.03572 266.939429,17.8378637 C267.085721,17.6275548 266.94495,17.4490691 266.751734,17.3217769 C266.649606,17.2553636 266.554378,17.1778814 266.45639,17.1059337 C263.289035,14.7897696 259.922943,12.8029049 256.421601,11.0429522 C249.203619,7.41374172 241.641989,4.73230445 233.793296,2.85197769 C226.019129,0.988254266 218.145594,-0.021781445 210.147849,0.000356323947 C206.251795,0.0114252085 202.366782,0.220350403 198.492809,0.657571341 C193.441602,1.2290025 188.46078,2.15740519 183.588987,3.61711433 C178.014718,5.28574867 172.719231,7.56178805 167.960607,10.9737717 C163.585654,14.1104168 160.023587,17.9665394 157.765725,22.9087964 C154.917175,29.1391947 154.280944,35.6490824 155.801826,42.3042492 C157.500743,49.734238 161.494786,55.5799926 168.189705,59.4112102 C168.516792,59.596614 168.569236,59.752962 168.436745,60.0988647 C167.607298,62.2766677 166.816495,64.4696904 165.987048,66.6474935 C165.571634,67.7350114 165.127238,68.812844 164.492387,69.8007419 C163.846495,70.8052432 162.930101,71.303343 161.744586,71.3199463 C161.344353,71.3240972 160.942741,71.3517694 160.545269,71.3296316 C160.218183,71.3102611 160.124335,71.427868 160.135376,71.7447148 C160.157458,72.3535034 160.167118,72.9664429 160.132616,73.5752316 C160.111914,73.9515736 160.273387,74 160.588052,74 C165.372898,73.9930819 170.157744,73.9930819 174.94121,74 C175.265536,74 175.411828,73.9322031 175.392506,73.5655463 C175.360764,72.973361 175.360764,72.3784084 175.392506,71.7876067 C175.411828,71.4057302 175.271057,71.32133 174.917748,71.328248 C173.910267,71.3476186 172.900025,71.3669891 171.911866,71.1041031 C170.564877,70.7443643 169.85826,69.8630044 169.823757,68.4655577 C169.814096,68.0656943 169.836178,67.6644472 169.925885,67.2715018 C170.385463,65.2431287 171.264593,63.3586512 171.920146,61.3966914 C172.026415,61.0798446 172.192028,61.1780809 172.401805,61.2431106 C177.781479,62.9283483 183.173574,62.9034433 188.58085,61.3759372 C188.992123,61.2610976 189.472402,60.872303 189.789827,61.0881462 C190.083791,61.2873862 190.148656,61.8463648 190.285287,62.2572972 C190.867694,64.0241678 191.628136,65.7343105 192.04769,67.5523748 C192.501746,69.5184854 191.566031,70.8744237 189.599372,71.2327789 C188.872053,71.3628383 188.143355,71.3351661 187.416036,71.328248 C187.09171,71.3254808 186.945418,71.3918941 186.963359,71.7557837 C186.993722,72.3659559 186.988201,72.9775118 186.96474,73.5876841 C186.952319,73.9114489 187.058587,74 187.377393,74 C192.821932,73.9930819 198.269231,73.9930819 203.71377,74 C204.024295,74 204.151266,73.925285 204.133324,73.5932185" id="Fill-1"></path>
            <path d="M48.3386024,71.2710573 C48.0353406,71.3059056 47.7112121,71.2208757 47.4037769,71.1525729 C46.4703426,70.9504525 45.8972056,70.3942729 45.7400103,69.4240949 C45.673237,69.0045208 45.6454148,68.5863407 45.6454148,68.1639787 C45.6454148,57.0599017 45.6440237,45.9530368 45.6454148,34.8475659 C45.6454148,34.5659912 45.6481971,34.2844166 45.6718459,34.0056298 C45.7900902,32.5643022 46.4522582,31.8896382 47.8809274,31.7404873 C48.142456,31.7140026 48.4039845,31.6652149 48.6641219,31.6693967 C48.9298238,31.6735785 48.9910326,31.5592759 48.9868593,31.3209132 C48.9757304,30.7061884 48.9632104,30.0914636 48.9910326,29.4767388 C49.0063348,29.1184978 48.9131305,28.9986194 48.5319666,29.0000134 C45.0416734,29.0153466 41.5527714,29.0153466 38.0624783,29.0000134 C37.7230476,28.9986194 37.5797634,29.1059523 37.4684746,29.4195875 C33.8919327,39.43779 30.3056531,49.4518108 26.7207645,59.4658315 C26.0808543,61.2556426 25.440944,63.0468476 24.7940782,64.8519919 C24.6118429,64.702841 24.5965407,64.5146599 24.5381141,64.3543575 C21.7545045,56.6612366 18.9764593,48.96254 16.1956319,41.2666312 C14.7725271,37.3273742 13.3466401,33.3895111 11.9221442,29.450254 C11.8414598,29.2244367 11.8192021,28.9986194 11.4644692,29.0000134 C7.76411861,29.0139527 4.06237688,29.0111648 0.363417354,29.0041952 C0.0893688308,29.0028012 -0.00522659865,29.0836494 0.00451116615,29.3624362 C0.0239866958,29.871222 0.0100756032,30.3814018 0.0100756032,30.8915816 C0.0100756032,31.6359423 0.0100756032,31.6359423 0.733452416,31.704245 C2.6990898,31.8924261 3.30144011,32.5364235 3.3598667,34.5172035 C3.36125781,34.5882942 3.3598667,34.6579909 3.3598667,34.7290815 C3.3598667,45.8875219 3.36125781,57.0459624 3.3598667,68.2044028 C3.35847559,70.4834847 2.66570318,71.2069363 0.403759522,71.2808148 C0.0643288642,71.2933602 -0.00661770791,71.3992992 0.00312005689,71.7073586 C0.025377805,72.3220834 0.0323333513,72.9395961 0.00172894763,73.552927 C-0.017746582,73.9195316 0.126928781,73.996198 0.455230565,73.9920162 C1.4359626,73.9752889 2.41808573,73.9864404 3.40020887,73.9864404 C5.62737479,73.9864404 7.85454071,73.9864404 10.0830977,73.9850465 C10.315413,73.9850465 10.5908526,74.0631068 10.5797237,73.6518963 C10.5616393,72.9674748 10.5644215,72.2816593 10.5797237,71.5958439 C10.5852882,71.319845 10.4503506,71.2947542 10.226382,71.2849966 C9.84243584,71.2682694 9.45431636,71.2403907 9.07732575,71.1679062 C8.24544241,71.0089977 7.62222546,70.582454 7.39825687,69.7070635 C7.25775484,69.1578536 7.2368882,68.5974922 7.2368882,68.0357368 C7.2368882,56.9469931 7.2368882,45.8582493 7.2368882,34.7695056 L7.2368882,34.2077502 C7.44972792,34.401507 7.47615899,34.6161728 7.54432335,34.801566 C10.0844889,41.7851746 12.6176988,48.7701771 15.153691,55.7551796 C17.2932171,61.6501259 19.4369164,67.5436782 21.5625314,73.4442002 C21.709989,73.8526228 21.8908332,74.0226827 22.3429437,73.9975919 C23.1289204,73.9557739 23.9204616,73.9627435 24.7078294,73.996198 C25.1001222,74.0143191 25.2461887,73.8554106 25.3686063,73.5125029 C29.8187648,61.0340071 34.2800522,48.5596931 38.7399485,36.0839852 C38.9820015,35.4051394 39.2351834,34.7290815 39.4841919,34.0502357 C39.5092319,34.0585993 39.5328808,34.065569 39.5579207,34.0739326 L39.5579207,34.2830227 C39.5579207,45.6003716 39.5620941,56.9163265 39.5551385,68.2322815 C39.5551385,70.4820907 38.8373261,71.2208757 36.6240713,71.2808148 C36.2540363,71.2905724 36.1914363,71.4174203 36.2025652,71.7394191 C36.2234318,72.3360227 36.2317785,72.9340204 36.199783,73.530624 C36.1789164,73.9181377 36.3305473,74.0045616 36.683889,73.9934101 C37.4017014,73.9711071 38.1209049,73.9864404 38.8401084,73.9864404 C42.0493974,73.9864404 45.2586865,73.9780768 48.4679755,73.996198 C48.8894816,73.9975919 49.0188548,73.8749257 48.9910326,73.4623213 C48.957646,72.9730505 48.9506904,72.4768101 48.9910326,71.9889332 C49.034157,71.4787534 48.9381705,71.2027545 48.3386024,71.2710573" id="Fill-4"></path>
            <path d="M270.662188,31.6573032 C270.943791,31.6255207 271.002054,31.5094457 270.996505,31.2593316 C270.98402,30.6333554 270.978472,30.0046155 270.99928,29.3786393 C271.010377,29.0691059 270.893852,28.9944862 270.606699,29.005541 C270.100368,29.0248868 269.592649,29.0096865 269.084931,29.0096865 C265.447668,29.0096865 261.811792,29.0179776 258.174529,29.0013954 C257.752818,28.9986317 257.633518,29.1174705 257.658488,29.525115 C257.691781,30.098581 257.68207,30.6748108 257.661262,31.2496587 C257.650164,31.5522829 257.762528,31.6351936 258.053842,31.6296663 C258.700282,31.6172297 259.349496,31.6075567 259.994548,31.6490121 C262.487363,31.8051607 263.533319,33.1690426 263.028375,35.6010913 C262.877169,36.3320878 262.713478,37.0630842 262.502623,37.7802622 C259.878023,46.7553512 257.240938,55.7276764 254.610789,64.7027654 C254.574721,64.8216041 254.558075,64.9487339 254.424903,65.0440813 C253.150057,60.6429022 251.883535,56.26936 250.615626,51.8958178 C248.490421,44.5665073 246.359668,37.2385787 244.248335,29.9037408 C244.142907,29.5361698 244.002799,29.4104218 243.615768,29.4187129 C242.426929,29.4449679 241.238091,29.4408224 240.049252,29.4200947 C239.709386,29.4145673 239.574827,29.5195876 239.484658,29.8526125 C236.721337,40.1266365 233.946918,50.3978969 231.1725,60.6677754 C230.692525,62.4448292 230.208389,64.2205012 229.699284,66.0970479 C229.595243,65.7709322 229.514785,65.548455 229.450973,65.3204505 C227.184273,57.2891623 224.917573,49.2592559 222.659196,41.2265858 C222.089053,39.2021816 221.485617,37.1846867 221.001481,35.1409366 C220.578382,33.3459188 221.511974,32.0649477 223.315346,31.7208681 C224.081086,31.5757743 224.850987,31.622757 225.616726,31.6338118 C225.996822,31.640721 226.091152,31.5163549 226.071731,31.1612205 C226.043987,30.6223006 226.034276,30.0778534 226.074506,29.5416972 C226.109186,29.1022702 225.96769,28.9986317 225.532107,29.0000136 C220.216321,29.0165957 214.900534,29.0096865 209.584748,29.0096865 C209.514001,29.0096865 209.443253,29.0179776 209.373892,29.0096865 C209.113097,28.9792859 208.995184,29.0663422 209.00212,29.3537661 C209.018767,29.9797423 209.022928,30.6084822 209.000733,31.2344583 C208.988248,31.5771561 209.135292,31.6421029 209.437704,31.6296663 C209.856641,31.6130841 210.278353,31.614466 210.694516,31.6490121 C211.863933,31.7443595 212.864111,32.152004 213.496679,33.2160253 C213.873999,33.8516744 214.108438,34.5384518 214.316519,35.2404295 C217.995398,47.6383507 221.677052,60.0362719 225.344833,72.4369567 C225.472457,72.8667108 225.648632,73.0062772 226.096701,72.9979861 C227.600436,72.9689674 229.104171,72.9662037 230.607906,72.999368 C231.093429,73.0104228 231.289025,72.8791474 231.42081,72.3927376 C234.139741,62.3950828 236.879479,52.4001916 239.616443,42.4066822 C239.954922,41.1699302 240.29895,39.9359418 240.640204,38.6991897 C240.672109,38.706099 240.702628,38.7130082 240.734534,38.7212993 C241.51692,41.4062258 242.299306,44.093916 243.083079,46.7788426 C245.595315,55.372542 248.110326,63.962096 250.615626,72.5571773 C250.708569,72.8777655 250.837579,72.999368 251.184382,72.9966043 C252.757477,72.9772584 254.33196,72.9800221 255.905055,72.9952224 C256.226888,72.9979861 256.351736,72.8943477 256.439131,72.5820505 C256.908007,70.8906712 257.40879,69.2075829 257.897088,67.5217309 C260.610469,58.1541978 263.319689,48.7852828 266.040006,39.4218951 C266.578244,37.5702217 267.00273,35.6812384 267.817022,33.918003 C268.385777,32.6867784 269.247234,31.820361 270.662188,31.6573032" id="Fill-6"></path>
            <path d="M340.24039,69.6901979 C340.081352,69.1122815 340.017465,68.5161299 340.017465,67.9101594 C340.021543,62.5349759 340.022902,57.1597925 340.017465,51.7860118 C340.016106,50.2093661 339.872019,48.6453448 339.498211,47.1121832 C338.616024,43.4875814 336.57843,40.9683148 332.981715,40.0074587 C330.795957,39.4239315 328.578935,39.3692258 326.370068,39.875604 C324.358301,40.3356928 322.634705,41.3246031 321.294433,42.9727869 C320.848582,43.5226491 320.492444,44.1342305 320.07242,44.8944992 L320.07242,44.1678956 L320.07242,26.7167846 C320.07242,26.5933462 320.062905,26.468505 320.073779,26.3464693 C320.096887,26.1052032 320.019407,26.0014027 319.763858,26.0014027 C316.952821,26.0084163 314.144502,26.009819 311.333464,26 C311.041214,26 310.997717,26.1346601 311.003154,26.3857452 C311.015388,26.879499 311.007232,27.3746555 311.007232,27.8712147 C311.007232,28.6595375 311.007232,28.6595375 311.777956,28.7142432 C313.29086,28.8208491 314.01129,29.415598 314.194796,30.729937 C314.24509,31.0960442 314.26548,31.469165 314.26548,31.8394803 C314.269558,44.0037785 314.270917,56.1666741 314.268198,68.3309723 C314.268198,70.6566649 313.619811,71.3538116 311.355213,71.4590148 C311.098305,71.4702365 310.992279,71.5221368 311.000435,71.8110949 C311.020825,72.4647576 311.019465,73.1184204 311.001795,73.7734858 C310.993639,74.0666521 311.076556,74.2083258 311.375603,74.1648418 C311.425897,74.1592309 311.47755,74.1634391 311.529204,74.1634391 C315.29719,74.1634391 319.067895,74.1592309 322.835882,74.173258 C323.234157,74.1746607 323.393196,74.0736656 323.352417,73.6444365 C323.318434,73.2783293 323.351057,72.9038058 323.344261,72.5320877 C323.338824,72.1996455 323.429897,71.7942624 323.277655,71.5543991 C323.129491,71.3173411 322.705389,71.4982907 322.407701,71.4323633 C322.173901,71.3818658 321.936024,71.346798 321.702224,71.2906897 C320.839066,71.0844913 320.349718,70.506575 320.194757,69.6214652 C320.137666,69.2932311 320.094169,68.9565808 320.092809,68.6213332 C320.081935,63.9194504 320.071061,59.2161649 320.076498,54.5142821 C320.077857,53.0793101 320.239614,51.6597679 320.583518,50.2654745 C320.875768,49.0787821 321.288996,47.9411846 321.931946,46.9087903 C323.669134,44.1258143 325.985386,43.3459077 328.845358,43.7190285 C331.611538,44.0809276 333.215515,45.7641792 333.855747,48.5120874 C334.128967,49.6875581 334.237711,50.8826667 334.240429,52.0833862 C334.249945,57.8302877 334.234992,63.5771892 334.249945,69.3212853 C334.255382,71.3257574 334.983968,72.9977873 336.672221,74.0694575 C338.23406,75.0597705 339.961733,75.2210821 341.72203,74.7357446 C342.685776,74.467827 343.404847,73.8295942 343.876525,72.9010004 C344.066827,72.5250742 344.085857,72.3693734 343.578837,72.3609571 C341.875631,72.3343056 340.705272,71.3818658 340.24039,69.6901979" id="Fill-8"></path>
            <path d="M114.632791,70.7041846 C113.06072,70.6931736 111.749498,70.050405 110.62659,68.9919703 C109.809169,68.2211986 109.078233,67.3788552 108.446335,66.4566819 C105.536539,62.2050502 102.635112,57.9465365 99.7211313,53.6990339 C99.5439768,53.4402748 99.5286327,53.2819913 99.7546093,53.036996 C100.669675,52.0515093 101.555447,51.0426242 102.455168,50.0447502 C104.221133,48.0902933 105.93967,46.090416 108.050179,44.4731718 C109.350241,43.4780505 110.753528,42.7265481 112.445562,42.6673639 C112.710596,42.6577292 112.762208,42.5421135 112.758023,42.3122583 C112.746864,41.6543496 112.739889,40.9936882 112.760813,40.3357795 C112.770577,40.0453637 112.653404,39.9958141 112.39395,39.9958141 C108.454705,40.002696 104.51546,40.0040723 100.576215,39.9944377 C100.2512,39.9944377 100.202378,40.1224409 100.209352,40.3949637 C100.224696,41.0019464 100.233066,41.6089291 100.207957,42.2159119 C100.192613,42.5503717 100.290257,42.6783749 100.644566,42.6701166 C101.188584,42.6563528 101.731206,42.7072788 102.24872,42.90823 C102.916885,43.1669891 103.116359,43.6101828 102.84435,44.273597 C102.625348,44.8103845 102.275224,45.2659656 101.881857,45.6912664 C99.1380561,48.6656194 96.3956498,51.6427251 93.6504537,54.617078 C92.9460208,55.3795915 92.2332183,56.1365994 91.5246006,56.8949837 C91.4799633,56.8770908 91.4367209,56.8591978 91.3934784,56.8426813 L91.3934784,56.175138 C91.3934784,46.3367877 91.3906886,36.4984375 91.4032429,26.6600872 C91.4046378,26.1934951 91.2944394,26.0489754 90.7992439,26.0544809 C88.3902227,26.0820084 85.9812016,26.0599864 83.5721804,26.0723738 C83.0867494,26.0737502 82.4520623,25.8562824 82.154945,26.1687203 C81.8620125,26.4756526 82.0754348,27.0936463 82.0698551,27.576755 C82.0573008,28.643448 82.0656703,28.643448 83.1634698,28.7631929 C84.550017,28.9145945 85.1805194,29.5133189 85.3409348,30.8580403 C85.3939416,31.2874702 85.42184,31.7224057 85.42184,32.1545884 C85.4260247,43.8482962 85.4260247,55.5433804 85.4260247,67.2384647 C85.4260247,67.7601119 85.3981264,68.2776301 85.321406,68.7937719 C85.1819143,69.7076869 84.6992731,70.3187987 83.763284,70.5431483 C83.3350446,70.6450003 82.9012255,70.7234539 82.4618267,70.7096901 C82.1828434,70.7000554 82.0461415,70.7537342 82.0586958,71.0744303 C82.0838043,71.7144461 82.0810144,72.358591 82.0586958,72.9999831 C82.0489313,73.3082918 82.171684,73.3798635 82.4590369,73.3798635 C86.4150207,73.3729816 90.3710045,73.3716052 94.3283832,73.3826162 C94.667348,73.3826162 94.7468582,73.2683769 94.734304,72.9600682 C94.7119853,72.4053878 94.6938514,71.8465784 94.7384887,71.2960271 C94.7775464,70.8170476 94.6143411,70.7110665 94.1400695,70.6973027 C92.2136895,70.6450003 91.4939124,69.9829625 91.4227717,68.0821844 C91.3530259,66.1759008 91.400453,64.2654881 91.3906886,62.3578281 C91.3892937,62.149995 91.4743836,62.004099 91.6110855,61.8526974 C92.8009494,60.5533965 93.9880235,59.2527193 95.1625434,57.9396546 C95.3968894,57.67539 95.5252218,57.6107003 95.7525932,57.9603003 C96.9061893,59.7413335 98.0821041,61.5099793 99.256624,63.278625 C101.160685,66.1483733 103.013135,69.0511545 105.335671,71.6332398 C107.017941,73.5009848 109.050334,74.2359706 111.502598,73.9345438 C113.208581,73.7225816 114.363572,72.7880209 114.934093,71.1735295 C115.033132,70.8955011 115.079164,70.7069373 114.632791,70.7041846" id="Fill-10"></path>
            <path d="M69.9078859,64.8532685 C68.963584,68.8893153 65.8591231,71.2377631 61.6916403,71.0513341 C60.1496443,70.9831624 58.7782232,70.5393503 57.8966927,69.1202645 C57.4395523,68.3828964 57.213029,67.5592702 57.114778,66.6980799 C56.95512,65.2942981 56.9878703,63.9030375 57.3235615,62.5242983 C57.7875249,60.6168802 58.9487979,59.3257904 60.6845668,58.5369457 C62.1965416,57.849663 63.8054029,57.6048011 65.4388269,57.4893265 C66.8621028,57.390547 68.2867433,57.3821994 69.7127484,57.4183722 C70.0607209,57.4267198 70.1917224,57.5032391 70.1808056,57.8816619 C70.1548782,58.7762425 70.172618,59.6694317 70.172618,60.5640123 C70.1630658,61.9984019 70.2381187,63.4383565 69.9078859,64.8532685 M79.6129082,71.7580945 C77.8389306,72.1337348 76.6462718,71.3226299 76.2177879,69.5126 C76.0704113,68.8948803 76.0212858,68.2688131 76.0226504,67.6357895 C76.024015,62.1639619 76.0253796,56.6921342 76.0212858,51.2189153 C76.0199212,49.957042 75.9325869,48.702125 75.7306264,47.452773 C75.1383908,43.7979316 72.9495753,41.3840946 69.4193598,40.5201218 C66.844363,39.891272 64.2393451,39.9065759 61.6275042,40.1778717 C59.8412451,40.3615181 58.0904657,40.7274196 56.4870628,41.5969574 C54.8481804,42.4845816 53.674626,43.7381074 53.5982085,45.7526526 C53.5163326,47.8965851 54.2559448,49.1793273 56.3260402,49.7163539 C57.0301729,49.898609 57.7452223,49.9639983 58.4670948,50.0126924 C58.8082443,50.0363438 58.8573699,49.9069566 58.8682866,49.6022705 C58.8914848,48.9386392 58.9378812,48.2736167 59.0142987,47.612768 C59.2899475,45.2253649 60.5603884,43.7617588 62.7451101,43.3123817 C63.6102653,43.1356916 64.4917958,43.121779 65.3665032,43.1982983 C68.1038871,43.4375951 69.5872054,44.9039837 69.9706575,47.6851135 C70.2667753,49.8332198 70.1303154,51.9924561 70.1821702,54.1461274 C70.193087,54.5774182 70.0525333,54.6595026 69.6649875,54.6525463 C67.1896064,54.6149822 64.7128607,54.5676794 62.2456671,54.8570615 C60.0145491,55.1200098 57.8489318,55.6222548 55.8252327,56.6573527 C53.5258848,57.8343591 51.9061067,59.5887386 51.2961313,62.1945696 C50.9085854,63.8529522 50.9427004,65.5280298 51.1624007,67.2072813 C51.6577498,70.9956837 54.1535999,73.8310727 57.7247534,74.6254825 C60.1591965,75.1680741 62.5772645,75.0567732 64.9584883,74.3249702 C67.1582206,73.6474263 68.8571453,72.3006861 69.9979494,70.2513593 C70.2094621,69.8715452 70.4059643,69.4847748 70.6816131,68.9658346 C70.889032,70.0663217 71.1728685,70.9789886 71.5795187,71.8513089 C72.8158447,74.5030515 74.9828266,75.5298018 77.6833664,74.7409571 C78.9783701,74.3639255 79.8367023,73.3761305 79.9799851,72.1295611 C80.0168293,71.8095711 80.0509442,71.66488 79.6129082,71.7580945" id="Fill-12"></path>
            <path d="M135.158885,54.5331861 C133.075391,54.5387534 130.991898,54.5373616 128.908404,54.5373616 L128.383364,54.5373616 C126.142913,54.5373616 123.901074,54.5290107 121.660624,54.5457124 C121.282817,54.548496 121.213368,54.4496777 121.245314,54.0752815 C121.409216,52.1838154 121.681459,50.3174018 122.334287,48.5247539 C122.755153,47.3639866 123.338531,46.3048212 124.152483,45.3570005 C126.391544,42.752929 132.078092,42.4035853 134.14214,46.6054516 C135.33251,49.0327636 135.574195,51.6312679 135.599197,54.2757018 C135.603364,54.6445307 135.339454,54.5331861 135.158885,54.5331861 M136.000616,41.7814474 C132.875376,39.9540044 129.46678,39.6923446 125.987346,40.2810791 C121.138362,41.0994619 118.027011,44.0264327 116.362994,48.5846016 C115.514318,50.9089199 115.175403,53.3334482 115.051782,55.7941636 C114.886492,59.0899633 115.08234,62.3481843 116.146311,65.5034115 C117.511694,69.5507872 119.991051,72.5835353 124.091367,74.088079 C126.731848,75.0553851 129.46678,75.1653379 132.221159,74.8243451 C134.453275,74.5473755 136.552048,73.8472964 138.377188,72.4749744 C139.317538,71.7679362 140.066207,70.8994485 140.438458,69.7553828 C140.785707,68.6836912 140.632918,67.7136015 139.825911,66.8896516 C139.584226,66.6419099 139.373098,66.5584014 139.138358,66.943932 C138.863337,67.3907022 138.493864,67.7720574 138.100778,68.1241847 C135.789489,70.1854513 133.068446,71.0678571 129.998766,70.9801733 C126.517942,70.8827468 123.994137,69.3364488 122.563471,66.1102395 C121.470332,63.6453487 121.220312,61.0176165 121.092525,58.3648317 C121.068912,57.8916172 121.355045,57.965383 121.628677,57.965383 L131.55583,57.965383 L138.017438,57.965383 C139.207808,57.965383 140.398177,57.965383 141.588547,57.9667748 C141.803841,57.9667748 141.995522,57.9960028 141.996911,57.6605772 C142.001078,54.9089741 142.063583,52.150412 141.351028,49.4572648 C140.502352,46.2449735 138.949455,43.5045049 136.000616,41.7814474" id="Fill-14"></path>
            <path d="M304.059761,57.0192536 C302.207642,55.805377 300.177463,54.9383223 298.13186,54.092944 C296.351246,53.3559476 294.529973,52.6988827 292.893771,51.6624814 C291.294023,50.6491113 290.524293,49.2591142 290.618231,47.3895276 C290.714973,45.495555 291.746888,44.0242716 293.576574,43.3414661 C294.720653,42.9147126 295.916608,42.8266524 297.12378,42.9011649 C299.545134,43.0515447 300.947192,44.1434917 301.659438,46.3802218 C301.931437,47.2364382 302.009952,48.1183954 302.066035,49.0044169 C302.075849,49.1615706 302.005746,49.3810438 302.295972,49.3661413 C303.629329,49.2943383 304.900996,49.0545435 305.826354,48.0059493 C306.856867,46.8367802 306.953609,44.9929343 306.073116,43.4891363 C305.250108,42.0855916 303.925163,41.2808565 302.401126,40.7972025 C298.733343,39.6361621 295.057147,39.791961 291.425817,40.9489371 C289.247019,41.6425808 287.44257,42.8605217 286.358779,44.8899715 C284.283733,48.7673317 285.594658,53.5049726 289.447513,56.0343336 C291.250559,57.2170504 293.235873,58.0705573 295.216981,58.9281286 C296.956935,59.6800276 298.719322,60.3845095 300.331689,61.3816224 C301.294903,61.9763677 302.182405,62.6659471 302.553951,63.7687323 C303.294237,65.9688835 302.709579,69.1024733 299.52831,70.3976362 C297.869675,71.0723131 296.138133,71.1874688 294.384159,70.9287072 C291.90532,70.5615637 290.320995,69.1566642 289.549863,66.8752266 C289.196544,65.8293419 289.074565,64.742814 289.046524,63.6495123 C289.039514,63.3487527 288.951184,63.2864331 288.653948,63.3026904 C287.058406,63.3866863 285.645132,64.5057287 285.213298,66.0528794 C284.430949,68.8464212 285.844224,71.56816 288.739474,72.8335179 C290.879014,73.7656017 293.15175,73.9864297 295.462342,73.9972679 C296.365267,74.0121704 297.265388,73.9661081 298.159901,73.859081 C298.754374,73.7872781 299.347444,73.6856701 299.933504,73.5637405 C304.647223,72.5855945 307.647627,69.6443825 307.965895,65.2806589 C308.216863,61.8286974 307.099423,59.0107698 304.059761,57.0192536" id="Fill-16"></path>
            <path d="M282.210121,70.3447686 C281.995699,70.3216441 281.779953,70.2917184 281.568179,70.2468297 C280.686666,70.056393 280.104285,69.5517358 279.937513,68.6036332 C279.854126,68.1275415 279.831625,67.6514498 279.831625,67.1712774 C279.828978,62.8687687 279.830302,58.56626 279.830302,54.2637513 C279.830302,49.6864697 279.830302,45.1091881 279.828978,40.5332667 C279.828978,40.2761772 279.924277,39.9959633 279.466314,40.000044 C276.997814,40.0218082 274.529314,40.0136467 272.060814,40.0054851 C271.81992,40.0054851 271.708739,40.0762187 271.647853,40.3278672 C271.51417,40.8746925 271.338133,41.4106357 271.184596,41.95202 C270.999293,42.600865 271.00194,42.5995047 271.67962,42.6539152 C271.911248,42.6715986 272.145524,42.6906423 272.373182,42.7382514 C273.465146,42.9708562 273.908549,43.4510287 274.101794,44.5746051 C274.181209,45.0343737 274.182533,45.4941422 274.182533,45.9566313 C274.18518,53.0204718 274.18518,60.0815919 274.182533,67.1440721 C274.182533,67.470535 274.182533,67.7969979 274.150767,68.1207402 C274.03032,69.3885044 273.539267,70.0142249 272.473775,70.2373079 C272.116405,70.3121223 271.747123,70.3488494 271.381811,70.3556507 C271.115769,70.3610917 270.990028,70.4114214 271.000617,70.7215612 C271.023118,71.3554433 271.02047,71.9906856 271.00194,72.6245677 C270.993999,72.9238253 271.109151,72.9986397 271.383135,72.9986397 C275.136843,72.9918384 278.889228,72.9904782 282.641612,73 C282.940744,73 283.009571,72.8843777 282.998982,72.6068843 C282.981775,72.1443952 282.995011,71.6819061 282.995011,71.2194171 C282.995011,70.4263843 282.995011,70.4291048 282.210121,70.3447686" id="Fill-18"></path>
            <path d="M283.719417,23.3054324 C282.786034,22.4141128 281.854072,21.521407 280.906483,20.6453355 C280.559838,20.3251258 280.444764,19.9993713 280.556997,19.5266808 C280.868125,18.2195044 281.126687,16.9012386 281.413663,15.5469318 C281.440656,15.1795916 281.162204,15.0368142 280.730319,15.2572182 C279.558264,15.8546658 278.384787,16.4479547 277.226938,17.0675813 C276.803577,17.2963025 276.446988,17.2990749 276.026469,17.0551056 C274.906978,16.4035967 273.767598,15.7825839 272.635321,15.1532541 C272.449212,15.0492899 272.257421,14.9217605 272.037217,15.0617656 C271.808489,15.2087016 271.883784,15.4332643 271.919301,15.6356479 C272.132402,16.8554943 272.31709,18.0808855 272.578494,19.2910287 C272.699251,19.8496629 272.551501,20.2114583 272.125299,20.5704812 C271.152137,21.3938776 270.210231,22.2505425 269.261221,23.0988902 C269.120574,23.2250335 268.937307,23.3539491 269.021127,23.5812841 C269.097843,23.7905986 269.289634,23.8266396 269.497052,23.8543633 C270.73588,24.020706 271.970445,24.2203173 273.212114,24.3644809 C273.824424,24.4351766 274.21653,24.6680564 274.458045,25.2502558 C274.929709,26.3786138 275.468144,27.4806341 275.981007,28.5923578 C276.067668,28.7808796 276.127337,28.9943527 276.40863,28.9998975 C276.691344,29.0054422 276.749592,28.7850381 276.841935,28.6034474 C277.387474,27.5249922 277.958585,26.4576266 278.460083,25.3597648 C278.738535,24.7498415 279.163316,24.5169617 279.819667,24.4684451 C281.030081,24.3769566 282.237654,24.2300206 283.446647,24.0955602 C283.648383,24.0733812 283.891318,24.0955602 283.9794,23.8321843 C284.06464,23.5743531 283.867167,23.4468237 283.719417,23.3054324" id="Fill-20"></path>
            <path d="M212.98146,55.0281565 C212.915717,54.3052133 212.624771,54.0055724 211.982732,54.003987 C210.978409,53.9976453 209.974086,54.0024016 208.969763,54.0024016 C207.964042,54.0024016 206.959719,53.9960599 205.956795,54.003987 C205.337136,54.0087432 205.022411,54.3733856 205.002828,55.0741332 C204.997233,55.294504 205.001429,55.5148749 205.002828,55.7336603 C205.005625,56.6738036 205.285381,56.9988109 206.102268,56.9988109 C208.02279,57.0003964 209.943313,57.0003964 211.865235,56.9988109 C212.682121,56.9988109 212.966073,56.6849014 212.995448,55.7463435 C213.002442,55.5085333 213.00384,55.2659668 212.98146,55.0281565" id="Fill-22"></path>
            <path d="M148.028286,56.9973925 C149.02055,57.0021246 150.011409,56.9989699 151.002268,56.9989699 L153.391574,56.9989699 C154.941811,56.9989699 155.007868,56.9248344 154.999436,55.1913249 C154.996625,54.3222042 154.726774,54.016198 153.94533,54.016198 C152.174433,54.0130433 150.403536,54.0572091 148.63545,54.0035792 C147.014939,53.9546813 146.968558,54.3979171 147.007912,55.882205 C147.028994,56.6472205 147.335387,56.9942378 148.028286,56.9973925" id="Fill-24"></path>
            <path d="M353.752306,71.5737164 C353.470356,72.0558032 353.081686,72.4388311 352.587615,72.7188377 C352.093544,73.0001651 351.565217,73.1414892 351,73.1414892 C350.432148,73.1414892 349.901186,73.0001651 349.407115,72.7161961 C348.913043,72.433548 348.525692,72.0505201 348.245059,71.5644709 C347.965744,71.0797424 347.824769,70.5553905 347.824769,69.9900941 C347.824769,69.1170546 348.135705,68.3721314 348.757576,67.7540036 C349.379447,67.1371966 350.130435,66.826812 351.01054,66.826812 C351.885375,66.826812 352.629776,67.1385174 353.247694,67.7566452 C353.865613,68.3760938 354.175231,69.1289417 354.175231,70.015189 C354.175231,70.5699191 354.034256,71.0903087 353.752306,71.5737164 M354.465086,68.0009906 C354.109354,67.3828628 353.620553,66.894172 353.003953,66.5375598 C352.384717,66.1796269 351.716733,66 351,66 C350.283267,66 349.615283,66.1796269 348.997365,66.5375598 C348.379447,66.894172 347.891963,67.3828628 347.534914,68.0009906 C347.179183,68.6177976 347,69.2847945 347,70.0006604 C347,70.7191679 347.179183,71.3861648 347.534914,72.001651 C347.891963,72.618458 348.380764,73.1045072 349,73.4637609 C349.619236,73.8203731 350.285903,74 351,74 C351.716733,74 352.384717,73.8203731 353.003953,73.4637609 C353.620553,73.1045072 354.109354,72.618458 354.465086,72.001651 C354.822134,71.3861648 355,70.7204887 355,70.0059435 C355,69.287436 354.822134,68.6177976 354.465086,68.0009906" id="Fill-26"></path>
            <path d="M351.605187,69.601203 C351.495677,69.6769925 351.270893,69.7166917 350.930836,69.7166917 L350.051873,69.7166917 L350.051873,68.7675188 L350.936599,68.7675188 C351.275216,68.7675188 351.5,68.802406 351.608069,68.8745865 C351.716138,68.9455639 351.770893,69.0658647 351.770893,69.2342857 C351.770893,69.4027068 351.714697,69.5254135 351.605187,69.601203 M352.71902,70.9028571 C352.704611,70.6418045 352.662824,70.4601504 352.599424,70.3566917 C352.536023,70.2544361 352.414986,70.1606015 352.239193,70.077594 C352.456772,69.9476692 352.603746,69.8153383 352.681556,69.6793985 C352.760807,69.5446617 352.798271,69.3714286 352.798271,69.1584962 C352.798271,68.9070677 352.73487,68.6917293 352.608069,68.5148872 C352.479827,68.3356391 352.311239,68.2057143 352.102305,68.1227068 C351.893372,68.0409023 351.566282,68 351.119597,68 L349,68 L349,72 L350.051873,72 L350.051873,70.4505263 L350.903458,70.4505263 C351.161383,70.4505263 351.335735,70.4709774 351.419308,70.5118797 C351.505764,70.553985 351.566282,70.6153383 351.599424,70.6983459 C351.634006,70.7801504 351.657061,70.9978947 351.668588,71.3515789 C351.67147,71.5296241 351.681556,71.6547368 351.695965,71.7281203 C351.711816,71.8015038 351.747839,71.8917293 351.799712,72 L353,72 C352.889049,71.9266165 352.821326,71.8496241 352.795389,71.7690226 C352.772334,71.687218 352.744957,71.3984962 352.71902,70.9028571" id="Fill-28"></path>
        </g>
        <rect id="Rectangle" fill-opacity="0" fill="#FFFFFF" x="0" y="0" width="450" height="300"></rect>
    </g>
</svg>