<?xml version="1.0" encoding="UTF-8"?>
<svg width="450px" height="300px" viewBox="0 0 450 300" version="1.1" xmlns="http://www.w3.org/2000/svg" xmlns:xlink="http://www.w3.org/1999/xlink">
    <!-- Generator: Sketch 50.2 (55047) - http://www.bohemiancoding.com/sketch -->
    <title>mcgraw-logo</title>
    <desc>Created with Sketch.</desc>
    <defs></defs>
    <g id="mcgraw-logo" stroke="none" stroke-width="1" fill="none" fill-rule="evenodd">
        <g id="mcgraw" transform="translate(159.000000, 90.000000)" fill="#DADADA" fill-rule="nonzero">
            <path d="M14.2868933,79.7052737 C18.3893839,79.7052737 20.9133718,77.4964475 22.4918744,74.9724596 C22.8070362,76.2358004 23.122198,78.1294647 23.122198,79.0749501 L20.2803545,79.0749501 L20.2803545,92.6430688 L14.2868933,92.6430688 L14.2868933,79.7052737 Z M20.2803545,40.5767263 L13.9690378,15.0162978 L13.6538761,15.0162978 L13.6538761,40.8918881 C15.8627022,40.5767263 18.0715284,40.2615646 20.2803545,40.5767263 Z M61.9355835,79.0749501 L67.2987212,79.0749501 C67.2987212,78.1267711 66.6683976,76.2331067 66.6683976,75.2876213 C65.7229122,76.5509622 63.8292479,78.4446265 61.9355835,79.0749501 Z M65.7229122,69.2914664 L65.7229122,65.1889759 C65.4077505,65.5041377 65.0925887,65.5041377 63.8292479,66.1344612 C61.9355835,66.7647848 60.6749364,68.3432874 60.3570809,69.92179 C60.6722427,71.8154544 61.6204217,73.0761015 62.8810688,73.0761015 C64.7747332,73.0787952 66.038074,71.5029863 65.7229122,69.2914664 Z M119.998081,0.5 L119.998081,119.782 L0.400919109,119.782 L0.400919109,0.5 L119.998081,0.5 Z M30.379,58.5624974 L18.0715284,58.5624974 L18.0715284,63.9283288 L20.5955163,63.9283288 L20.5955163,68.9763046 C20.9106781,71.1851308 19.0170137,72.4484716 17.4385111,72.4484716 C15.229685,72.4484716 14.2815059,71.1851308 14.2815059,68.9763046 L14.2815059,50.6726781 C14.2815059,48.1486902 15.8600085,46.8853494 17.4385111,46.8853494 C19.0170137,46.8853494 20.2776609,48.1486902 20.2776609,50.3575163 L20.2776609,52.5663425 L30.0611445,52.5663425 C30.3763063,52.5663425 30.3763063,51.3030017 30.0611445,50.6726781 C30.3763063,45.939864 27.5371566,42.467697 24.0649896,41.5222117 L28.1674801,41.5222117 L34.1636351,15.0136041 L34.7939586,15.0136041 L34.4787968,41.5222117 L43.944425,41.5222117 L43.944425,23.8516024 L44.2595868,23.8516024 C45.2077659,29.5325955 48.9924009,33.3172306 55.9340412,33.3172306 C62.8756815,33.3172306 67.6111892,28.8995783 67.2933338,22.9034234 C67.6084956,21.9552443 67.6084956,21.009759 67.2933338,20.3794354 L58.4580291,20.3794354 C58.4580291,20.3794354 58.4580291,23.2185852 58.4580291,23.8516024 C58.4580291,26.0604286 57.1946883,26.6907521 55.9340412,26.6907521 C54.3555386,26.3755904 53.4100532,25.7425731 53.4100532,23.8516024 C53.4100532,22.2730998 53.4100532,14.701136 53.4100532,13.1226334 C53.4100532,10.9138072 54.6733941,9.96832189 55.9340412,9.96832189 C57.1946883,9.96832189 58.1428674,11.2316627 58.1428674,13.1226334 L58.1428674,15.0162978 L67.2933338,15.0162978 C67.6084956,14.3859742 67.6084956,13.4377952 67.2933338,13.1226334 C67.6084956,7.44164026 63.8211668,3.34184341 55.9340412,3.34184341 C48.3620774,3.34184341 45.2050722,8.07465751 44.2595868,13.1226334 L43.944425,13.1226334 L43.944425,3.97216698 L28.7978037,3.97216698 L24.3801514,25.1149432 L24.0676833,25.1149432 L19.650031,3.97216698 L3.87308608,3.97216698 L3.87308608,41.5249054 L11.1298881,41.5249054 C7.97557662,42.7882462 3.87308608,45.6273959 3.87308608,51.9387126 L3.87308608,68.3486748 C3.87308608,74.9751532 7.34525306,78.1321584 10.1844028,79.0776438 L3.87308608,79.0776438 L3.87308608,116.312527 L14.2868933,116.312527 L14.2868933,100.850744 L20.2803545,100.850744 L20.2803545,116.312527 L30.379,116.312527 L30.379,58.5624974 Z M43.9498124,87.9102547 L33.851167,87.9102547 L33.851167,116.309833 L43.9498124,116.309833 L43.9498124,87.9102547 Z M49.3129501,59.1955147 C50.2584354,59.1955147 51.5217763,59.1955147 51.2066145,59.1955147 L51.2066145,49.7298865 C47.1041239,49.7298865 44.8952978,51.9387126 43.9498124,55.0957178 L43.3194889,55.0957178 L43.3194889,50.36021 L33.8538607,50.36021 L33.8538607,79.0749501 L43.9525061,79.0749501 L43.9525061,64.8738141 C43.9498124,61.089179 45.8434768,59.1955147 49.3129501,59.1955147 Z M75.8215577,79.0749501 C75.5063959,77.8116093 75.1912341,75.6027831 74.8733787,71.1851308 L74.8733787,60.141 C75.1885404,54.4600069 72.9797143,49.7271928 63.8292479,49.7271928 C56.5724458,49.7271928 52.4699553,52.5663425 52.4699553,59.192821 L61.3052599,59.192821 L61.3052599,58.2473356 C61.3052599,56.668833 62.253439,55.4054922 63.5140861,55.7233477 C65.0925887,55.4081859 66.038074,56.3536712 65.7229122,57.9321738 C66.038074,59.5106764 65.0925887,60.4561618 62.8810688,61.089179 C56.2545904,62.6676816 51.5217763,64.2461842 51.2066145,71.1878245 C51.5217763,74.9751532 53.1002788,77.4991412 56.257284,79.0776438 L47.4219794,79.0776438 L47.4219794,116.312527 L57.2027694,116.312527 L57.2027694,79.3901119 C58.4661102,79.7052737 60.0419191,79.3901119 60.6749364,79.3901119 L60.6749364,116.309833 L70.7735818,116.309833 L70.7735818,79.0749501 L75.8215577,79.0749501 Z M116.213446,50.36021 L107.378141,50.36021 L104.854153,69.6093219 L104.22383,69.6093219 L102.015004,50.36021 L90.9708727,50.36021 L88.131723,69.6093219 L87.5013994,69.6093219 L85.2925733,50.36021 L75.8269451,50.36021 L81.1846954,79.0749501 L93.1770052,79.0749501 L96.0161549,61.4016471 L96.3313167,61.4016471 L98.8553046,79.0749501 L110.529759,79.0749501 L116.213446,50.36021 Z" id="Shape"></path>
        </g>
        <rect id="Rectangle" fill-opacity="0" fill="#FFFFFF" x="0" y="0" width="450" height="300"></rect>
    </g>
</svg>