<?xml version="1.0" encoding="UTF-8"?>
<svg width="450px" height="300px" viewBox="0 0 450 300" version="1.1" xmlns="http://www.w3.org/2000/svg" xmlns:xlink="http://www.w3.org/1999/xlink">
    <!-- Generator: Sketch 50.2 (55047) - http://www.bohemiancoding.com/sketch -->
    <title>ms-logo</title>
    <desc>Created with Sketch.</desc>
    <defs></defs>
    <g id="ms-logo" stroke="none" stroke-width="1" fill="none" fill-rule="evenodd">
        <g id="microsoft" transform="translate(67.000000, 116.166667)" fill="#DADADA" fill-rule="nonzero">
            <path d="M121.931159,13.4106756 L131.448908,13.4106756 L131.448908,53.5574568 L124.476072,53.5574568 L124.476072,28.0458632 C124.494525,26.4333635 124.627707,23.7604699 124.785762,20.8358225 L124.642149,20.8358225 C124.375784,22.0181098 124.086151,23.3334443 123.811763,24.0074437 L111.747497,53.5574568 L107.174357,53.5574568 L95.0194305,24.2719446 C94.7691112,23.5007491 94.4249222,22.348736 94.0927678,20.8366192 L93.9483529,20.8366192 C93.9788405,21.4867179 94.0999886,22.3415658 94.1336854,23.4075364 C94.1986721,25.5139837 94.2315667,27.3551333 94.2315667,28.8784038 L94.2315667,53.5582535 L87.6943826,53.5582535 L87.6943826,13.4106756 L97.6052607,13.4106756 L107.742389,38.6617518 C108.630541,40.8853124 109.198573,42.634046 109.536344,43.8681181 L109.644655,43.8681181 L111.538096,38.6043901 L121.931159,13.4106756 Z M138.01337,53.5574568 L144.828954,53.5574568 L144.828954,24.7866061 L138.01337,24.7866061 L138.01337,53.5574568 Z M141.491364,12.5606079 C140.368136,12.5606079 139.391731,12.9414255 138.587821,13.6911104 C137.780702,14.443982 137.371526,15.3944327 137.371526,16.5137815 C137.371526,17.6156032 137.775888,18.5461367 138.574182,19.2806844 C139.368464,20.0120455 140.350486,20.3833028 141.491364,20.3833028 C142.632242,20.3833028 143.617473,20.0120455 144.421383,19.2814811 C145.230107,18.5461367 145.639282,17.6156032 145.639282,16.5137815 C145.639282,15.4334705 145.240537,14.4941735 144.454277,13.7221813 C143.668018,12.9509858 142.671555,12.5606079 141.491364,12.5606079 Z M168.957485,24.4990012 C167.646518,24.2297201 166.366039,24.0934862 165.148942,24.0934862 C162.021556,24.0934862 159.232742,24.758722 156.860325,26.0716664 C154.483897,27.3862042 152.644211,29.2647982 151.395021,31.6532736 C150.147436,34.0353754 149.516022,36.8166187 149.516022,39.9205213 C149.516022,42.6388261 150.130588,45.1324645 151.339662,47.3321244 C152.552748,49.5357678 154.268077,51.2582107 156.439917,52.453245 C158.610153,53.6458893 161.115753,54.2513734 163.890125,54.2513734 C167.129032,54.2513734 169.89538,53.6084449 172.111348,52.3409118 L172.201206,52.2883303 L172.201206,46.0892887 L171.915585,46.2972247 C170.909494,47.0238056 169.787871,47.6037956 168.581204,48.0204642 C167.376142,48.4379296 166.277786,48.6490523 165.315821,48.6490523 C162.641738,48.6490523 160.495571,47.8181051 158.936692,46.1793146 C157.374603,44.5389308 156.582728,42.2380913 156.582728,39.3389379 C156.582728,36.4214607 157.407497,34.0584794 159.035375,32.3161193 C160.658439,30.5777426 162.809419,29.696604 165.427342,29.696604 C167.668983,29.696604 169.852056,30.4494756 171.916388,31.9368951 L172.202008,32.1432377 L172.202008,25.6103831 L172.110545,25.559395 C171.333914,25.1267926 170.273266,24.7706723 168.957485,24.4990012 Z M191.41321,24.2870817 C189.701893,24.2870817 188.168687,24.8336108 186.855313,25.9099384 C185.702401,26.8548122 184.87041,28.1502295 184.232577,29.768306 L184.16037,29.768306 L184.16037,24.7866061 L177.345588,24.7866061 L177.345588,53.5566601 L184.16037,53.5566601 L184.16037,38.8394135 C184.16037,36.3362149 184.732413,34.2807558 185.85885,32.7288045 C186.97245,31.1943804 188.45511,30.417608 190.266716,30.417608 C190.881282,30.417608 191.570462,30.5179909 192.316606,30.7163666 C193.054727,30.9139456 193.589865,31.1290518 193.905171,31.354515 L194.191594,31.5600609 L194.191594,24.7372113 L194.080875,24.6902067 C193.448659,24.422519 192.550077,24.2870817 191.41321,24.2870817 Z M220.532081,28.0466598 C223.068168,30.6677686 224.355066,34.3174035 224.355066,38.8943851 C224.355066,43.527135 222.983926,47.2843231 220.280959,50.0623796 C217.576388,52.8420295 213.856098,54.2513734 209.225994,54.2513734 C204.782024,54.2513734 201.189301,52.9121382 198.549716,50.2727057 C195.910132,47.6332731 194.571886,44.0107256 194.571886,39.505446 C194.571886,34.7619563 195.942224,30.9665271 198.646795,28.225915 C201.351367,25.4845062 205.146271,24.0942829 209.924802,24.0942829 C214.424932,24.0934862 217.994389,25.4231611 220.532081,28.0466598 Z M217.287558,39.1166615 C217.287558,36.0310828 216.592761,33.661728 215.221622,32.075519 C213.857703,30.4964803 211.95303,29.696604 209.560555,29.696604 C207.095071,29.696604 205.13905,30.5339247 203.74705,32.1846655 C202.34783,33.8449666 201.63779,36.2334419 201.63779,39.2831696 C201.63779,42.241278 202.34783,44.5684083 203.74705,46.2016219 C205.137446,47.826072 207.112721,48.6490523 209.616716,48.6490523 C212.136758,48.6490523 214.063093,47.8412091 215.343572,46.2462365 C216.633679,44.6401103 217.287558,42.241278 217.287558,39.1166615 Z M239.469696,36.674808 C237.321123,35.81757 235.945169,35.1069229 235.378741,34.5627839 C234.830767,34.0361721 234.553169,33.2904706 234.553169,32.3471902 C234.553169,31.5098694 234.896556,30.8390568 235.601782,30.2973079 C236.310218,29.7507789 237.297856,29.4743276 238.536615,29.4743276 C239.687121,29.4743276 240.863301,29.6543794 242.03226,30.0081096 C243.199614,30.3610431 244.226565,30.8342767 245.085032,31.41347 L245.367443,31.6038788 L245.367443,25.3474756 L245.257527,25.3004709 C244.468059,24.9642679 243.425864,24.6766629 242.159826,24.4432329 C240.8978,24.2113962 239.753713,24.0942829 238.760459,24.0942829 C235.51032,24.0942829 232.822597,24.9196533 230.767893,26.5472901 C228.702759,28.1844871 227.654948,30.3315656 227.654948,32.930367 C227.654948,34.2807558 227.880396,35.4805703 228.326477,36.4971462 C228.773361,37.5185022 229.467356,38.4187614 230.388402,39.1724298 C231.300623,39.9197246 232.712681,40.7036672 234.582052,41.5019501 C236.152164,42.1440819 237.324332,42.6866275 238.069674,43.1152465 C238.797365,43.5343052 239.314049,43.9565507 239.604484,44.3668458 C239.8885,44.7691741 240.032915,45.3172965 240.032915,45.9976694 C240.032915,47.9320317 238.575126,48.870532 235.575306,48.870532 C234.461706,48.870532 233.193262,48.6402887 231.803669,48.1861757 C230.412471,47.7320626 229.112737,47.0771838 227.941371,46.2414564 L227.65575,46.0367072 L227.65575,52.6332969 L227.76005,52.6818949 C228.737258,53.1296345 229.967192,53.5064686 231.41776,53.8036339 C232.868328,54.1015958 234.182504,54.2513734 235.323382,54.2513734 C238.851921,54.2513734 241.690478,53.4212229 243.762832,51.7848225 C245.848024,50.1380651 246.90466,47.9392019 246.90466,45.2487812 C246.90466,43.3096388 246.336628,41.6469476 245.215005,40.3061191 C244.098998,38.9756475 242.167047,37.7543223 239.469696,36.674808 Z M275.837396,28.0466598 C278.374286,30.6677686 279.661183,34.3174035 279.661183,38.8943851 C279.661183,43.527135 278.290044,47.2843231 275.586274,50.0623796 C272.881703,52.8420295 269.161413,54.2513734 264.532111,54.2513734 C260.08734,54.2513734 256.495418,52.9121382 253.855834,50.2727057 C251.215447,47.6332731 249.877202,44.0107256 249.877202,39.505446 C249.877202,34.7619563 251.248341,30.9665271 253.95211,28.225915 C256.657484,25.4845062 260.451586,24.0942829 265.230117,24.0942829 C269.729445,24.0934862 273.299704,25.4231611 275.837396,28.0466598 Z M272.593675,39.1166615 C272.593675,36.0310828 271.898879,33.661728 270.527739,32.075519 C269.16382,30.4964803 267.258345,29.696604 264.866673,29.696604 C262.400386,29.696604 260.444365,30.5339247 259.053168,32.1846655 C257.653947,33.8449666 256.943907,36.2334419 256.943907,39.2831696 C256.943907,42.241278 257.653145,44.5684083 259.052366,46.2016219 C260.443563,47.826072 262.418839,48.6490523 264.922032,48.6490523 C267.44127,48.6490523 269.368408,47.8412091 270.648887,46.2462365 C271.938192,44.6401103 272.593675,42.241278 272.593675,39.1166615 Z M315.999198,30.3060715 L315.999198,24.7866061 L309.096965,24.7866061 L309.096965,16.2054627 L308.864296,16.276368 L302.381669,18.2473781 L302.254102,18.2864158 L302.254102,24.7874028 L292.027918,24.7874028 L292.027918,21.165652 C292.027918,19.4798568 292.408211,18.1892197 293.157564,17.3295917 C293.901301,16.4771338 294.963554,16.0453281 296.317845,16.0453281 C297.292646,16.0453281 298.302748,16.273978 299.318467,16.7241076 L299.571995,16.8364408 L299.571995,11.022997 L299.453254,10.9807724 C298.506534,10.6421794 297.217229,10.4700944 295.619839,10.4700944 C293.606053,10.4700944 291.776797,10.907477 290.183418,11.7679017 C288.586831,12.6323099 287.33042,13.8647887 286.451896,15.4318771 C285.574174,16.9965754 285.130499,18.8042641 285.130499,20.8047516 L285.130499,24.7874028 L280.32469,24.7874028 L280.32469,30.3068682 L285.130499,30.3068682 L285.130499,53.5582535 L292.029523,53.5582535 L292.029523,30.3060715 L302.255707,30.3060715 L302.255707,45.0822731 C302.255707,51.1665914 305.146413,54.2513734 310.846793,54.2513734 C311.783885,54.2513734 312.769919,54.1422269 313.77601,53.9287141 C314.801356,53.7096245 315.498559,53.4897382 315.909339,53.2563081 L316,53.20532 L316,47.6324764 L315.719193,47.8181051 C315.345319,48.0666722 314.878377,48.2682347 314.332007,48.4196057 C313.782428,48.5717734 313.324312,48.6490523 312.969693,48.6490523 C311.633854,48.6490523 310.645414,48.2921354 310.032453,47.5870651 C309.412271,46.8748246 309.098569,45.6319889 309.098569,43.8888321 L309.098569,30.3060715 L315.999198,30.3060715 Z M32.0609244,0 L0,0 L0,31.8365122 L32.0609244,31.8365122 L32.0609244,0 Z M67.4586368,0 L35.3985147,0 L35.3985147,31.8365122 L67.4586368,31.8365122 L67.4586368,0 Z M32.0601221,35.1634878 L0,35.1634878 L0,67 L32.0601221,67 L32.0601221,35.1634878 Z M67.4586368,35.1634878 L35.3985147,35.1634878 L35.3985147,67 L67.4586368,67 L67.4586368,35.1634878 Z" id="Shape"></path>
        </g>
        <rect id="Rectangle" fill-opacity="0" fill="#FFFFFF" x="0" y="0" width="450" height="300"></rect>
    </g>
</svg>