<?xml version="1.0" encoding="UTF-8"?>
<svg width="450px" height="300px" viewBox="0 0 450 300" version="1.1" xmlns="http://www.w3.org/2000/svg" xmlns:xlink="http://www.w3.org/1999/xlink">
    <!-- Generator: Sketch 50.2 (55047) - http://www.bohemiancoding.com/sketch -->
    <title>oh-logo</title>
    <desc>Created with Sketch.</desc>
    <defs></defs>
    <g id="oh-logo" stroke="none" stroke-width="1" fill="none" fill-rule="evenodd">
        <g id="ohiohealth" transform="translate(42.000000, 109.333333)" fill="#DADADA">
            <path d="M34.3971027,0.0249558074 L34.3971027,18.9331392 L30.3840726,18.9331392 L30.3840726,0.798585838 C31.6981473,0.474160341 33.0372124,0.216283664 34.3971027,0.0249558074 Z M26.6667615,1.90495997 C25.3464392,2.36872205 24.0552723,2.89903296 22.8015909,3.49173339 L22.8015909,18.9352189 L26.6667615,18.9352189 L26.6667615,1.90495997 Z M8.25930309,15.0753873 C7.28884539,16.3044609 6.38919362,17.5938442 5.56451283,18.9352189 L18.9343378,18.9352189 L18.9343378,15.0753873 L8.25930309,15.0753873 Z M3.46949041,22.7950504 C2.87597014,24.0470001 2.34492569,25.3363835 1.88052211,26.654882 L34.3971027,26.654882 L34.3971027,22.7950504 L3.46949041,22.7950504 Z M0.772617612,30.369138 C0.449825887,31.6813975 0.191592507,33.0186129 0,34.3787044 L34.3971027,34.3787044 L34.3971027,30.369138 L0.772617612,30.369138 Z M18.7843958,32.2990538 L18.7843958,42.1004471 L22.7995084,42.1004471 L22.7995084,32.2990538 L18.7843958,32.2990538 Z M11.2019141,32.2990538 L11.2019141,42.1004471 L15.2170267,42.1004471 L15.2170267,32.2990538 L11.2019141,32.2990538 Z M60.8660241,30.5167932 L60.8660241,34.5263596 L80.2689305,34.5263596 C80.0815031,33.1662681 79.8295173,31.8290527 79.5108906,30.5167932 L60.8660241,30.5167932 Z M60.8660241,22.9447853 L60.8660241,26.9543517 L78.4717095,26.9543517 C78.0010583,25.5838619 77.4554362,24.2466466 76.8452557,22.9447853 L60.8660241,22.9447853 Z M64.8811366,8.06696475 C63.6003824,7.08121036 62.2613173,6.16824374 60.8660241,5.33846314 L60.8660241,19.2346886 L64.8811366,19.2346886 L64.8811366,8.06696475 Z M57.1507955,3.3773526 C55.8950315,2.79713008 54.6059472,2.27721743 53.2835423,1.82385359 L53.2835423,34.5263596 L57.1507955,34.5263596 L57.1507955,3.3773526 Z M49.4162892,0.711240512 C48.1501127,0.413850473 46.8610283,0.176770303 45.5511186,0 L45.5511186,34.5263596 L49.4162892,34.5263596 L49.4162892,0.711240512 Z M37.8186949,19.0828741 L37.8186949,22.9427056 L47.6336459,22.9427056 L47.6336459,19.0828741 L37.8186949,19.0828741 Z M37.8186949,11.3611313 L37.8186949,15.3706977 L47.6336459,15.3706977 L47.6336459,11.3611313 L37.8186949,11.3611313 Z M45.84892,61.1084538 L45.84892,80 C47.2108929,79.8045128 48.5499579,79.5445565 49.8640326,79.2222107 L49.8640326,61.1105334 L45.84892,61.1105334 L45.84892,61.1084538 Z M53.5813437,61.1084538 L53.5813437,78.1116772 C54.901666,77.6458355 56.1928329,77.1176042 57.4465143,76.5249038 L57.4465143,61.1084538 L53.5813437,61.1084538 Z M61.1638255,61.1084538 L61.1638255,65.1180202 L71.8555204,65.1180202 C72.8738762,63.8411147 73.8172611,62.5038993 74.6773448,61.1084538 L61.1638255,61.1084538 Z M45.84892,53.386711 L45.84892,57.3962774 L76.7057264,57.3962774 C77.328402,56.0964958 77.8844368,54.7592804 78.3675831,53.386711 L45.84892,53.386711 Z M45.84892,45.6628886 L45.84892,49.672455 L79.4754876,49.672455 C79.7982794,48.3601955 80.0565127,47.0229801 80.2481052,45.6628886 L45.84892,45.6628886 Z M57.4465143,38.0908807 L57.4465143,47.8922741 L61.4616269,47.8922741 L61.4616269,38.0908807 L57.4465143,38.0908807 Z M65.0310786,38.0908807 L65.0310786,47.8922741 L69.0461911,47.8922741 L69.0461911,38.0908807 L65.0310786,38.0908807 Z M0.0624758176,46.1100135 C0.262398434,47.4181138 0.524796868,48.7054175 0.845506066,49.9698451 L18.7843958,49.9698451 L18.7843958,46.1100135 L0.0624758176,46.1100135 Z M1.986731,53.6820214 C2.46362974,55.0025996 3.00508683,56.2899033 3.61110226,57.541853 L18.7843958,57.541853 L18.7843958,53.6820214 L1.986731,53.6820214 Z M14.7692833,61.4037642 L14.7692833,71.5254237 C16.047955,72.5506915 17.3870201,73.4990122 18.7843958,74.3641468 L18.7843958,61.4037642 L14.7692833,61.4037642 Z M22.501707,46.1100135 L22.501707,76.4084434 C23.7553884,77.0136217 25.0465553,77.5543309 26.3668776,78.0305709 L26.3668776,46.1100135 L22.501707,46.1100135 Z M30.2341307,46.1100135 L30.2341307,79.2055735 C31.5003073,79.5216804 32.7893916,79.779557 34.1013838,79.9729645 L34.1013838,46.1100135 L30.2341307,46.1100135 Z M32.0188565,57.5439326 L32.0188565,61.553499 L41.8338075,61.553499 L41.8338075,57.5439326 L32.0188565,57.5439326 Z M32.0188565,65.2656754 L32.0188565,69.1255069 L41.8338075,69.1255069 L41.8338075,65.2656754 L32.0188565,65.2656754 Z M129.120855,43.2879276 C129.120855,54.5741915 121.686233,61.4037642 112.466884,61.4037642 C101.910554,61.4037642 96.8541776,54.7218467 96.8541776,44.1780181 C96.8541776,32.8917542 104.438742,26.0621816 113.508148,26.0621816 C122.725414,26.0621816 129.120855,31.5566185 129.120855,43.2879276 Z M122.131893,43.7329729 C122.131893,36.1588853 118.860243,32.0016637 112.912545,32.0016637 C108.30183,32.0016637 103.841057,35.7138401 103.841057,43.4355828 C103.841057,50.7122803 106.667046,55.464282 112.912545,55.464282 C117.373319,55.464282 122.131893,51.9018405 122.131893,43.7329729 Z M162.280936,60.8110637 L162.280936,56.6538422 C160.941871,56.506187 159.454947,56.2087969 158.115882,56.0590621 L158.115882,43.1402724 C158.115882,38.6856608 156.183297,35.1211396 150.5334,35.1211396 C146.666147,35.1211396 143.692298,36.9034002 142.355316,39.7234065 L142.207456,39.7234065 C142.505258,38.2385359 142.653117,36.1588853 142.653117,34.6740148 L142.653117,23.8327961 C138.935806,23.6851409 134.920693,23.8327961 131.798985,24.2778413 L131.798985,28.2874077 C133.285909,28.4350629 134.922776,28.5847978 136.111899,28.7324529 L136.111899,56.0549028 C134.624974,56.202558 132.988108,56.499948 131.798985,56.6496829 L131.798985,60.8069044 L146.372511,60.8069044 L146.372511,56.6496829 C145.183388,56.3522928 143.844323,56.2046376 142.655199,56.0549028 L142.655199,48.6305501 C142.655199,44.1759384 145.183388,40.4637621 148.455038,40.4637621 C150.983226,40.4637621 151.576746,42.0983675 151.576746,44.7707185 L151.576746,60.8089841 L162.280936,60.8089841 L162.280936,60.8110637 Z M176.108917,28.4392222 C176.108917,30.666528 174.324191,32.4487886 172.093805,32.4487886 C169.863418,32.4487886 168.078692,30.666528 168.078692,28.4392222 C168.078692,26.3616512 169.863418,24.5793907 172.093805,24.5793907 C174.326274,24.577311 176.108917,26.2119164 176.108917,28.4392222 Z M179.380568,60.8110637 L164.361381,60.8110637 L164.361381,56.6538422 C165.700446,56.506187 167.33523,56.2087969 168.822154,56.0590621 L168.822154,40.6155766 C167.633031,40.4679214 165.848306,40.1705314 164.361381,40.0207965 L164.361381,36.0112301 C167.633031,35.5661849 171.498202,35.41645 175.217596,35.5661849 L175.217596,56.0590621 C176.70452,56.2067173 178.191445,56.5041073 179.380568,56.6538422 L179.380568,60.8110637 Z M205.999431,47.7425393 C205.999431,55.6119372 200.647336,61.256109 193.062772,61.256109 C185.925951,61.256109 181.315235,57.6915878 181.315235,48.6347094 C181.315235,40.7653114 186.519471,35.1211396 194.251895,35.1211396 C201.388716,35.1211396 205.999431,39.130706 205.999431,47.7425393 Z M199.306188,48.0399293 C199.306188,43.2879276 197.521463,40.6155766 193.804151,40.6155766 C190.830302,40.6155766 188.004313,42.8428824 188.004313,48.0399293 C188.004313,53.2369762 189.936898,55.761672 193.654209,55.761672 C196.927942,55.761672 199.306188,53.2369762 199.306188,48.0399293 Z M245.405012,60.8110637 L245.405012,56.6538422 C244.065947,56.506187 242.579022,56.2087969 241.092098,56.0590621 L241.092098,31.2592284 C242.579022,31.2592284 244.065947,30.9618384 245.405012,30.666528 L245.405012,26.6569616 L230.683627,26.6569616 L230.683627,30.8162629 C231.87275,31.1136529 233.211815,31.2613081 234.400938,31.2613081 L234.400938,40.3202662 L219.977354,40.3202662 L219.977354,31.2613081 C221.16856,31.2613081 222.505542,31.1136529 223.694665,30.8162629 L223.694665,26.6569616 L208.97328,26.6569616 L208.97328,30.666528 C210.162403,30.9639181 211.799269,31.2592284 213.286194,31.2592284 L213.286194,56.0569824 C211.799269,56.2046376 210.162403,56.5020277 208.97328,56.6517625 L208.97328,60.8089841 L223.694665,60.8089841 L223.694665,56.6517625 C222.505542,56.3543725 221.166477,56.2067173 219.977354,56.0569824 L219.977354,45.9602787 L234.400938,45.9602787 L234.400938,56.0569824 C233.211815,56.2046376 231.87275,56.3543725 230.683627,56.6517625 L230.683627,60.8089841 L245.405012,60.8089841 L245.405012,60.8110637 Z M270.237067,46.2576687 C270.237067,47.1477592 270.237067,48.1875845 270.089207,49.2274098 L254.474418,49.2274098 C254.326558,53.9794115 256.704805,56.2067173 261.31552,56.2067173 C263.843708,56.2067173 266.519756,55.761672 268.750142,54.7218467 L269.343663,59.7712384 C266.667615,60.8110637 263.395965,61.256109 260.272174,61.256109 C252.241949,61.256109 247.781175,57.2465426 247.781175,48.4849745 C247.781175,40.7632318 252.094089,35.1211396 259.676571,35.1211396 C266.965416,35.1211396 270.237067,40.0207965 270.237067,46.2576687 Z M263.843708,44.922533 C263.843708,41.6554019 262.208924,39.8731413 259.382935,39.8731413 C256.706887,39.8731413 254.922161,41.8030571 254.4765,44.922533 L263.843708,44.922533 Z M298.788515,60.5136737 C295.814666,60.8110637 291.947413,60.9587189 288.677846,60.8110637 C288.677846,59.3261932 288.677846,57.8413227 288.975647,56.5041073 L288.827788,56.5041073 C287.638664,59.3261932 284.514874,61.256109 280.797562,61.256109 C276.186847,61.256109 273.660742,58.7314131 273.660742,54.7218467 C273.660742,48.6326297 279.608439,45.6628886 288.234267,45.5152334 L288.234267,44.0303629 C288.234267,41.3580119 287.045144,40.0207965 283.475692,40.0207965 C282.286569,40.0207965 281.097446,40.1684517 280.056183,40.4658417 C279.908323,41.505667 279.758381,42.6931476 279.46058,43.7329729 L275.445467,43.7329729 L275.445467,36.3086202 C277.973655,35.5661849 280.947504,34.9714048 284.219155,34.9714048 C292.397239,34.9714048 294.627626,38.3861911 294.627626,43.8806281 L294.627626,55.9093272 C295.816749,56.0569824 297.453615,56.2067173 298.790598,56.3543725 L298.790598,60.5136737 L298.788515,60.5136737 Z M288.230102,50.2672351 L288.230102,49.8221899 C282.132462,49.8221899 279.754216,51.3070604 279.754216,53.6841011 C279.754216,55.3166268 280.943339,56.3564521 282.728065,56.3564521 C285.999716,56.3564521 288.230102,53.386711 288.230102,50.2672351 Z M311.575233,56.0590621 L311.575233,23.8348757 C307.857922,23.6872205 303.842809,23.8348757 300.571159,24.279921 L300.571159,28.2894874 C302.058083,28.4371426 303.842809,28.5868774 305.031932,28.7345326 L305.031932,56.0569824 C303.545008,56.2046376 301.910224,56.5020277 300.571159,56.6517625 L300.571159,60.8089841 L315.590345,60.8089841 L315.590345,56.6517625 C314.401222,56.5041073 313.062157,56.2067173 311.575233,56.0590621 Z M332.692059,60.6613289 L332.692059,55.464282 C331.800737,55.761672 330.609532,55.9093272 329.568268,55.9093272 C327.337882,55.9093272 326.594419,54.8695019 326.594419,51.7521056 L326.594419,40.6155766 L332.692059,40.6155766 L332.692059,35.5661849 L326.594419,35.5661849 L326.594419,26.2119164 L320.051119,27.8465218 L320.051119,35.5682645 L315.738205,35.5682645 L315.738205,40.6176562 L320.198978,40.6176562 L320.198978,53.3887907 C320.198978,59.3282729 321.833762,61.2581886 327.485741,61.2581886 C329.270467,61.256109 331.205135,61.1084538 332.692059,60.6613289 Z M366,60.8110637 L366,56.6538422 C364.660935,56.506187 363.174011,56.2087969 361.837028,56.0590621 L361.837028,43.1402724 C361.837028,38.6856608 359.904443,35.1211396 354.252464,35.1211396 C350.387293,35.1211396 347.411362,36.9034002 345.924437,39.7234065 C346.222239,38.2385359 346.370098,36.1588853 346.370098,34.6740148 L346.370098,23.8327961 C342.652787,23.6851409 338.637674,23.8327961 335.513884,24.2778413 L335.513884,28.2874077 C336.852949,28.4350629 338.637674,28.5847978 339.826797,28.7324529 L339.826797,56.0549028 C338.339873,56.202558 336.703007,56.499948 335.513884,56.6496829 L335.513884,60.8069044 L350.087409,60.8069044 L350.087409,56.6496829 C348.898286,56.3522928 347.559221,56.2046376 346.370098,56.0549028 L346.370098,48.6305501 C346.370098,44.1759384 348.898286,40.4637621 352.169936,40.4637621 C354.548183,40.4637621 355.291645,42.0983675 355.291645,44.7707185 L355.291645,60.8089841 L366,60.8089841 L366,60.8110637 Z" id="Shape"></path>
        </g>
        <rect id="Rectangle" fill-opacity="0" fill="#FFFFFF" x="0" y="0" width="450" height="300"></rect>
    </g>
</svg>