<?xml version="1.0" encoding="UTF-8"?>
<svg width="450px" height="300px" viewBox="0 0 450 300" version="1.1" xmlns="http://www.w3.org/2000/svg" xmlns:xlink="http://www.w3.org/1999/xlink">
    <!-- Generator: Sketch 50.2 (55047) - http://www.bohemiancoding.com/sketch -->
    <title>pg-logo</title>
    <desc>Created with Sketch.</desc>
    <defs></defs>
    <g id="pg-logo" stroke="none" stroke-width="1" fill="none" fill-rule="evenodd">
        <g id="Procter_and_Gamble_Logo" transform="translate(225.500000, 150.000000) scale(1, -1) translate(-225.500000, -150.000000) translate(134.000000, 110.000000)" fill="#DADADA" fill-rule="nonzero">
            <path d="M49.8346565,71.9292674 C53.5685219,71.9292674 63.9051059,71.4288464 57.2090406,51.8154697 C50.264051,31.2387826 34.7840675,35.4579574 34.7840675,35.4579574 L46.1723569,71.9292674 L49.8346565,71.9292674 Z M77.536826,50.5143751 C86.2429555,72.0950319 69.8886251,78 59.2813359,78 L24.1487743,78 C27.0611893,75.9639119 26.5757868,73.264766 26.0312648,71.6602911 L5.53545542,5.80175629 C4.72645125,3.1557801 1.62111988,0.481655239 0,0 L28.4676119,0 C26.8589383,0.315890773 24.646623,2.56153013 25.4805196,5.58907735 L32.9140233,29.4153735 C32.9140233,29.4153735 67.1473456,24.7645856 77.536826,50.5143751 Z" id="path52210"></path>
            <path d="M88.6060758,12.1339768 C87.4840586,11.4408457 83.0426108,9.18428402 78.8871065,8.80508221 C74.9864648,8.46317893 68.5807098,9.93336302 68.5807098,17.6479443 C68.5807098,24.3150582 75.8132144,29.070622 79.6423702,30.7925712 C81.3766794,24.3958717 84.8328655,17.1164401 88.6060758,12.1339768 M99.8075998,53.8150946 C98.8596351,47.5551564 90.8190295,41.2548115 88.8391819,40.4497847 C88.4786445,43.949631 88.6060758,49.5008969 91.5152396,53.9984791 C93.526168,56.9854705 96.0716864,58.284703 98.129236,57.5604896 C99.8075998,56.9854705 100.009625,55.4779879 99.8075998,53.8150946 M99.8075998,2.06958763 L119,2.06958763 C112.873972,4.08060055 103.810808,9.86809058 100.180569,13.9709299 C103.130138,17.1164401 106.704432,21.1291413 107.375777,29.2726557 L97.439242,29.2726557 C97.439242,29.2726557 99.4128735,28.2220802 99.4128735,25.8753804 C99.4128735,23.6965241 98.5332865,20.7375066 96.8549228,18.6301391 C93.9675155,22.9381204 90.8190295,27.8584194 89.7156607,35.0881196 C93.6069781,37.0214273 99.1176058,39.1101455 103.41919,42.8866226 C107.584018,46.5418795 108.516443,49.8894234 108.572388,52.1428768 L108.572388,52.4350487 C108.572388,54.7662074 107.708342,56.8984406 105.974032,58.5861995 C103.130138,61.4395377 98.5767997,62.5616021 93.8276519,61.7348179 C89.954983,60.9888471 86.7443353,58.9685095 85.1685382,57.4734597 C79.2880489,52.0713879 78.5576499,43.0855481 78.5576499,39.0479812 C78.5576499,38.1465999 78.6260277,37.3322484 78.6446762,36.9033152 C78.3680569,36.8162853 77.6998195,36.5334381 77.6998195,36.5334381 C73.5443152,35.0041979 62.2806296,31.9923409 58.2432324,22.7298703 C57.7366152,21.5891566 57,19.0093409 57,16.028566 C57,13.5233474 57.5035091,10.6917667 59.1383597,8.06221963 C62.025767,3.6392345 66.7966713,0.888467214 74.5264688,1.00347104 C82.9027471,1.10915024 91.182675,6.85312531 92.6092841,7.89748441 C94.0856226,6.51743845 97.8961299,3.00826754 99.8075998,2.06958763" id="path52214"></path>
            <path d="M158.177083,73.0578376 C169.559556,75.760873 178.936827,66.8887385 179.812163,66.341953 L183,76.5640607 C178.533303,77.9140338 145.962731,88.9115265 122.933943,62.7337869 C108.78578,46.6267849 105.234772,13.6744662 123.24745,4.84866942 C142.480011,-4.62894507 163.745711,6.28822886 165.238748,7.02963286 L174.075918,34.8044803 C175.01023,38.2242062 177.124074,40.4175264 180.926509,41.7953022 L150.435636,41.7953022 C154.861981,39.9232571 154.567098,36.6054742 154.175991,35.2431443 L145.42263,7.40651323 C144.243099,7.2088055 119.708857,1.11693595 133.44108,43.8434307 C136.355762,52.9781459 144.699391,69.7802141 158.177083,73.0578376" id="path52218"></path>
        </g>
        <rect id="Rectangle" fill-opacity="0" fill="#FFFFFF" x="0" y="0" width="450" height="300"></rect>
    </g>
</svg>