<?xml version="1.0" encoding="UTF-8"?>
<svg width="450px" height="300px" viewBox="0 0 450 300" version="1.1" xmlns="http://www.w3.org/2000/svg" xmlns:xlink="http://www.w3.org/1999/xlink">
    <!-- Generator: Sketch 50.2 (55047) - http://www.bohemiancoding.com/sketch -->
    <title>ra-logo</title>
    <desc>Created with Sketch.</desc>
    <defs></defs>
    <g id="ra-logo" stroke="none" stroke-width="1" fill="none" fill-rule="evenodd">
        <g id="rockwell" transform="translate(62.000000, 111.000000)" fill="#DADADA" fill-rule="nonzero">
            <path d="M13.0380379,41.7227451 L0.721541543,76.8150123 L14.1433199,76.8150123 L16.305147,69.2294709 L27.6660531,69.2294709 L29.9810531,76.8150123 L44.1060345,76.8150123 L31.5876283,41.7227451 L13.0380379,41.7227451 Z M18.1884778,60.8136626 L22.0613162,49.2438842 L22.1622711,49.2438842 L25.9863726,60.8136626 L18.1884778,60.8136626 Z" id="Shape"></path>
            <polygon id="Shape" points="95.3214937 41.7331887 82.6377304 41.7331887 82.6377304 50.6154782 77.2470875 50.6154782 77.2470875 57.924264 82.6377304 57.924264 82.6377304 76.8150123 95.3214937 76.8150123 95.3214937 57.924264 100.771317 57.924264 100.771317 50.6154782 95.3214937 50.6154782"></polygon>
            <path d="M61.8009895,65.7151964 C61.8009895,67.2295198 61.8009895,69.2973544 59.5242828,69.2973544 C57.3032752,69.2973544 57.3032752,67.2295198 57.3032752,65.7151964 L57.3032752,50.5928504 L44.6403991,50.5928504 L44.6403991,68.8430574 C44.6403991,73.8664334 47.1016097,77.3876702 53.8342564,77.3876702 C57.4007489,77.4468507 60.8906549,75.986486 62.4032377,72.3155574 L62.502452,72.3155574 L62.502452,76.8150123 L74.462125,76.8150123 L74.462125,50.5928504 L61.8009895,50.5928504 L61.8009895,65.7151964 Z" id="Shape"></path>
            <polygon id="Shape" points="195.909115 20.7989742 195.909115 0.707210806 183.446408 0.707210806 183.446408 35.223339 195.909115 35.223339"></polygon>
            <path d="M117.470648,50.0149707 C106.875607,50.0132301 101.239539,54.425655 101.239539,63.2278769 C101.239539,72.2807454 106.875607,77.3946327 117.470648,77.3946327 C128.011731,77.3946327 133.750494,72.2807454 133.750494,63.2278769 C133.750494,54.4273956 128.013471,50.0149707 117.470648,50.0149707 Z M117.470648,69.8752341 C115.025103,69.8752341 114.723979,67.0554596 114.723979,63.2278769 C114.723979,60.1034971 115.025103,57.5343693 117.470648,57.5343693 C119.914453,57.5343693 120.264313,60.1034971 120.264313,63.2278769 C120.264313,67.0554596 119.914453,69.8752341 117.470648,69.8752341 Z" id="Shape"></path>
            <rect id="Rectangle-path" x="298.226894" y="0.708951408" width="12.1615828" height="34.512647"></rect>
            <path d="M171.011551,35.7890345 C174.724254,35.7890345 177.495291,35.3939179 180.26807,34.5062112 L180.26807,26.8545269 C178.537912,27.8954066 176.703318,28.391478 174.477088,28.391478 C170.764385,28.391478 168.287509,26.0608126 168.287509,22.0435043 C168.287509,18.1776283 170.764385,16.2455606 174.477088,16.2455606 C176.703318,16.2455606 178.537912,16.8373651 180.073122,17.5336057 L180.073122,9.91847406 C177.495291,9.18742142 174.724254,8.84104172 171.011551,8.84104172 C160.56272,8.84104172 155.015423,13.1838425 155.015423,21.8450757 C155.015423,30.7569555 160.56272,35.7890345 171.011551,35.7890345 Z" id="Shape"></path>
            <path d="M137.080265,35.7890345 C147.45599,35.7890345 153.104242,30.7569555 153.104242,21.8450757 C153.104242,13.1838425 147.457731,8.84104172 137.080265,8.84104172 C126.654062,8.84104172 121.106765,13.1838425 121.106765,21.8450757 C121.106765,30.7569555 126.652321,35.7890345 137.080265,35.7890345 Z M137.080265,16.24382 C139.485776,16.24382 139.830415,18.772914 139.830415,21.8450757 C139.830415,25.6117374 139.485776,28.3879968 137.080265,28.3879968 C134.673013,28.3879968 134.380592,25.6117374 134.380592,21.8450757 C134.380592,18.772914 134.674753,16.24382 137.080265,16.24382 Z" id="Shape"></path>
            <path d="M98.4058395,23.4551321 L101.364862,23.4551321 C102.992325,23.4551321 104.325625,23.6535607 105.114118,25.2427299 C106.198513,27.3262299 106.346464,32.73776 106.940009,35.2215984 L120.756904,35.2215984 C119.369644,31.8587562 119.517595,26.5203314 117.489795,22.8598464 C116.248746,21.0322148 114.518588,19.6484366 111.643114,19.1523651 L111.643114,19.0531508 C116.598607,17.86432 119.914453,15.1872749 119.914453,9.88540263 C119.914453,3.25197023 114.81449,0.679361182 106.543152,0.679361182 L85.1337529,0.679361182 L85.1337529,35.2215984 L98.4058395,35.2215984 L98.4058395,23.4551321 Z M97.8122944,8.39892893 L101.462336,8.39892893 C104.125456,8.39892893 106.640625,8.84452292 106.640625,11.9654214 C106.640625,15.4379215 103.977505,15.7373049 101.267388,15.7373049 L97.8122944,15.7373049 L97.8122944,8.39892893 Z" id="Shape"></path>
            <path d="M316.999282,50.0219331 C313.431049,50.0271549 309.942883,51.485779 308.4303,55.1601888 L308.329345,55.1601888 L308.329345,50.5928504 L296.373154,50.5928504 L296.373154,76.8167529 L309.03603,76.8167529 L309.03603,61.6944069 C309.03603,60.1853054 309.03603,58.1157302 311.309255,58.1157302 C313.533744,58.1157302 313.533744,60.1835648 313.533744,61.6944069 L313.533744,76.8167529 L326.19662,76.8167529 L326.19662,58.5682866 C326.19662,53.54317 323.731928,50.0219331 316.999282,50.0219331 Z" id="Shape"></path>
            <path d="M174.644186,50.0219331 C171.53025,50.0219331 167.084754,51.4805572 166.224897,54.4987602 L166.127423,54.4987602 C165.119615,51.3796023 161.453908,50.0219331 157.936152,50.0219331 C153.9641,50.0271549 150.477675,51.485779 148.965092,55.1601888 L148.864137,55.1601888 L148.864137,50.5928504 L136.909686,50.5928504 L136.909686,76.8167529 L149.570821,76.8167529 L149.570821,61.6944069 C149.570821,60.1853054 149.570821,58.1157302 151.844047,58.1157302 C154.068536,58.1157302 154.068536,60.1835648 154.068536,61.6944069 L154.068536,76.8167529 L166.731412,76.8167529 L166.731412,61.6944069 C166.731412,60.1853054 166.731412,58.1157302 168.9559,58.1157302 C171.229126,58.1157302 171.229126,60.1835648 171.229126,61.6944069 L171.229126,76.8167529 L183.892002,76.8167529 L183.892002,61.0904182 C183.892002,56.0078618 183.892002,50.0219331 174.644186,50.0219331 Z" id="Shape"></path>
            <polygon id="Shape" points="253.545653 9.41021842 251.27939 26.307978 251.180176 26.307978 248.308183 9.41021842 233.30942 9.41021842 230.635856 26.307978 230.536642 26.307978 228.058025 9.41021842 215.83204 9.41021842 221.614318 35.2215984 237.255364 35.2215984 240.440664 17.6954817 240.539879 17.6954817 243.6103 35.2215984 259.152131 35.2215984 264.932668 9.41021842"></polygon>
            <path d="M281.449236,8.84626352 C270.993443,8.84626352 265.45833,13.2029891 265.45833,21.8276697 C265.45833,30.7586961 270.993443,35.7907751 281.449236,35.7907751 C285.825108,35.7907751 289.786717,35.3469217 293.109526,34.3112638 L293.109526,27.6325757 C291.128721,28.6804179 288.054819,29.2791848 284.632796,29.2791848 C280.951424,29.2791848 277.914074,28.5307261 277.717387,25.2914667 L294.992857,25.2914667 L294.992857,23.7597374 C294.992857,15.0828388 291.47336,8.84626352 281.449236,8.84626352 Z M277.665168,19.8486057 C277.517217,17.8312486 278.162981,14.7851959 281.050638,14.7851959 C283.88956,14.7851959 284.187202,17.881726 284.187202,19.8486057 L277.665168,19.8486057 Z" id="Shape"></path>
            <rect id="Rectangle-path" x="245.180322" y="41.7453729" width="12.6628761" height="5.79794367"></rect>
            <rect id="Rectangle-path" x="314.203876" y="0.708951408" width="12.1615828" height="34.512647"></rect>
            <path d="M276.805311,50.0149707 C266.21027,50.0132301 260.574202,54.425655 260.574202,63.2278769 C260.574202,72.2807454 266.21201,77.3946327 276.805311,77.3946327 C287.348135,77.3946327 293.083417,72.2807454 293.083417,63.2278769 C293.083417,54.4273956 287.348135,50.0149707 276.805311,50.0149707 Z M276.805311,69.8752341 C274.358026,69.8752341 274.062123,67.0554596 274.062123,63.2278769 C274.062123,60.1034971 274.358026,57.5343693 276.805311,57.5343693 C279.249116,57.5343693 279.598977,60.1034971 279.598977,63.2278769 C279.598977,67.0554596 279.249116,69.8752341 276.805311,69.8752341 Z" id="Shape"></path>
            <rect id="Rectangle-path" x="245.180322" y="50.6502903" width="12.6628761" height="26.1647221"></rect>
            <polygon id="Shape" points="215.727604 9.41021842 202.123062 9.41021842 196.008329 20.7989742 203.035138 35.223339 217.087014 35.223339 208.533698 20.7989742"></polygon>
            <path d="M200.772356,50.0149707 C195.846453,50.0149707 193.583671,50.4657865 189.811788,51.5188504 L189.811788,58.8815949 C192.326957,57.605734 195.54707,56.6362189 198.563532,56.6362189 C201.726205,56.6362189 205.190002,57.0417791 205.24048,60.4585798 C204.08472,60.357625 202.077807,60.1052377 200.319799,60.1052377 C194.036228,60.1052377 186.793585,61.7065911 186.793585,69.7255423 C186.793585,75.1875499 191.522799,77.3946327 196.403446,77.3946327 C199.961235,77.3998545 203.179608,75.9934484 204.941096,73.0257228 L205.040311,73.0257228 L205.040311,76.8150123 L216.808517,76.8150123 L216.808517,60.9093956 C216.808517,51.3169407 208.006296,50.0149707 200.772356,50.0149707 Z M201.324126,70.7768657 C199.36595,70.7768657 198.359882,70.0754033 198.359882,68.2686589 C198.359882,65.5637641 201.374604,65.3096363 203.983765,65.3096363 L205.238739,65.3096363 L205.238739,66.1137942 L205.24048,66.1137942 C205.24048,68.3713544 203.936769,70.7768657 201.324126,70.7768657 Z" id="Shape"></path>
            <polygon id="Shape" points="236.722739 41.7331887 224.037236 41.7331887 224.037236 50.5615196 218.646593 50.5615196 218.646593 57.924264 224.037236 57.924264 224.037236 76.8150123 236.722739 76.8150123 236.722739 57.924264 242.170822 57.924264 242.170822 50.5615196 236.722739 50.5615196"></polygon>
        </g>
        <rect id="Rectangle" fill-opacity="0" fill="#FFFFFF" x="0" y="0" width="450" height="300"></rect>
    </g>
</svg>