<?xml version="1.0" encoding="UTF-8"?>
<svg width="450px" height="300px" viewBox="0 0 450 300" version="1.1" xmlns="http://www.w3.org/2000/svg" xmlns:xlink="http://www.w3.org/1999/xlink">
    <!-- Generator: Sketch 50.2 (55047) - http://www.bohemiancoding.com/sketch -->
    <title>shaw-logo</title>
    <desc>Created with Sketch.</desc>
    <defs></defs>
    <g id="shaw-logo" stroke="none" stroke-width="1" fill="none" fill-rule="evenodd">
        <g id="shaw" transform="translate(94.000000, 104.333333)" fill="#DADADA" fill-rule="nonzero">
            <path d="M190.94243,45.4050889 C190.856794,52.6987553 184.364114,53.4138612 184.364114,53.4138612 C183.304106,53.5399348 182.374641,53.4200615 181.579896,53.1834152 C179.791981,52.5881826 178.765392,51.4607541 178.765392,51.4607541 C177.257361,49.8290314 177.124729,48.0019979 177.961248,46.1036605 C178.004066,46.0344234 178.072993,45.8897488 178.072993,45.8897488 C178.934576,44.2993616 180.623278,43.0458596 182.587687,42.0176365 C183.844032,41.308731 185.323865,40.5305883 187.053297,39.6863087 C187.053297,39.6863087 188.676206,38.960869 189.979546,38.2550636 C190.361775,38.0463188 190.693876,37.7859046 190.933031,37.392183 L190.94243,45.4050889 Z M186.534259,56.3311211 L191.927245,56.3311211 C191.406118,54.4834198 191.058352,52.9043999 190.956007,52.3970055 C190.082936,54.4276168 188.31173,55.6149819 186.534259,56.3311211 Z M218.662423,56.3311211 L231.743862,56.3342213 L225.102886,34.7498048 L218.662423,56.3311211 Z M151.906982,27.5884123 C148.269536,27.8643274 145.500983,29.1912001 145.500983,35.0970238 L145.517692,48.6850687 C145.517692,51.1021678 145.517692,53.8530519 146.74584,55.5457447 L147.312918,56.3311211 L157.915087,56.3311211 L157.915087,35.9041014 C157.915087,30.9076609 156.883276,27.6504157 151.906982,27.5884123 Z M0,0 L0,56.3311211 L72.3280547,56.3311211 C72.3280547,56.3311211 72.1317182,56.1668121 72.0450378,56.097575 C69.478043,54.0080604 48.9817697,38.3904377 2.50015685,30.478804 C2.50015685,27.6183806 2.51477765,2.46980205 2.51477765,2.46980205 C4.71311941,2.46980205 74.4094301,2.46980205 100.031338,2.46980205 C92.6175481,26.9787122 79.441074,26.9983466 72.3270104,56.3311211 L100.057447,56.3311211 L100.040737,46.6430901 L101.36392,48.2861801 C103.575838,51.044298 106.590856,55.1499564 114.252155,55.1499564 C119.921893,55.1499564 123.609467,51.7997061 123.609467,47.1205162 C123.609467,42.0445047 118.752229,39.0869425 113.591086,36.5933725 C107.868087,33.8259542 101.940397,30.5098057 101.940397,23.6594636 C101.940397,19.6054747 103.729356,16.6179442 106.460313,14.5811326 C107.949546,13.4392367 109.764614,12.5360538 111.865832,11.8726175 C114.485044,11.0800073 117.554367,10.7059202 121.012187,10.7544895 C122.076372,10.8102926 123.329583,10.9539338 124.648589,11.1719791 C126.699678,11.5781013 128.61187,12.2498048 130.318326,13.1250861 L130.318326,19.301658 C126.268364,13.5622101 119.117749,13.8257245 119.117749,13.8257245 C116.55702,13.8257245 110.540561,15.014123 110.540561,21.0573876 C110.540561,25.5133652 115.155512,28.3386534 120.054524,30.6720479 C125.746193,33.3743627 132.210675,36.8506866 132.210675,44.1102512 C132.210675,50.1225141 128.778965,54.2343728 122.892004,56.3311211 L136.6366,56.3311211 L137.207856,55.5457447 C138.436003,53.8530519 138.436003,51.1021678 138.436003,48.6850687 L138.436003,16.564208 C138.436003,16.564208 138.593699,10.9239655 135.234048,9.35424608 L145.516648,7.89303266 C145.516648,7.89303266 145.516648,27.2205254 145.516648,27.5305424 C147.07063,25.8450834 149.943617,24.0697194 155.009725,24.0697194 C161.538956,24.0697194 164.993643,27.3558995 164.993643,33.5707068 L164.993643,48.6850687 C164.993643,51.1114683 164.993643,53.8737197 166.095424,55.5850135 L166.5706,56.3311211 L175.448559,56.3311211 C175.293996,56.2763514 175.123769,56.2153814 174.977561,56.1451109 C172.270624,54.8823084 170.386629,52.1427915 170.386629,48.982685 C170.386629,48.113604 170.530749,47.2641574 170.792879,46.4705139 C170.995481,45.8783815 171.264922,45.3058834 171.59389,44.7602535 C173.856981,40.670096 181.43891,38.2653975 185.8805,36.4135627 C186.885158,36.0229413 187.958742,35.5754834 188.712758,35.2551325 L188.712758,35.2530657 C189.982679,34.7146695 190.866193,33.6430441 190.936164,32.2066321 C190.936164,31.7157718 190.936164,30.173954 190.936164,30.1336518 C190.802488,26.0775961 186.668979,26.4020806 185.157815,26.3752124 C182.543825,26.4392826 181.179913,27.2597942 180.308931,28.3148854 C178.950241,30.1791209 178.868782,32.5993203 176.041746,32.8204657 C176.005194,32.8297662 175.973864,32.8328664 175.9394,32.8328664 C174.238166,32.8328664 172.851278,31.469825 172.851278,29.7802324 C172.851278,29.2428696 172.984954,28.7396087 173.233508,28.3066183 C175.138389,25.1744133 181.326121,24.0531851 186.462199,24.0531851 C192.147602,24.0531851 197.699329,25.1671795 197.699329,29.7037615 L197.699329,45.0671703 C197.699329,49.0322877 197.46644,53.227851 199.598988,56.3300877 L212.06322,56.3300877 L204.539774,31.2579801 C203.286563,27.0293483 201.095532,24.7507234 201.095532,24.7507234 C201.095532,24.7507234 208.263901,24.7321224 208.523942,24.744523 C211.45959,24.9966702 211.832421,27.0541496 211.832421,27.0541496 L217.626435,50.7818169 L222.657035,33.4291324 C224.551473,27.139921 221.738013,24.7362559 221.738013,24.7362559 L227.665703,24.7362559 C230.787244,24.9077986 231.174695,27.0758508 231.174695,27.0758508 L237.264258,50.7828503 L242.294858,33.4301658 C244.181986,27.1409544 241.372703,24.7372893 241.372703,24.7372893 L249.971823,24.7372893 C246.787621,27.0148808 245.530232,31.9958205 245.530232,31.9958205 L238.296069,56.3342213 L255.134009,56.3342213 L255.134009,0.00826711983 L0,0 Z M260.236669,5.75081523 C261.764542,5.75081523 263,4.52108116 263,3.00199789 C263,1.49738208 261.763498,0.267648004 260.236669,0.267648004 C258.701485,0.267648004 257.459761,1.49738208 257.459761,3.00199789 C257.459761,4.52108116 258.701485,5.75081523 260.236669,5.75081523 Z M260.236669,5.39016213 C258.884245,5.39016213 257.897341,4.34850503 257.897341,3.00303128 C257.897341,1.67202499 258.884245,0.630367887 260.236669,0.630367887 C261.581782,0.630367887 262.56242,1.67202499 262.56242,3.00303128 C262.56242,4.34850503 261.581782,5.39016213 260.236669,5.39016213 Z M260.683647,3.12497129 C261.231928,3.11050384 261.655931,2.88625821 261.655931,2.28585863 C261.655931,1.77949754 261.377091,1.47568089 260.559371,1.47568089 L259.205902,1.47568089 L259.205902,4.53554862 L259.587087,4.53554862 L259.587087,3.12497129 L260.281575,3.12497129 L261.16509,4.53554862 L261.618334,4.53554862 L260.683647,3.12497129 Z M259.587087,2.82942176 L259.587087,1.74436228 L260.470602,1.74436228 C260.850742,1.74436228 261.245504,1.80223212 261.245504,2.27965829 C261.245504,2.90175906 260.603233,2.82942176 260.163565,2.82942176 L259.587087,2.82942176 Z M137.148328,89.5349745 L139.277744,89.5349745 L139.277744,78.9954301 L149.991657,78.9954301 L149.991657,77.1973316 L139.277744,77.1973316 L139.277744,69.1988931 L151.339904,69.1988931 L151.339904,67.4007946 L137.147284,67.4007946 L137.147284,89.5349745 L137.148328,89.5349745 Z M153.971648,89.5349745 L168.633178,89.5349745 L168.633178,87.7368759 L156.101063,87.7368759 L156.101063,67.4007946 L153.971648,67.4007946 L153.971648,89.5349745 Z M169.604416,78.4684012 C169.604416,84.5137326 173.113408,90 180.161679,90 C187.180707,90 190.688655,84.5137326 190.688655,78.4684012 C190.688655,72.4230699 187.180707,66.9357691 180.161679,66.9357691 C173.113408,66.9357691 169.604416,72.4230699 169.604416,78.4684012 Z M171.73592,78.4684012 C171.73592,73.6321361 174.242343,68.7338676 180.161679,68.7338676 C186.052817,68.7338676 188.55924,73.6331695 188.55924,78.4684012 C188.55924,83.3046663 186.052817,88.2019014 180.161679,88.2019014 C174.241299,88.2019014 171.73592,83.3046663 171.73592,78.4684012 Z M192.820159,78.4684012 C192.820159,84.5137326 196.328106,90 203.377421,90 C210.395405,90 213.904397,84.5137326 213.904397,78.4684012 C213.904397,72.4230699 210.395405,66.9357691 203.377421,66.9357691 C196.329151,66.9357691 192.820159,72.4230699 192.820159,78.4684012 Z M194.950618,78.4684012 C194.950618,73.6321361 197.455997,68.7338676 203.377421,68.7338676 C209.268559,68.7338676 211.773937,73.6331695 211.773937,78.4684012 C211.773937,83.3046663 209.268559,88.2019014 203.377421,88.2019014 C197.457041,88.2019014 194.950618,83.3046663 194.950618,78.4684012 Z M217.226452,89.5349745 L219.356911,89.5349745 L219.356911,79.7074358 L227.439081,79.7074358 C231.480688,79.5524273 231.73133,82.9936159 231.919312,86.0937859 C231.983017,87.0238369 231.983017,88.6669269 232.514587,89.5349745 L234.864359,89.5349745 C233.92445,88.4189133 233.92445,85.3807468 233.830459,83.8616635 C233.673808,81.2275525 232.826846,79.2434437 229.914173,78.8703899 L229.914173,78.8094199 C232.79656,78.2503559 234.269083,75.9562302 234.269083,73.1660773 C234.269083,69.1678914 231.16634,67.4007946 227.470411,67.4007946 L217.225407,67.4007946 L217.226452,89.5349745 Z M219.356911,69.1988931 L227.31376,69.1988931 C230.510493,69.1988931 232.138624,70.9039866 232.138624,73.600101 C232.138624,76.2972489 229.914173,77.9093373 227.31376,77.9093373 L219.356911,77.9093373 L219.356911,69.1988931 Z M236.995862,82.2495752 C236.74522,87.6438708 240.629131,90 245.924994,90 C253.851556,90 254.477118,85.19577 254.477118,83.6756533 C254.477118,80.0484545 251.845374,78.6843797 248.681015,77.8473339 L243.229545,76.5142608 C241.412388,76.080237 239.845874,75.2121894 239.845874,73.1350756 C239.845874,69.8488954 242.540279,68.7328342 245.453995,68.7328342 C248.618354,68.7328342 251.437036,70.4379277 251.563401,73.8171129 L253.693861,73.8171129 C253.724147,69.2908648 249.84128,66.9347357 245.422665,66.9347357 C239.126322,66.9347357 237.716459,70.9959583 237.716459,73.1650439 C237.716459,76.6062325 240.128891,77.8463005 242.759591,78.4973362 L247.742151,79.7064024 C249.808905,80.2024296 252.346658,81.1934506 252.346658,83.7056216 C252.346658,86.9297984 248.775006,88.200868 246.425234,88.200868 C242.353341,88.200868 239.032331,86.8047582 239.126322,82.2485418 L236.995862,82.2485418 L236.995862,82.2495752 Z" id="Shape"></path>
        </g>
        <rect id="Rectangle" fill-opacity="0" fill="#FFFFFF" x="0" y="0" width="450" height="300"></rect>
    </g>
</svg>