<?xml version="1.0" encoding="UTF-8"?>
<svg width="450px" height="300px" viewBox="0 0 450 300" version="1.1" xmlns="http://www.w3.org/2000/svg" xmlns:xlink="http://www.w3.org/1999/xlink">
    <!-- Generator: Sketch 50.2 (55047) - http://www.bohemiancoding.com/sketch -->
    <title>sherwin-logo</title>
    <desc>Created with Sketch.</desc>
    <defs></defs>
    <g id="sherwin-logo" stroke="none" stroke-width="1" fill="none" fill-rule="evenodd">
        <g id="sherwin" transform="translate(115.000000, 104.000000)" fill="#DADADA" fill-rule="nonzero">
            <path d="M30.6348588,28.5594836 C30.6348588,22.2343068 26.1233366,19.6339994 22.1428108,17.3396864 C19.1139241,15.5928066 16.2525154,13.9440516 16.2525154,10.9008915 C16.2525154,7.41358746 19.9668939,5.85262834 23.647517,5.85262834 C26.4414151,5.85262834 29.5209348,6.61180449 32.1940928,7.88226253 C32.3602726,7.31546265 33.8403116,2.27236397 34,1.73138641 C31.0126582,0.596495543 27.4852321,0 23.4670562,0 C16.3680623,0 8.07984421,3.17872733 8.07984421,12.1390716 C8.07984421,17.9749155 12.1798117,20.2162927 16.1447582,22.3840762 C19.3930542,24.1593606 22.459591,25.835229 22.459591,29.3857977 C22.459591,34.0557639 18.2609542,36.1460805 14.0999675,36.1460805 C10.4115547,36.1460805 6.9568322,34.769751 3.9707887,33.4295727 C3.78643298,34.023486 2.16877637,39.2512143 2,39.7986474 C6.13761766,41.242115 10.0506329,42 13.6170075,42 C18.7335281,42 30.6348588,40.6908085 30.6348588,28.5594836 Z" id="Shape"></path>
            <polygon id="Shape" points="38.1752828 41 41.1834814 26.7895047 53.8460487 26.7895047 50.8391407 41 58.0144234 41 65 8 57.8247172 8 55.051393 21.0988208 42.3901161 21.0988208 45.1634404 8 37.9868671 8 31 41"></polygon>
            <polygon id="Shape" points="83.1934186 41 84.4504958 35.3058722 71.4464722 35.3058722 73.2531973 26.7893247 84.7983906 26.7893247 85.9532979 21.0977911 74.4611295 21.0977911 76.0311826 13.6915337 88.8968243 13.6915337 90 8 70.0497198 8 63 41"></polygon>
            <path d="M103.960472,33.1495283 L105.586229,41 L113.011157,41 L109.815748,27.5885613 C109.494421,26.2317217 108.791839,25.2705189 107.785783,24.775 C112.827542,24.1354953 116,20.7978774 116,15.9555425 C116,8 108.910424,8 103.213261,8 L94.904686,8 L88,41 L95.0883009,41 L97.9215811,27.5314858 L100.153012,27.5314858 C102.911062,27.5314858 103.180108,28.9972877 103.669748,31.657783 C103.756455,32.1299528 103.846988,32.6293632 103.960472,33.1495283 Z M108.643927,16.792217 C108.643927,21.3465802 103.452981,21.8382075 101.220274,21.8382075 L99.2056105,21.8382075 L100.892573,13.6919811 L103.352247,13.6919811 C106.074594,13.6919811 108.643927,13.6919811 108.643927,16.792217 Z" id="Shape"></path>
            <polygon id="Shape" points="130.7342 41 141.964323 15.9153302 142.282853 41 151.007466 41 167 8 159.508072 8 148.23522 32.0456368 148.099262 8 138.755717 8 128.154885 32.0625 127.194115 8 120 8 122.111879 41"></polygon>
            <polygon id="Shape" points="163 41 170.718408 41 178 8 170.278921 8 163.077478 40.6471698"></polygon>
            <polygon id="Shape" points="182.944383 41 188.040915 16.8933962 194.742296 41 203.719054 41 210.920732 8.35412736 211 8 204.150479 8 198.909705 31.9003538 192.061484 8 183.227668 8 176 41"></polygon>
            <path d="M217,85.494898 C217,84.3737245 216.254193,84 214.940151,84 L213,84 L213,89 L214.106215,89 L214.106215,86.880102 L214.633673,86.880102 L215.864847,89 L217,89 L215.63466,86.8303571 C216.429135,86.7678571 217,86.4068878 217,85.494898 Z M215.001973,86.057398 L214.106215,86.057398 L214.106215,84.8239796 L214.890168,84.8239796 C215.326866,84.8239796 215.89247,84.8864796 215.89247,85.3966837 C215.89247,85.9706633 215.533377,86.057398 215.001973,86.057398 Z" id="Shape"></path>
            <path d="M214.498724,82 C212.017153,82 210,84.0184293 210,86.5 C210,88.9815707 212.017153,91 214.498724,91 C216.979019,91 219,88.9815707 219,86.5 C219,84.0184293 216.979019,82 214.498724,82 Z M214.498724,90.00482 C212.69209,90.00482 211.29501,88.580947 211.293734,86.5012759 C211.293734,84.4305359 212.69209,82.9977318 214.498724,82.9977318 C216.281117,82.9977318 217.703714,84.4305359 217.703714,86.5012759 C217.703714,88.5822229 216.279841,90.00482 214.498724,90.00482 Z" id="Shape"></path>
            <path d="M46.4784381,51.0013002 C46.3458485,51.3094438 32.7663592,82.6685799 32.7663592,82.6685799 L32.162626,82.5658654 C32.162626,82.5658654 31.9991418,51.5096721 31.9978545,51.0013002 C31.5177001,51.0013002 22.2634628,51.0013002 21.9390689,51.0013002 C21.8077666,51.3185451 9.05857112,82.6633792 9.05857112,82.6633792 L8.45097619,82.5736665 C8.45097619,82.5736665 7.30658657,51.4927697 7.28856469,51 C6.84059215,51 0.49173997,51 0,51 C0.0321819352,51.5408765 2.39562326,91.5189319 2.42394336,91.9986998 C2.87706501,91.9986998 11.3396267,91.9986998 11.661446,91.9986998 C11.7927483,91.6827551 25.3194593,58.9688273 25.3194593,58.9688273 L25.9270543,59.0663411 C25.9270543,59.0663411 26.3068011,91.4929283 26.3132375,92 C26.7869556,92 35.3434885,92 35.6562969,92 C35.7901738,91.6996575 53.6794679,51.7190017 54,51.0013002 C53.294572,51.0013002 46.7848101,51.0013002 46.4784381,51.0013002 Z" id="Shape"></path>
            <polygon id="Shape" points="53.7750548 58 47 91 54.2249452 91 61 58"></polygon>
            <polygon id="Shape" points="72.4248358 58 65.6506212 58 59 91 77.8226111 91 79 85.312134 66.911273 85.312134"></polygon>
            <polygon id="Shape" points="94.424408 58 87.6484517 58 81 91 99.8212334 91 101 85.312134 88.9091855 85.312134"></polygon>
            <polygon id="Shape" points="109.77428 58 103 91 110.223049 91 117 58"></polygon>
            <path d="M132.028858,58 L113,91 L120.530791,91 L124.4629,83.5688063 L137.154015,83.5688063 L138.216818,91 L145,91 L139.29004,58 L132.028858,58 Z M136.231878,77.8770489 L127.510643,77.8770489 L134.422769,64.7281553 L136.231878,77.8770489 Z" id="Shape"></path>
            <polygon id="Shape" points="178.187591 58 166.36351 80.7774065 164.368773 58.2659094 164.344066 58 153.647388 58 147 91 153.464039 91 158.817579 65.542746 161.16081 91 167.51692 91 180.67386 65.6620809 175.255302 90.6471837 175.177281 91 182.3084 91 189 58"></polygon>
            <path d="M210.763915,59.457069 C208.449222,58.4899992 205.686099,58 202.551042,58 C197.049855,58 190.626748,60.6322914 190.626748,68.054681 C190.626748,72.9443304 193.942495,74.8629554 196.866526,76.5553274 C199.2287,77.9231881 201.270377,79.1048749 201.270377,81.5716785 C201.270377,84.8555784 198.429438,86.326869 195.614877,86.326869 C192.907149,86.326869 190.315484,85.1943114 188.09971,84.1341547 L187.781852,83.9815956 L186,90.081375 L186.251912,90.1770477 C189.44632,91.3871777 192.475864,92 195.256133,92 C203.603535,92 208.39119,87.9636474 208.39119,80.9265343 C208.39119,75.6632444 204.762859,73.4472583 201.846742,71.6669709 C199.646795,70.3236748 197.746241,69.1613811 197.746241,67.0837326 C197.746241,64.391969 200.850963,63.673131 202.682933,63.673131 C204.757584,63.673131 207.072276,64.2678531 209.030863,65.3060309 L209.359272,65.4805689 L211,59.5579131 L210.763915,59.457069 Z" id="Shape"></path>
        </g>
        <rect id="Rectangle" fill-opacity="0" fill="#FFFFFF" x="0" y="0" width="450" height="300"></rect>
    </g>
</svg>