<?xml version="1.0" encoding="UTF-8"?>
<svg width="450px" height="300px" viewBox="0 0 450 300" version="1.1" xmlns="http://www.w3.org/2000/svg" xmlns:xlink="http://www.w3.org/1999/xlink">
    <!-- Generator: Sketch 50.2 (55047) - http://www.bohemiancoding.com/sketch -->
    <title>smg-logo</title>
    <desc>Created with Sketch.</desc>
    <defs></defs>
    <g id="smg-logo" stroke="none" stroke-width="1" fill="none" fill-rule="evenodd">
        <path d="M206.310048,147.995921 L201.880632,150.022877 C199.618028,148.5943 196.714896,147.760911 194.003348,147.760911 C187.817108,147.760911 182.692243,151.752239 181.854383,156.574403 C180.890079,162.05242 185.35398,164.444023 189.367659,166.036724 C192.65396,167.340132 195.613928,168.632683 195.053865,171.713349 C194.636213,174.023211 192.090702,175.813881 189.040051,175.813881 C184.136784,175.813881 180.945,172.445838 180.519045,165.078804 L180.123105,165.078804 L175.371828,178.432192 L175.749248,178.432192 L180.658262,176.172781 C182.669892,177.488961 185.981097,178.423251 189.003011,178.423251 C195.18478,178.423251 200.602129,174.754422 201.454677,169.696612 C202.481567,163.623407 197.116583,161.406782 192.901741,159.664648 C189.879188,158.406582 187.315798,157.140213 187.76091,154.267095 C188.127474,151.948293 190.793042,150.36709 193.84114,150.36709 C198.587946,150.36709 201.812939,153.933739 202.348096,158.745046 L202.846853,158.745046 L206.684275,147.995282 L206.309409,147.995282 L206.310048,147.995921 Z M65.696522,138.038675 C72.2493247,138.038675 76.7093942,143.169926 77.4450757,150.096318 L77.8435699,150.096318 L83.4307904,134.344302 L83.0514547,134.344302 L76.4852412,137.391123 C73.6574652,135.441438 69.8864585,134.291297 65.9264225,134.291297 C57.3798718,134.291297 50.2676447,140.163339 49.0945136,147.121022 C47.7630066,155.0015 53.9243397,158.198394 59.4745208,160.498676 C64.0048376,162.367256 68.1034525,164.080014 67.3224294,168.513262 C66.7387376,171.852568 63.2097651,174.670764 58.9904524,174.670764 C52.2122197,174.670764 47.3683442,169.69725 46.8025335,159.091175 L46.4104254,159.091175 L39.4999998,178.443686 L39.8838059,178.443686 L47.0720279,174.956862 C49.8244477,176.972962 54.5904125,178.42389 58.9323387,178.42389 C67.4884687,178.42389 74.5911166,172.635507 75.7821288,165.350215 C77.2062347,156.618467 70.1814974,154.074235 64.3688467,151.560656 L64.3675696,151.560656 C60.1916825,149.75913 56.6448289,147.932059 57.2789711,143.794489 C57.7879452,140.453907 61.477848,138.038675 65.696522,138.038675 Z M108.555721,147.932059 L103.429579,150.300674 C101.630607,148.780776 99.6847552,147.892466 96.9272264,147.892466 C89.2664313,147.892466 81.0359937,154.367996 78.3985242,163.210225 C75.8849454,171.63991 80.8009843,178.354919 88.6271801,178.354919 C94.418118,178.354919 101.018178,174.267799 103.075787,169.656379 L102.790966,169.395187 C99.5104139,172.073527 95.0599235,174.466409 91.8285445,174.466409 C86.4028928,174.466409 84.634575,169.567611 86.4903828,163.116349 L86.4897442,163.116988 C88.3455521,156.66764 93.2635067,151.603443 97.359567,151.603443 C101.435831,151.603443 103.932805,155.822117 103.601365,161.593258 L104.038815,161.593258 L108.940166,147.932059 L108.555721,147.932059 Z M125.106002,151.603443 C120.336205,151.604082 116.651411,156.788338 114.450114,163.187873 C112.253287,169.592518 112.372708,174.77869 117.134202,174.77869 C121.891227,174.77869 125.58113,169.591879 127.786897,163.187873 C129.980531,156.788338 129.85664,151.604082 125.106002,151.603443 Z M136.009033,163.187873 L136.004562,163.187873 C133.603379,171.604146 124.978279,178.42389 116.752951,178.42389 C108.521874,178.42389 103.806999,171.604146 106.22287,163.187873 C108.6298,154.781178 117.253623,147.956327 125.480867,147.956327 C133.711944,147.956327 138.421072,154.781178 136.009033,163.187873 Z M175.166195,172.459249 C172.929136,173.594063 170.444932,174.112616 169.352267,174.112616 C166.147072,174.112616 164.892198,172.096517 165.995081,168.961569 L171.94248,152.275263 L171.953336,152.274624 L180.918177,152.274624 L182.28864,148.41038 L173.319327,148.41038 L175.488694,142.315464 L175.016121,142.315464 L160.160718,151.766928 L159.992762,152.275263 L164.18206,152.275263 L158.094168,169.358785 C156.331597,174.287596 159.413541,178.337037 164.701891,178.337037 C168.958243,178.337037 173.832134,175.882211 175.422278,172.783026 L175.166195,172.459249 Z M149.296004,174.112616 C145.896031,174.112616 144.079817,172.096517 145.191641,168.961569 L151.126906,152.275263 L151.126906,152.274624 L158.64529,152.274624 L160.019585,148.41038 L152.498646,148.41038 L154.669927,142.315464 L154.189691,142.315464 L137.728177,151.766928 L137.575549,152.275263 L143.353077,152.275263 L137.274763,169.358785 C135.517301,174.288235 138.712279,178.337037 144.364638,178.337037 C148.90134,178.337037 154.049196,175.882211 155.74152,172.783026 L155.503955,172.459249 C153.115545,173.594063 150.478075,174.112616 149.296004,174.112616 Z M249.48536,139.83126 C250.868595,140.509467 253.947984,140.363863 256.980755,138.922514 C260.010332,137.483082 261.733309,135.32074 261.842512,133.960496 C260.41138,133.306557 257.384357,133.42917 254.35031,134.872435 C251.317539,136.311228 249.524316,138.437808 249.48536,139.829983 L249.48536,139.83126 Z M248.428457,139.174767 C249.984117,137.7513 251.256233,133.927288 250.950337,129.603882 C250.64508,125.279198 248.844194,122.272611 247.188909,121.55928 C245.71563,123.019787 244.361133,126.810591 244.662559,131.131443 C244.969732,135.456126 246.771895,138.531046 248.428457,139.174767 Z M256.258484,130.689523 C257.269407,128.754527 257.233006,126.873175 256.656978,126.012964 C255.58411,126.1343 253.944152,127.283164 252.93259,129.216244 C251.925499,131.151878 251.939547,133.061968 252.54176,133.894719 C253.638896,133.814892 255.248838,132.62388 256.258484,130.689523 Z M402.834096,160.253448 C402.834096,155.110703 402.069678,148.803765 399.609104,148.803765 C397.140228,148.803765 396.424982,155.110703 396.424982,160.253448 C396.424982,165.672076 397.073173,172.527581 399.609104,172.527581 C402.148865,172.527581 402.834096,165.671437 402.834096,160.253448 Z M410.5,160.253448 C410.5,170.879321 406.117203,178.646127 399.609104,178.646127 C393.138042,178.646127 388.753968,170.879321 388.753968,160.253448 C388.753968,149.146062 394.045511,142.680111 399.609104,142.680111 C405.171417,142.680111 410.5,149.146062 410.5,160.253448 Z M386.031563,142.675641 C383.272119,142.675641 382.439368,148.096822 382.101543,149.605224 L381.535731,152.34615 L381.464207,152.34615 L381.464207,152.345511 L381.464207,143.514139 L373.887709,143.514139 L373.887709,177.814652 L381.464207,177.814652 L381.464207,163.136145 C381.464207,156.117156 383.539697,154.611307 385.278001,154.611307 C386.483701,154.611307 386.939032,155.023212 387.429487,155.297816 L389.773194,145.28118 C388.716929,143.772138 387.658109,142.675641 386.031563,142.675641 Z M362.865257,158.169017 L362.865257,169.298755 C362.37608,169.543983 361.959705,169.60529 361.694681,169.60529 C358.982494,169.60529 354.802775,165.544991 354.802775,156.387288 C354.802775,147.043111 358.681069,143.04412 362.450797,143.04412 C363.207554,143.04412 365.546152,143.231233 366.83168,143.844939 L368.794135,136.23715 C366.904481,134.890954 363.770809,134.091412 362.035061,134.091412 C353.098318,134.091412 346.485486,142.862115 346.485486,155.894919 C346.485486,169.972491 353.743955,178.557359 362.527431,178.557359 C364.945857,178.557359 367.62739,177.887455 370.838334,176.351591 L370.838334,158.170294 L370.830032,158.169017 L362.865257,158.169017 Z M341.121141,162.259969 L345.054994,162.259969 L345.054994,156.460729 L341.121141,156.460729 L341.121141,162.259969 Z M330.453759,148.381005 C328.867445,148.381005 327.808625,150.982712 328.032779,156.460729 L333.065045,156.460729 C333.255351,150.847964 332.232293,148.381005 330.453759,148.381005 Z M339.435843,162.259969 L327.96317,162.260608 C327.96317,167.937872 330.238547,170.501263 332.393863,170.501263 C334.401022,170.501263 336.148266,169.323023 337.36099,168.009397 L339.444145,175.02711 C335.880688,178.105861 332.696566,178.654428 330.274308,178.654428 C324.825028,178.654428 320.01436,170.085526 320.01436,159.941167 C320.01436,151.46231 323.462229,142.680111 330.649174,142.680111 C336.745368,142.680111 340.083395,150.300035 339.435843,162.259969 Z M310.546291,177.805074 L318.12279,177.805074 L318.12279,132.664113 L310.545014,132.664113 L310.546291,177.805074 Z M303.898974,151.418883 C304.882438,151.418883 306.015975,151.828874 307.075433,152.657792 L309.037889,145.679035 C307.226146,143.765114 304.882438,142.673725 303.069416,142.673725 C296.650723,142.673725 291.405159,149.778289 291.405159,161.217115 C291.405159,171.756136 296.127061,178.654428 302.619195,178.654428 C304.577182,178.654428 306.697374,177.973028 308.740935,176.061023 L308.739657,176.060385 L306.847448,168.805747 C306.090055,169.360701 304.961625,169.909908 303.829366,169.909908 C302.163226,169.909908 299.368019,167.840803 299.368019,160.802656 C299.368019,154.177052 301.409663,151.418883 303.898974,151.418883 Z M282.587199,158.206696 L282.587199,158.206058 L280.447847,159.717653 C278.832796,160.750928 277.67116,163.363492 277.67116,166.595509 C277.67116,168.865138 278.646322,170.583644 279.621483,170.583644 C280.93447,170.583644 282.850946,167.422512 282.587199,158.206696 Z M289.900589,169.486508 C289.900589,172.358348 290.053856,175.429435 290.543033,177.815291 L282.696402,177.815291 C282.513121,177.0662 282.362407,175.356633 282.362407,174.131136 L281.315721,175.166966 C279.851383,176.534874 278.049858,178.654428 276.316024,178.654428 C273.711124,178.654428 270.841839,174.550705 270.832898,168.453233 C270.832898,161.092585 273.136373,157.51891 278.308496,155.178395 L282.622322,153.251701 C282.139532,151.396533 280.78759,149.814689 279.548681,149.814689 C277.484686,149.814689 275.858778,151.464865 274.575805,153.529498 L272.497122,147.345813 C275.556076,143.570976 278.347451,142.678195 280.899984,142.678195 C285.414336,142.678195 289.900589,145.355896 289.900589,157.035481 L289.900589,169.486508 Z M268.77912,142.675641 C266.02223,142.675641 265.192034,148.096822 264.845907,149.605224 L264.281372,152.34615 L264.20921,152.34615 L264.20921,152.345511 L264.20921,143.514139 L256.633989,143.514139 L256.633989,177.814652 L264.20921,177.814652 L264.20921,163.136145 C264.20921,156.117156 266.285977,154.611307 268.024281,154.611307 C269.231897,154.611307 269.689143,155.023212 270.175766,155.297816 L272.518835,145.28118 C271.46257,143.772138 270.405027,142.675641 268.77912,142.675641 Z M246.047709,177.815291 L253.628039,177.815291 L253.628039,143.514778 L246.049625,143.514778 L246.047709,177.815291 Z M231.935012,134.846251 L242.518099,134.846251 L242.518099,177.805074 L242.513628,177.805074 L234.546298,177.805074 L234.546298,147.732813 L234.469666,147.732813 C232.426106,158.966645 230.305911,168.41747 228.185719,177.805074 L223.148343,177.805074 C220.994303,168.41747 218.831323,158.966645 216.745615,147.732813 L216.672174,147.732813 L216.672174,177.805074 L210.387588,177.805074 L210.387588,134.846251 L221.214624,134.846251 C223.032754,143.070941 224.854078,151.23177 226.631336,161.296302 L226.706692,161.296302 C228.411788,151.23177 230.193515,143.070941 231.935012,134.846251 Z" fill="#DADADA" fill-rule="nonzero"></path>
        <rect id="Rectangle" fill-opacity="0" fill="#FFFFFF" x="0" y="0" width="450" height="300"></rect>
    </g>
</svg>