<?xml version="1.0" encoding="UTF-8"?>
<svg width="450px" height="300px" viewBox="0 0 450 300" version="1.1" xmlns="http://www.w3.org/2000/svg" xmlns:xlink="http://www.w3.org/1999/xlink">
    <!-- Generator: Sketch 50.2 (55047) - http://www.bohemiancoding.com/sketch -->
    <title>tru-logo</title>
    <desc>Created with Sketch.</desc>
    <defs></defs>
    <g id="tru-logo" stroke="none" stroke-width="1" fill="none" fill-rule="evenodd">
        <g transform="translate(83.000000, 113.833333)" fill="#DADADA" fill-rule="nonzero">
            <path d="M280.887263,18.9522265 L281.22139,18.9522265 C281.624075,18.9522265 281.96293,18.8024009 281.96293,18.446466 C281.96293,18.1824875 281.762769,17.9208871 281.22139,17.9208871 C281.081118,17.9208871 280.974735,17.9303999 280.887263,17.9478399 L280.887263,18.9522265 Z M280.887263,20.5923813 L280.42705,20.5923813 L280.42705,17.6212358 C280.668188,17.5839776 280.891991,17.545134 281.254486,17.545134 C281.707607,17.545134 281.999967,17.6489813 282.18358,17.7797815 C282.354583,17.9010689 282.457028,18.1087637 282.457028,18.3893895 C282.457028,18.7825827 282.196976,19.026743 281.87073,19.120285 L281.87073,19.1393104 C282.130781,19.1876669 282.311242,19.4302417 282.367981,19.861486 C282.440479,20.3307811 282.505099,20.5083522 282.546076,20.5923813 L282.051978,20.5923813 C281.98736,20.5083522 281.918012,20.2269336 281.860486,19.8416678 C281.797443,19.4675 281.594918,19.318467 281.219025,19.318467 L280.888839,19.318467 L280.888839,20.5923813 L280.887263,20.5923813 Z M281.390817,16.7960056 C280.220585,16.7960056 279.261546,17.7995997 279.261546,19.0457685 C279.261546,20.3109629 280.220585,21.3050441 281.390817,21.3050441 C282.569717,21.3232768 283.509055,20.3109629 283.509055,19.0544885 C283.509055,17.7995997 282.569717,16.7960056 281.390817,16.7960056 Z M281.390817,16.3742742 C282.847105,16.3742742 284,17.5554394 284,19.0465612 C284,20.5456104 282.847105,21.7188482 281.390817,21.7188482 C279.936892,21.7188482 278.761932,20.5464031 278.761932,19.0465612 C278.761932,17.5546466 279.936892,16.3742742 281.390817,16.3742742 Z M3.32871654,14.6223448 C18.276165,14.4947156 23.3329858,14.2014061 36.8186292,11.8961524 C39.8565042,11.3753298 40.1070994,12.9433464 40.5988332,13.9501113 C41.0125516,14.7927814 41.8037388,19.1821178 41.7517285,20.3125484 C41.6973541,21.4342588 42.2308538,23.0625231 40.414433,23.5920658 C34.7334886,25.241733 33.2480425,25.7546275 29.4757189,26.9262806 C27.7373135,27.4669207 27.8460624,28.2208057 27.8941325,29.613629 C28.1612764,37.307849 30.6191576,47.4690406 32.3607151,53.1544871 C33.0935877,55.5461485 33.4229863,57.2584418 31.8153949,57.8823187 C29.5821036,58.7495634 23.3542627,60.5062491 21.6859926,60.8716968 C18.7954801,61.5011231 18.3754574,59.2941676 18.1035854,58.1605668 C15.6488562,47.9367507 14.430554,37.5115804 14.1941436,33.6184919 C14.0727862,31.632708 13.4494504,29.7793093 11.6558827,29.8197377 C9.81345685,29.8649235 7.74959316,30.0916445 3.74164693,30.1764667 C1.59740366,30.2216511 0.462633237,30.0853017 0.178940598,28.1676931 C-0.110268313,26.2532539 -0.0306767229,17.5649522 0.286901383,16.2038377 C0.598963218,14.8419305 2.1198708,14.633443 3.32871654,14.6223448 Z M114.473965,21.4945061 C110.224093,24.2452737 108.201206,27.6999831 108.101914,32.3612246 C107.96716,38.6546946 116.33688,42.8212752 118.435417,43.760658 C120.956341,44.8879173 121.315685,46.2395189 120.864141,47.2661026 C120.200616,48.7730791 118.698621,49.0521192 116.934211,48.6724021 C113.736364,47.9890698 111.241445,45.0742085 108.720521,43.6171739 C107.295754,42.7919442 105.19958,45.6211914 104.889883,48.1626783 C104.747248,49.3240246 105.092408,49.962963 106.010469,50.788194 C108.365117,52.9127061 113.220202,57.8918322 122.858658,58.3270392 C125.148688,58.4293015 131.098353,57.9679343 134.798964,53.89886 C136.297019,52.2515701 137.865208,50.059676 138.234009,47.0259055 C138.48618,44.9283457 138.018087,42.3733827 136.436501,39.8770816 C135.107874,37.7922059 132.688607,35.709709 128.441098,33.8824706 C121.556036,30.9248022 123.731801,27.9536563 125.366974,27.391612 C126.761796,26.9128045 129.215736,27.2782522 133.291454,29.8379713 C135.501104,31.2252452 138.43023,25.7839585 136.602777,24.410954 C127.463146,17.5538539 119.120219,18.4892734 114.473965,21.4945061 Z M109.744967,18.4765896 C105.852074,31.1594485 89.2347792,60.1867806 82.7453103,62.9668779 C81.8264613,63.3608645 81.6436376,63.4662962 80.6909034,63.3323255 C77.2448268,62.844798 72.9516107,58.3436874 71.569398,56.6884707 C70.9539425,55.9504406 69.6276798,54.2650996 70.6962546,53.3764521 C74.7475437,50.0025994 79.7807229,44.8609651 80.0202853,41.8573175 C80.0730833,41.1922175 79.8768633,40.5088866 79.6451808,40.1838673 C79.2669244,39.6535327 68.7356235,25.203682 67.6772932,23.6570691 C65.8813616,21.0236255 65.8923933,20.4037121 67.8782425,19.3921908 C69.8648776,18.3798768 73.024899,17.0037005 75.2416407,16.1118812 C77.4599597,15.2264037 77.7972384,15.8431463 78.423727,16.5756273 L87.8620222,28.9429809 C88.5428848,29.4297165 89.1614922,29.2901964 89.6571666,28.6837583 C90.8573429,27.2100768 95.9582938,17.6244068 96.7597263,16.1071249 C97.6982755,14.4336755 99.2483409,14.8879087 100.811801,14.8799814 C102.465887,14.8665052 105.030942,14.8887015 107.711049,15.0274289 C110.292652,15.1606073 110.531425,15.91687 109.744967,18.4765896 Z M253.387204,17.9732072 C248.27522,20.7223887 245.645547,24.479128 245.104956,29.7959561 C244.369719,36.9772817 254.07831,41.9817761 256.388042,43.2469702 C259.164289,44.7698001 259.266733,46.5256938 258.549622,47.5649602 C257.414063,49.2059088 254.262711,48.7445401 251.93722,47.8091214 C249.387137,46.7825377 248.095549,45.5633214 245.994647,43.1050714 C244.762948,41.669441 241.018206,45.7884571 240.433483,48.663682 C240.163976,49.9796112 240.676986,50.5971468 241.470538,51.7680052 C243.510761,54.7819582 250.067213,60.1217759 259.573278,60.8384031 C262.195072,61.0357918 269.021818,61.1951307 273.625519,56.88903 C275.489222,55.1466139 277.521564,52.2555341 278.222128,48.8238129 C278.705981,46.4495917 278.67052,43.3294136 276.825729,40.4874824 C274.237822,36.4992662 269.922543,33.8491756 265.131289,31.5819728 C258.146147,28.2770889 259.496051,26.3150865 261.057149,25.4082053 C262.52053,24.5568155 267.495395,25.1577028 271.390652,28.8819403 C273.367044,30.7710126 277.461674,24.9127511 275.756366,22.919039 C269.534042,15.6433789 258.968856,14.9695598 253.387204,17.9732072 Z M212.098896,23.1243557 C211.447192,24.1287418 206.306051,31.9823008 205.664591,44.0444542 C205.382474,49.4080534 207.723726,54.140641 211.938926,56.7122523 C216.617489,59.5660743 222.686935,59.3250839 228.168507,56.0622151 C239.951994,49.0505339 241.271953,31.3806201 240.939402,23.4121159 C240.867691,21.5682299 239.792811,20.4615812 237.988211,20.3815157 C237.296317,20.3474283 235.801414,20.4045047 234.112655,20.5527449 C232.406559,20.7017779 231.377385,21.8995903 231.289913,23.8417749 L231.280457,24.3665602 C231.200078,31.7769841 230.699676,38.3376034 227.499465,42.3900309 C225.404079,45.050427 222.902068,46.1150603 221.251923,45.4293508 C219.779085,44.8197419 218.840536,42.8268232 219.067491,40.7990242 C219.634088,35.7453827 221.758629,31.7563732 223.074649,29.2101303 L223.629425,28.1137872 C224.436373,26.4046647 224.029746,24.580597 222.682208,23.8687272 C221.902053,23.4596791 220.197532,22.8286674 218.692385,22.2721725 L216.875965,21.591219 C215.583587,21.0799093 213.681271,20.6835452 212.098896,23.1243557 Z M48.6722522,47.7940585 C46.420048,47.0362109 44.7431094,43.4300893 45.5571497,39.5092566 C46.3664617,35.5931785 49.1056714,32.8741205 51.6510246,33.6874593 C53.9087449,34.4159773 55.5730748,38.2408904 54.7850398,42.1696527 C53.9473586,46.3409879 51.2499147,48.667646 48.6722522,47.7940585 Z M68.2462544,32.0401708 C65.4164205,27.3123392 60.8789143,24.2825314 55.4753586,23.513585 C48.5690195,22.5298097 41.8856945,25.3661916 38.0392955,30.908154 C35.2141899,34.9811923 34.3024334,39.8842163 35.48685,44.7158956 C38.3308685,56.3713795 49.7148225,59.6310776 56.8378711,57.5073589 C64.8781926,55.1053921 69.3739325,50.3799393 70.594599,43.0559215 C71.1769566,39.5274887 70.3235148,35.510735 68.2462544,32.0401708 Z M184.839189,24.5901105 C184.839189,24.5901105 179.319003,28.3983768 179.18425,28.5014311 C178.713005,28.8645015 178.069968,29.2989165 177.983284,31.0627369 C177.949398,31.801559 177.735842,36.9867952 177.721657,37.6400031 C177.707471,38.3518729 177.39935,40.3083259 175.152662,38.3225419 C175.152662,38.3225419 171.391371,35.0089379 170.835018,34.5174463 C170.708145,34.4056719 169.418132,32.931989 167.407855,33.8047831 L161.518869,36.1718696 C161.518869,36.1718696 157.975863,37.6249402 159.291093,34.4254894 C160.570863,31.3068967 161.43376,28.72498 161.715089,27.893409 C162.008238,27.0190296 161.904218,25.7934719 161.187894,24.938118 C160.859282,24.5480954 158.032602,20.7881853 157.3872,19.8591077 C157.3872,19.8591077 155.062498,17.0829733 158.932538,17.2708499 C158.932538,17.2708499 165.543363,17.4230538 165.650536,17.4317738 C165.760073,17.4436647 166.998864,17.5276939 167.881463,16.130114 C168.968163,14.4083082 172.16207,10.3812486 171.499331,11.2373951 C172.058048,10.5255251 173.352002,8.76566833 174.209384,11.6844938 C174.209384,11.6844938 175.427686,15.5212987 176.002164,17.1352935 C176.393818,18.2348075 176.644412,18.9664958 178.608984,19.6022637 L184.683946,21.8123901 C184.684734,21.8108048 187.52166,22.6939034 184.839189,24.5901105 Z M196.223143,7.56468505 C180.634234,-0.518765071 165.233665,-1.37808252 155.655887,1.51061935 C137.951104,6.84964412 132.460865,29.4852077 148.866965,40.578646 C149.858314,41.2508794 149.23419,42.664315 147.990671,44.9140776 C146.454002,47.7211285 143.600528,53.2353453 138.560256,57.2203907 C135.529473,59.6223575 133.557021,60.6148528 136.055092,63.578072 C136.055092,63.578072 141.601284,69.8271482 145.699853,71.6401185 C150.638469,73.8209137 151.874895,73.4546727 155.551078,69.9896578 C157.863962,67.8096546 162.446385,61.8649854 167.973663,52.38237 C170.843687,47.4587352 174.675112,47.3659863 174.157375,55.4708398 C174.157375,55.4708398 173.401648,63.2720783 173.191243,64.8852798 C172.578152,69.5330466 173.057277,71.1430774 177.19919,71.1850926 C177.19919,71.1850926 186.095316,70.6928076 189.177322,70.2552218 C193.52491,69.6598825 193.286137,68.9535621 194.424846,65.5067794 C200.499809,47.1107277 201.01282,15.5355678 201.01282,15.5355678 C201.277599,11.3016061 199.947396,9.49418566 196.223143,7.56468505 Z"></path>
        </g>
        <rect id="Rectangle" fill-opacity="0" fill="#FFFFFF" x="0" y="0" width="450" height="300"></rect>
    </g>
</svg>