<?xml version="1.0" encoding="UTF-8"?>
<svg width="450px" height="300px" viewBox="0 0 450 300" version="1.1" xmlns="http://www.w3.org/2000/svg" xmlns:xlink="http://www.w3.org/1999/xlink">
    <!-- Generator: Sketch 50.2 (55047) - http://www.bohemiancoding.com/sketch -->
    <title>wendys-logo</title>
    <desc>Created with Sketch.</desc>
    <defs></defs>
    <g id="wendys-logo" stroke="none" stroke-width="1" fill="none" fill-rule="evenodd">
        <g transform="translate(111.000000, 54.666667)" fill="#DADADA" fill-rule="nonzero">
            <path d="M148.113337,65.1795903 C146.983384,66.3805438 145.140374,67.5682586 146.613651,68.3531337 C147.790763,68.9810338 148.094473,67.7876453 148.500049,66.9025332 C148.816964,66.2084386 149.173493,64.0618524 148.113337,65.1795903 Z M146.87586,69.5843476 C146.185439,68.9923814 145.483699,68.3531337 144.763094,68.3720464 C144.051921,68.3985241 143.770849,68.5101087 143.62371,69.1001836 C143.493549,69.6902584 143.908556,69.5181532 144.578227,69.6146077 C145.244126,69.7034972 145.974161,70.1800962 146.317486,70.4524383 C146.689107,70.7550409 147.41537,70.983884 147.605896,70.6585863 C147.794536,70.3389624 147.526667,70.1479447 146.87586,69.5843476 Z M144.357519,75.4415967 C142.318321,75.3110994 142.386233,75.1144078 141.707129,74.6623953 C141.484534,74.5167679 140.6017,74.959324 141.23553,75.5248124 C141.452466,75.7139388 141.925951,76.2794273 141.74297,76.9659566 C141.499626,77.8510689 140.20367,79.5380777 141.471329,79.3716463 C142.914424,79.1863023 143.252089,77.1418443 143.416206,76.8392418 C143.574663,76.5347481 143.818009,76.4118158 144.134923,76.3683167 C144.738571,76.2983399 145.391264,75.5058997 144.357519,75.4415967 Z M154.202631,64.6027542 C153.497119,65.3724993 150.501517,68.6330411 149.811096,69.3422656 C149.646979,69.5068057 149.448907,69.6751283 149.203676,69.9020801 C148.63021,70.4524383 148.72453,70.5659143 149.10181,70.9441674 C149.801664,71.6155666 148.603801,73.6865024 148.328387,74.0950157 C147.896401,74.7475023 146.934339,75.7574381 146.24769,75.7593292 C144.851754,75.8330886 145.98548,76.2548409 146.042073,76.9224575 C146.15337,77.2969281 146.030754,78.272821 145.817591,79.5134912 C145.6082,80.5423396 145.438424,81.2326516 144.974371,83.5362125 C144.417883,86.2785471 142.899333,85.8813822 142.178729,85.8397736 C141.618469,85.8038397 138.362544,85.0492249 136.670446,83.7083183 C134.401109,82.1669373 134.585976,81.3442362 134.804797,80.6255554 C134.980233,80.0487193 136.038501,78.4865341 136.789289,77.6260083 C138.911487,74.8193704 141.878791,74.4600299 140.486629,73.6221993 C140.075394,73.242055 139.956551,72.6368501 140.337604,71.1522066 C140.64886,70.2273778 141.086504,69.3592869 141.422283,69.0510107 C141.68072,68.725713 142.354163,67.8197969 143.731234,67.6892995 C144.076446,67.6609306 144.495226,67.6798432 144.385814,67.4755865 C144.193401,67.1200286 144.0689,66.6453209 144.0689,66.2576116 C144.059467,65.7450786 144.480134,63.9143337 144.776299,63.125676 C145.127169,62.2103035 146.353329,57.7393519 147.873764,57.9228047 C148.550981,57.9719776 149.52059,58.2840364 150.388334,58.6509419 C151.94084,59.2391254 154.870416,60.7994194 155.277879,61.7393784 C155.813616,63.1143283 154.583683,64.0864388 154.202631,64.6027542 Z M83.7607471,76.2813186 C83.6966085,75.5475075 84.0135242,75.7044826 84.2248014,75.3735112 C84.7039456,74.5564844 84.1832999,74.2784684 83.9739099,74.4467911 C83.3193299,74.9782366 83.3664899,75.0028231 81.5687514,75.7404166 C80.5180285,76.1735164 80.9915142,76.5347481 81.5687514,76.5895948 C81.8403928,76.6160725 82.3836756,76.2661885 82.4836556,76.5858123 C82.5779756,76.9130012 83.2853742,79.191976 84.5077599,78.9461116 C85.8640814,78.6699868 83.8512942,77.2345163 83.7607471,76.2813186 Z M80.5482099,70.1914438 C80.9820828,70.1233581 81.5065014,69.9001888 81.6649585,69.4216987 C81.7762556,69.0585758 81.3725671,69.2533761 80.6085756,69.3347005 C79.7879914,69.4179161 78.7976328,69.4841105 78.3675342,70.0344687 C77.9487542,70.5810444 77.8865028,70.7285632 78.1807814,71.2600087 C78.4788314,71.7971282 78.6297428,71.3488982 79.1032299,70.9214722 C79.5804885,70.492155 80.1558399,70.2481817 80.5482099,70.1914438 Z M77.6940899,66.3994565 C77.8638656,67.685517 78.8768614,69.1493565 79.7106499,68.3417861 C80.2407271,67.8235793 79.2239585,67.685517 78.5127871,64.7105564 C78.0562785,62.7739007 77.5639285,65.4084334 77.6940899,66.3994565 Z M91.2893628,82.5716674 C91.0120614,83.7518174 88.7691342,85.2383516 86.9770556,85.7735804 C86.2281556,86.0194446 85.3547528,86.2407226 84.4775785,86.2482878 C82.5440199,86.2861123 81.6838228,82.1461323 81.3122014,81.2156301 C81.0028328,80.4118424 80.2878871,78.7929191 80.2671371,78.2690386 C80.2539328,77.873764 80.3425928,77.3896002 80.5123685,77.0170208 C80.5991428,76.8108728 80.2086585,76.8373505 79.8917442,76.8033078 C78.6316299,76.6879406 78.3335785,75.8028283 78.0128914,75.3564898 C77.6865442,74.8269354 77.3488785,74.0004525 77.0112142,73.0623848 C76.5848871,71.5512636 76.4867956,70.8798644 76.8527556,70.4845899 C78.0826885,69.6221729 75.1229285,69.0112941 73.1384385,66.5734528 C72.4404714,65.6921232 71.5482042,64.0542873 71.3595642,63.4679951 C71.1256514,62.7322927 71.1539471,61.6939881 73.0158228,60.2736477 C74.8003556,58.7852217 77.4582899,58.0873447 77.9751628,58.045737 C78.6372885,58.0022379 80.4237085,58.0949098 81.0764014,60.8883089 C81.6177985,63.2353694 81.8856671,64.1450681 82.1535356,65.4840841 C82.4100856,66.3881089 82.4610185,67.1559627 82.4647914,67.6817344 C82.4572456,68.4874136 81.2744742,68.5933244 82.6326799,68.81082 C83.2797156,68.8259501 84.0003199,69.5956952 84.4304185,70.2595293 C84.6945142,70.6661514 85.7414642,72.7408696 85.3830499,73.4765718 C85.0963171,73.9002153 84.7586514,74.0855593 85.4094585,74.7399372 C85.6471456,74.9706716 85.8414442,75.1333205 86.0017885,75.3035342 C86.6657999,76.0222152 89.0105928,78.3087551 90.0669756,79.4132542 C90.6196914,80.1962381 91.6911656,80.8941151 91.2893628,82.5716674 Z M103.134057,64.1204817 C102.224813,64.0013319 102.055037,64.528995 102.745459,65.4008683 C103.39438,66.068485 104.528106,66.7077327 105.412826,66.6907113 C107.235087,66.7001677 108.766843,67.0765295 110.566466,66.951706 C110.853199,66.9422497 111.956741,66.8325562 112.239701,66.8098611 C115.03723,66.5488664 117.602731,67.2732211 120.192757,66.5299538 C119.302377,67.358328 118.576113,68.6576275 117.295249,69.2836364 C115.925724,69.9512531 113.422473,69.9569268 111.456846,69.8188645 C109.462923,69.6826934 107.842507,68.597107 106.456004,67.8443833 C106.078724,68.9715776 106.682373,69.4046773 107.546343,70.1706398 C108.52161,71.0462958 110.042047,72.2415755 112.335907,72.3002047 C115.663514,72.387203 118.281836,72.0656879 119.949411,69.3101141 C120.458739,68.4098717 121.832037,66.552649 123.269473,65.8661197 C124.071191,65.4821928 125.906657,64.6197757 125.60106,64.1469594 C125.059664,63.4471911 123.978759,63.5720146 123.199676,63.7460111 C122.607347,63.8651607 122.428139,64.9545297 121.439666,65.0320715 C119.098646,65.334674 116.825536,64.5157561 113.948779,64.6084281 C111.877513,64.6689486 110.24012,65.1512213 108.019829,65.3271089 C105.880653,65.4992141 105.135526,64.3663461 103.134057,64.1204817 Z M109.044143,60.0277832 C110.14014,60.303908 109.894909,59.3847529 110.619286,59.641965 C111.039953,59.8027226 111.1305,60.5346423 112.349113,61.0925656 C113.569613,61.6485977 114.771249,60.988546 115.869131,59.9975229 C116.563326,59.3261236 117.8706,59.371514 117.534821,58.9573269 C117.244316,58.8173732 117.029267,58.0835623 116.599169,57.9549562 C115.322076,57.5729206 115.025911,58.936523 113.729956,58.936523 C111.919014,58.9327404 111.54362,57.7677209 110.581557,57.867958 C109.791157,57.9568475 109.379921,59.165366 108.838526,59.2466905 C108.410313,59.157801 108.50086,59.8878295 109.044143,60.0277832 Z M119.773976,53.137903 C119.398583,53.0698175 119.226921,53.2627265 119.170329,53.6088281 C119.121283,53.8433451 119.225034,54.1270348 119.560813,54.1913379 C119.915456,54.2613147 120.21162,54.1421651 120.275759,53.8319974 C120.29085,53.4707658 120.098437,53.2097711 119.773976,53.137903 Z M107.244519,53.4329404 C107.246406,53.1246642 107.025697,52.8750172 106.64653,52.8655609 C106.269251,52.8655609 106.061747,53.1246642 106.057974,53.4461794 C106.057974,53.743108 106.256046,54.0230153 106.629553,54.0230153 C107.014379,54.0230153 107.240746,53.7525643 107.244519,53.4329404 Z M112.83769,96.2341695 C114.376991,96.6275518 115.810653,95.7783736 116.053999,94.6890058 C116.220001,93.8946744 115.97477,93.1741015 115.712561,92.6823732 C115.452237,92.2019912 115.180597,91.9277583 114.625996,91.574091 C114.065736,91.1788166 113.21497,91.256359 112.935783,91.3471398 L112.684891,91.4606147 C111.175773,92.0487984 110.266529,95.5722259 112.83769,96.2341695 Z M158.298001,53.6996089 C158.115021,41.5728147 153.234909,30.2460258 144.551817,21.8071994 C143.029494,20.3244472 141.412851,18.9684099 139.730183,17.729631 C140.677156,20.0294098 141.684493,22.4994025 142.93706,25.067741 C145.559154,29.9490972 146.415579,35.1784462 146.819269,38.5278774 C146.94943,39.2484495 147.079591,40.6460946 147.066387,42.465492 C145.02153,33.8243001 135.802703,30.6356266 133.348499,20.9958465 C133.348499,20.9958465 132.401526,24.7840512 138.194656,31.707974 C140.607359,34.7888455 147.824719,41.7052033 146.20053,50.0986394 C146.20053,50.0986394 146.209961,50.0835094 146.225053,50.0589228 C145.768544,52.1487712 145.087554,54.3369654 144.08965,56.472204 C143.025721,58.4750542 141.8637,60.2452786 140.118781,61.9247224 C140.850704,62.1289791 141.920291,62.456168 143.191724,63.7044032 C142.940833,65.1587863 143.127587,66.4070215 143.127587,66.4070215 C143.127587,66.4070215 141.55999,66.6642336 140.205556,68.561173 C138.038084,71.5815239 139.062399,73.4425291 139.062399,73.4425291 C139.062399,73.4425291 137.423119,74.2860335 135.927204,76.1092134 C134.785934,75.886044 133.769166,75.4264666 132.861807,74.7342633 C132.848603,74.7229159 132.833511,74.7153507 132.82408,74.7058943 C131.729969,73.8586076 130.796201,72.6784579 129.994481,71.1805756 C129.858661,71.3791585 129.713409,71.5947627 129.549291,71.8406273 C128.536296,73.2798802 128.496681,73.3366182 128.453294,74.4278784 C128.423113,79.0066321 127.406344,85.2913079 126.619716,75.3621635 C121.596237,79.6364235 117.282044,82.3276938 113.190446,82.3768675 C109.174304,82.4241492 104.977069,79.7574645 99.4348299,75.1749283 C99.3895571,77.3933826 99.3744657,79.5929243 99.3273057,82.6019282 C99.5706514,82.9972025 99.8781342,83.4643447 100.306346,84.0600936 C101.036383,85.0794856 102.087106,81.6449474 103.354766,82.3617372 C104.711086,83.135265 104.645061,85.537172 106.097589,86.6851693 C106.961559,87.354678 108.564997,83.5059532 109.410104,85.6128224 C110.326894,87.893688 111.962401,88.4137865 113.729956,89.3197021 C114.529789,88.6199341 115.684264,88.5253708 116.657646,87.3792641 C117.561231,86.3012427 118.110173,85.2024177 118.781731,84.99627 C119.817363,84.674754 120.430443,87.2393111 121.549077,86.8289063 C123.386429,86.1593976 123.063854,82.7815977 124.755954,82.3220207 C125.614266,82.0875028 125.755746,83.5702559 126.772514,83.7253393 C127.783623,83.8842053 128.753231,80.3229529 129.273879,78.842092 C129.537974,78.1101723 129.913367,77.9040243 130.475514,78.115846 C131.277233,78.4241224 131.331939,79.4983611 131.401736,81.3593663 C131.511146,83.9712034 132.712781,86.477131 134.167196,88.2227692 C135.619721,89.9665153 131.926154,88.9981876 130.475514,85.2213306 C129.581361,82.8685959 129.826593,82.8477923 129.155034,84.0600936 C129.155034,84.0600936 128.894711,84.5102149 128.536296,85.0170736 C128.694754,85.5598676 128.93244,86.1158985 129.228604,86.7891898 C130.232169,89.1116639 132.297774,91.016168 131.471531,92.2417077 C131.096139,92.6464392 130.690563,92.8355645 130.094461,92.7882829 C129.605884,92.7504584 129.177671,92.6937209 128.617411,92.114993 C128.123174,91.5873293 126.25564,89.533415 125.41242,85.6014747 C125.220009,85.3801966 125.104937,85.2005271 125.104937,85.2005271 C125.104937,85.2005271 124.552223,87.114487 123.558091,88.3608316 C124.399424,92.1357965 126.0255,93.9873458 125.60672,95.1674958 C125.442603,95.6062693 124.808773,95.9013071 124.808773,95.9013071 C124.508836,96.0526079 124.267377,96.094215 123.933484,96.0847592 C123.40718,95.995869 122.958217,95.7462223 122.622437,95.3490573 C121.873537,94.3996411 120.600219,91.97504 119.81359,88.5291534 C119.319354,88.0903799 119.028849,87.7291488 118.789276,88.1471188 C118.449724,88.7466488 118.01774,89.6317609 116.280367,90.2672263 C117.210361,90.9840167 118.013967,91.7197186 118.364837,93.0114529 L118.364837,93.0133435 C119.034509,96.0847592 116.761399,98.0233067 114.084599,98.2237812 C112.152927,98.3523864 109.813793,97.5391421 109.198827,95.7197456 C108.523497,93.4029447 109.942069,91.2941835 111.33423,90.295595 C110.053366,89.9570595 109.027166,89.0814032 108.282039,87.9863608 C108.282039,87.9863608 108.025487,88.3381361 107.576526,88.6691078 C107.572753,88.6955845 107.574639,88.7182801 107.570866,88.7447582 C107.250179,90.6795231 106.239069,93.6828522 104.77711,95.47388 C104.433786,95.8672638 103.984823,95.9750655 103.545291,95.9769575 C103.27931,95.9637177 102.990691,95.874829 102.681321,95.6838102 C102.681321,95.6838102 102.232359,95.3244712 102.034287,94.9083918 C101.464594,93.6525914 103.100101,92.3457268 104.030096,87.9352965 C103.46229,87.175007 102.956736,86.1858758 102.698299,85.2761775 C102.683209,85.2307864 102.290837,85.7660153 101.706054,86.1669628 C100.994881,88.1565745 99.6574257,90.9877993 98.2124442,92.2946639 C97.8596871,92.6105039 97.3560185,92.9414757 96.4939357,92.7334374 C93.8529771,91.9523444 96.4562071,89.8814091 97.3409285,87.9126009 C97.9747571,86.4998252 98.2105571,85.7395371 98.3935385,85.073811 C98.2294214,84.7447313 98.0728499,84.3891734 97.8634599,84.0279423 C97.7238671,83.7915339 97.6220014,83.6534715 97.4786357,83.4567796 C97.2201985,83.1201346 96.8448057,82.7551195 96.7523714,83.3414127 C96.6486199,83.974986 96.4335699,84.8506424 95.9563114,85.8189701 C95.0640457,87.6062167 92.4928842,89.5920444 91.3667042,88.8393216 C92.3702685,88.436482 94.0567085,86.4336319 94.5698085,84.6501679 C95.1432742,82.6586656 95.2885271,80.7825303 95.0791371,78.8326357 C94.9074742,77.2761241 96.4430028,78.13665 97.4578842,79.205215 L97.5031585,78.1555627 C97.5672957,77.039716 97.5729542,75.7895895 97.5842728,74.5980923 C97.5918185,74.0742117 97.3447014,73.0812974 96.7335071,72.3777467 C96.7089842,72.3474864 96.6788028,72.3077697 96.6523928,72.2756183 C94.7056299,74.6642865 92.0344899,75.7385254 88.9653199,76.2151242 C87.6769099,74.966889 86.3356799,73.7073062 86.3356799,73.7073062 C86.3356799,73.7073062 87.3298128,72.3210087 85.6414856,69.8926238 C84.0550242,67.6117576 83.4362856,67.6193227 83.4362856,67.6193227 C83.4362856,67.6193227 83.9173185,66.068485 83.4136499,63.6930555 C84.1002985,62.968701 84.9321999,62.4088864 85.9301042,62.1970646 C84.5718985,60.2093446 83.0401428,58.2310809 82.3855628,57.2570792 C78.1166428,50.9194487 78.1694628,44.4475383 79.1447299,39.793134 C79.1522756,39.8309592 79.1560485,39.8574369 79.1560485,39.8574369 C81.0047185,31.8971006 87.8202756,28.4947141 91.1667456,26.5353629 C88.7634756,27.3921062 84.1153899,28.3188263 81.1405399,32.192138 C81.5668656,29.5651703 82.1252399,26.9968318 82.6949314,25.075306 C83.3551714,22.8549604 84.0852071,20.7613296 84.9039042,18.7963047 C83.3740356,20.0180622 81.9083042,21.3457305 80.5218014,22.7793098 C68.1583471,35.554808 64.8194214,53.807411 70.3616599,69.5578698 C71.8764371,69.9172103 73.6760614,70.1101193 75.8058056,70.0552726 C75.7793956,70.0741853 75.7548728,70.0912067 75.7209171,70.1101193 C75.3360914,70.4618946 75.0154042,72.0789267 76.0416056,74.5489194 C76.7640956,76.2794273 77.7148399,77.253429 78.3656471,77.7697445 C78.3845114,77.7848746 78.4014899,77.7924396 78.4203528,77.8056785 C78.3524428,77.8718727 78.2769871,77.9380671 78.1977585,78.0080439 C77.3922656,78.7059209 76.4773628,79.2997782 75.4907771,79.7839422 C77.2111714,82.3333684 79.2088671,84.7466233 81.4989556,86.972642 C89.9934071,95.235581 101.192953,99.7859658 113.02633,99.7859658 C125.382239,99.7859658 136.923223,94.8913709 145.525199,86.0024237 C147.43612,84.0298329 149.130106,81.9097246 150.629793,79.6780313 C149.71489,79.2108887 148.862237,78.6472916 148.107679,77.9929138 C147.836037,77.7602881 147.634193,77.5503576 147.419143,77.3669049 C147.324823,76.8921972 147.175797,76.6501152 147.175797,76.6501152 C147.175797,76.6501152 148.377433,76.9432615 149.769596,74.7210246 C151.30135,72.2775096 150.116693,70.7020854 150.116693,70.7020854 C150.116693,70.7020854 150.471336,70.4429821 150.991981,70.0458163 C152.801037,70.0590552 154.362974,69.8907325 155.704204,69.5938039 C157.48685,64.5592551 158.381003,59.1994088 158.298001,53.6996089 Z M84.8661756,39.5453781 C83.1495542,41.9888931 83.0967342,44.4191693 83.0967342,44.4191693 C86.0942214,36.4153339 95.8582185,34.3084641 99.5178314,32.9505355 C108.074534,30.0966159 109.247874,26.3689316 109.247874,26.3689316 C101.509869,33.8923856 89.9971799,32.1202699 84.8661756,39.5453781 Z M106.899309,36.1184052 C104.665813,37.2815333 103.032191,38.0210181 101.706054,38.5448988 C102.351201,38.5619201 102.998236,38.6640484 103.613203,38.8853266 C104.260237,39.151995 104.760133,39.5170092 105.350576,39.8933709 C105.841039,40.1978647 106.791783,40.6687899 106.733304,41.0886507 C106.610689,41.4442087 105.414713,41.1434974 104.816724,40.9846312 C104.313056,40.8598076 104.024437,40.6593336 103.390607,40.5874655 C102.99635,40.5401838 102.43043,40.506141 102.047491,40.5288362 C101.172203,40.5723353 100.732671,40.5685528 99.8498371,40.7955046 C98.6708385,41.098107 96.4807299,42.3974065 96.2562485,41.8867648 C96.0657228,41.1945617 96.4335699,40.5704441 96.8825328,40.1278879 C96.2072028,40.3472748 95.4847114,40.6025956 94.6264014,40.9562621 C91.7024828,42.1647809 90.7743756,44.844704 90.5706442,47.7213188 C90.5310299,47.2636325 90.4857571,46.8475542 90.4385971,46.5052351 C90.3612542,44.8711817 89.9104056,44.8957681 89.9104056,44.8957681 C89.9104056,44.8957681 87.3128342,44.929811 87.1392856,48.7936662 C87.0921256,51.170987 87.5127928,51.840495 87.8598899,52.653739 C88.2522614,53.5691116 88.6974514,54.7171097 89.2765756,55.0026908 C90.2631614,55.4736159 90.6989199,55.1558833 90.8592628,54.9573004 C90.8630356,54.9762131 90.8649228,54.9932345 90.8686956,55.0121471 C90.8668085,54.997017 90.8668085,54.9837781 90.8668085,54.9667567 C91.1667456,56.3587281 91.6081642,58.6509419 91.7779399,59.379079 C92.5249528,62.6925762 93.1531242,64.2226099 94.3113728,66.2273513 C95.4733942,68.3171997 96.9447842,69.9834045 98.3463785,71.4510265 C99.1631885,72.3134436 100.855289,73.7186538 101.934307,74.5848534 C103.379289,75.7460904 104.018779,76.2624059 105.642967,77.2912544 C107.086061,78.2028442 109.732679,80.0468282 113.362109,80.0033289 C116.772717,79.9636124 118.630819,78.6227052 119.743794,77.9777837 C122.13386,76.5933774 123.37511,75.5058997 125.035141,73.947497 C126.940403,72.1583598 127.910011,71.2656825 129.064487,69.907754 C130.569833,68.1450945 131.956336,66.2670679 133.207019,61.835833 C133.678619,60.1658455 134.08608,58.2821451 134.386017,56.7540027 C134.459587,56.0807121 134.519951,55.4868548 134.574657,54.9478441 C134.853844,55.1331881 135.500879,55.3790526 136.357303,54.4807016 C137.423119,53.6107194 138.32859,51.0348158 138.283316,48.9430763 C138.251247,47.1123313 137.807944,45.0962423 136.734583,44.844704 C135.930977,44.6612513 135.598971,45.0754383 135.227351,45.8470747 C135.150009,45.2607825 135.004756,44.6631426 134.772729,43.8858324 C134.214356,42.1326293 133.748414,41.5274243 132.707123,39.5340306 C130.107666,35.760956 129.12108,34.151489 127.885489,31.7533644 C127.0102,30.0285304 126.742331,29.1944822 126.472577,28.2129154 C126.472577,28.2129154 124.097601,34.0172091 119.198624,37.6597865 C115.005161,40.7784832 111.788853,41.7846364 109.419536,41.3458629 C113.928029,37.0356689 116.214343,32.7424962 117.048131,27.9235519 C115.193801,30.5316069 112.04163,33.4441558 106.899309,36.1184052 Z M166.879227,77.1702133 C166.74718,77.3763612 166.590609,77.5598139 166.27558,77.8472863 C162.849881,80.8525071 158.416844,81.7149242 154.449749,80.9716569 C152.687853,83.7215567 150.639224,86.316373 148.315181,88.7163895 C138.975624,98.3675168 126.44428,103.683864 113.02633,103.683864 C100.176184,103.683864 88.0202342,98.7419876 78.7900871,89.7717154 C76.0246271,87.0804437 73.6421071,84.1395266 71.6444099,81.0189386 C67.7320199,81.6941203 63.3933042,80.8146818 60.0298571,77.8643077 C59.7242599,77.5787266 59.5676885,77.3971652 59.4318685,77.196691 C59.0715656,76.7465699 59.2149328,76.1848641 59.6054171,76.4250548 C60.4731599,76.9735217 62.3237171,77.3044931 62.8481356,76.975413 C63.1424142,76.7919603 62.0784856,76.6387678 61.1277399,76.1432561 C56.0099413,73.5597875 56.9342771,65.4159984 58.4471685,67.1181373 C59.5412799,68.4930873 60.9787142,69.9417967 63.7158785,69.8547986 C61.2296056,66.9554886 60.9900328,62.8798115 61.8464585,63.6041661 C62.6142228,64.4041715 63.6347642,66.0382249 65.6324599,67.464239 C61.1937642,51.1842258 65.1891556,33.0280773 77.7318185,20.0653439 C81.1028114,16.5835242 84.8869271,13.669084 88.9785242,11.3617402 C92.6607742,6.26099722 97.7483899,2.62976749 105.209096,0.734719567 C108.627249,-0.135262628 112.213291,-0.0747420203 114.271353,0.123840749 C116.016271,0.418878174 119.577791,0.653395134 121.539646,2.60139863 C121.862219,2.92858751 122.165929,3.424099 122.36966,4.15980134 C124.161739,3.37492617 125.265281,3.34088342 127.447844,3.64726833 C132.109134,4.70637696 134.706704,7.43925562 136.768539,11.2085476 C140.550767,13.3059611 144.078331,15.9177987 147.260686,19.0081265 C156.683244,28.1731989 161.98591,40.4720983 162.185869,53.6390884 C162.257551,58.4334463 161.650131,63.133241 160.406996,67.628779 C162.57824,66.1630484 163.653487,64.4230841 164.455206,63.589036 C165.31163,62.8684639 165.066399,66.9403584 162.589557,69.8415596 C165.326721,69.9304491 166.764157,68.4779572 167.856381,67.1030072 C169.369273,65.4027596 170.293609,73.5427662 165.179583,76.1300173 C164.234497,76.6255288 163.16491,76.7787214 163.457301,76.962174 C163.979833,77.2912544 165.824731,76.962174 166.70002,76.4118158 C167.079186,76.1716251 167.228211,76.7238746 166.879227,77.1702133 Z M104.411149,56.3984448 C104.411149,56.0882771 104.175349,55.8064786 103.847116,55.802696 C103.450971,55.7989136 103.301947,56.0882771 103.284969,56.4154662 C103.288741,56.7256337 103.439654,57.0301274 103.835797,57.0301274 C104.160257,57.0736265 104.411149,56.7445463 104.411149,56.3984448 Z M122.907284,54.2972488 C122.846919,54.6244376 122.978967,54.9175839 123.258154,54.9724305 C123.582614,55.0329511 123.858029,54.8135642 123.91462,54.4920491 C123.976871,54.1989029 123.786346,53.892518 123.459999,53.8319974 C123.194016,53.7828246 122.96199,54.0230153 122.907284,54.2972488 Z M106.633326,48.6612777 C105.703331,47.7742742 106.539006,45.9624419 104.60922,44.9960052 C102.541729,43.9577005 99.3329642,44.3170409 98.0502142,45.9340729 C97.5503185,46.5600818 97.0089214,47.2541762 96.6052328,48.3132848 C96.4071614,49.0187268 96.2241799,49.7487553 96.8466914,50.1156608 C97.3541328,50.3880031 98.4520171,50.9194487 99.3159871,50.6679103 C99.4216257,50.3350477 99.1330057,50.1705075 98.9500257,50.1667249 C98.4067428,50.1478124 98.0219171,49.6579745 98.0332357,49.4310228 C98.0954871,48.6877554 98.8613642,47.4830193 99.7668357,47.0026378 C100.591193,46.4163456 101.228794,46.7340781 101.47214,47.1917644 C101.455163,47.5473223 101.323114,47.8215558 101.019404,47.8858588 C100.544033,47.9917697 100.20448,47.5813651 99.8498371,47.7345576 C99.1858257,48.4343259 99.4480342,49.2740476 99.6894942,49.56152 C99.9196342,49.8508837 100.20448,49.9643596 100.2988,49.8660138 C100.74965,49.2986342 101.817351,49.3156556 102.892599,49.4026537 C103.345334,49.0773562 103.37363,48.2943721 103.503791,47.6267555 C104.267783,46.7529908 104.652607,48.5080851 105.161936,49.2097447 C105.493941,49.6598658 105.861789,50.2083329 106.310751,50.2537233 C107.089834,50.3331564 108.106603,49.7052562 107.718004,48.5572581 C107.493523,48.264112 106.88233,48.8579693 106.633326,48.6612777 Z M98.7349757,56.8164144 C98.4029699,56.8050668 98.1011471,57.1398207 98.1011471,57.4575534 C98.0973742,57.7317869 98.4067428,58.0098029 98.7217714,57.9871076 C99.0575499,57.9833252 99.4235114,57.7374606 99.4253985,57.4613359 C99.4253985,57.134147 99.0707557,56.7956105 98.7349757,56.8164144 Z M95.8846285,55.0575375 C95.5148942,55.0575375 95.3187085,55.2863806 95.3187085,55.5852006 C95.3092771,55.9748012 95.5035757,56.2263396 95.8638785,56.2263396 C96.1675885,56.2376872 96.5825957,55.9861489 96.5656185,55.5984394 C96.5731642,55.2863806 96.1751342,55.0632113 95.8846285,55.0575375 Z M101.19484,53.4272667 C100.828879,53.4234841 100.44594,53.7374342 100.44594,53.9908638 C100.442167,54.4542239 100.713809,54.6433503 101.191067,54.6509155 C101.438186,54.6528066 101.662666,54.4598976 101.790941,54.0078852 C101.800373,53.7336516 101.426867,53.4329404 101.19484,53.4272667 Z M121.126524,41.1869965 C121.583033,41.0111089 121.958426,40.8200911 122.528117,40.6971588 C122.916716,40.6158343 123.478863,40.5609878 123.863687,40.5572052 C124.744636,40.5534226 125.314329,40.5647702 126.076433,40.691485 C127.274296,40.8881766 129.534201,42.0777827 129.720954,41.553902 C129.926571,40.5799003 129.079579,39.793134 128.428771,39.4432498 C126.82722,38.5770502 124.378674,38.1307116 122.194226,39.0158238 C121.467961,39.3675991 121.215184,39.6626366 120.526649,40.1316705 C120.047504,40.4531856 119.170329,40.9789574 119.225034,41.4101658 C119.30615,41.7619413 120.551173,41.4139484 121.126524,41.1869965 Z M119.053371,50.2272456 C120.364419,50.3993506 120.564377,49.183267 121.062386,48.4872813 C121.486826,47.9066628 122.358341,47.0120942 122.824283,46.7510995 C123.246836,46.4995613 123.882551,46.3085434 124.422061,46.7340781 C124.73709,47.0064204 124.422061,47.5964953 124.190034,47.7175362 C123.592046,47.7648179 123.022354,47.545431 122.739394,47.6078428 C122.450776,47.6683634 122.028223,48.4418909 121.964084,49.404545 C122.597914,49.6636484 122.743167,49.183267 123.369451,49.1719194 C124.363583,49.1586804 125.352056,49.8149497 125.865156,49.3061992 C126.378257,48.7993401 126.370711,47.8631637 126.363166,47.4622154 C127.215817,47.4981495 127.598756,48.7085593 127.242227,49.3288944 C126.959267,49.6598658 126.266959,49.5936716 126.272619,50.2064416 C129.183331,50.7908425 129.454973,49.5747589 129.679453,48.9147073 C129.837911,48.3870442 129.777546,47.9520532 129.530429,47.2239159 C128.681549,45.0603082 126.087751,43.825312 123.769367,44.5874919 C122.918603,44.8617253 121.607556,46.0570051 121.147274,46.7548821 C120.577581,47.6154078 120.21728,49.1643543 119.485357,49.190832 C119.198624,49.0849212 119.474039,48.4475647 119.045827,48.4948463 C118.491226,48.6196699 118.151674,49.1019426 118.302586,49.674996 C118.408224,49.9643596 118.659114,50.1799639 119.053371,50.2272456 Z M128.898484,56.8277619 C128.826801,57.1681897 129.062601,57.4897049 129.44554,57.5577905 C129.768114,57.618311 130.117099,57.3894678 130.177463,57.0566051 C130.254806,56.7029384 130.003914,56.4154662 129.65493,56.3700758 C129.285196,56.2944251 128.97394,56.4532914 128.898484,56.8277619 Z M128.67023,53.4197017 C128.217494,53.3327033 127.957171,53.501026 127.885489,53.83578 C127.815691,54.1970116 127.987354,54.5676998 128.449521,54.6528066 C128.809824,54.7171097 129.030533,54.4296373 129.105989,54.0684057 C129.172013,53.7279779 129.022987,53.4840046 128.67023,53.4197017 Z M126.274504,56.7880454 C126.212253,57.1001042 125.906657,57.3516426 125.599174,57.2892308 C125.150211,57.2079064 124.937049,56.863696 124.995527,56.5535285 C125.069096,56.1658191 125.389784,55.9937139 125.81045,56.0617994 C126.138684,56.1336675 126.344301,56.4532914 126.274504,56.7880454 Z M227.047787,167.714548 L227.323201,167.714548 C227.642003,167.714548 227.904211,167.606745 227.904211,167.347642 C227.904211,167.116907 227.734436,166.963716 227.370361,166.963716 C227.215676,166.963716 227.104379,166.978845 227.047787,166.993975 L227.047787,167.714548 Z M227.030809,169.127322 L226.449799,169.127322 L226.449799,166.610048 C226.678053,166.579788 227.000627,166.532506 227.413749,166.532506 C227.887234,166.532506 228.100397,166.610048 228.270173,166.73298 C228.422971,166.840783 228.532383,167.026126 228.532383,167.2701 C228.532383,167.578376 228.302241,167.775068 228.00985,167.869631 L228.00985,167.899892 C228.255081,167.977433 228.379584,168.174125 228.45504,168.512662 C228.532383,168.896588 228.59086,169.034651 228.639907,169.127322 L228.023054,169.127322 C227.949486,169.034651 227.904211,168.819046 227.826869,168.512662 C227.77971,168.253558 227.626911,168.130626 227.30811,168.130626 L227.030809,168.130626 L227.030809,169.127322 Z M227.413749,165.810044 C226.327183,165.810044 225.485849,166.71785 225.485849,167.82235 C225.485849,168.940088 226.327183,169.830873 227.44393,169.830873 C228.532383,169.847895 229.356739,168.940088 229.356739,167.83748 C229.356739,166.71785 228.532383,165.810044 227.430726,165.810044 L227.413749,165.810044 Z M227.44393,165.306966 C228.870047,165.306966 230,166.409574 230,167.82235 C230,169.237016 228.870047,170.354754 227.430726,170.354754 C225.987631,170.354754 224.844474,169.237016 224.844474,167.82235 C224.844474,166.409574 225.987631,165.306966 227.430726,165.306966 L227.44393,165.306966 Z M144.70273,141.391915 C143.474684,143.95647 142.07875,146.237337 140.541334,148.175883 C139.019011,150.110648 137.440096,151.652029 135.855521,152.769767 C134.476564,153.747552 133.323976,154.502167 132.377003,154.331953 C131.767697,154.180651 131.848811,153.100739 131.924267,152.404754 C132.139317,150.418925 132.77126,148.404727 133.810666,146.428355 C134.863276,144.404701 136.164891,142.515326 137.677783,140.815079 C139.211424,139.124288 140.882773,137.711512 142.648441,136.614577 C144.029286,135.754053 145.40447,135.154521 146.741926,134.829224 C146.36276,137.123328 145.676111,139.328545 144.70273,141.391915 Z M161.223806,96.396818 C157.266141,95.7689178 154.406361,98.7911599 153.150021,101.768012 C152.71049,102.81199 152.580329,103.34911 152.152116,104.697582 C151.723904,106.021469 151.557901,107.023838 151.229667,108.391223 C150.999527,109.374681 150.642997,110.904716 150.495859,111.578006 C150.222331,112.816785 150.192149,113.009694 149.841279,114.88583 C149.497954,116.743052 149.271586,117.985613 149.024467,119.632905 C148.835829,120.883032 148.645301,121.919445 148.454776,123.173355 C145.61386,123.846645 142.703147,124.985186 139.809413,126.55872 C136.681764,128.257076 133.772937,130.484987 131.156503,133.178149 C128.52875,135.87131 126.25564,139.05242 124.408857,142.619347 C122.535663,146.231663 121.351006,150.271406 120.879406,154.621317 C120.822814,155.154653 120.786971,155.725816 120.764336,156.323456 C120.398374,156.003832 120.036186,155.655839 119.74568,155.220848 C119.191079,154.388691 118.793049,153.435493 118.523294,152.272364 C118.259199,151.133823 118.095081,149.700244 118.108287,148.576832 C118.119604,147.343728 118.164879,146.547504 118.255426,145.732369 C118.355404,144.798084 118.47802,143.924319 118.638364,143.122423 C118.732684,142.602324 118.796821,142.120052 118.86096,141.652909 C118.906233,141.340851 118.942074,141.034465 118.993007,140.735646 C119.560813,137.255717 119.809817,134.921896 119.466493,132.546467 C119.240126,130.972933 117.97058,127.9488 114.793884,127.846672 C114.548653,127.839107 114.286444,127.846672 114.012916,127.87504 C111.877513,128.077406 109.372376,129.253773 107.838734,130.318556 C105.801424,131.740788 103.892389,133.516685 102.162561,135.591403 C101.42498,136.468951 100.842083,137.261391 100.361051,138.010332 C100.664761,137.072264 101.070337,136.137979 101.464594,135.224499 C101.70794,134.664684 101.947513,134.106761 102.168221,133.545054 C102.190859,133.478861 102.219154,133.410774 102.24745,133.342689 C102.768096,132.024476 103.307606,130.662766 103.430221,129.563941 C103.5302,128.578591 103.381176,127.772912 102.968054,127.179055 C102.630389,126.689217 102.207836,126.32042 101.696621,126.070773 C101.204271,125.849495 100.70249,125.739801 100.21014,125.739801 C99.8611557,125.728455 99.5555599,125.736018 99.3480557,125.751149 C98.1237828,125.860843 97.0240128,126.239096 96.0921328,126.857539 C95.2772085,127.390876 94.5830142,127.962039 93.9435242,128.625873 C93.3096942,129.361575 92.7569799,130.118082 92.3212228,130.867022 C91.6458914,131.956391 91.0139485,133.444817 90.3952099,135.417407 C89.8236314,137.250043 89.2728028,139.296392 88.7540428,141.486478 C88.2503742,143.61037 87.7882071,145.800455 87.3750856,148.001887 C86.9713971,150.17306 86.6771185,152.083239 86.5035699,153.673792 C86.2941799,155.623688 86.1432671,157.514953 86.0564928,159.304091 C85.9546285,161.159421 85.9904699,162.852104 86.1545856,164.319726 C86.3319071,165.883802 86.7073014,167.156623 87.2788799,168.109822 C87.9957114,169.293755 89.1690499,169.84033 90.6913742,169.687137 C90.7158971,169.685247 90.7385342,169.681464 90.7611714,169.679572 C91.0497899,169.641748 92.0326028,169.499902 92.9531656,169.178386 C93.8058171,168.88335 95.0998871,167.954739 96.1977699,166.233687 C96.8278271,165.248337 97.4710899,162.649739 98.2463985,159.353263 C98.4293799,158.598648 98.5934957,157.902663 98.7293171,157.350413 C101.762646,145.486504 106.161726,142.995708 108.33863,142.539914 C108.189604,143.88082 108.03492,145.219836 107.885894,146.553179 C107.782143,148.302598 107.655754,149.853436 107.618026,151.691746 C107.668959,155.173566 108.010397,157.163178 108.431063,158.888011 C108.912094,160.85871 109.800589,163.243596 110.881494,164.484266 C112.154814,165.948106 113.380973,166.905086 115.593717,166.774589 C115.60315,166.774589 115.614469,166.774589 115.625787,166.770806 C115.633331,166.770806 115.642764,166.770806 115.65031,166.768914 C116.610486,166.638417 117.099063,166.553311 118.13281,166.120211 C119.183533,165.615242 119.675883,165.248337 120.5889,164.363225 C121.241594,163.729651 121.637737,163.118772 121.907493,162.511677 C122.311181,163.247379 122.818623,163.903648 123.439249,164.463463 C124.414516,165.337227 125.814223,165.747632 127.59121,165.690893 C127.630826,165.689002 127.67044,165.68711 127.713827,165.681437 C127.911899,165.671981 128.340111,165.62659 129.713409,165.441246 C130.967864,165.271032 132.497733,164.775521 134.261514,163.975515 C135.983797,163.19064 137.949424,161.968883 140.111236,160.342394 C141.624127,159.198179 143.186066,157.709753 144.76498,155.907378 C144.610296,158.435999 144.483907,160.839797 145.585564,164.145729 C146.0383,165.509331 146.626856,166.623287 147.543646,167.880979 C148.566073,169.263494 150.128011,169.968935 152.193617,169.985958 L152.212481,169.985958 C152.295483,169.980283 152.370939,169.9765 152.450167,169.967045 C153.43298,169.804396 154.247904,169.549075 154.93644,169.187844 C155.63818,168.813373 156.302193,168.272471 156.907726,167.580268 C157.635876,166.742438 158.069747,165.664416 158.213114,164.363225 C158.252729,163.975515 158.231977,163.525394 158.145203,162.990167 C158.056543,162.468178 157.79622,162.069121 157.518919,161.647368 C157.409509,161.480937 157.290666,161.303158 157.175594,161.104574 C156.488946,159.903621 156.055074,158.912597 155.857003,158.069094 C155.338243,155.873334 155.206194,154.02935 155.304287,150.477554 C155.349561,148.779198 155.479723,146.918192 155.619316,145.149859 C155.75325,143.413678 155.94755,141.637779 156.153167,139.75597 C156.283329,138.537995 156.417263,137.312455 156.551197,136.090698 C156.59647,135.651924 156.637971,135.275563 156.683244,134.944591 C156.762473,134.946482 156.845476,134.946482 156.93225,134.946482 C157.84338,134.959722 158.794124,134.645771 159.742983,133.993284 C160.861617,133.212191 161.538834,131.795634 161.757656,129.779545 C161.942523,128.056602 161.518084,126.655174 160.495656,125.614978 C159.867486,124.994643 159.163859,124.459415 158.411186,124.022533 C158.52437,123.371937 158.630007,122.757276 158.709237,122.193679 C158.824307,121.471216 158.941263,120.841424 159.061993,120.319435 C159.139336,119.956312 159.211019,119.593188 159.286474,119.224392 C159.344953,118.912333 159.399659,118.600275 159.467569,118.301454 C159.480773,118.235261 160.727683,112.417728 163.215841,103.751949 C163.619531,102.342956 163.804399,101.264935 163.900604,100.355236 C164.043971,99.0256777 163.71951,96.7920924 161.223806,96.396818 Z M196.905029,126.936973 C197.104987,127.744543 197.144601,128.737457 197.027644,129.968671 C196.916347,131.11667 196.697524,132.397056 196.373064,133.789027 C196.35986,133.843874 194.584759,140.828317 193.883019,144.170183 C193.324644,146.833085 192.979434,148.909695 192.577631,151.319167 C192.568199,151.368341 192.560654,151.425078 192.551221,151.47236 C192.166396,153.828876 191.568409,159.048769 191.217539,162.734845 C190.534661,169.859243 190.372431,171.553817 188.423783,177.042269 C186.429859,182.651762 181.872321,186.369991 179.742577,187.56527 C175.890551,189.725095 171.54995,190.846616 166.833954,190.941179 C166.816976,190.941179 166.805659,190.941179 166.79434,190.94307 C166.783021,190.941179 166.771703,190.939287 166.758499,190.937396 C166.53779,190.910918 166.281239,190.893897 166.009599,190.874984 C165.504043,190.840941 164.921146,190.801225 164.360886,190.700988 C159.407204,189.808311 156.54931,186.657462 157.083161,182.574221 C157.362349,180.440873 159.026151,179.137791 161.165327,179.461197 C163.170569,179.797843 165.026784,179.960491 166.701906,179.941579 C171.842341,179.884841 175.369906,178.177027 177.480786,174.629014 C179.680326,170.935372 179.948194,168.505097 180.319816,165.142427 C180.368861,164.709327 180.416021,164.255423 180.46884,163.786389 C180.678231,162.05399 180.836689,160.444523 181.000804,158.759406 C180.167017,159.862014 179.357751,160.792515 178.57301,161.543348 C176.98655,163.05636 175.528364,164.215706 174.230521,164.989234 C172.678016,165.898932 171.161351,166.434161 169.72203,166.577897 C169.706939,166.577897 169.689961,166.58168 169.676756,166.579788 C169.656006,166.577897 169.639029,166.577897 169.623937,166.577897 C167.26028,166.524942 165.438019,165.613352 164.196769,163.858256 C163.106431,162.341462 162.266984,160.42561 161.712383,158.165548 C161.172873,155.962225 160.888027,153.605707 160.869163,151.145171 C160.84464,148.754611 160.931414,146.515353 161.125713,144.487917 C161.731247,138.184329 163.027203,133.157345 164.975851,129.571505 C167.137664,125.580935 169.888033,123.557281 173.145843,123.631041 C173.315619,123.631041 173.564623,123.661301 174.02679,123.712365 C174.615347,123.79369 175.126561,123.990382 175.57741,124.296766 C176.073533,124.61639 176.477221,125.091097 176.805456,125.743584 C177.146893,126.426331 177.258191,127.269836 177.160099,128.315706 C177.060119,129.374814 176.663976,130.543617 175.947144,131.873175 C175.298223,133.108172 174.68703,134.502035 174.136201,136.015047 C173.668374,137.312455 173.18923,138.874641 172.71763,140.642973 C172.242257,142.37159 171.908366,144.232595 171.729157,146.176816 C171.69143,146.486984 171.642383,147.162166 171.582019,148.255316 C171.52354,149.132865 171.531086,150.042563 171.608429,151.05439 C171.674451,151.920589 171.842341,152.660075 172.100779,153.255822 C172.240371,153.605707 172.694993,153.842116 172.836473,153.872375 C173.028886,153.915874 173.23639,153.959373 173.496713,153.959373 C173.953221,153.957482 174.422934,153.808072 174.886989,153.514926 C175.245404,153.287975 176.113147,152.544707 177.129916,151.167866 C177.846747,150.199538 179.216273,148.172101 180.346224,145.484613 C180.874416,144.228813 181.55352,142.174898 182.268464,140.001835 C183.073957,137.550754 184.490641,132.748832 185.305566,130.730851 C185.828099,129.446682 186.407223,128.315706 187.071234,127.277401 C187.671109,126.343115 188.653923,125.376679 189.4198,124.873602 C190.568617,124.111422 191.836277,123.716147 193.256734,123.789907 C193.583081,123.806928 193.92452,123.884471 194.375369,124.001728 C194.982789,124.160596 195.507207,124.484002 195.944851,124.964383 C196.367406,125.418287 196.686207,126.063208 196.905029,126.936973 Z M199.393189,125.902451 C199.253594,125.327506 199.153616,124.614499 199.42903,123.655627 C199.553531,123.230092 199.953449,122.233396 200.185476,121.297219 C200.462776,120.066005 200.57596,118.829118 200.274136,117.681119 C200.011927,116.671184 199.949676,115.197889 200.226976,114.358166 C200.657074,113.081562 201.836074,112.398815 202.675521,112.258862 C203.945067,112.041367 205.207067,112.126473 206.276656,112.656027 C207.446223,113.22908 208.440354,114.628618 208.691246,115.638553 C209.225096,117.770009 208.985523,119.475931 208.736519,120.841424 C208.444127,122.466022 207.768797,123.948773 207.042533,125.164857 C206.529433,126.029166 205.665463,126.779998 204.924107,127.313335 C204.018637,127.963929 202.526496,128.211685 200.957013,127.638632 C200.238294,127.377638 199.527123,126.426331 199.393189,125.902451 Z M225.495281,156.060569 C225.118001,158.789665 224.008799,161.057292 222.207289,162.814278 C220.528394,164.448332 218.568427,165.751414 216.397183,166.683808 C214.254234,167.593506 212.052807,168.193038 209.849494,168.471053 C207.855571,168.715027 206.112539,168.769874 204.680763,168.626137 C204.546829,168.616681 204.416667,168.597768 204.292164,168.582638 C200.823079,168.136299 198.461307,167.033691 197.084237,165.168904 C195.710939,163.311681 195.156337,161.388264 195.426093,159.440261 C195.74678,157.132917 196.952189,156.011397 197.906706,155.483733 C199.066841,154.833139 200.070406,154.555122 200.977763,154.632664 C201.009831,154.636447 201.04756,154.638338 201.083401,154.647795 C201.990759,154.753706 203.03771,155.218956 204.27896,156.068134 C205.11652,156.648753 206.233269,157.034571 207.597134,157.214241 C209.445804,157.452541 210.845511,157.354195 211.743437,156.904074 C212.396131,156.593906 212.773411,156.249696 212.816799,155.930072 C212.839436,155.788227 212.877163,155.498864 212.377267,155.022266 C211.769847,154.441647 210.941719,153.876157 209.909859,153.352278 C208.817634,152.800028 207.621657,152.228865 206.2427,151.600965 C204.824129,150.969284 203.511196,150.220342 202.33597,149.38062 C201.06265,148.482269 200.034563,147.421269 199.268686,146.233555 C198.399056,144.862386 198.089687,143.243464 198.34435,141.416501 C198.63297,139.324762 199.555419,137.166827 201.06831,135.010784 C202.513291,132.962545 204.305369,131.10154 206.403044,129.495854 C208.493173,127.903409 210.817216,126.640044 213.316694,125.747366 C215.906719,124.831995 218.475993,124.54263 220.947174,124.913318 C223.32781,125.266986 225.167047,126.354463 226.400753,128.130362 C227.626911,129.923282 228.03626,132.395164 227.61182,135.472253 C227.40243,136.956897 226.866693,138.311043 226.015927,139.510106 C225.293436,140.512476 223.920139,141.656692 221.394251,141.255743 C219.677629,140.99664 218.989093,140.066137 218.713679,139.326653 C218.47222,138.719556 218.277921,138.057614 218.134554,137.372975 C218.036463,136.920963 218.010053,136.332779 217.715774,136.026395 C217.54034,135.87131 217.191356,135.752161 216.76503,135.784312 C216.76503,135.784312 216.374546,135.763509 215.521893,136.007482 C214.77488,136.238216 214.024093,136.569188 213.307261,136.985266 C212.560249,137.416474 211.881144,137.959268 211.294474,138.587168 C210.826649,139.090244 210.549347,139.616016 210.456914,140.156918 C210.413527,140.410347 210.389004,140.856686 210.941719,141.390023 C211.620821,142.038728 212.50177,142.691214 213.561926,143.330462 C214.629627,143.982949 215.852013,144.639218 217.310199,145.335203 C218.840069,146.061449 220.222797,146.897389 221.407456,147.81276 C222.677001,148.779198 223.72018,149.902609 224.512467,151.139497 C225.419826,152.561729 225.753717,154.216586 225.495281,156.060569 Z M76.0416056,144.635435 C74.8607199,146.471854 73.6817214,147.897868 72.4253799,148.994802 C71.0275585,150.224125 69.9843799,150.887959 68.6469242,151.623661 C68.0640271,151.945177 67.5867685,152.126738 67.1811928,152.238322 C67.3811499,151.139497 67.7471114,149.669984 68.2583256,148.448226 C69.0147714,146.632612 69.9843799,144.843475 71.1369699,143.129988 C72.5027214,141.112007 73.6081514,139.788122 74.7343314,138.836815 C75.5171856,138.176763 76.2019485,137.779597 76.7169356,137.692599 C77.8657528,137.495908 77.9223442,138.982443 77.9204571,139.279371 C77.9072528,141.074181 76.9018028,143.283181 76.0416056,144.635435 Z M83.6419042,129.590418 C82.7175685,128.954952 81.6762771,128.586156 80.5538699,128.499158 C79.5918071,128.434855 78.4184671,128.484028 77.5507242,128.625873 C77.5299728,128.627765 77.5092228,128.631547 77.4884728,128.635328 C75.6209385,128.95117 73.6704028,129.611223 72.2857856,130.379076 C70.8653285,131.152604 69.4825985,132.14741 68.1753242,133.344581 C67.0717814,134.354515 65.7946899,135.58573 64.7062385,137.038222 C63.9988385,137.983854 62.6481771,139.89025 61.5540656,142.010358 C60.0751299,144.868061 58.7867199,148.194796 57.6228128,152.158889 C56.8946628,152.158889 55.3025428,151.835483 54.5743928,151.691746 C54.0594056,151.589619 53.8801985,151.555575 53.7688999,151.551793 C53.6519442,151.54801 53.5576242,151.54612 53.4614171,151.544228 C56.8342985,137.478886 59.1847499,129.512877 60.9070313,123.992272 C61.8407985,121.29911 62.7745656,118.605948 63.7064471,115.910895 C64.4402556,114.388427 64.8797871,112.300469 64.8099899,111.334032 C64.6194628,108.514156 62.6783599,105.664019 59.2262513,106.429981 C55.5609785,107.241334 53.4067128,111.918433 50.4903399,122.223939 C48.0342499,130.902957 46.6402013,136.427343 44.6462785,145.802345 C43.7823085,150.074714 42.9221099,154.345192 42.0675728,158.619452 C41.9374099,159.260591 41.8091356,159.903621 41.6865199,160.542869 C41.3941285,161.872429 41.2394428,162.254463 40.7697299,162.360375 C40.5358171,162.413331 40.2396528,162.250681 40.1076042,161.707888 C39.8020085,160.512608 39.5473442,158.040725 39.3643628,154.869073 C39.1342228,147.568788 38.5268028,139.999944 38.7890113,130.424466 C38.9418099,124.953035 38.9342642,124.073597 38.5777356,122.670277 C37.8873142,119.961986 34.5370699,118.348736 30.883117,119.277347 C27.232936,120.204068 26.1614619,124.319462 24.0524686,129.923282 C22.6301243,133.722833 20.473971,140.474651 18.3310226,147.024104 C16.3238949,153.808072 13.9602379,162.118293 13.9602379,162.118293 C13.8093259,162.695129 13.667846,163.266292 13.5188206,163.841236 C13.3735679,164.414289 13.2302018,164.989234 13.0830626,165.564178 C12.5624168,166.969389 12.3775496,167.247404 12.028566,167.347642 C11.6758095,167.445988 11.4777378,167.154733 11.370213,166.727307 C11.1513908,165.876237 11.1853459,160.431284 11.2513699,157.562235 C11.389077,151.712551 11.9549965,145.357898 12.5001656,139.674645 C12.8114213,135.574382 13.8621452,128.404595 14.17906,124.302441 C14.2884712,123.065552 14.3959959,121.764362 14.4261782,120.886815 C14.4940885,118.273085 14.316767,117.013502 13.1792689,115.719878 C11.398509,114.150126 9.22726461,114.267385 6.72212761,114.838548 C2.68712175,115.759594 -0.331115537,118.261738 0.0291866059,119.636688 C0.0820057487,119.844727 0.29328232,120.045202 0.500786178,120.345913 C1.11197918,121.234807 1.42889404,121.735993 1.67789861,122.634343 C1.96463118,123.691561 2.10799746,125.153509 2.09856546,127.513809 C2.00990475,129.630134 1.92124404,131.750243 1.83446975,133.86846 C1.32702861,140.259047 0.555491749,151.774961 0.34987432,159.650191 C0.168780034,166.453073 0.398920606,171.173671 0.932771321,177.902795 C1.20629903,181.282487 1.91747118,184.041842 2.30229646,185.526486 C2.98517261,188.185605 4.33017461,191.139761 6.66364932,191.729836 C8.3953629,192.170501 9.72904647,192.06459 12.0040428,191.466951 C14.0998313,190.920374 17.267094,188.913741 17.9669478,185.755329 C18.8573278,182.235684 19.7533669,178.716039 20.6456333,175.192611 C21.4435798,171.434667 23.2432038,164.779304 24.7806183,158.999596 C25.6596799,155.563166 26.8141556,151.714441 27.4310079,149.719157 C27.8007419,148.70922 27.9818362,148.436878 28.2157496,148.376358 C28.4534358,148.315838 28.5986885,148.391488 28.6496212,148.612766 C28.6798036,148.720568 28.7137588,148.879434 28.7194179,149.253905 C28.7307363,149.490313 28.7382819,149.726722 28.7458275,149.965021 C28.762805,150.685594 28.7797826,151.406165 28.7986466,152.132411 C28.9684225,159.198179 30.322857,171.362798 31.5886299,176.336827 C32.4167585,179.589803 32.6525585,183.610634 37.6552871,184.348228 C39.9661242,184.69622 41.8864785,184.039951 41.8864785,184.039951 C45.5762728,182.916539 46.5326771,180.783192 47.3589199,177.15007 C47.8984285,174.844619 49.5660056,168.503205 50.4790213,164.419963 C50.7582085,163.183076 51.0279642,161.989686 51.2920599,160.820886 C51.9692771,161.040272 55.0422199,161.518761 56.3230842,161.628455 C56.3419485,162.018056 56.3589256,162.224204 56.3985399,162.470068 C56.4324956,162.708367 56.4664499,162.916407 56.4909728,163.120664 C56.5381328,163.434613 56.5758613,163.722086 56.6418856,164.036035 C56.7324328,164.44644 56.8192071,164.856845 56.9078671,165.263467 C57.4436042,167.400597 58.2736199,169.221886 59.3696171,170.67816 C60.4335456,172.100392 61.5352028,173.063047 63.0612985,173.902768 C64.5062799,174.693316 66.9831199,175.04131 69.3316856,174.797337 C69.6655785,174.785989 69.9692885,174.759511 70.2918628,174.700882 C70.3522285,174.693316 70.4163656,174.680078 70.4748442,174.66684 C70.6351871,174.634688 70.7917585,174.602536 70.9539885,174.572276 C70.9577614,174.566602 70.9615342,174.559037 70.9615342,174.551473 C71.3067456,174.47393 71.7330714,174.368019 72.0631914,174.275348 C75.7492128,173.208674 80.4953914,169.925436 82.2063542,165.112166 C82.8741399,163.217118 82.5006328,162.031295 82.0724199,161.369351 C81.6008214,160.65067 80.8255114,160.210006 80.0426556,160.225137 C79.7747871,160.232702 79.5163499,160.255396 79.2616871,160.298895 C77.6582485,160.556107 76.4415214,161.469589 75.3700471,162.273376 C74.4042114,163.001515 73.4930814,163.688043 72.3536971,163.909321 C71.0577414,164.157077 70.1749071,164.126816 69.4222328,163.754237 C68.5884456,163.341942 68.3054856,163.035556 67.9659342,162.180705 C67.7622028,161.671954 67.6527914,161.091336 67.5584714,160.334829 C69.6523742,159.793928 72.0726228,158.727255 74.0231585,157.456324 C76.2491085,156.005724 78.2826456,154.233607 80.0577471,152.189149 C81.8234156,150.1428 83.3042385,147.882738 84.4530542,145.452462 C85.5509385,143.128096 86.3545442,140.049116 86.5412985,137.40891 C86.6884371,135.385255 86.4752742,133.711486 85.9074685,132.43299 C85.3264571,131.167734 84.5624656,130.208862 83.6419042,129.590418 Z"></path>
        </g>
        <rect id="Rectangle" fill-opacity="0" fill="#FFFFFF" x="0" y="0" width="450" height="300"></rect>
    </g>
</svg>